<svg id="eSCAF9RI5181" xmlns="http://www.w3.org/2000/svg" xmlns:xlink="http://www.w3.org/1999/xlink" viewBox="0 0 575 707" shape-rendering="geometricPrecision" text-rendering="geometricPrecision" project-id="9ba3c2890d0b40a0a6bb8a1a482ef9bb" export-id="fc81c78034dc4ccf8a099d0c56acbdfe" cached="false">
<style><![CDATA[
#eSCAF9RI5184 {animation-name: eSCAF9RI5184_c_o, eSCAF9RI5184_s_do;animation-duration: 3500ms;animation-fill-mode: forwards;animation-timing-function: linear;animation-direction: normal;animation-iteration-count: infinite;}@keyframes eSCAF9RI5184_c_o { 0% {opacity: 1} 67.428571% {opacity: 1} 74.285714% {opacity: 0} 100% {opacity: 0}}@keyframes eSCAF9RI5184_s_do { 0% {stroke-dashoffset: 89.86} 29.714286% {stroke-dashoffset: 89.86} 33.142857% {stroke-dashoffset: 0} 100% {stroke-dashoffset: 0}} #eSCAF9RI5186 {animation-name: eSCAF9RI5186_c_o, eSCAF9RI5186_s_do;animation-duration: 3500ms;animation-fill-mode: forwards;animation-timing-function: linear;animation-direction: normal;animation-iteration-count: infinite;}@keyframes eSCAF9RI5186_c_o { 0% {opacity: 1} 67.428571% {opacity: 1} 74.285714% {opacity: 0} 100% {opacity: 0}}@keyframes eSCAF9RI5186_s_do { 0% {stroke-dashoffset: 53.86} 29.714286% {stroke-dashoffset: 53.86} 33.714286% {stroke-dashoffset: 0} 100% {stroke-dashoffset: 0}} #eSCAF9RI5188 {animation-name: eSCAF9RI5188_c_o, eSCAF9RI5188_s_do;animation-duration: 3500ms;animation-fill-mode: forwards;animation-timing-function: linear;animation-direction: normal;animation-iteration-count: infinite;}@keyframes eSCAF9RI5188_c_o { 0% {opacity: 1} 67.428571% {opacity: 1} 74.285714% {opacity: 0} 100% {opacity: 0}}@keyframes eSCAF9RI5188_s_do { 0% {stroke-dashoffset: 21} 29.714286% {stroke-dashoffset: 21} 36.571429% {stroke-dashoffset: 0} 100% {stroke-dashoffset: 0}} #eSCAF9RI51810 {animation-name: eSCAF9RI51810_c_o, eSCAF9RI51810_s_do;animation-duration: 3500ms;animation-fill-mode: forwards;animation-timing-function: linear;animation-direction: normal;animation-iteration-count: infinite;}@keyframes eSCAF9RI51810_c_o { 0% {opacity: 1} 67.428571% {opacity: 1} 74.285714% {opacity: 0} 100% {opacity: 0}}@keyframes eSCAF9RI51810_s_do { 0% {stroke-dashoffset: 53.86} 31.142857% {stroke-dashoffset: 53.86} 34.857143% {stroke-dashoffset: 0} 100% {stroke-dashoffset: 0}} #eSCAF9RI51812 {animation-name: eSCAF9RI51812_c_o, eSCAF9RI51812_s_do;animation-duration: 3500ms;animation-fill-mode: forwards;animation-timing-function: linear;animation-direction: normal;animation-iteration-count: infinite;}@keyframes eSCAF9RI51812_c_o { 0% {opacity: 1} 67.428571% {opacity: 1} 74.285714% {opacity: 0} 100% {opacity: 0}}@keyframes eSCAF9RI51812_s_do { 0% {stroke-dashoffset: 86.86} 29.142857% {stroke-dashoffset: 86.86} 33.142857% {stroke-dashoffset: 0} 100% {stroke-dashoffset: 0}} #eSCAF9RI51814 {animation-name: eSCAF9RI51814_c_o, eSCAF9RI51814_s_do;animation-duration: 3500ms;animation-fill-mode: forwards;animation-timing-function: linear;animation-direction: normal;animation-iteration-count: infinite;}@keyframes eSCAF9RI51814_c_o { 0% {opacity: 1} 67.428571% {opacity: 1} 74.285714% {opacity: 0} 100% {opacity: 0}}@keyframes eSCAF9RI51814_s_do { 0% {stroke-dashoffset: 89.86} 23.714286% {stroke-dashoffset: 89.86} 27.428571% {stroke-dashoffset: 0} 100% {stroke-dashoffset: 0}} #eSCAF9RI51816 {animation-name: eSCAF9RI51816_c_o, eSCAF9RI51816_s_do;animation-duration: 3500ms;animation-fill-mode: forwards;animation-timing-function: linear;animation-direction: normal;animation-iteration-count: infinite;}@keyframes eSCAF9RI51816_c_o { 0% {opacity: 1} 67.428571% {opacity: 1} 74.285714% {opacity: 0} 100% {opacity: 0}}@keyframes eSCAF9RI51816_s_do { 0% {stroke-dashoffset: 53.86} 24% {stroke-dashoffset: 53.86} 28.285714% {stroke-dashoffset: 0} 100% {stroke-dashoffset: 0}} #eSCAF9RI51818 {animation-name: eSCAF9RI51818_c_o, eSCAF9RI51818_s_do;animation-duration: 3500ms;animation-fill-mode: forwards;animation-timing-function: linear;animation-direction: normal;animation-iteration-count: infinite;}@keyframes eSCAF9RI51818_c_o { 0% {opacity: 1} 67.428571% {opacity: 1} 74.285714% {opacity: 0} 100% {opacity: 0}}@keyframes eSCAF9RI51818_s_do { 0% {stroke-dashoffset: 21.01} 24.571429% {stroke-dashoffset: 21.01} 29.142857% {stroke-dashoffset: 0} 100% {stroke-dashoffset: 0}} #eSCAF9RI51820 {animation-name: eSCAF9RI51820_c_o, eSCAF9RI51820_s_do;animation-duration: 3500ms;animation-fill-mode: forwards;animation-timing-function: linear;animation-direction: normal;animation-iteration-count: infinite;}@keyframes eSCAF9RI51820_c_o { 0% {opacity: 1} 67.428571% {opacity: 1} 74.285714% {opacity: 0} 100% {opacity: 0}}@keyframes eSCAF9RI51820_s_do { 0% {stroke-dashoffset: 53.86} 24.285714% {stroke-dashoffset: 53.86} 28% {stroke-dashoffset: 0} 100% {stroke-dashoffset: 0}} #eSCAF9RI51822 {animation-name: eSCAF9RI51822_c_o, eSCAF9RI51822_s_do;animation-duration: 3500ms;animation-fill-mode: forwards;animation-timing-function: linear;animation-direction: normal;animation-iteration-count: infinite;}@keyframes eSCAF9RI51822_c_o { 0% {opacity: 1} 67.428571% {opacity: 1} 74.285714% {opacity: 0} 100% {opacity: 0}}@keyframes eSCAF9RI51822_s_do { 0% {stroke-dashoffset: 86.86} 24.285714% {stroke-dashoffset: 86.86} 28% {stroke-dashoffset: 0} 100% {stroke-dashoffset: 0}} #eSCAF9RI51824 {animation-name: eSCAF9RI51824_c_o, eSCAF9RI51824_s_do;animation-duration: 3500ms;animation-fill-mode: forwards;animation-timing-function: linear;animation-direction: normal;animation-iteration-count: infinite;}@keyframes eSCAF9RI51824_c_o { 0% {opacity: 1} 48.571429% {opacity: 1} 53.428571% {opacity: 0} 100% {opacity: 0}}@keyframes eSCAF9RI51824_s_do { 0% {stroke-dashoffset: 346.06} 36.857143% {stroke-dashoffset: 346.06;animation-timing-function: cubic-bezier(0,0,0.58,1)} 48.571429% {stroke-dashoffset: 0} 100% {stroke-dashoffset: 0}} #eSCAF9RI51826 {animation-name: eSCAF9RI51826_c_o, eSCAF9RI51826_s_do;animation-duration: 3500ms;animation-fill-mode: forwards;animation-timing-function: linear;animation-direction: normal;animation-iteration-count: infinite;}@keyframes eSCAF9RI51826_c_o { 0% {opacity: 1} 61.714286% {opacity: 1} 65.428571% {opacity: 0} 100% {opacity: 0}}@keyframes eSCAF9RI51826_s_do { 0% {stroke-dashoffset: 158.4} 55.428571% {stroke-dashoffset: 158.4;animation-timing-function: cubic-bezier(0,0,0.58,1)} 61.714286% {stroke-dashoffset: 0} 100% {stroke-dashoffset: 0}} #eSCAF9RI51828 {animation-name: eSCAF9RI51828_c_o, eSCAF9RI51828_s_do;animation-duration: 3500ms;animation-fill-mode: forwards;animation-timing-function: linear;animation-direction: normal;animation-iteration-count: infinite;}@keyframes eSCAF9RI51828_c_o { 0% {opacity: 1} 55.142857% {opacity: 1} 62% {opacity: 0} 100% {opacity: 0}}@keyframes eSCAF9RI51828_s_do { 0% {stroke-dashoffset: 313.02} 42.571429% {stroke-dashoffset: 313.02;animation-timing-function: cubic-bezier(0,0,0.58,1)} 55.142857% {stroke-dashoffset: 0} 100% {stroke-dashoffset: 0}} #eSCAF9RI51830 {animation-name: eSCAF9RI51830_c_o, eSCAF9RI51830_s_do;animation-duration: 3500ms;animation-fill-mode: forwards;animation-timing-function: linear;animation-direction: normal;animation-iteration-count: infinite;}@keyframes eSCAF9RI51830_c_o { 0% {opacity: 1} 58.571429% {opacity: 1} 61.714286% {opacity: 0} 100% {opacity: 0}}@keyframes eSCAF9RI51830_s_do { 0% {stroke-dashoffset: 304.14} 49.428571% {stroke-dashoffset: 304.14;animation-timing-function: cubic-bezier(0,0,0.58,1)} 58.571429% {stroke-dashoffset: 0} 100% {stroke-dashoffset: 0}} #eSCAF9RI51832 {animation-name: eSCAF9RI51832_c_o, eSCAF9RI51832_s_do;animation-duration: 3500ms;animation-fill-mode: forwards;animation-timing-function: linear;animation-direction: normal;animation-iteration-count: infinite;}@keyframes eSCAF9RI51832_c_o { 0% {opacity: 1} 67.428571% {opacity: 1} 74.285714% {opacity: 0} 100% {opacity: 0}}@keyframes eSCAF9RI51832_s_do { 0% {stroke-dashoffset: 360} 22.857143% {stroke-dashoffset: 0} 100% {stroke-dashoffset: 0}} #eSCAF9RI51892 {animation: eSCAF9RI51892_f_p 3500ms linear infinite normal forwards}@keyframes eSCAF9RI51892_f_p { 0% {fill: #fdf9df} 35.714286% {fill: #fdf9df} 37.142857% {fill: #edb034} 67.428571% {fill: #edb034} 74.285714% {fill: #fdf9df} 100% {fill: #fdf9df}} #eSCAF9RI518105 {animation: eSCAF9RI518105_f_p 3500ms linear infinite normal forwards}@keyframes eSCAF9RI518105_f_p { 0% {fill: #fdf9df} 27.428571% {fill: #fdf9df} 28.285714% {fill: #edb034} 67.428571% {fill: #edb034} 74.285714% {fill: #fdf9df} 100% {fill: #fdf9df}} #eSCAF9RI518119 {animation: eSCAF9RI518119_f_p 3500ms linear infinite normal forwards}@keyframes eSCAF9RI518119_f_p { 0% {fill: #fdf9df} 28.285714% {fill: #fdf9df} 29.142857% {fill: #edb034} 67.428571% {fill: #edb034} 74.285714% {fill: #fdf9df} 100% {fill: #fdf9df}} #eSCAF9RI518133 {animation: eSCAF9RI518133_f_p 3500ms linear infinite normal forwards}@keyframes eSCAF9RI518133_f_p { 0% {fill: #fdf9df} 29.142857% {fill: #fdf9df} 30% {fill: #edb034} 67.428571% {fill: #edb034} 74.285714% {fill: #fdf9df} 100% {fill: #fdf9df}} #eSCAF9RI518145 {animation: eSCAF9RI518145_f_p 3500ms linear infinite normal forwards}@keyframes eSCAF9RI518145_f_p { 0% {fill: #fdf9df} 30% {fill: #fdf9df} 30.857143% {fill: #edb034} 67.428571% {fill: #edb034} 74.285714% {fill: #fdf9df} 100% {fill: #fdf9df}} #eSCAF9RI518159 {animation: eSCAF9RI518159_f_p 3500ms linear infinite normal forwards}@keyframes eSCAF9RI518159_f_p { 0% {fill: #fdf9df} 30.857143% {fill: #fdf9df} 31.714286% {fill: #edb034} 67.428571% {fill: #edb034} 74.285714% {fill: #fdf9df} 100% {fill: #fdf9df}} #eSCAF9RI518174 {animation: eSCAF9RI518174_f_p 3500ms linear infinite normal forwards}@keyframes eSCAF9RI518174_f_p { 0% {fill: #fdf9df} 34.857143% {fill: #fdf9df} 36.285714% {fill: #edb034} 67.428571% {fill: #edb034} 74.285714% {fill: #fdf9df} 100% {fill: #fdf9df}} #eSCAF9RI518188 {animation: eSCAF9RI518188_f_p 3500ms linear infinite normal forwards}@keyframes eSCAF9RI518188_f_p { 0% {fill: #fdf9df} 34% {fill: #fdf9df} 35.142857% {fill: #edb034} 67.428571% {fill: #edb034} 74.285714% {fill: #fdf9df} 100% {fill: #fdf9df}} #eSCAF9RI518201 {animation: eSCAF9RI518201_f_p 3500ms linear infinite normal forwards}@keyframes eSCAF9RI518201_f_p { 0% {fill: #fdf9df} 33.142857% {fill: #fdf9df} 34.285714% {fill: #edb034} 67.428571% {fill: #edb034} 74.285714% {fill: #fdf9df} 100% {fill: #fdf9df}} #eSCAF9RI518214 {animation: eSCAF9RI518214_f_p 3500ms linear infinite normal forwards}@keyframes eSCAF9RI518214_f_p { 0% {fill: #fdf9df} 32.571429% {fill: #fdf9df} 33.714286% {fill: #e5b550} 67.428571% {fill: #e5b550} 74.285714% {fill: #fdf9df} 100% {fill: #fdf9df}} #eSCAF9RI518219 {animation: eSCAF9RI518219_f_p 3500ms linear infinite normal forwards}@keyframes eSCAF9RI518219_f_p { 0% {fill: #fdf9df} 9.428571% {fill: #fdf9df;animation-timing-function: cubic-bezier(0.47,0,0.745,0.715)} 10.571429% {fill: #e5b550} 67.428571% {fill: #e5b550} 74.285714% {fill: #fdf9df} 100% {fill: #fdf9df}} #eSCAF9RI518220 {animation: eSCAF9RI518220_c_o 3500ms linear infinite normal forwards}@keyframes eSCAF9RI518220_c_o { 0% {opacity: 0} 26.857143% {opacity: 0} 30.571429% {opacity: 1} 67.428571% {opacity: 1} 74.285714% {opacity: 0} 100% {opacity: 0}} #eSCAF9RI518222 {animation: eSCAF9RI518222_c_o 3500ms linear infinite normal forwards}@keyframes eSCAF9RI518222_c_o { 0% {opacity: 0} 26.857143% {opacity: 0} 30.571429% {opacity: 0.75} 67.428571% {opacity: 0.75} 74.285714% {opacity: 0} 100% {opacity: 0}} #eSCAF9RI518224 {animation-name: eSCAF9RI518224_c_o, eSCAF9RI518224_s_do;animation-duration: 3500ms;animation-fill-mode: forwards;animation-timing-function: linear;animation-direction: normal;animation-iteration-count: infinite;}@keyframes eSCAF9RI518224_c_o { 0% {opacity: 1} 67.428571% {opacity: 1} 74.285714% {opacity: 0} 100% {opacity: 0}}@keyframes eSCAF9RI518224_s_do { 0% {stroke-dashoffset: 319.68} 21.428571% {stroke-dashoffset: 319.68} 32.285714% {stroke-dashoffset: 0} 100% {stroke-dashoffset: 0}}
]]></style>
<defs><filter id="eSCAF9RI518220-filter" x="-150%" y="-150%" width="400%" height="400%"><feGaussianBlur id="eSCAF9RI518220-filter-drop-shadow-0-blur" in="SourceAlpha" stdDeviation="0,0"/><feOffset id="eSCAF9RI518220-filter-drop-shadow-0-offset" dx="0" dy="0" result="tmp"/><feFlood id="eSCAF9RI518220-filter-drop-shadow-0-flood" flood-color="#e5b550"/><feComposite id="eSCAF9RI518220-filter-drop-shadow-0-composite" operator="in" in2="tmp"/><feMerge id="eSCAF9RI518220-filter-drop-shadow-0-merge" result="result"><feMergeNode id="eSCAF9RI518220-filter-drop-shadow-0-merge-node-1"/><feMergeNode id="eSCAF9RI518220-filter-drop-shadow-0-merge-node-2" in="SourceGraphic"/></feMerge></filter><radialGradient id="eSCAF9RI518220-fill" cx="0" cy="0" r="0.541783" spreadMethod="pad" gradientUnits="objectBoundingBox" gradientTransform="translate(0.5 0.5)"><stop id="eSCAF9RI518220-fill-0" offset="0%" stop-color="#edb034"/><stop id="eSCAF9RI518220-fill-1" offset="85.3059%" stop-color="rgba(237,176,52,0)"/></radialGradient><radialGradient id="eSCAF9RI518222-fill" cx="0" cy="0" r="0.477869" spreadMethod="pad" gradientUnits="objectBoundingBox" gradientTransform="matrix(0.999999 -0.001421 0.001421 0.999999 0.49874 0.5)"><stop id="eSCAF9RI518222-fill-0" offset="0%" stop-color="#fff"/><stop id="eSCAF9RI518222-fill-1" offset="71%" stop-color="#fff"/><stop id="eSCAF9RI518222-fill-2" offset="100%" stop-color="rgba(237,176,52,0.46)"/></radialGradient></defs><g transform="translate(-.362015 1.358993)"><path d="M224.033,376.312h-5c-2.209,0-4-1.791-4-4v-61.999c0-4.419-3.582-8-8-8h-4" fill="none" stroke="#4c372b" stroke-width="2" stroke-linecap="round"/><path id="eSCAF9RI5184" d="M224.033,376.312h-5c-2.209,0-4-1.791-4-4v-61.999c0-4.419-3.582-8-8-8h-4" fill="none" stroke="#edb034" stroke-width="2" stroke-linecap="round" stroke-dashoffset="89.86" stroke-dasharray="89.86"/><path d="M224.033,380.312h-5c-4.418,0-8-3.581-8-8v-25.999c0-2.21-1.791-4-4-4h-4" fill="none" stroke="#4c372b" stroke-width="2" stroke-linecap="round"/><path id="eSCAF9RI5186" d="M224.033,380.312h-5c-4.418,0-8-3.581-8-8v-25.999c0-2.21-1.791-4-4-4h-4" fill="none" stroke="#edb034" stroke-width="2" stroke-linecap="round" stroke-dashoffset="53.86" stroke-dasharray="53.86"/><path d="M224.033,384.312h-21" fill="none" stroke="#4c372b" stroke-width="2" stroke-linecap="round"/><path id="eSCAF9RI5188" d="M224.033,384.312c0,0-14.7,0-21,0" fill="none" stroke="#edb034" stroke-width="2" stroke-linecap="round" stroke-dashoffset="21" stroke-dasharray="21"/><path d="M224.033,388.312l-5,.001c-4.418,0-8,3.581-8,8v25.999c0,2.21-1.791,4-4,4h-4" fill="none" stroke="#4c372b" stroke-width="2" stroke-linecap="round"/><path id="eSCAF9RI51810" d="M224.033,388.312l-5,.001c-4.418,0-8,3.581-8,8v25.999c0,2.21-1.791,4-4,4h-4" fill="none" stroke="#edb034" stroke-width="2" stroke-linecap="round" stroke-dashoffset="53.86" stroke-dasharray="53.86"/><path d="M224.033,392.312l-5,.001c-2.209,0-4,1.791-4,4v58.999c0,4.419-3.582,8-8,8h-4" fill="none" stroke="#4c372b" stroke-width="2" stroke-linecap="round"/><path id="eSCAF9RI51812" d="M224.033,392.312l-5,.001c-2.209,0-4,1.791-4,4v58.999c0,4.419-3.582,8-8,8h-4" fill="none" stroke="#edb034" stroke-width="2" stroke-linecap="round" stroke-dashoffset="86.86" stroke-dasharray="86.86"/><path d="M328,376h5c2.209,0,4-1.791,4-4v-62c0-4.418,3.582-8,8-8h4" fill="none" stroke="#4c372b" stroke-width="2" stroke-linecap="round"/><path id="eSCAF9RI51814" d="M328,376h5c2.209,0,4-1.791,4-4v-62c0-4.418,3.582-8,8-8h4" fill="none" stroke="#edb034" stroke-width="2" stroke-linecap="round" stroke-dashoffset="89.86" stroke-dasharray="89.86"/><path d="M328.033,380.312h5c4.419,0,8-3.581,8-8v-26c0-2.209,1.791-4,4-3.999h4" fill="none" stroke="#4c372b" stroke-width="2" stroke-linecap="round"/><path id="eSCAF9RI51816" d="M328.033,380.312h5c4.419,0,8-3.581,8-8v-26c0-2.209,1.791-4,4-3.999h4" fill="none" stroke="#edb034" stroke-width="2" stroke-linecap="round" stroke-dashoffset="53.86" stroke-dasharray="53.86"/><path d="M328.033,384.312l21,.001" fill="none" stroke="#4c372b" stroke-width="2" stroke-linecap="round"/><path id="eSCAF9RI51818" d="M328.033,384.312l21,.001" fill="none" stroke="#edb034" stroke-width="2" stroke-linecap="round" stroke-dashoffset="21.01" stroke-dasharray="21.01"/><path d="M328.033,388.312l5,.001c4.419,0,8,3.581,8,8v25.999c0,2.21,1.791,4,4,4h4" fill="none" stroke="#4c372b" stroke-width="2" stroke-linecap="round"/><path id="eSCAF9RI51820" d="M328.033,388.312l5,.001c4.419,0,8,3.581,8,8v25.999c0,2.21,1.791,4,4,4h4" fill="none" stroke="#edb034" stroke-width="2" stroke-linecap="round" stroke-dashoffset="53.86" stroke-dasharray="53.86"/><path d="M328.033,392.312l5,.001c2.209,0,4,1.791,4,4v58.999c0,4.419,3.582,8,8,8h4" fill="none" stroke="#4c372b" stroke-width="2" stroke-linecap="round"/><path id="eSCAF9RI51822" d="M328.033,392.312l5,.001c2.209,0,4,1.791,4,4v58.999c0,4.419,3.582,8,8,8h4" fill="none" stroke="#edb034" stroke-width="2" stroke-linecap="round" stroke-dashoffset="86.86" stroke-dasharray="86.86"/><path d="M299.994,423.5v48.56c0,14.478,10.507,26.816,24.8,29.123l100.599,16.236c20.106,3.245,34.885,20.6,34.885,40.966v75.424" fill="none" stroke="#4c372b" stroke-width="12.9677"/><path id="eSCAF9RI51824" d="M299.994,423.5v48.56c0,14.478,10.507,26.816,24.8,29.123l100.599,16.236c20.106,3.245,34.885,20.6,34.885,40.966v75.424" fill="none" stroke="#edb034" stroke-width="12.9677" stroke-linecap="round" stroke-dashoffset="346.06" stroke-dasharray="346.06"/><path d="M284.027,427.312v48.876c0,14.103,7.163,27.241,19.018,34.881l6.444,4.153c7.57,4.879,12.145,13.268,12.145,22.275v13.967" fill="none" stroke="#4c372b" stroke-width="12.9677"/><path id="eSCAF9RI51826" d="M284.027,427.312v48.876c0,14.103,7.163,27.241,19.018,34.881l6.444,4.153c7.57,4.879,12.145,13.268,12.145,22.275v13.967" fill="none" stroke="#edb034" stroke-width="12.9677" stroke-linecap="round" stroke-dashoffset="158.4" stroke-dasharray="158.4"/><path d="M252.904,419.812v57.048c0,12.024-8.725,22.271-20.596,24.187L111.427,520.559c-20.1052,3.245-34.884,20.601-34.884,40.966l-.478285,11.984007" fill="none" stroke="#4c372b" stroke-width="12.9677"/><path id="eSCAF9RI51828" d="M252.904,419.812v57.048c0,12.024-8.725,22.271-20.596,24.187L111.427,520.559c-20.1052,3.245-34.884,20.601-34.884,40.966l.539815,13.033007" fill="none" stroke="#edb034" stroke-width="12.9677" stroke-linecap="round" stroke-dashoffset="313.02" stroke-dasharray="313.02"/><path d="M268.465,426.812v50.525c0,20.207-14.556,37.476-34.471,40.897l-18.63,3.201c-15.118,2.597-26.167,15.706-26.167,31.045v102.452" fill="none" stroke="#4c372b" stroke-width="12.9677"/><path id="eSCAF9RI51830" d="M268.465,426.812v50.525c0,20.207-14.556,37.476-34.471,40.897l-18.63,3.201c-15.118,2.597-26.167,15.706-26.167,31.045v102.726007" fill="none" stroke="#edb034" stroke-width="12.9677" stroke-linecap="round" stroke-dashoffset="304.14" stroke-dasharray="304.14"/></g><path d="M277,360.313v-350.0005" transform="translate(-.226715 0)" fill="none" stroke="#4c372b" stroke-width="11.78" stroke-linecap="round" stroke-dasharray="360.01"/><path id="eSCAF9RI51832" d="M275.974693,350.312988v-350.0005" transform="matrix(-1 0 0-1 552.739705 360.625478)" fill="none" stroke="#edb034" stroke-width="11.78" stroke-linecap="round" stroke-dashoffset="360" stroke-dasharray="360"/><path d="M0,595.791c0-16.473,13.3535-29.826,29.8258-29.826h97.2582c16.472,0,29.826,13.353,29.826,29.826v0c0,16.472-13.354,29.825-29.826,29.825h-97.2582C13.3535,625.616,0,612.263,0,595.791v0Z" fill="#38281f"/><path d="M29.8262,567.095h97.2578c15.848,0,28.695,12.848,28.695,28.696s-12.847,28.695-28.695,28.695h-97.2578c-15.8482,0-28.69612-12.847-28.69632-28.695c0-15.848,12.84802-28.696,28.69632-28.696Z" fill="none" stroke="#533a2c" stroke-width="2.25997"/><path d="M57.5781,595.191c0,5.089,3.2494,8.637,7.7522,8.637s7.7521-3.548,7.7521-8.637c0-5.088-3.2494-8.636-7.7521-8.636s-7.7522,3.548-7.7522,8.636Zm12.5335,0c0,3.642-1.9729,5.999-4.7813,5.999s-4.7813-2.357-4.7813-5.999c0-3.641,1.9729-5.999,4.7813-5.999s4.7813,2.358,4.7813,5.999Z" fill="#fdf9df"/><path d="M81.4481,603.827c3.4119,0,5.3616-2.895,5.3616-6.373s-1.9497-6.372-5.3616-6.372c-1.5783,0-2.7388.63-3.5047,1.541v-1.308h-2.7852v16.457h2.7852v-5.486c.7659.91,1.9264,1.541,3.5047,1.541Zm-3.5743-6.723c0-2.311,1.2997-3.571,3.0173-3.571c2.0193,0,3.1101,1.587,3.1101,3.921c0,2.335-1.0908,3.922-3.1101,3.922-1.7176,0-3.0173-1.284-3.0173-3.548v-.724Z" fill="#fdf9df"/><path d="M94.3502,603.827c2.4368,0,4.3638-1.284,5.2218-3.432l-2.39-.91c-.372,1.261-1.462,1.961-2.8318,1.961-1.7872,0-3.0405-1.284-3.2494-3.385h8.5412v-.933c0-3.362-1.88-6.046-5.4078-6.046-3.528,0-5.8026,2.778-5.8026,6.372c0,3.782,2.4371,6.373,5.9186,6.373Zm-.1393-10.387c1.7641,0,2.5991,1.167,2.6231,2.52h-5.5939c.4177-1.657,1.5318-2.52,2.9708-2.52Z" fill="#fdf9df"/><path d="M101.73,603.57h2.786v-7.189c0-1.751,1.276-2.685,2.53-2.685c1.531,0,2.135,1.097,2.135,2.615v7.259h2.785v-8.076c0-2.638-1.532-4.412-4.085-4.412-1.578,0-2.669.724-3.365,1.541v-1.308h-2.786v12.255Z" fill="#fdf9df"/><path d="M120.126,586.811l-6.314,16.759h2.948l1.416-3.828h7.195l1.439,3.828h2.994l-6.313-16.759h-3.365Zm1.624,3.314l2.646,7.003h-5.245l2.599-7.003Z" fill="#fdf9df"/><path d="M134.584,586.857h-2.971v16.76h2.971v-16.76Z" fill="#fdf9df"/><path d="M50.7742,592.967c.7021-2.12.4604-4.441-.6624-6.369-1.6886-2.957-5.083-4.478-8.3982-3.762-1.4748-1.671-3.5937-2.621-5.8151-2.607-3.3886-.008-6.3953,2.186-7.4378,5.429-2.1769.448-4.056,1.818-5.1556,3.761-1.7011,2.948-1.3133,6.666.9594,9.194-.7021,2.12-.4604,4.441.6624,6.369c1.6886,2.956,5.083,4.478,8.3982,3.762c1.4738,1.671,3.5937,2.621,5.8151,2.606c3.3906.009,6.3982-2.187,7.4408-5.433c2.1769-.448,4.0559-1.818,5.1555-3.761c1.6992-2.948,1.3104-6.663-.9613-9.191l-.001.002Zm-11.6321,16.35c-1.3568.002-2.6711-.476-3.7126-1.35.0474-.026.1296-.071.1828-.104l6.1622-3.58c.3153-.179.5087-.517.5068-.882v-8.736l2.6043,1.512c.0281.014.0465.041.0503.072v7.235c-.0038,3.217-2.5947,5.826-5.7938,5.833Zm-12.4599-5.353c-.6799-1.18-.9245-2.564-.6915-3.907.0455.027.1257.076.1828.11l6.1623,3.579c.3123.183.6992.183,1.0125,0l7.523-4.369v3.025c.0019.031-.0126.061-.0368.08l-6.229,3.617c-2.7745,1.607-6.3179.652-7.9223-2.135h-.001Zm-1.6218-13.527c.6769-1.183,1.7456-2.087,3.0183-2.557c0,.053-.0029.148-.0029.214v7.159c-.002.364.1914.701.5057.881l7.523,4.368-2.6044,1.512c-.0261.018-.0589.021-.088.008l-6.2299-3.62c-2.7688-1.612-3.7185-5.175-2.1228-7.964l.001-.001Zm21.3977,5.008l-7.5229-4.369l2.6043-1.512c.0261-.017.059-.02.088-.007l6.23,3.617c2.7736,1.611,3.7243,5.18,2.1218,7.969-.6779,1.181-1.7456,2.085-3.0173,2.556v-7.373c.0029-.364-.1896-.7-.5029-.881h-.001Zm2.5918-3.924c-.0454-.028-.1257-.077-.1828-.11l-6.1622-3.579c-.3124-.184-.6992-.184-1.0126,0l-7.5229,4.369v-3.025c-.002-.031.0125-.061.0367-.08l6.229-3.614c2.7746-1.61,6.3219-.652,7.9214,2.139.676,1.179.9207,2.559.6915,3.9h.0019Zm-16.2963,5.391L30.1482,595.4c-.028-.014-.0464-.041-.0503-.072v-7.235c.002-3.221,2.6005-5.832,5.8035-5.83c1.3549,0,2.6663.479,3.7078,1.35-.0474.026-.1286.071-.1827.104l-6.1623,3.579c-.3153.18-.5087.517-.5068.882l-.0038,8.732v.002Zm1.4148-3.067l3.351-1.946l3.3509,1.945v3.891l-3.3509,1.945-3.351-1.945v-3.89Z" fill="#fdf9df"/><path d="M230.42,575.043c0-16.473,13.353-29.826,29.826-29.826h127.084c16.472,0,29.825,13.353,29.825,29.826v0c0,16.472-13.353,29.825-29.825,29.825h-127.084c-16.473,0-29.826-13.353-29.826-29.825v0Z" fill="#38281f"/><path d="M260.246,546.347h127.083c15.848,0,28.696,12.848,28.696,28.696s-12.847,28.695-28.695,28.695h-127.084c-15.848,0-28.696-12.847-28.696-28.695s12.848-28.696,28.696-28.696Z" fill="none" stroke="#533a2c" stroke-width="2.25997"/><path d="M385.306,583.108c-1.672,0-3.05-.535-4.136-1.606-1.07-1.071-1.606-2.442-1.606-4.114c0-1.628.543-2.985,1.628-4.07c1.086-1.1,2.457-1.65,4.114-1.65c1.526,0,2.787.484,3.784,1.452c1.012.968,1.518,2.303,1.518,4.004c0,.293-.007.557-.022.792h-8.646c.059.895.404,1.621,1.034,2.178.631.543,1.416.814,2.354.814c1.408,0,2.457-.557,3.146-1.672l1.848,1.32c-1.056,1.701-2.728,2.552-5.016,2.552Zm-3.256-6.952h6.116c-.132-.763-.476-1.357-1.034-1.782-.542-.44-1.18-.66-1.914-.66-.762,0-1.444.213-2.046.638-.586.425-.96,1.027-1.122,1.804Z" fill="#fdf9df"/><path d="M372.997,583.108c-1.657,0-3.043-.543-4.158-1.628-1.1-1.1-1.65-2.464-1.65-4.092s.55-2.985,1.65-4.07c1.115-1.1,2.501-1.65,4.158-1.65c1.13,0,2.142.271,3.036.814.91.543,1.606,1.283,2.09,2.222l-2.112,1.144c-.278-.587-.682-1.056-1.21-1.408s-1.129-.528-1.804-.528c-.968,0-1.767.337-2.398,1.012-.63.66-.946,1.481-.946,2.464s.316,1.811.946,2.486c.631.66,1.43.99,2.398.99.675,0,1.276-.176,1.804-.528s.932-.821,1.21-1.408l2.112,1.144c-.484.939-1.18,1.679-2.09,2.222-.894.543-1.906.814-3.036.814Z" fill="#fdf9df"/><path d="M354.92,582.888v-11h2.42v1.166c.748-.924,1.826-1.386,3.234-1.386c1.305,0,2.347.425,3.124,1.276.792.836,1.188,1.958,1.188,3.366v6.578h-2.42v-6.182c0-.895-.213-1.591-.638-2.09-.411-.499-1.005-.748-1.782-.748-1.291,0-2.193.579-2.706,1.738v7.282h-2.42Z" fill="#fdf9df"/><path d="M347.129,583.108c-1.672,0-3.051-.535-4.136-1.606-1.071-1.071-1.606-2.442-1.606-4.114c0-1.628.542-2.985,1.628-4.07c1.085-1.1,2.456-1.65,4.114-1.65c1.525,0,2.786.484,3.784,1.452c1.012.968,1.518,2.303,1.518,4.004c0,.293-.008.557-.022.792h-8.646c.058.895.403,1.621,1.034,2.178.63.543,1.415.814,2.354.814c1.408,0,2.456-.557,3.146-1.672l1.848,1.32c-1.056,1.701-2.728,2.552-5.016,2.552Zm-3.256-6.952h6.116c-.132-.763-.477-1.357-1.034-1.782-.543-.44-1.181-.66-1.914-.66-.763,0-1.445.213-2.046.638-.587.425-.961,1.027-1.122,1.804Z" fill="#fdf9df"/><path d="M334.359,582.889v-11h2.42v1.474c.22-.44.587-.814,1.1-1.122.514-.308,1.071-.462,1.672-.462.396,0,.77.044,1.122.132l-.352,2.354c-.22-.088-.535-.132-.946-.132-.513,0-1.019.147-1.518.44-.484.294-.843.712-1.078,1.254v7.062h-2.42Z" fill="#fdf9df"/><path d="M326.568,583.108c-1.672,0-3.05-.535-4.136-1.606-1.07-1.071-1.606-2.442-1.606-4.114c0-1.628.543-2.985,1.628-4.07c1.086-1.1,2.457-1.65,4.114-1.65c1.526,0,2.787.484,3.784,1.452c1.012.968,1.518,2.303,1.518,4.004c0,.293-.007.557-.022.792h-8.646c.059.895.404,1.621,1.034,2.178.631.543,1.416.814,2.354.814c1.408,0,2.457-.557,3.146-1.672l1.848,1.32c-1.056,1.701-2.728,2.552-5.016,2.552Zm-3.256-6.952h6.116c-.132-.763-.476-1.357-1.034-1.782-.542-.44-1.18-.66-1.914-.66-.762,0-1.444.213-2.046.638-.586.425-.96,1.027-1.122,1.804Z" fill="#fdf9df"/><path d="M313.85,582.889v-8.844h-2.596v-2.156h2.596v-1.232c0-1.144.345-2.09,1.034-2.838.704-.748,1.657-1.122,2.86-1.122.983,0,1.826.198,2.53.594l-.88,2.002c-.499-.264-.975-.396-1.43-.396-.528,0-.946.169-1.254.506-.293.323-.44.763-.44,1.32v1.166h3.74v2.156h-3.74v8.844h-2.42Z" fill="#fdf9df"/><path d="M299.619,582.888v-11h2.42v1.166c.748-.924,1.826-1.386,3.234-1.386c1.305,0,2.347.425,3.124,1.276.792.836,1.188,1.958,1.188,3.366v6.578h-2.42v-6.182c0-.895-.213-1.591-.638-2.09-.411-.499-1.005-.748-1.782-.748-1.291,0-2.193.579-2.706,1.738v7.282h-2.42Z" fill="#fdf9df"/><path d="M293.631,582.89v-15.62h2.574v15.62h-2.574Z" fill="#fdf9df"/><path d="M276.765,571.725c-.106-2.541-1.204-4.939-3.058-6.681-1.853-1.742-4.316-2.688-6.859-2.636s-4.964,1.099-6.745,2.915-2.779,4.258-2.781,6.801l-2.839,5.455c-.098.228-.105.485-.02.718.086.233.257.424.479.535l3.352,1.536v4.4c0,.258.103.505.285.687.183.183.43.285.688.285h5.836c0,.516.204,1.011.569,1.376.365.364.86.569,1.376.569h6.808l-.973-7.78c1.263-.946,2.277-2.185,2.953-3.61s.995-2.993.929-4.57Zm-12.619-3.238c-.053-.403.022-.812.214-1.171.191-.358.49-.647.855-.827.364-.179.776-.24,1.177-.174.401.067.771.257,1.058.544s.477.657.544,1.058c.066.401.005.813-.175,1.177-.179.364-.468.664-.826.855-.359.192-.768.267-1.171.214-.425-.055-.82-.25-1.123-.553s-.498-.698-.553-1.123Zm4.133,9.457c-.403.052-.812-.022-1.17-.214s-.647-.491-.827-.855c-.179-.365-.24-.776-.174-1.177s.256-.771.544-1.058c.287-.288.657-.478,1.058-.544s.812-.005,1.177.174c.364.18.663.469.855.827s.266.767.214,1.17c-.056.426-.252.822-.556,1.125s-.701.497-1.127.552h.006Z" opacity="0.2" fill="#edb034"/><path d="M273.919,580.329c1.23-1.033,2.213-2.329,2.875-3.792.663-1.464.989-3.057.955-4.663-.122-5.557-4.572-10.139-10.12-10.43-1.431-.078-2.864.132-4.212.619-1.348.486-2.585,1.239-3.637,2.212-1.052.974-1.897,2.149-2.486,3.456s-.909,2.719-.942,4.152l-2.729,5.249c-.011.022-.022.044-.032.066-.196.456-.209.97-.039,1.436.171.466.513.849.957,1.071l.03.013l2.786,1.276v3.776c0,.516.205,1.01.569,1.375.365.365.86.57,1.376.57h5.835c.258,0,.506-.103.688-.285s.285-.43.285-.688-.103-.505-.285-.687c-.182-.183-.43-.285-.688-.285h-5.835v-4.4c0-.186-.053-.369-.154-.526s-.244-.281-.414-.359l-3.323-1.523l2.805-5.391c.073-.137.112-.29.113-.445c0-1.984.673-3.908,1.91-5.459s2.964-2.636,4.898-3.076v1.895c-.649.229-1.196.681-1.544,1.274-.348.594-.475,1.292-.359,1.97.117.678.469,1.294.995,1.737.526.444,1.193.687,1.881.687s1.354-.243,1.881-.687c.526-.443.878-1.059.995-1.737.116-.678-.011-1.376-.359-1.97-.349-.593-.896-1.045-1.545-1.274v-2.113c.159,0,.317,0,.475.012c1.724.099,3.382.704,4.764,1.74c1.383,1.036,2.429,2.456,3.009,4.083h-2.412c-.143,0-.284.032-.413.092-.129.061-.243.149-.335.259l-3.101,3.722c-.647-.241-1.358-.245-2.008-.013-.65.233-1.196.688-1.543,1.285-.346.597-.471,1.297-.351,1.977s.476,1.295,1.006,1.738c.53.442,1.199.683,1.89.679.69-.004,1.357-.251,1.882-.699s.875-1.067.988-1.748-.018-1.38-.371-1.973l2.812-3.373h2.406c.029.252.047.508.053.765.031,1.393-.271,2.774-.879,4.027-.609,1.254-1.506,2.345-2.62,3.183-.137.103-.244.24-.311.398-.067.157-.092.33-.07.5l.972,7.781c.03.235.144.451.322.607.177.157.406.244.642.244.041,0,.082-.003.122-.008.127-.015.249-.056.36-.119s.209-.147.287-.248c.079-.101.137-.216.17-.34.034-.123.044-.251.028-.378l-.905-7.237Zm-7.841-11.121c-.192,0-.381-.057-.54-.164-.16-.106-.285-.258-.359-.436-.073-.178-.093-.373-.055-.562s.13-.362.266-.498.309-.229.498-.266c.189-.038.384-.018.562.055.178.074.33.199.437.358.106.16.163.348.163.541c0,.258-.102.505-.284.688-.183.182-.43.284-.688.284Zm1.945,7.781c-.192,0-.38-.057-.54-.164s-.285-.259-.359-.436c-.073-.178-.092-.374-.055-.562.038-.189.13-.362.266-.498s.31-.229.498-.266c.189-.038.385-.019.562.055.178.074.33.198.437.358s.164.348.164.54c0,.258-.103.506-.285.688-.183.183-.43.285-.688.285Z" fill="#edb034"/><path d="M353.316,654.144c0-16.472,13.354-29.826,29.826-29.826h162.097c16.472,0,29.826,13.354,29.826,29.826v0c0,16.473-13.354,29.826-29.826,29.826h-162.097c-16.472,0-29.826-13.353-29.826-29.826v0Z" fill="#38281f"/><path d="M383.143,625.448h162.096c15.848,0,28.696,12.848,28.696,28.697-.001,15.848-12.848,28.695-28.696,28.695h-162.096c-15.849,0-28.697-12.847-28.697-28.695c0-15.849,12.848-28.697,28.697-28.697Z" fill="none" stroke="#533a2c" stroke-width="2.25997"/><path d="M538.406,661.988v-16.06h2.42v16.06h-2.42Z" fill="#fdf9df"/><path d="M530.615,662.208c-1.672,0-3.051-.536-4.136-1.606-1.071-1.071-1.606-2.442-1.606-4.114c0-1.628.543-2.985,1.628-4.07c1.085-1.1,2.457-1.65,4.114-1.65c1.525,0,2.787.484,3.784,1.452c1.012.968,1.518,2.302,1.518,4.004c0,.293-.007.557-.022.792h-8.646c.059.894.403,1.62,1.034,2.178.631.542,1.415.814,2.354.814c1.408,0,2.457-.558,3.146-1.672l1.848,1.32c-1.056,1.701-2.728,2.552-5.016,2.552Zm-3.256-6.952h6.116c-.132-.763-.477-1.357-1.034-1.782-.543-.44-1.181-.66-1.914-.66-.763,0-1.445.212-2.046.638-.587.425-.961,1.026-1.122,1.804Z" fill="#fdf9df"/><path d="M516.73,662.208c-1.599,0-2.911-.558-3.938-1.672-1.027-1.115-1.54-2.464-1.54-4.048s.513-2.934,1.54-4.048c1.027-1.115,2.339-1.672,3.938-1.672c1.349,0,2.42.41,3.212,1.232v-6.072h2.42v16.06h-2.42v-1.034c-.792.836-1.863,1.254-3.212,1.254Zm.286-2.2c1.261,0,2.237-.514,2.926-1.54v-3.982c-.704-1.012-1.679-1.518-2.926-1.518-.953,0-1.738.344-2.354,1.034-.616.674-.924,1.503-.924,2.486c0,.982.308,1.818.924,2.508.616.674,1.401,1.012,2.354,1.012Z" fill="#fdf9df"/><path d="M507.917,660.558c-1.1,1.1-2.464,1.65-4.092,1.65s-3-.55-4.114-1.65c-1.1-1.115-1.65-2.472-1.65-4.07c0-1.599.55-2.948,1.65-4.048c1.114-1.115,2.486-1.672,4.114-1.672s2.992.557,4.092,1.672c1.114,1.1,1.672,2.449,1.672,4.048c0,1.598-.558,2.955-1.672,4.07Zm-4.092-.594c.953,0,1.738-.33,2.354-.99.63-.675.946-1.504.946-2.486c0-.983-.316-1.804-.946-2.464-.616-.675-1.401-1.012-2.354-1.012-.968,0-1.768.337-2.398,1.012-.616.66-.924,1.481-.924,2.464c0,.982.308,1.811.924,2.486.63.66,1.43.99,2.398.99Z" fill="#fdf9df"/><path d="M479.889,661.989v-15.62h2.354l5.456,8.734l5.456-8.734h2.354v15.62h-2.574v-10.67l-4.334,6.952h-1.76l-4.378-6.974v10.692h-2.574Z" fill="#fdf9df"/><path d="M468.754,661.988v-16.06h2.42v16.06h-2.42Z" fill="#fdf9df"/><path d="M459.839,662.208c-1.598,0-2.911-.558-3.938-1.672-1.026-1.115-1.54-2.464-1.54-4.048s.514-2.934,1.54-4.048c1.027-1.115,2.34-1.672,3.938-1.672c1.35,0,2.42.41,3.212,1.232v-1.012h2.42v11h-2.42v-1.034c-.792.836-1.862,1.254-3.212,1.254Zm.286-2.2c1.262,0,2.237-.514,2.926-1.54v-3.982c-.704-1.012-1.679-1.518-2.926-1.518-.953,0-1.738.344-2.354,1.034-.616.674-.924,1.503-.924,2.486c0,.982.308,1.818.924,2.508.616.674,1.401,1.012,2.354,1.012Z" fill="#fdf9df"/><path d="M447.794,662.208c-1.657,0-3.043-.543-4.158-1.628-1.1-1.1-1.65-2.464-1.65-4.092s.55-2.985,1.65-4.07c1.115-1.1,2.501-1.65,4.158-1.65c1.13,0,2.142.271,3.036.814.91.542,1.606,1.283,2.09,2.222l-2.112,1.144c-.278-.587-.682-1.056-1.21-1.408s-1.129-.528-1.804-.528c-.968,0-1.767.337-2.398,1.012-.63.66-.946,1.481-.946,2.464c0,.982.316,1.811.946,2.486.631.66,1.43.99,2.398.99.675,0,1.276-.176,1.804-.528s.932-.822,1.21-1.408l2.112,1.144c-.484.938-1.18,1.679-2.09,2.222-.894.542-1.906.814-3.036.814Z" fill="#fdf9df"/><path d="M438.672,660.558c-1.1,1.1-2.464,1.65-4.092,1.65s-2.999-.55-4.114-1.65c-1.1-1.115-1.65-2.472-1.65-4.07c0-1.599.55-2.948,1.65-4.048c1.115-1.115,2.486-1.672,4.114-1.672s2.992.557,4.092,1.672c1.115,1.1,1.672,2.449,1.672,4.048c0,1.598-.557,2.955-1.672,4.07Zm-4.092-.594c.954,0,1.738-.33,2.354-.99.631-.675.946-1.504.946-2.486c0-.983-.315-1.804-.946-2.464-.616-.675-1.4-1.012-2.354-1.012-.968,0-1.767.337-2.398,1.012-.616.66-.924,1.481-.924,2.464c0,.982.308,1.811.924,2.486.631.66,1.43.99,2.398.99Z" fill="#fdf9df"/><path d="M418.121,661.989v-15.62h2.574v13.156h7.15v2.464h-9.724Z" fill="#fdf9df"/><path d="M399.26,647.752v12.643h-21.397v-12.643c0-.516.205-1.011.57-1.376.365-.364.86-.569,1.375-.569h17.507c.516,0,1.011.205,1.375.569.365.365.57.86.57,1.376Z" opacity="0.2" fill="#edb034"/><path d="M401.207,659.425h-.973v-11.671c0-.774-.307-1.516-.854-2.063-.547-.548-1.29-.855-2.063-.855h-17.507c-.774,0-1.516.307-2.063.855-.547.547-.855,1.289-.855,2.063v11.671h-.972c-.258,0-.505.102-.688.285-.182.182-.285.429-.285.687v1.945c0,.774.308,1.516.855,2.064.547.547,1.289.854,2.063.854h21.397c.774,0,1.516-.307,2.063-.854.547-.548.855-1.29.855-2.064v-1.945c0-.258-.103-.505-.285-.687-.183-.183-.43-.285-.688-.285Zm-22.369-11.671c0-.258.102-.506.284-.688.183-.182.43-.285.688-.285h17.507c.258,0,.505.103.687.285.183.182.285.43.285.688v11.671h-19.451v-11.671Zm21.396,14.588c0,.258-.102.506-.285.688-.182.183-.429.285-.687.285h-21.397c-.258,0-.505-.102-.688-.285-.182-.182-.285-.43-.285-.688v-.972h23.342v.972Zm-8.753-12.643c0,.258-.102.505-.285.688-.182.182-.43.284-.687.284h-3.891c-.258,0-.505-.102-.687-.284-.183-.183-.285-.43-.285-.688s.102-.505.285-.688c.182-.182.429-.285.687-.285h3.891c.257,0,.505.103.687.285.183.183.285.43.285.688Z" fill="#edb034"/><path d="M97,677.826C97,661.353,110.353,648,126.826,648h129.677c16.473,0,29.826,13.353,29.826,29.826v0c0,16.472-13.353,29.826-29.826,29.826h-129.677C110.353,707.652,97,694.298,97,677.826v0Z" fill="#38281f"/><path d="M126.826,649.13h129.677c15.848,0,28.696,12.848,28.696,28.696s-12.848,28.695-28.696,28.695h-129.677c-15.848,0-28.696-12.847-28.696-28.695s12.848-28.696,28.696-28.696Z" fill="none" stroke="#533a2c" stroke-width="2.25997"/><path d="M149.851,681.401l-7.068-11.41h-3.815v16.3h3.254v-11.41l7.068,11.41h3.815v-16.3h-3.254v11.41Z" fill="#fdf9df"/><path d="M155.796,673.135h5.275v13.156h3.366v-13.156h5.274v-3.144h-13.915v3.144Z" fill="#fdf9df"/><path d="M183.184,676.488h-7.405v-6.497h-3.366v16.3h3.366v-6.66h7.405v6.66h3.367v-16.3h-3.367v6.497Z" fill="#fdf9df"/><path d="M194.071,673.135h4.153c1.661,0,2.537.629,2.537,1.816c0,1.188-.876,1.816-2.537,1.816h-4.153v-3.632Zm10.057,1.816c0-3.074-2.178-4.96-5.747-4.96h-7.677v16.3h3.367v-6.38h3.749l3.367,6.38h3.726l-3.728-6.866c1.871-.746,2.943-2.318,2.943-4.474Z" fill="#fdf9df"/><path d="M214.443,683.305c-2.648,0-4.264-1.956-4.264-5.146c0-3.236,1.616-5.192,4.264-5.192c2.625,0,4.218,1.956,4.218,5.192c0,3.19-1.593,5.146-4.218,5.146Zm0-13.598c-4.533,0-7.742,3.493-7.742,8.452c0,4.913,3.209,8.406,7.742,8.406c4.51,0,7.696-3.493,7.696-8.406c0-4.959-3.186-8.452-7.696-8.452Z" fill="#fdf9df"/><path d="M232.81,677.233h-4.154v-4.098h4.154c1.661,0,2.537.698,2.537,2.049c0,1.35-.876,2.049-2.537,2.049Zm.157-7.242h-7.679v16.3h3.368v-5.914h4.311c3.57,0,5.748-1.956,5.748-5.193s-2.178-5.193-5.748-5.193Z" fill="#fdf9df"/><path d="M261.511,680.814c-.583,1.583-1.75,2.491-3.343,2.491-2.648,0-4.264-1.956-4.264-5.146c0-3.236,1.616-5.192,4.264-5.192c1.593,0,2.76.908,3.343,2.491h3.568c-.875-3.492-3.5-5.751-6.911-5.751-4.533,0-7.742,3.493-7.742,8.452c0,4.913,3.209,8.406,7.742,8.406c3.433,0,6.059-2.282,6.934-5.751h-3.591Z" fill="#fdf9df"/><path d="M240.055,669.991l6.264,16.3h3.436l-6.265-16.3h-3.435Z" fill="#fdf9df"/><path d="M126.297,679.841l2.143-5.728l2.144,5.728h-4.287Zm.347-9.85l-6.263,16.3h3.502l1.281-3.423h6.553l1.28,3.423h3.502l-6.263-16.3h-3.592Z" fill="#fdf9df"/><path d="M153.407,310.653c-.74,0-1.405-.125-1.995-.375-.58-.25-1.04-.585-1.38-1.005l.885-.9c.63.74,1.46,1.11,2.49,1.11.66,0,1.235-.205,1.725-.615.49-.4.735-.99.735-1.77v-.57c-.6.66-1.415.99-2.445.99-1.1,0-2.01-.365-2.73-1.095-.71-.74-1.065-1.64-1.065-2.7s.36-1.955,1.08-2.685s1.625-1.095,2.715-1.095c1.03,0,1.845.325,2.445.975v-.825h1.29v7.05c0,1.14-.355,2.01-1.065,2.61s-1.605.9-2.685.9Zm.12-4.335c1.05,0,1.83-.41,2.34-1.23v-2.73c-.51-.82-1.29-1.23-2.34-1.23-.74,0-1.355.25-1.845.75-.48.5-.72,1.115-.72,1.845c0,.74.24,1.36.72,1.86.49.49,1.105.735,1.845.735Z" fill="#fdf9df"/><path d="M141.379,307.593v-7.5h1.29v.945c.5-.73,1.29-1.095,2.37-1.095.85,0,1.535.275,2.055.825.53.55.795,1.29.795,2.22v4.605h-1.275v-4.41c0-.65-.17-1.155-.51-1.515-.33-.36-.785-.54-1.365-.54-1.04,0-1.73.495-2.07,1.485v4.98h-1.29Z" fill="#fdf9df"/><path d="M138.948,298.13c-.17.17-.385.255-.645.255s-.48-.085-.66-.255c-.18-.18-.27-.4-.27-.66c0-.25.09-.465.27-.645s.4-.27.66-.27.475.09.645.27c.18.18.27.395.27.645c0,.26-.09.48-.27.66Zm-1.305,9.465v-7.5h1.29v7.5h-1.29Z" fill="#fdf9df"/><path d="M134.626,307.668c-.67,0-1.23-.195-1.68-.585-.44-.4-.66-.97-.66-1.71v-4.095h-1.89v-1.185h1.89v-2.13h1.29v2.13h2.325v1.185h-2.325v3.93c0,.87.4,1.305,1.2,1.305.4,0,.76-.095,1.08-.285l.39,1.095c-.44.23-.98.345-1.62.345Z" fill="#fdf9df"/><path d="M128.985,300.094v7.5h-1.29v-.945c-.5.73-1.255,1.095-2.265,1.095-.83,0-1.505-.275-2.025-.825s-.78-1.29-.78-2.22v-4.605h1.29v4.41c0,.66.155,1.17.465,1.53.32.35.765.525,1.335.525.47,0,.875-.135,1.215-.405.35-.27.605-.63.765-1.08v-4.98h1.29Z" fill="#fdf9df"/><path d="M116.963,307.743c-1.13,0-2.07-.375-2.82-1.125-.74-.76-1.11-1.685-1.11-2.775s.37-2.01,1.11-2.76c.75-.76,1.69-1.14,2.82-1.14c1.12,0,2.05.38,2.79,1.14.75.75,1.125,1.67,1.125,2.76s-.375,2.015-1.125,2.775c-.74.75-1.67,1.125-2.79,1.125Zm-1.89-1.98c.49.52,1.12.78,1.89.78s1.395-.26,1.875-.78.72-1.16.72-1.92-.24-1.4-.72-1.92-1.105-.78-1.875-.78-1.4.26-1.89.78c-.48.52-.72,1.16-.72,1.92s.24,1.4.72,1.92Z" fill="#fdf9df"/><path d="M108.521,307.595v-7.5h1.29v1.11c.15-.32.415-.595.795-.825.39-.24.8-.36,1.23-.36.22,0,.44.025.66.075l-.165,1.29c-.18-.06-.395-.09-.645-.09-.4,0-.78.13-1.14.39-.35.25-.595.6-.735,1.05v4.86h-1.29Z" fill="#fdf9df"/><path d="M99.768,307.743c-1.13,0-2.07-.375-2.82-1.125-.74-.75-1.11-1.675-1.11-2.775s.37-2.025,1.11-2.775c.75-.75,1.69-1.125,2.82-1.125.76,0,1.44.18,2.04.54.61.36,1.085.85,1.425,1.47l-1.125.63c-.22-.44-.535-.79-.945-1.05-.4-.26-.865-.39-1.395-.39-.77,0-1.4.26-1.89.78s-.735,1.16-.735,1.92.245,1.4.735,1.92s1.12.78,1.89.78c.53,0,.995-.13,1.395-.39.41-.26.725-.61.945-1.05l1.125.63c-.34.62-.815,1.11-1.425,1.47-.6.36-1.28.54-2.04.54Z" fill="#fdf9df"/><path d="M93.9906,298.13c-.17.17-.385.255-.645.255s-.48-.085-.66-.255c-.18-.18-.27-.4-.27-.66c0-.25.09-.465.27-.645s.4-.27.66-.27.475.09.645.27c.18.18.27.395.27.645c0,.26-.09.48-.27.66Zm-1.305,9.465v-7.5h1.29v7.5h-1.29Zm-11.025,0v-6.315h-1.77v-1.185h1.77v-1.095c0-.74.215-1.33.645-1.77.44-.45,1.03-.675,1.77-.675.57,0,1.095.125,1.575.375l-.495,1.08c-.39-.18-.73-.27-1.02-.27-.38,0-.675.12-.885.36-.2.23-.3.555-.3.975v1.02h2.16v1.185h-2.16v6.315h-1.29Zm5.805,0v-6.315h-1.515v-1.185h1.515v-1.095c0-.75.215-1.345.645-1.785s1.02-.66,1.77-.66c.56,0,1.08.125,1.56.375l-.48,1.08c-.39-.18-.73-.27-1.02-.27-.38,0-.675.12-.885.36-.2.23-.3.555-.3.975v1.02h2.55v1.185h-2.55v6.315h-1.29Z" fill="#fdf9df"/><path d="M74.6999,307.743c-1.1,0-2.005-.375-2.715-1.125-.71-.76-1.065-1.685-1.065-2.775s.355-2.01,1.065-2.76c.71-.76,1.615-1.14,2.715-1.14c1.03,0,1.845.325,2.445.975v-.825h1.29v7.5h-1.29v-.825c-.6.65-1.415.975-2.445.975Zm.105-1.185c1.05,0,1.83-.415,2.34-1.245v-2.955c-.51-.82-1.29-1.23-2.34-1.23-.74,0-1.35.265-1.83.795-.48.52-.72,1.16-.72,1.92s.24,1.405.72,1.935c.48.52,1.09.78,1.83.78Z" fill="#fdf9df"/><path d="M66.3789,307.595v-7.5h1.29v1.11c.15-.32.415-.595.795-.825.39-.24.8-.36,1.23-.36.22,0,.44.025.66.075l-.165,1.29c-.18-.06-.395-.09-.645-.09-.4,0-.78.13-1.14.39-.35.25-.595.6-.735,1.05v4.86h-1.29Z" fill="#fdf9df"/><path d="M61.5709,307.593v-9.33h-3.315v-1.32h7.995v1.32h-3.315v9.33h-1.365Z" fill="#fdf9df"/><path id="eSCAF9RI51892" d="M190.457,291.67l3.242,3.242c.075.075.135.164.176.263.041.098.061.204.061.31c0,.107-.02.212-.061.311-.041.098-.101.187-.176.263l-3.242,3.242c-.152.152-.358.237-.574.237-.215,0-.421-.085-.573-.237s-.237-.359-.237-.574.085-.421.237-.573l1.859-1.858h-5.813l-5.674,5.673l5.674,5.674h5.813l-1.859-1.859c-.152-.152-.237-.358-.237-.573s.085-.421.237-.573.358-.238.573-.238c.216,0,.422.086.574.238l3.242,3.242c.075.075.135.164.176.263.041.098.061.203.061.31c0,.106-.02.212-.061.31-.041.099-.101.188-.176.263l-3.242,3.242c-.075.076-.165.135-.263.176-.099.041-.204.062-.311.062-.106,0-.212-.021-.31-.062s-.188-.1-.263-.176c-.152-.152-.237-.358-.237-.573c0-.107.02-.212.061-.31.041-.099.101-.188.176-.263l1.859-1.859h-6.148c-.107.001-.212-.02-.311-.061-.098-.041-.188-.1-.263-.176l-6.246-6.246h-4.527c-.215,0-.421-.086-.573-.238s-.238-.358-.238-.573.086-.421.238-.573.358-.237.573-.237h4.527l6.246-6.247c.075-.075.165-.135.263-.176.099-.04.204-.061.311-.061h6.148l-1.859-1.858c-.152-.152-.237-.359-.237-.574s.085-.421.237-.573.358-.238.573-.238c.216,0,.422.086.574.238Z" fill="#fdf9df"/><path d="M478.221,310.653c-.74,0-1.405-.125-1.995-.375-.58-.25-1.04-.585-1.38-1.005l.885-.9c.63.74,1.46,1.11,2.49,1.11.66,0,1.235-.205,1.725-.615.49-.4.735-.99.735-1.77v-.57c-.6.66-1.415.99-2.445.99-1.1,0-2.01-.365-2.73-1.095-.71-.74-1.065-1.64-1.065-2.7s.36-1.955,1.08-2.685s1.625-1.095,2.715-1.095c1.03,0,1.845.325,2.445.975v-.825h1.29v7.05c0,1.14-.355,2.01-1.065,2.61s-1.605.9-2.685.9Zm.12-4.335c1.05,0,1.83-.41,2.34-1.23v-2.73c-.51-.82-1.29-1.23-2.34-1.23-.74,0-1.355.25-1.845.75-.48.5-.72,1.115-.72,1.845c0,.74.24,1.36.72,1.86.49.49,1.105.735,1.845.735Z" fill="#fdf9df"/><path d="M466.193,307.593v-7.5h1.29v.945c.5-.73,1.29-1.095,2.37-1.095.85,0,1.535.275,2.055.825.53.55.795,1.29.795,2.22v4.605h-1.275v-4.41c0-.65-.17-1.155-.51-1.515-.33-.36-.785-.54-1.365-.54-1.04,0-1.73.495-2.07,1.485v4.98h-1.29Z" fill="#fdf9df"/><path d="M463.762,298.13c-.17.17-.384.255-.644.255s-.481-.085-.661-.255c-.18-.18-.269-.4-.269-.66c0-.25.089-.465.269-.645s.401-.27.661-.27.474.09.644.27c.18.18.271.395.271.645c0,.26-.091.48-.271.66Zm-1.305,9.465v-7.5h1.29v7.5h-1.29Z" fill="#fdf9df"/><path d="M459.441,307.668c-.67,0-1.23-.195-1.68-.585-.44-.4-.66-.97-.66-1.71v-4.095h-1.89v-1.185h1.89v-2.13h1.29v2.13h2.325v1.185h-2.325v3.93c0,.87.4,1.305,1.2,1.305.4,0,.76-.095,1.08-.285l.39,1.095c-.44.23-.98.345-1.62.345Z" fill="#fdf9df"/><path d="M453.802,298.13c-.17.17-.385.255-.645.255s-.48-.085-.66-.255c-.18-.18-.27-.4-.27-.66c0-.25.09-.465.27-.645s.4-.27.66-.27.475.09.645.27c.18.18.27.395.27.645c0,.26-.09.48-.27.66Zm-1.305,9.465v-7.5h1.29v7.5h-1.29Z" fill="#fdf9df"/><path d="M448.885,307.593v-4.395c0-.64-.15-1.145-.45-1.515s-.72-.555-1.26-.555c-.92,0-1.54.49-1.86,1.47.02.18.03.31.03.39v4.605h-1.29v-4.395c0-.64-.15-1.145-.45-1.515s-.715-.555-1.245-.555c-.44,0-.82.12-1.14.36s-.555.56-.705.96v5.145h-1.29v-7.5h1.29v.795c.5-.63,1.215-.945,2.145-.945.97,0,1.7.41,2.19,1.23.56-.82,1.4-1.23,2.52-1.23.88,0,1.565.275,2.055.825.5.55.75,1.29.75,2.22v4.605h-1.29Z" fill="#fdf9df"/><path d="M436.794,298.13c-.17.17-.385.255-.645.255s-.48-.085-.66-.255c-.18-.18-.27-.4-.27-.66c0-.25.09-.465.27-.645s.4-.27.66-.27.475.09.645.27c.18.18.27.395.27.645c0,.26-.09.48-.27.66Zm-1.305,9.465v-7.5h1.29v7.5h-1.29Z" fill="#fdf9df"/><path d="M431.754,307.595v-10.95h1.29v10.95h-1.29Z" fill="#fdf9df"/><path d="M422.721,307.743c-1.15,0-2.085-.37-2.805-1.11s-1.08-1.67-1.08-2.79c0-1.11.365-2.035,1.095-2.775.73-.75,1.665-1.125,2.805-1.125c1.01,0,1.855.34,2.535,1.02.69.67,1.035,1.585,1.035,2.745c0,.15-.005.28-.015.39h-6.15c.02.7.27,1.285.75,1.755.49.47,1.105.705,1.845.705c1.05,0,1.83-.435,2.34-1.305l1.02.705c-.73,1.19-1.855,1.785-3.375,1.785Zm-2.49-4.695h4.755c-.1-.6-.365-1.075-.795-1.425-.42-.36-.92-.54-1.5-.54-.59,0-1.12.18-1.59.54-.46.35-.75.825-.87,1.425Z" fill="#fdf9df"/><path d="M416.537,307.668c-.67,0-1.23-.195-1.68-.585-.44-.4-.66-.97-.66-1.71v-4.095h-1.89v-1.185h1.89v-2.13h1.29v2.13h2.325v1.185h-2.325v3.93c0,.87.4,1.305,1.2,1.305.4,0,.76-.095,1.08-.285l.39,1.095c-.44.23-.98.345-1.62.345Z" fill="#fdf9df"/><path d="M407.161,307.743c-1.1,0-2.005-.375-2.715-1.125-.71-.76-1.065-1.685-1.065-2.775s.355-2.01,1.065-2.76c.71-.76,1.615-1.14,2.715-1.14c1.03,0,1.845.325,2.445.975v-.825h1.29v7.5h-1.29v-.825c-.6.65-1.415.975-2.445.975Zm.105-1.185c1.05,0,1.83-.415,2.34-1.245v-2.955c-.51-.82-1.29-1.23-2.34-1.23-.74,0-1.35.265-1.83.795-.48.52-.72,1.16-.72,1.92s.24,1.405.72,1.935c.48.52,1.09.78,1.83.78Z" fill="#fdf9df"/><path d="M394.83,307.593v-10.65h3.63c.98,0,1.755.27,2.325.81.57.53.855,1.24.855,2.13c0,.78-.235,1.42-.705,1.92-.46.5-1.105.81-1.935.93l4.11,4.86h-1.755l-4.095-4.845h-1.035v4.845h-1.395Zm1.395-6.09h2.07c.62,0,1.1-.135,1.44-.405.34-.28.51-.685.51-1.215s-.17-.935-.51-1.215c-.34-.29-.82-.435-1.44-.435h-2.07v3.27Z" fill="#fdf9df"/><path id="eSCAF9RI518105" d="M375.783,304.636c.076.076.135.165.176.264.041.098.062.203.062.31c0,.106-.021.212-.062.31-.041.099-.1.188-.176.263-.075.076-.164.135-.263.176-.098.041-.204.062-.31.062-.107,0-.212-.021-.31-.062-.099-.041-.188-.1-.264-.176l-6.483-6.484c-.152-.152-.238-.358-.238-.573s.086-.421.238-.573c.152-.153.358-.238.573-.238s.421.085.573.238l6.484,6.483Zm6.721-2.668c0,2.084-.618,4.121-1.775,5.854-1.158,1.732-2.804,3.083-4.729,3.88-1.925.798-4.044,1.006-6.088.6-2.043-.407-3.921-1.41-5.394-2.884-1.474-1.473-2.477-3.351-2.884-5.395-.406-2.043-.198-4.162.6-6.087.797-1.925,2.148-3.571,3.88-4.729c1.733-1.157,3.77-1.775,5.854-1.775c2.793.003,5.472,1.114,7.447,3.089s3.086,4.653,3.089,7.447Zm-1.621,0c0-1.763-.523-3.487-1.502-4.953-.98-1.466-2.372-2.609-4.001-3.284s-3.422-.851-5.151-.507c-1.73.344-3.318,1.193-4.565,2.44s-2.096,2.835-2.44,4.565c-.344,1.729-.168,3.522.507,5.151s1.818,3.021,3.284,4.001c1.466.979,3.19,1.502,4.953,1.502c2.364-.002,4.63-.943,6.301-2.614s2.612-3.937,2.614-6.301Z" transform="translate(-1.044311 0)" fill="#fdf9df"/><path d="M483.498,351.754h-1.44l1.53-3.3-3.285-7.11h1.425l2.58,5.7l2.565-5.7h1.44l-4.815,10.41Z" fill="#fdf9df"/><path d="M478.382,348.918c-.67,0-1.23-.195-1.68-.585-.44-.4-.66-.97-.66-1.71v-4.095h-1.89v-1.185h1.89v-2.13h1.29v2.13h2.325v1.185h-2.325v3.93c0,.87.4,1.305,1.2,1.305.4,0,.76-.095,1.08-.285l.39,1.095c-.44.23-.98.345-1.62.345Z" fill="#fdf9df"/><path d="M472.741,339.38c-.17.17-.385.255-.645.255s-.48-.085-.66-.255c-.18-.18-.27-.4-.27-.66c0-.25.09-.465.27-.645s.4-.27.66-.27.475.09.645.27c.18.18.27.395.27.645c0,.26-.09.48-.27.66Zm-1.305,9.465v-7.5h1.29v7.5h-1.29Z" fill="#fdf9df"/><path d="M467.701,348.845v-10.95h1.29v10.95h-1.29Z" fill="#fdf9df"/><path d="M465.27,339.38c-.17.17-.385.255-.645.255s-.48-.085-.66-.255c-.18-.18-.27-.4-.27-.66c0-.25.09-.465.27-.645s.4-.27.66-.27.475.09.645.27c.18.18.27.395.27.645c0,.26-.09.48-.27.66Zm-1.305,9.465v-7.5h1.29v7.5h-1.29Z" fill="#fdf9df"/><path d="M458.34,348.995c-1.01,0-1.825-.325-2.445-.975v.825h-1.29v-10.95h1.29v4.275c.62-.65,1.435-.975,2.445-.975c1.1,0,2.005.38,2.715,1.14.71.75,1.065,1.67,1.065,2.76s-.355,2.015-1.065,2.775c-.71.75-1.615,1.125-2.715,1.125Zm-.105-1.185c.74,0,1.35-.26,1.83-.78.48-.53.72-1.175.72-1.935s-.24-1.4-.72-1.92c-.48-.53-1.09-.795-1.83-.795-1.05,0-1.83.41-2.34,1.23v2.955c.51.83,1.29,1.245,2.34,1.245Z" fill="#fdf9df"/><path d="M448.44,348.993c-1.1,0-2.005-.375-2.715-1.125-.71-.76-1.065-1.685-1.065-2.775s.355-2.01,1.065-2.76c.71-.76,1.615-1.14,2.715-1.14c1.03,0,1.845.325,2.445.975v-.825h1.29v7.5h-1.29v-.825c-.6.65-1.415.975-2.445.975Zm.105-1.185c1.05,0,1.83-.415,2.34-1.245v-2.955c-.51-.82-1.29-1.23-2.34-1.23-.74,0-1.35.265-1.83.795-.48.52-.72,1.16-.72,1.92s.24,1.405.72,1.935c.48.52,1.09.78,1.83.78Z" fill="#fdf9df"/><path d="M439.543,348.844l-3.465-7.5h1.44l2.565,5.685l2.565-5.685h1.44l-3.465,7.5h-1.08Z" fill="#fdf9df"/><path d="M431.812,348.845v-7.5h1.291v1.11c.15-.32.414-.595.794-.825.39-.24.8-.36,1.23-.36.22,0,.44.025.66.075l-.164,1.29c-.18-.06-.395-.09-.645-.09-.4,0-.78.13-1.14.39-.35.25-.595.6-.735,1.05v4.86h-1.291Z" fill="#fdf9df"/><path d="M426.397,348.993c-1.15,0-2.085-.37-2.805-1.11s-1.08-1.67-1.08-2.79c0-1.11.365-2.035,1.095-2.775.73-.75,1.665-1.125,2.805-1.125c1.01,0,1.855.34,2.535,1.02.69.67,1.035,1.585,1.035,2.745c0,.15-.005.28-.015.39h-6.15c.02.7.27,1.285.75,1.755.49.47,1.105.705,1.845.705c1.05,0,1.83-.435,2.34-1.305l1.02.705c-.73,1.19-1.855,1.785-3.375,1.785Zm-2.49-4.695h4.755c-.1-.6-.365-1.075-.795-1.425-.42-.36-.92-.54-1.5-.54-.59,0-1.12.18-1.59.54-.46.35-.75.825-.87,1.425Z" fill="#fdf9df"/><path d="M418.608,348.993c-.69,0-1.295-.145-1.815-.435-.52-.3-.895-.735-1.125-1.305l1.05-.585c.14.37.385.66.735.87s.74.315,1.17.315c.37,0,.68-.09.93-.27s.375-.425.375-.735c0-.27-.1-.495-.3-.675-.19-.18-.525-.345-1.005-.495l-.75-.24c-1.25-.36-1.875-1.09-1.875-2.19c0-.62.245-1.115.735-1.485.5-.38,1.115-.57,1.845-.57c1.14,0,1.965.435,2.475,1.305l-.96.66c-.41-.57-.93-.855-1.56-.855-.34,0-.635.085-.885.255-.24.16-.36.375-.36.645c0,.25.075.465.225.645.16.17.44.315.84.435l.825.255c1.36.42,2.04,1.155,2.04,2.205c0,.7-.245,1.25-.735,1.65-.48.4-1.105.6-1.875.6Z" fill="#fdf9df"/><path d="M410.733,348.995c-1.01,0-1.825-.325-2.445-.975v.825h-1.29v-10.95h1.29v4.275c.62-.65,1.435-.975,2.445-.975c1.1,0,2.005.38,2.715,1.14.71.75,1.065,1.67,1.065,2.76s-.355,2.015-1.065,2.775c-.71.75-1.615,1.125-2.715,1.125Zm-.105-1.185c.74,0,1.35-.26,1.83-.78.48-.53.72-1.175.72-1.935s-.24-1.4-.72-1.92c-.48-.53-1.09-.795-1.83-.795-1.05,0-1.83.41-2.34,1.23v2.955c.51.83,1.29,1.245,2.34,1.245Z" fill="#fdf9df"/><path d="M399.601,347.704c1.17,0,2.145-.405,2.925-1.215.79-.81,1.185-1.8,1.185-2.97s-.395-2.16-1.185-2.97c-.78-.81-1.755-1.215-2.925-1.215-1.16,0-2.135.405-2.925,1.215-.78.81-1.17,1.8-1.17,2.97s.39,2.16,1.17,2.97c.79.81,1.765,1.215,2.925,1.215Zm0,1.32c-1.53,0-2.83-.53-3.9-1.59-1.07-1.07-1.605-2.375-1.605-3.915s.535-2.84,1.605-3.9c1.07-1.07,2.37-1.605,3.9-1.605c1.54,0,2.84.535,3.9,1.605c1.07,1.06,1.605,2.36,1.605,3.9s-.535,2.845-1.605,3.915c-1.06,1.06-2.36,1.59-3.9,1.59Z" fill="#fdf9df"/><path id="eSCAF9RI518119" d="M384.057,342.89c-.035-.08-.893-1.984-2.801-3.891-2.542-2.542-5.753-3.886-9.286-3.886-3.534,0-6.744,1.344-9.286,3.886-1.908,1.907-2.77,3.814-2.802,3.891-.046.104-.07.216-.07.329c0,.114.024.226.07.329.036.08.894,1.983,2.802,3.891c2.542,2.541,5.752,3.884,9.286,3.884c3.533,0,6.744-1.343,9.286-3.884c1.908-1.908,2.766-3.811,2.801-3.891.046-.103.07-.215.07-.329c0-.113-.024-.225-.07-.329Zm-12.087,6.812c-3.119,0-5.843-1.134-8.098-3.369-.925-.92-1.713-1.969-2.337-3.115.624-1.146,1.412-2.195,2.337-3.115c2.255-2.235,4.979-3.369,8.098-3.369c3.118,0,5.842,1.134,8.097,3.369.928.92,1.717,1.969,2.343,3.115-.731,1.364-3.913,6.484-10.44,6.484Zm0-11.347c-.962,0-1.902.285-2.702.82-.8.534-1.423,1.294-1.791,2.182-.368.889-.464,1.867-.277,2.81.188.943.651,1.81,1.331,2.49s1.547,1.143,2.49,1.331c.943.187,1.921.091,2.81-.277.888-.368,1.648-.991,2.182-1.791s.82-1.74.82-2.702c-.002-1.289-.514-2.525-1.426-3.437s-2.148-1.424-3.437-1.426Zm0,8.105c-.641,0-1.268-.19-1.801-.546-.534-.357-.949-.863-1.194-1.455-.246-.593-.31-1.244-.185-1.873s.434-1.207.887-1.66c.454-.454,1.031-.762,1.66-.888.629-.125,1.281-.06,1.873.185.593.245,1.099.661,1.455,1.194.357.533.547,1.16.547,1.801c0,.86-.342,1.685-.95,2.293-.608.607-1.432.949-2.292.949Z" fill="#fdf9df"/><path d="M486.568,389.843v-7.5h1.29v.945c.5-.73,1.29-1.095,2.37-1.095.85,0,1.535.275,2.055.825.53.55.795,1.29.795,2.22v4.605h-1.275v-4.41c0-.65-.17-1.155-.51-1.515-.33-.36-.785-.54-1.365-.54-1.04,0-1.73.495-2.07,1.485v4.98h-1.29Z" fill="#fdf9df"/><path d="M480.801,389.993c-1.13,0-2.07-.375-2.82-1.125-.74-.76-1.11-1.685-1.11-2.775s.37-2.01,1.11-2.76c.75-.76,1.69-1.14,2.82-1.14c1.12,0,2.05.38,2.79,1.14.75.75,1.125,1.67,1.125,2.76s-.375,2.015-1.125,2.775c-.74.75-1.67,1.125-2.79,1.125Zm-1.89-1.98c.49.52,1.12.78,1.89.78s1.395-.26,1.875-.78.72-1.16.72-1.92-.24-1.4-.72-1.92-1.105-.78-1.875-.78-1.4.26-1.89.78c-.48.52-.72,1.16-.72,1.92s.24,1.4.72,1.92Z" fill="#fdf9df"/><path d="M475.042,380.38c-.17.17-.385.255-.645.255s-.48-.085-.66-.255c-.18-.18-.27-.4-.27-.66c0-.25.09-.465.27-.645s.4-.27.66-.27.475.09.645.27c.18.18.27.395.27.645c0,.26-.09.48-.27.66Zm-1.305,9.465v-7.5h1.29v7.5h-1.29Z" fill="#fdf9df"/><path d="M470.72,389.918c-.67,0-1.23-.195-1.68-.585-.44-.4-.66-.97-.66-1.71v-4.095h-1.89v-1.185h1.89v-2.13h1.29v2.13h2.325v1.185h-2.325v3.93c0,.87.4,1.305,1.2,1.305.4,0,.76-.095,1.08-.285l.39,1.095c-.44.23-.98.345-1.62.345Z" fill="#fdf9df"/><path d="M461.346,389.993c-1.1,0-2.005-.375-2.715-1.125-.71-.76-1.065-1.685-1.065-2.775s.355-2.01,1.065-2.76c.71-.76,1.615-1.14,2.715-1.14c1.03,0,1.845.325,2.445.975v-.825h1.29v7.5h-1.29v-.825c-.6.65-1.415.975-2.445.975Zm.105-1.185c1.05,0,1.83-.415,2.34-1.245v-2.955c-.51-.82-1.29-1.23-2.34-1.23-.74,0-1.35.265-1.83.795-.48.52-.72,1.16-.72,1.92s.24,1.405.72,1.935c.48.52,1.09.78,1.83.78Z" fill="#fdf9df"/><path d="M450.387,389.844v-1.02l4.29-5.295h-4.23v-1.185h5.895v1.035l-4.29,5.28h4.425v1.185h-6.09Z" fill="#fdf9df"/><path d="M448.571,380.38c-.17.17-.385.255-.645.255s-.48-.085-.66-.255c-.18-.18-.27-.4-.27-.66c0-.25.09-.465.27-.645s.4-.27.66-.27.475.09.645.27c.18.18.27.395.27.645c0,.26-.09.48-.27.66Zm-1.305,9.465v-7.5h1.29v7.5h-1.29Z" fill="#fdf9df"/><path d="M443.531,389.845v-10.95h1.29v10.95h-1.29Z" fill="#fdf9df"/><path d="M437.366,389.993c-1.1,0-2.005-.375-2.715-1.125-.71-.76-1.065-1.685-1.065-2.775s.355-2.01,1.065-2.76c.71-.76,1.615-1.14,2.715-1.14c1.03,0,1.845.325,2.445.975v-.825h1.29v7.5h-1.29v-.825c-.6.65-1.415.975-2.445.975Zm.105-1.185c1.05,0,1.83-.415,2.34-1.245v-2.955c-.51-.82-1.29-1.23-2.34-1.23-.74,0-1.35.265-1.83.795-.48.52-.72,1.16-.72,1.92s.24,1.405.72,1.935c.48.52,1.09.78,1.83.78Z" fill="#fdf9df"/><path d="M430.56,389.843v-4.395c0-.64-.15-1.145-.45-1.515s-.72-.555-1.26-.555c-.92,0-1.54.49-1.86,1.47.02.18.03.31.03.39v4.605h-1.29v-4.395c0-.64-.15-1.145-.45-1.515s-.715-.555-1.245-.555c-.44,0-.82.12-1.14.36s-.555.56-.705.96v5.145h-1.29v-7.5h1.29v.795c.5-.63,1.215-.945,2.145-.945.97,0,1.7.41,2.19,1.23.56-.82,1.4-1.23,2.52-1.23.88,0,1.565.275,2.055.825.5.55.75,1.29.75,2.22v4.605h-1.29Z" fill="#fdf9df"/><path d="M415.51,389.845v-7.5h1.29v1.11c.15-.32.415-.595.795-.825.39-.24.8-.36,1.23-.36.22,0,.44.025.66.075l-.165,1.29c-.18-.06-.395-.09-.645-.09-.4,0-.78.13-1.14.39-.35.25-.595.6-.735,1.05v4.86h-1.29Z" fill="#fdf9df"/><path d="M409.743,389.993c-1.13,0-2.07-.375-2.82-1.125-.74-.76-1.111-1.685-1.111-2.775s.371-2.01,1.111-2.76c.75-.76,1.69-1.14,2.82-1.14c1.12,0,2.05.38,2.79,1.14.75.75,1.125,1.67,1.125,2.76s-.375,2.015-1.125,2.775c-.74.75-1.67,1.125-2.79,1.125Zm-1.891-1.98c.491.52,1.121.78,1.891.78s1.395-.26,1.875-.78.719-1.16.719-1.92-.239-1.4-.719-1.92-1.105-.78-1.875-.78-1.4.26-1.891.78c-.479.52-.719,1.16-.719,1.92s.24,1.4.719,1.92Z" fill="#fdf9df"/><path d="M403.905,389.843h-1.2l-6.48-8.295v8.295h-1.395v-10.65h1.215l6.48,8.295v-8.295h1.38v10.65Z" fill="#fdf9df"/><path id="eSCAF9RI518133" d="M382.504,392.323c0,.215-.085.421-.237.573s-.358.237-.573.237h-19.452c-.215,0-.421-.085-.573-.237s-.237-.358-.237-.573v-16.21c0-.215.085-.421.237-.573s.358-.237.573-.237.421.085.573.237.238.358.238.573v15.399h18.641c.215,0,.421.086.573.238s.237.358.237.573Zm-10.131-4.863c.241,0,.476-.071.676-.205.2-.133.355-.323.447-.545.092-.223.116-.467.07-.703-.047-.236-.163-.452-.333-.622s-.387-.286-.623-.333c-.235-.047-.48-.023-.702.069s-.412.248-.546.448c-.133.2-.205.435-.205.675c0,.323.129.632.357.86s.537.356.859.356Zm-2.431-5.673c.24,0,.475-.072.675-.205.2-.134.356-.324.448-.546s.116-.466.069-.702-.163-.453-.333-.623-.386-.286-.622-.332c-.236-.047-.48-.023-.703.069-.222.092-.412.248-.545.447-.134.2-.205.435-.205.676c0,.322.128.632.356.86s.537.356.86.356Zm-3.242,7.294c.24,0,.475-.071.675-.205s.356-.323.448-.546c.092-.222.116-.466.069-.702s-.163-.452-.333-.622-.386-.286-.622-.333-.48-.023-.702.069c-.223.092-.412.248-.546.448s-.205.435-.205.675c0,.323.128.632.356.86s.537.356.86.356Zm9.726-4.863c.24,0,.475-.071.675-.205.2-.133.356-.323.448-.545.092-.223.116-.467.069-.703s-.163-.452-.333-.622-.386-.286-.622-.333-.481-.023-.703.069-.412.248-.545.448c-.134.2-.205.435-.205.675c0,.323.128.632.356.86s.537.356.86.356Zm2.431-4.052c.24,0,.476-.072.675-.205.2-.134.356-.324.448-.546s.116-.466.069-.702c-.046-.236-.162-.453-.332-.623s-.387-.286-.623-.332c-.236-.047-.48-.023-.702.069s-.412.248-.546.447c-.133.2-.205.435-.205.676c0,.322.128.632.356.86s.538.356.86.356Zm-2.026,7.699c0,.241.071.476.205.676.133.2.323.355.545.447s.467.117.703.07.452-.163.622-.333.286-.387.333-.623c.047-.235.023-.48-.069-.702s-.248-.412-.448-.546c-.2-.133-.435-.204-.675-.204-.323,0-.632.128-.86.356s-.356.537-.356.859Z" fill="#fdf9df"/><path d="M482.678,430.993c-1.13,0-2.07-.375-2.82-1.125-.74-.75-1.11-1.675-1.11-2.775s.37-2.025,1.11-2.775c.75-.75,1.69-1.125,2.82-1.125.76,0,1.44.18,2.04.54.61.36,1.085.85,1.425,1.47l-1.125.63c-.22-.44-.535-.79-.945-1.05-.4-.26-.865-.39-1.395-.39-.77,0-1.4.26-1.89.78s-.735,1.16-.735,1.92.245,1.4.735,1.92s1.12.78,1.89.78c.53,0,.995-.13,1.395-.39.41-.26.725-.61.945-1.05l1.125.63c-.34.62-.815,1.11-1.425,1.47-.6.36-1.28.54-2.04.54Z" fill="#fdf9df"/><path d="M476.901,421.38c-.17.17-.385.255-.645.255s-.48-.085-.66-.255c-.18-.18-.27-.4-.27-.66c0-.25.09-.465.27-.645s.4-.27.66-.27.475.09.645.27c.18.18.27.395.27.645c0,.26-.09.48-.27.66Zm-1.305,9.465v-7.5h1.29v7.5h-1.29Z" fill="#fdf9df"/><path d="M469.417,433.903c-.74,0-1.405-.125-1.995-.375-.58-.25-1.04-.585-1.38-1.005l.885-.9c.63.74,1.46,1.11,2.49,1.11.66,0,1.235-.205,1.725-.615.49-.4.735-.99.735-1.77v-.57c-.6.66-1.415.99-2.445.99-1.1,0-2.01-.365-2.73-1.095-.71-.74-1.065-1.64-1.065-2.7s.36-1.955,1.08-2.685s1.625-1.095,2.715-1.095c1.03,0,1.845.325,2.445.975v-.825h1.29v7.05c0,1.14-.355,2.01-1.065,2.61s-1.605.9-2.685.9Zm.12-4.335c1.05,0,1.83-.41,2.34-1.23v-2.73c-.51-.82-1.29-1.23-2.34-1.23-.74,0-1.355.25-1.845.75-.48.5-.72,1.115-.72,1.845c0,.74.24,1.36.72,1.86.49.49,1.105.735,1.845.735Z" fill="#fdf9df"/><path d="M460.455,430.993c-1.13,0-2.07-.375-2.82-1.125-.74-.76-1.11-1.685-1.11-2.775s.37-2.01,1.11-2.76c.75-.76,1.69-1.14,2.82-1.14c1.12,0,2.05.38,2.79,1.14.75.75,1.125,1.67,1.125,2.76s-.375,2.015-1.125,2.775c-.74.75-1.67,1.125-2.79,1.125Zm-1.89-1.98c.49.52,1.12.78,1.89.78s1.395-.26,1.875-.78.72-1.16.72-1.92-.24-1.4-.72-1.92-1.105-.78-1.875-.78-1.4.26-1.89.78c-.48.52-.72,1.16-.72,1.92s.24,1.4.72,1.92Z" fill="#fdf9df"/><path d="M453.391,430.845v-10.95h1.29v10.95h-1.29Z" fill="#fdf9df"/><path d="M446.16,430.843v-4.395c0-.64-.15-1.145-.45-1.515s-.72-.555-1.26-.555c-.92,0-1.54.49-1.86,1.47.02.18.03.31.03.39v4.605h-1.29v-4.395c0-.64-.15-1.145-.45-1.515s-.715-.555-1.245-.555c-.44,0-.82.12-1.14.36s-.555.56-.705.96v5.145h-1.29v-7.5h1.29v.795c.5-.63,1.215-.945,2.145-.945.97,0,1.7.41,2.19,1.23.56-.82,1.4-1.23,2.52-1.23.88,0,1.565.275,2.055.825.5.55.75,1.29.75,2.22v4.605h-1.29Z" fill="#fdf9df"/><path d="M430.733,430.993c-1.13,0-2.07-.375-2.82-1.125-.74-.76-1.11-1.685-1.11-2.775s.37-2.01,1.11-2.76c.75-.76,1.69-1.14,2.82-1.14c1.12,0,2.05.38,2.79,1.14.75.75,1.125,1.67,1.125,2.76s-.375,2.015-1.125,2.775c-.74.75-1.67,1.125-2.79,1.125Zm-1.89-1.98c.49.52,1.12.78,1.89.78s1.395-.26,1.875-.78.72-1.16.72-1.92-.24-1.4-.72-1.92-1.105-.78-1.875-.78-1.4.26-1.89.78c-.48.52-.72,1.16-.72,1.92s.24,1.4.72,1.92Z" fill="#fdf9df"/><path d="M424.519,430.918c-.67,0-1.23-.195-1.68-.585-.44-.4-.66-.97-.66-1.71v-4.095h-1.89v-1.185h1.89v-2.13h1.29v2.13h2.325v1.185h-2.325v3.93c0,.87.4,1.305,1.2,1.305.4,0,.76-.095,1.08-.285l.39,1.095c-.44.23-.98.345-1.62.345Z" fill="#fdf9df"/><path d="M416.909,430.993c-.69,0-1.295-.145-1.815-.435-.52-.3-.895-.735-1.125-1.305l1.05-.585c.14.37.385.66.735.87s.74.315,1.17.315c.37,0,.68-.09.93-.27s.375-.425.375-.735c0-.27-.1-.495-.3-.675-.19-.18-.525-.345-1.005-.495l-.75-.24c-1.25-.36-1.875-1.09-1.875-2.19c0-.62.245-1.115.735-1.485.5-.38,1.115-.57,1.845-.57c1.14,0,1.965.435,2.475,1.305l-.96.66c-.41-.57-.93-.855-1.56-.855-.34,0-.635.085-.885.255-.24.16-.36.375-.36.645c0,.25.075.465.225.645.16.17.44.315.84.435l.825.255c1.36.42,2.04,1.155,2.04,2.205c0,.7-.245,1.25-.735,1.65-.48.4-1.105.6-1.875.6Z" fill="#fdf9df"/><path d="M412.214,423.344v7.5h-1.29v-.945c-.5.73-1.255,1.095-2.265,1.095-.83,0-1.505-.275-2.025-.825s-.78-1.29-.78-2.22v-4.605h1.29v4.41c0,.66.155,1.17.465,1.53.32.35.765.525,1.335.525.47,0,.875-.135,1.215-.405.35-.27.605-.63.765-1.08v-4.98h1.29Z" fill="#fdf9df"/><path d="M399.601,431.024c-1.53,0-2.83-.53-3.9-1.59-1.07-1.07-1.605-2.375-1.605-3.915s.535-2.84,1.605-3.9c1.07-1.07,2.37-1.605,3.9-1.605c1.01,0,1.925.23,2.745.69s1.475,1.09,1.965,1.89l-1.17.705c-.38-.61-.875-1.09-1.485-1.44s-1.295-.525-2.055-.525c-1.16,0-2.135.405-2.925,1.215-.78.81-1.17,1.8-1.17,2.97s.39,2.16,1.17,2.97c.79.81,1.765,1.215,2.925,1.215.76,0,1.445-.175,2.055-.525s1.105-.83,1.485-1.44l1.17.705c-.49.8-1.145,1.43-1.965,1.89s-1.735.69-2.745.69Z" fill="#fdf9df"/><path id="eSCAF9RI518145" d="M383.89,419.782l-3.242-3.242c-.152-.152-.358-.237-.573-.237s-.422.085-.574.237-.237.359-.237.574.085.421.237.573l1.859,1.858h-1.285c-4.998,0-6.185,2.849-7.232,5.361-.95,2.281-1.714,4.113-5.013,4.341-.207-.983-.771-1.854-1.584-2.444-.812-.59-1.815-.858-2.814-.75-.998.107-1.921.581-2.59,1.33s-1.036,1.72-1.029,2.724c.006,1.004.385,1.971,1.063,2.711.678.741,1.607,1.204,2.607,1.298c1,.095,1.999-.185,2.804-.785s1.359-1.478,1.553-2.463c4.383-.269,5.506-2.954,6.499-5.338c1.016-2.439,1.818-4.364,5.736-4.364h1.285l-1.859,1.858c-.152.152-.237.358-.237.574c0,.215.085.421.237.573s.359.237.574.237.421-.085.573-.237l3.242-3.242c.075-.075.135-.165.176-.263s.062-.204.062-.31c0-.107-.021-.212-.062-.311-.041-.098-.101-.188-.176-.263Zm-20.025,12.731c-.481,0-.951-.143-1.351-.41s-.711-.647-.895-1.091-.233-.933-.139-1.405.326-.905.666-1.245.773-.572,1.245-.665c.471-.094.96-.046,1.405.138.444.184.824.496,1.091.896.267.399.409.87.409,1.35c0,.645-.256,1.264-.712,1.72s-1.074.712-1.719.712Z" fill="#fdf9df"/><path d="M490.476,470.754h-1.44l1.53-3.3-3.285-7.11h1.425l2.58,5.7l2.565-5.7h1.44l-4.815,10.41Z" fill="#fdf9df"/><path d="M485.361,467.918c-.67,0-1.23-.195-1.68-.585-.44-.4-.66-.97-.66-1.71v-4.095h-1.89v-1.185h1.89v-2.13h1.29v2.13h2.325v1.185h-2.325v3.93c0,.87.4,1.305,1.2,1.305.4,0,.76-.095,1.08-.285l.39,1.095c-.44.23-.98.345-1.62.345Z" fill="#fdf9df"/><path d="M479.721,458.38c-.17.17-.385.255-.645.255s-.48-.085-.66-.255c-.18-.18-.27-.4-.27-.66c0-.25.09-.465.27-.645s.4-.27.66-.27.475.09.645.27c.18.18.27.395.27.645c0,.26-.09.48-.27.66Zm-1.305,9.465v-7.5h1.29v7.5h-1.29Z" fill="#fdf9df"/><path d="M474.682,467.845v-10.95h1.29v10.95h-1.29Z" fill="#fdf9df"/><path d="M472.251,458.38c-.17.17-.385.255-.645.255s-.48-.085-.66-.255c-.18-.18-.27-.4-.27-.66c0-.25.09-.465.27-.645s.4-.27.66-.27.475.09.645.27c.18.18.27.395.27.645c0,.26-.09.48-.27.66Zm-1.305,9.465v-7.5h1.29v7.5h-1.29Z" fill="#fdf9df"/><path d="M465.321,467.995c-1.01,0-1.825-.325-2.445-.975v.825h-1.29v-10.95h1.29v4.275c.62-.65,1.435-.975,2.445-.975c1.1,0,2.005.38,2.715,1.14.71.75,1.065,1.67,1.065,2.76s-.355,2.015-1.065,2.775c-.71.75-1.615,1.125-2.715,1.125Zm-.105-1.185c.74,0,1.35-.26,1.83-.78.48-.53.72-1.175.72-1.935s-.24-1.4-.72-1.92c-.48-.53-1.09-.795-1.83-.795-1.05,0-1.83.41-2.34,1.23v2.955c.51.83,1.29,1.245,2.34,1.245Z" fill="#fdf9df"/><path d="M455.421,467.993c-1.1,0-2.005-.375-2.715-1.125-.71-.76-1.065-1.685-1.065-2.775s.355-2.01,1.065-2.76c.71-.76,1.615-1.14,2.715-1.14c1.03,0,1.845.325,2.445.975v-.825h1.29v7.5h-1.29v-.825c-.6.65-1.415.975-2.445.975Zm.105-1.185c1.05,0,1.83-.415,2.34-1.245v-2.955c-.51-.82-1.29-1.23-2.34-1.23-.74,0-1.35.265-1.83.795-.48.52-.72,1.16-.72,1.92s.24,1.405.72,1.935c.48.52,1.09.78,1.83.78Z" fill="#fdf9df"/><path d="M447.737,467.993c-.69,0-1.295-.145-1.815-.435-.52-.3-.895-.735-1.125-1.305l1.05-.585c.14.37.385.66.735.87s.74.315,1.17.315c.37,0,.68-.09.93-.27s.375-.425.375-.735c0-.27-.1-.495-.3-.675-.19-.18-.525-.345-1.005-.495l-.75-.24c-1.25-.36-1.875-1.09-1.875-2.19c0-.62.245-1.115.735-1.485.5-.38,1.115-.57,1.845-.57c1.14,0,1.965.435,2.475,1.305l-.96.66c-.41-.57-.93-.855-1.56-.855-.34,0-.635.085-.885.255-.24.16-.36.375-.36.645c0,.25.075.465.225.645.16.17.44.315.84.435l.825.255c1.36.42,2.04,1.155,2.04,2.205c0,.7-.245,1.25-.735,1.65-.48.4-1.105.6-1.875.6Z" fill="#fdf9df"/><path d="M439.719,467.993c-1.13,0-2.07-.375-2.82-1.125-.74-.76-1.11-1.685-1.11-2.775s.37-2.01,1.11-2.76c.75-.76,1.69-1.14,2.82-1.14c1.12,0,2.05.38,2.79,1.14.75.75,1.125,1.67,1.125,2.76s-.375,2.015-1.125,2.775c-.74.75-1.67,1.125-2.79,1.125Zm-1.89-1.98c.49.52,1.12.78,1.89.78s1.395-.26,1.875-.78.72-1.16.72-1.92-.24-1.4-.72-1.92-1.105-.78-1.875-.78-1.4.26-1.89.78c-.48.52-.72,1.16-.72,1.92s.24,1.4.72,1.92Z" fill="#fdf9df"/><path d="M427.029,470.753v-10.41h1.29v.825c.62-.65,1.435-.975,2.445-.975c1.1,0,2.005.38,2.715,1.14.71.75,1.065,1.67,1.065,2.76s-.355,2.015-1.065,2.775c-.71.75-1.615,1.125-2.715,1.125-1.01,0-1.825-.325-2.445-.975v3.735h-1.29Zm3.63-3.945c.74,0,1.35-.26,1.83-.78.48-.53.72-1.175.72-1.935s-.24-1.4-.72-1.92c-.48-.53-1.09-.795-1.83-.795-1.05,0-1.83.41-2.34,1.23v2.955c.51.83,1.29,1.245,2.34,1.245Z" fill="#fdf9df"/><path d="M423.418,467.843v-4.395c0-.64-.15-1.145-.45-1.515s-.72-.555-1.26-.555c-.92,0-1.54.49-1.86,1.47.02.18.03.31.03.39v4.605h-1.29v-4.395c0-.64-.15-1.145-.45-1.515s-.715-.555-1.245-.555c-.44,0-.82.12-1.14.36s-.555.56-.705.96v5.145h-1.29v-7.5h1.29v.795c.5-.63,1.215-.945,2.145-.945.97,0,1.7.41,2.19,1.23.56-.82,1.4-1.23,2.52-1.23.88,0,1.565.275,2.055.825.5.55.75,1.29.75,2.22v4.605h-1.29Z" fill="#fdf9df"/><path d="M407.991,467.993c-1.13,0-2.07-.375-2.82-1.125-.74-.76-1.11-1.685-1.11-2.775s.37-2.01,1.11-2.76c.75-.76,1.69-1.14,2.82-1.14c1.12,0,2.05.38,2.79,1.14.75.75,1.125,1.67,1.125,2.76s-.375,2.015-1.125,2.775c-.74.75-1.67,1.125-2.79,1.125Zm-1.89-1.98c.49.52,1.12.78,1.89.78s1.395-.26,1.875-.78.72-1.16.72-1.92-.24-1.4-.72-1.92-1.105-.78-1.875-.78-1.4.26-1.89.78c-.48.52-.72,1.16-.72,1.92s.24,1.4.72,1.92Z" fill="#fdf9df"/><path d="M398.304,468.024c-1.53,0-2.83-.53-3.9-1.59-1.07-1.07-1.605-2.375-1.605-3.915s.535-2.84,1.605-3.9c1.07-1.07,2.37-1.605,3.9-1.605c1.01,0,1.925.23,2.745.69s1.475,1.09,1.965,1.89l-1.17.705c-.38-.61-.875-1.09-1.485-1.44s-1.295-.525-2.055-.525c-1.16,0-2.135.405-2.925,1.215-.78.81-1.17,1.8-1.17,2.97s.39,2.16,1.17,2.97c.79.81,1.765,1.215,2.925,1.215.76,0,1.445-.175,2.055-.525s1.105-.83,1.485-1.44l1.17.705c-.49.8-1.145,1.43-1.965,1.89s-1.735.69-2.745.69Z" fill="#fdf9df"/><path id="eSCAF9RI518159" d="M367.105,453.303c-.801,0-1.585.237-2.251.683-.667.445-1.186,1.078-1.493,1.818-.307.741-.387,1.556-.23,2.342.156.786.542,1.508,1.109,2.075.566.566,1.288.952,2.075,1.109.786.156,1.6.076,2.341-.231.74-.307,1.373-.826,1.819-1.492.445-.667.683-1.45.683-2.252c0-1.075-.427-2.105-1.187-2.865s-1.791-1.187-2.866-1.187Zm0,6.484c-.481,0-.951-.143-1.351-.41s-.711-.647-.895-1.091c-.184-.445-.232-.934-.139-1.405.094-.472.326-.905.666-1.245s.773-.572,1.245-.666c.471-.093.96-.045,1.405.139.444.184.824.495,1.091.895s.41.87.41,1.351c0,.645-.257,1.263-.713,1.719s-1.074.713-1.719.713Zm9.726,1.621c.801,0,1.585-.238,2.251-.683.667-.446,1.186-1.079,1.493-1.819.307-.741.387-1.555.231-2.341-.157-.787-.543-1.509-1.11-2.075-.566-.567-1.288-.953-2.074-1.109-.787-.157-1.601-.077-2.342.23-.74.307-1.373.826-1.819,1.493-.445.666-.682,1.45-.682,2.251c0,1.075.426,2.106,1.186,2.866s1.791,1.187,2.866,1.187Zm0-6.484c.481,0,.951.142,1.351.409.4.268.711.647.895,1.092.184.444.233.933.139,1.405-.094.471-.326.904-.666,1.244s-.773.572-1.245.666c-.471.094-.96.046-1.405-.138-.444-.185-.824-.496-1.091-.896s-.409-.87-.409-1.351c0-.645.256-1.263.712-1.719s1.074-.712,1.719-.712Zm-9.726,8.105c-.801,0-1.585.237-2.251.682-.667.446-1.186,1.079-1.493,1.819-.307.741-.387,1.555-.23,2.342.156.786.542,1.508,1.109,2.074.566.567,1.288.953,2.075,1.11.786.156,1.6.076,2.341-.231.74-.307,1.373-.826,1.819-1.493.445-.666.683-1.45.683-2.251c0-1.075-.427-2.106-1.187-2.866s-1.791-1.186-2.866-1.186Zm0,6.483c-.481,0-.951-.142-1.351-.409-.4-.268-.711-.647-.895-1.092-.184-.444-.232-.933-.139-1.404.094-.472.326-.905.666-1.245s.773-.572,1.245-.666c.471-.094.96-.045,1.405.139.444.184.824.495,1.091.895s.41.87.41,1.351c0,.645-.257,1.263-.713,1.719s-1.074.712-1.719.712Zm13.778-2.431c0,.215-.085.421-.237.573s-.358.237-.573.237h-2.432v2.432c0,.215-.085.421-.237.573s-.358.237-.573.237-.421-.085-.573-.237-.238-.358-.238-.573v-2.432h-2.431c-.215,0-.421-.085-.573-.237s-.237-.358-.237-.573.085-.421.237-.573.358-.238.573-.238h2.431v-2.431c0-.215.086-.421.238-.573s.358-.237.573-.237.421.085.573.237.237.358.237.573v2.431h2.432c.215,0,.421.086.573.238s.237.358.237.573Z" fill="#fdf9df"/><path d="M151.844,348.25v-7.5h1.29v.945c.5-.73,1.29-1.095,2.37-1.095.85,0,1.535.275,2.055.825.53.55.795,1.29.795,2.22v4.605h-1.275v-4.41c0-.65-.17-1.155-.51-1.515-.33-.36-.785-.54-1.365-.54-1.04,0-1.73.495-2.07,1.485v4.98h-1.29Z" fill="#fdf9df"/><path d="M146.076,348.4c-1.13,0-2.07-.375-2.82-1.125-.74-.76-1.11-1.685-1.11-2.775s.37-2.01,1.11-2.76c.75-.76,1.69-1.14,2.82-1.14c1.12,0,2.05.38,2.79,1.14.75.75,1.125,1.67,1.125,2.76s-.375,2.015-1.125,2.775c-.74.75-1.67,1.125-2.79,1.125Zm-1.89-1.98c.49.52,1.12.78,1.89.78s1.395-.26,1.875-.78.72-1.16.72-1.92-.24-1.4-.72-1.92-1.105-.78-1.875-.78-1.4.26-1.89.78c-.48.52-.72,1.16-.72,1.92s.24,1.4.72,1.92Z" fill="#fdf9df"/><path d="M140.315,338.786c-.17.17-.385.255-.645.255s-.48-.085-.66-.255c-.18-.18-.27-.4-.27-.66c0-.25.09-.465.27-.645s.4-.27.66-.27.475.09.645.27c.18.18.27.395.27.645c0,.26-.09.48-.27.66Zm-1.305,9.465v-7.5h1.29v7.5h-1.29Z" fill="#fdf9df"/><path d="M135.996,348.324c-.67,0-1.23-.195-1.68-.585-.44-.4-.66-.97-.66-1.71v-4.095h-1.89v-1.185h1.89v-2.13h1.29v2.13h2.325v1.185h-2.325v3.93c0,.87.4,1.305,1.2,1.305.4,0,.76-.095,1.08-.285l.39,1.095c-.44.23-.98.345-1.62.345Z" fill="#fdf9df"/><path d="M126.62,348.4c-1.1,0-2.005-.375-2.715-1.125-.71-.76-1.065-1.685-1.065-2.775s.355-2.01,1.065-2.76c.71-.76,1.615-1.14,2.715-1.14c1.03,0,1.845.325,2.445.975v-.825h1.29v7.5h-1.29v-.825c-.6.65-1.415.975-2.445.975Zm.105-1.185c1.05,0,1.83-.415,2.34-1.245v-2.955c-.51-.82-1.29-1.23-2.34-1.23-.74,0-1.35.265-1.83.795-.48.52-.72,1.16-.72,1.92s.24,1.405.72,1.935c.48.52,1.09.78,1.83.78Z" fill="#fdf9df"/><path d="M118.289,348.4c-1.13,0-2.07-.375-2.82-1.125-.74-.75-1.11-1.675-1.11-2.775s.37-2.025,1.11-2.775c.75-.75,1.69-1.125,2.82-1.125.76,0,1.44.18,2.04.54.61.36,1.085.85,1.425,1.47l-1.125.63c-.22-.44-.535-.79-.945-1.05-.4-.26-.865-.39-1.395-.39-.77,0-1.4.26-1.89.78s-.735,1.16-.735,1.92.245,1.4.735,1.92s1.12.78,1.89.78c.53,0,.995-.13,1.395-.39.41-.26.725-.61.945-1.05l1.125.63c-.34.62-.815,1.11-1.425,1.47-.6.36-1.28.54-2.04.54Z" fill="#fdf9df"/><path d="M112.513,338.786c-.17.17-.385.255-.645.255s-.48-.085-.66-.255c-.18-.18-.27-.4-.27-.66c0-.25.09-.465.27-.645s.4-.27.66-.27.475.09.645.27c.18.18.27.395.27.645c0,.26-.09.48-.27.66Zm-1.305,9.465v-7.5h1.29v7.5h-1.29Z" fill="#fdf9df"/><path d="M108.193,348.324c-.67,0-1.23-.195-1.68-.585-.44-.4-.66-.97-.66-1.71v-4.095h-1.89v-1.185h1.89v-2.13h1.29v2.13h2.325v1.185h-2.325v3.93c0,.87.4,1.305,1.2,1.305.4,0,.76-.095,1.08-.285l.39,1.095c-.44.23-.98.345-1.62.345Z" fill="#fdf9df"/><path d="M96.268,348.25v-7.5h1.29v.945c.5-.73,1.29-1.095,2.37-1.095.85,0,1.535.275,2.055.825.53.55.795,1.29.795,2.22v4.605h-1.275v-4.41c0-.65-.17-1.155-.51-1.515-.33-.36-.785-.54-1.365-.54-1.04,0-1.73.495-2.07,1.485v4.98h-1.29Z" fill="#fdf9df"/><path d="M90.8518,348.4c-1.15,0-2.085-.37-2.805-1.11s-1.08-1.67-1.08-2.79c0-1.11.365-2.035,1.095-2.775.73-.75,1.665-1.125,2.805-1.125c1.01,0,1.855.34,2.535,1.02.69.67,1.035,1.585,1.035,2.745c0,.15-.005.28-.015.39h-6.15c.02.7.27,1.285.75,1.755.49.47,1.105.705,1.845.705c1.05,0,1.83-.435,2.34-1.305l1.02.705c-.73,1.19-1.855,1.785-3.375,1.785Zm-2.49-4.695h4.755c-.1-.6-.365-1.075-.795-1.425-.42-.36-.92-.54-1.5-.54-.59,0-1.12.18-1.59.54-.46.35-.75.825-.87,1.425Z" fill="#fdf9df"/><path d="M80.0088,348.251h-1.29v-10.95h1.29v4.395c.5-.73,1.2899-1.095,2.3699-1.095.85,0,1.5351.275,2.0551.825.53.55.795,1.29.795,2.22v4.605h-1.275v-4.41c0-.65-.17-1.155-.51-1.515-.33-.36-.785-.54-1.365-.54-1.04,0-1.73.495-2.07,1.485v4.98Z" fill="#fdf9df"/><path d="M75.7027,348.324c-.67,0-1.23-.195-1.68-.585-.44-.4-.66-.97-.66-1.71v-4.095h-1.89v-1.185h1.89v-2.13h1.29v2.13h2.325v1.185h-2.325v3.93c0,.87.4,1.305,1.2,1.305.4,0,.76-.095,1.08-.285l.39,1.095c-.44.23-.98.345-1.62.345Z" fill="#fdf9df"/><path d="M70.0612,340.75v7.5h-1.29v-.945c-.5.73-1.255,1.095-2.265,1.095-.83,0-1.505-.275-2.025-.825s-.78-1.29-.78-2.22v-4.605h1.29v4.41c0,.66.155,1.17.465,1.53.32.35.765.525,1.335.525.47,0,.875-.135,1.215-.405.35-.27.605-.63.765-1.08v-4.98h1.29Z" fill="#fdf9df"/><path d="M52.0898,348.25l4.71-10.65h1.155l4.725,10.65h-1.455l-1.38-3.105h-4.965l-1.35,3.105h-1.44Zm5.265-8.76l-1.92,4.395h3.855l-1.935-4.395Z" fill="#fdf9df"/><path id="eSCAF9RI518174" d="M189.883,343.218c.006,3.275-.632,6.519-1.878,9.547-.06.15-.164.278-.298.368-.133.09-.291.139-.452.139-.104-.001-.207-.022-.304-.061-.098-.04-.188-.1-.263-.175-.076-.075-.136-.164-.177-.263-.041-.098-.062-.203-.063-.31c0-.106.021-.212.062-.31c1.164-2.835,1.759-5.871,1.752-8.935c0-.215.086-.421.238-.573s.358-.238.573-.238.421.086.573.238.237.358.237.573Zm-5.673-4.052c.57,0,1.133.12,1.654.353.52.233.986.572,1.366.997.07.081.156.148.253.195.096.048.201.076.308.083s.215-.008.317-.043c.101-.035.195-.09.275-.162s.145-.159.191-.256.073-.202.078-.31c.005-.107-.011-.214-.048-.315s-.093-.194-.166-.273c-.767-.856-1.775-1.459-2.891-1.73s-2.289-.196-3.362.214-1.997,1.136-2.648,2.082c-.652.946-1,2.068-1.001,3.217c0,2.334-.592,4.629-1.722,6.671-.051.093-.084.196-.096.302-.012.105-.003.212.026.315.029.102.079.198.145.281s.148.153.241.204c.093.052.196.085.302.097.105.012.213.003.315-.026.102-.03.198-.079.281-.145s.153-.148.205-.242c1.262-2.282,1.924-4.848,1.924-7.457c0-1.075.427-2.106,1.187-2.866s1.791-1.186,2.866-1.186Zm0-6.484c-1.197-.002-2.384.201-3.513.599-.199.075-.36.224-.45.417s-.101.413-.03.613.218.365.409.458.411.108.612.04c1.345-.474,2.784-.619,4.197-.422c1.412.196,2.757.729,3.921,1.552c1.165.824,2.115,1.915,2.77,3.181.656,1.267.999,2.672.999,4.098.001,2.121-.235,4.236-.703,6.304-.048.21-.01.429.104.611s.295.311.504.359c.059.014.12.021.18.02.184,0,.362-.062.506-.177.143-.115.244-.275.284-.454.496-2.186.746-4.421.746-6.663-.003-2.794-1.114-5.472-3.089-7.447s-4.654-3.086-7.447-3.089Zm-5.943,3.892c.079-.071.144-.157.19-.253s.073-.2.079-.306-.009-.213-.044-.313c-.036-.101-.09-.193-.161-.273-.071-.079-.157-.144-.253-.19s-.2-.073-.306-.079c-.107-.006-.213.009-.314.045-.1.035-.193.089-.272.16-1.104.989-1.988,2.2-2.593,3.552-.605,1.353-.918,2.819-.919,4.301.002,1.282-.275,2.549-.811,3.714-.044.097-.069.201-.073.308-.004.106.013.212.05.312.074.201.226.365.421.455.196.09.419.098.62.023.202-.074.365-.226.455-.421.634-1.377.961-2.875.959-4.391.001-1.254.266-2.494.778-3.639.512-1.144,1.26-2.168,2.194-3.005Zm4.516,14.013c-.096-.044-.201-.069-.307-.073-.107-.004-.213.013-.313.05-.099.037-.191.093-.269.165-.078.073-.141.16-.186.256-.194.426-.405.85-.637,1.261-.052.093-.085.195-.097.301s-.003.213.026.316c.03.102.079.198.145.282.067.083.149.152.242.204.12.067.255.102.392.101.145,0,.287-.038.412-.112.125-.073.227-.179.298-.305.247-.447.48-.912.693-1.37.044-.097.069-.201.073-.308.004-.106-.012-.212-.049-.312s-.094-.192-.166-.27c-.073-.078-.16-.141-.257-.186Zm1.427-8.18c-.215,0-.421.086-.573.238s-.238.358-.238.573c.001,1.572-.196,3.138-.586,4.66-.054.208-.022.429.087.614s.287.319.495.373c.067.017.135.025.203.025.18,0,.354-.06.496-.17s.243-.264.288-.438c.425-1.655.639-3.356.638-5.065c0-.215-.085-.421-.237-.573-.152-.151-.358-.237-.573-.237Z" transform="translate(.86167 0)" fill="#fdf9df"/><path d="M155.344,392.31c-.74,0-1.405-.125-1.995-.375-.58-.25-1.04-.585-1.38-1.005l.885-.9c.63.74,1.46,1.11,2.49,1.11.66,0,1.235-.205,1.725-.615.49-.4.735-.99.735-1.77v-.57c-.6.66-1.415.99-2.445.99-1.1,0-2.01-.365-2.73-1.095-.71-.74-1.065-1.64-1.065-2.7s.36-1.955,1.08-2.685s1.625-1.095,2.715-1.095c1.03,0,1.845.325,2.445.975v-.825h1.29v7.05c0,1.14-.355,2.01-1.065,2.61s-1.605.9-2.685.9Zm.12-4.335c1.05,0,1.83-.41,2.34-1.23v-2.73c-.51-.82-1.29-1.23-2.34-1.23-.74,0-1.355.25-1.845.75-.48.5-.72,1.115-.72,1.845c0,.74.24,1.36.72,1.86.49.49,1.105.735,1.845.735Z" fill="#fdf9df"/><path d="M143.316,389.25v-7.5h1.29v.945c.5-.73,1.29-1.095,2.37-1.095.85,0,1.535.275,2.055.825.53.55.795,1.29.795,2.22v4.605h-1.275v-4.41c0-.65-.17-1.155-.51-1.515-.33-.36-.785-.54-1.365-.54-1.04,0-1.73.495-2.07,1.485v4.98h-1.29Z" fill="#fdf9df"/><path d="M140.886,379.786c-.17.17-.385.255-.645.255s-.48-.085-.66-.255c-.18-.18-.27-.4-.27-.66c0-.25.09-.465.27-.645s.4-.27.66-.27.475.09.645.27c.18.18.27.395.27.645c0,.26-.09.48-.27.66Zm-1.305,9.465v-7.5h1.29v7.5h-1.29Z" fill="#fdf9df"/><path d="M132.038,389.251h-1.29v-10.95h1.29v4.395c.5-.73,1.29-1.095,2.37-1.095.85,0,1.535.275,2.055.825.53.55.795,1.29.795,2.22v4.605h-1.275v-4.41c0-.65-.17-1.155-.51-1.515-.33-.36-.785-.54-1.365-.54-1.04,0-1.73.495-2.07,1.485v4.98Z" fill="#fdf9df"/><path d="M125.612,389.4c-1.13,0-2.07-.375-2.82-1.125-.74-.75-1.11-1.675-1.11-2.775s.37-2.025,1.11-2.775c.75-.75,1.69-1.125,2.82-1.125.76,0,1.44.18,2.04.54.61.36,1.085.85,1.425,1.47l-1.125.63c-.22-.44-.535-.79-.945-1.05-.4-.26-.865-.39-1.395-.39-.77,0-1.4.26-1.89.78s-.735,1.16-.735,1.92.245,1.4.735,1.92s1.12.78,1.89.78c.53,0,.995-.13,1.395-.39.41-.26.725-.61.945-1.05l1.125.63c-.34.62-.815,1.11-1.425,1.47-.6.36-1.28.54-2.04.54Z" fill="#fdf9df"/><path d="M116.102,389.4c-1.1,0-2.005-.375-2.715-1.125-.71-.76-1.065-1.685-1.065-2.775s.355-2.01,1.065-2.76c.71-.76,1.615-1.14,2.715-1.14c1.03,0,1.845.325,2.445.975v-.825h1.29v7.5h-1.29v-.825c-.6.65-1.415.975-2.445.975Zm.105-1.185c1.05,0,1.83-.415,2.34-1.245v-2.955c-.51-.82-1.29-1.23-2.34-1.23-.74,0-1.35.265-1.83.795-.48.52-.72,1.16-.72,1.92s.24,1.405.72,1.935c.48.52,1.09.78,1.83.78Z" fill="#fdf9df"/><path d="M107.77,389.4c-1.13,0-2.07-.375-2.82-1.125-.74-.75-1.11-1.675-1.11-2.775s.37-2.025,1.11-2.775c.75-.75,1.69-1.125,2.82-1.125.76,0,1.44.18,2.04.54.61.36,1.085.85,1.425,1.47l-1.125.63c-.22-.44-.535-.79-.945-1.05-.4-.26-.865-.39-1.395-.39-.77,0-1.4.26-1.89.78s-.735,1.16-.735,1.92.245,1.4.735,1.92s1.12.78,1.89.78c.53,0,.995-.13,1.395-.39.41-.26.725-.61.945-1.05l1.125.63c-.34.62-.815,1.11-1.425,1.47-.6.36-1.28.54-2.04.54Z" fill="#fdf9df"/><path d="M97.791,389.324c-.67,0-1.23-.195-1.68-.585-.44-.4-.66-.97-.66-1.71v-4.095h-1.8905v-1.185h1.8905v-2.13h1.29v2.13h2.325v1.185h-2.325v3.93c0,.87.4,1.305,1.2,1.305.4,0,.76-.095,1.08-.285l.39,1.095c-.44.23-.98.345-1.62.345Z" fill="#fdf9df"/><path d="M85.3828,392.16v-10.41h1.29v.825c.62-.65,1.435-.975,2.445-.975c1.1,0,2.005.38,2.715,1.14.71.75,1.065,1.67,1.065,2.76s-.355,2.015-1.065,2.775c-.71.75-1.615,1.125-2.715,1.125-1.01,0-1.825-.325-2.445-.975v3.735h-1.29Zm3.63-3.945c.74,0,1.35-.26,1.83-.78.48-.53.72-1.175.72-1.935s-.24-1.4-.72-1.92c-.48-.53-1.09-.795-1.83-.795-1.05,0-1.83.41-2.34,1.23v2.955c.51.83,1.29,1.245,2.34,1.245Z" fill="#fdf9df"/><path d="M81.7713,389.25v-4.395c0-.64-.15-1.145-.45-1.515s-.72-.555-1.26-.555c-.92,0-1.54.49-1.86,1.47.02.18.03.31.03.39v4.605h-1.29v-4.395c0-.64-.15-1.145-.45-1.515s-.715-.555-1.245-.555c-.44,0-.82.12-1.14.36s-.555.56-.705.96v5.145h-1.29v-7.5h1.29v.795c.5-.63,1.215-.945,2.145-.945.97,0,1.7.41,2.19,1.23.56-.82,1.4-1.23,2.52-1.23.88,0,1.565.275,2.055.825.5.55.75,1.29.75,2.22v4.605h-1.29Z" fill="#fdf9df"/><path d="M66.3441,389.4c-1.13,0-2.07-.375-2.82-1.125-.74-.76-1.11-1.685-1.11-2.775s.37-2.01,1.11-2.76c.75-.76,1.69-1.14,2.82-1.14c1.12,0,2.05.38,2.79,1.14.75.75,1.125,1.67,1.125,2.76s-.375,2.015-1.125,2.775c-.74.75-1.67,1.125-2.79,1.125Zm-1.89-1.98c.49.52,1.12.78,1.89.78s1.395-.26,1.875-.78.72-1.16.72-1.92-.24-1.4-.72-1.92-1.105-.78-1.875-.78-1.4.26-1.89.78c-.48.52-.72,1.16-.72,1.92s.24,1.4.72,1.92Z" fill="#fdf9df"/><path d="M57.9023,389.251v-7.5h1.29v1.11c.15-.32.415-.595.795-.825.39-.24.8-.36,1.23-.36.22,0,.44.025.66.075l-.165,1.29c-.18-.06-.395-.09-.645-.09-.4,0-.78.13-1.14.39-.35.25-.595.6-.735,1.05v4.86h-1.29Z" fill="#fdf9df"/><path d="M55.3052,379.56c.68.64,1.02,1.45,1.02,2.43s-.34,1.79-1.02,2.43c-.67.63-1.55.945-2.64.945h-1.86v3.885h-1.395v-10.65h3.255c1.09,0,1.97.32,2.64.96Zm-.975,3.93c.41-.39.615-.89.615-1.5s-.205-1.11-.615-1.5c-.4-.39-.955-.585-1.665-.585h-1.86v4.17h1.86c.71,0,1.265-.195,1.665-.585Z" fill="#fdf9df"/><path id="eSCAF9RI518188" d="M193.272,377.734h-19.452c-.43,0-.842.171-1.146.475s-.475.716-.475,1.146v9.726c0,.43.171.842.475,1.146s.716.475,1.146.475h19.452c.43,0,.842-.171,1.146-.475s.475-.716.475-1.146v-9.726c0-.43-.171-.842-.475-1.146s-.716-.475-1.146-.475Zm0,11.347h-19.452v-9.726h19.452v9.726Zm-2.432-4.863c0,.241-.071.476-.205.676-.133.2-.323.355-.545.447s-.467.117-.703.07c-.235-.047-.452-.163-.622-.333s-.286-.387-.333-.623c-.047-.235-.023-.48.069-.702s.248-.412.448-.546c.2-.133.435-.204.676-.204.322,0,.631.128.859.356s.356.537.356.859Z" fill="#fdf9df"/><path d="M157.858,430.4c-.69,0-1.295-.145-1.815-.435-.52-.3-.895-.735-1.125-1.305l1.05-.585c.14.37.385.66.735.87s.74.315,1.17.315c.37,0,.68-.09.93-.27s.375-.425.375-.735c0-.27-.1-.495-.3-.675-.19-.18-.525-.345-1.005-.495l-.75-.24c-1.25-.36-1.875-1.09-1.875-2.19c0-.62.245-1.115.735-1.485.5-.38,1.115-.57,1.845-.57c1.14,0,1.965.435,2.475,1.305l-.96.66c-.41-.57-.93-.855-1.56-.855-.34,0-.635.085-.885.255-.24.16-.36.375-.36.645c0,.25.075.465.225.645.16.17.44.315.84.435l.825.255c1.36.42,2.04,1.155,2.04,2.205c0,.7-.245,1.25-.735,1.65-.48.4-1.105.6-1.875.6Z" fill="#fdf9df"/><path d="M151.857,430.251v-10.95h1.29v10.95h-1.29Z" fill="#fdf9df"/><path d="M146.09,430.4c-1.13,0-2.07-.375-2.82-1.125-.74-.76-1.11-1.685-1.11-2.775s.37-2.01,1.11-2.76c.75-.76,1.69-1.14,2.82-1.14c1.12,0,2.05.38,2.79,1.14.75.75,1.125,1.67,1.125,2.76s-.375,2.015-1.125,2.775c-.74.75-1.67,1.125-2.79,1.125Zm-1.89-1.98c.49.52,1.12.78,1.89.78s1.395-.26,1.875-.78.72-1.16.72-1.92-.24-1.4-.72-1.92-1.105-.78-1.875-.78-1.4.26-1.89.78c-.48.52-.72,1.16-.72,1.92s.24,1.4.72,1.92Z" fill="#fdf9df"/><path d="M137.648,430.251v-7.5h1.29v1.11c.15-.32.415-.595.795-.825.39-.24.8-.36,1.23-.36.22,0,.44.025.66.075l-.165,1.29c-.18-.06-.395-.09-.645-.09-.4,0-.78.13-1.14.39-.35.25-.595.6-.735,1.05v4.86h-1.29Z" fill="#fdf9df"/><path d="M134.632,430.324c-.67,0-1.23-.195-1.68-.585-.44-.4-.66-.97-.66-1.71v-4.095h-1.89v-1.185h1.89v-2.13h1.29v2.13h2.325v1.185h-2.325v3.93c0,.87.4,1.305,1.2,1.305.4,0,.76-.095,1.08-.285l.39,1.095c-.44.23-.98.345-1.62.345Z" fill="#fdf9df"/><path d="M122.707,430.25v-7.5h1.29v.945c.5-.73,1.29-1.095,2.37-1.095.85,0,1.535.275,2.055.825.53.55.795,1.29.795,2.22v4.605h-1.275v-4.41c0-.65-.17-1.155-.51-1.515-.33-.36-.785-.54-1.365-.54-1.04,0-1.73.495-2.07,1.485v4.98h-1.29Z" fill="#fdf9df"/><path d="M116.94,430.4c-1.13,0-2.07-.375-2.82-1.125-.74-.76-1.11-1.685-1.11-2.775s.37-2.01,1.11-2.76c.75-.76,1.69-1.14,2.82-1.14c1.12,0,2.05.38,2.79,1.14.75.75,1.125,1.67,1.125,2.76s-.375,2.015-1.125,2.775c-.74.75-1.67,1.125-2.79,1.125Zm-1.89-1.98c.49.52,1.12.78,1.89.78s1.395-.26,1.875-.78.72-1.16.72-1.92-.24-1.4-.72-1.92-1.105-.78-1.875-.78-1.4.26-1.89.78c-.48.52-.72,1.16-.72,1.92s.24,1.4.72,1.92Z" fill="#fdf9df"/><path d="M108.475,430.4c-1.13,0-2.07-.375-2.82-1.125-.74-.75-1.11-1.675-1.11-2.775s.37-2.025,1.11-2.775c.75-.75,1.69-1.125,2.82-1.125.76,0,1.44.18,2.04.54.61.36,1.085.85,1.425,1.47l-1.125.63c-.22-.44-.535-.79-.945-1.05-.4-.26-.865-.39-1.395-.39-.77,0-1.4.26-1.89.78s-.735,1.16-.735,1.92.245,1.4.735,1.92s1.12.78,1.89.78c.53,0,.995-.13,1.395-.39.41-.26.725-.61.945-1.05l1.125.63c-.34.62-.815,1.11-1.425,1.47-.6.36-1.28.54-2.04.54Z" fill="#fdf9df"/><path d="M98.496,430.324c-.67,0-1.23-.195-1.68-.585-.44-.4-.66-.97-.66-1.71v-4.095h-1.8904v-1.185h1.8904v-2.13h1.29v2.13h2.325v1.185h-2.325v3.93c0,.87.4,1.305,1.2,1.305.4,0,.76-.095,1.08-.285l.39,1.095c-.44.23-.98.345-1.62.345Z" fill="#fdf9df"/><path d="M90.8853,430.4c-.69,0-1.295-.145-1.815-.435-.52-.3-.895-.735-1.125-1.305l1.05-.585c.14.37.385.66.735.87s.74.315,1.17.315c.37,0,.68-.09.93-.27s.375-.425.375-.735c0-.27-.1-.495-.3-.675-.19-.18-.525-.345-1.005-.495l-.75-.24c-1.25-.36-1.875-1.09-1.875-2.19c0-.62.245-1.115.735-1.485.5-.38,1.115-.57,1.845-.57c1.14,0,1.965.435,2.475,1.305l-.96.66c-.41-.57-.93-.855-1.56-.855-.34,0-.635.085-.885.255-.24.16-.36.375-.36.645c0,.25.075.465.225.645.16.17.44.315.84.435l.825.255c1.36.42,2.04,1.155,2.04,2.205c0,.7-.245,1.25-.735,1.65-.48.4-1.105.6-1.875.6Z" fill="#fdf9df"/><path d="M82.8675,430.4c-1.13,0-2.07-.375-2.82-1.125-.74-.76-1.11-1.685-1.11-2.775s.37-2.01,1.11-2.76c.75-.76,1.69-1.14,2.82-1.14c1.12,0,2.05.38,2.79,1.14.75.75,1.125,1.67,1.125,2.76s-.375,2.015-1.125,2.775c-.74.75-1.67,1.125-2.79,1.125Zm-1.89-1.98c.49.52,1.12.78,1.89.78s1.395-.26,1.875-.78.72-1.16.72-1.92-.24-1.4-.72-1.92-1.105-.78-1.875-.78-1.4.26-1.89.78c-.48.52-.72,1.16-.72,1.92s.24,1.4.72,1.92Z" fill="#fdf9df"/><path d="M73.1808,430.43c-1.53,0-2.83-.53-3.9-1.59-1.07-1.07-1.605-2.375-1.605-3.915s.535-2.84,1.605-3.9c1.07-1.07,2.37-1.605,3.9-1.605c1.01,0,1.925.23,2.745.69s1.475,1.09,1.965,1.89l-1.17.705c-.38-.61-.875-1.09-1.485-1.44s-1.295-.525-2.055-.525c-1.16,0-2.135.405-2.925,1.215-.78.81-1.17,1.8-1.17,2.97s.39,2.16,1.17,2.97c.79.81,1.765,1.215,2.925,1.215.76,0,1.445-.175,2.055-.525s1.105-.83,1.485-1.44l1.17.705c-.49.8-1.145,1.43-1.965,1.89s-1.735.69-2.745.69Z" fill="#fdf9df"/><path id="eSCAF9RI518201" d="M183.548,414.682c-2.084,0-4.121.618-5.854,1.775-1.732,1.158-3.083,2.804-3.88,4.729-.798,1.925-1.006,4.044-.6,6.087.407,2.044,1.41,3.922,2.884,5.395c1.473,1.474,3.351,2.477,5.394,2.884c2.044.406,4.163.198,6.088-.6c1.925-.797,3.571-2.148,4.729-3.88c1.157-1.733,1.775-3.77,1.775-5.854-.003-2.794-1.114-5.472-3.089-7.447s-4.653-3.086-7.447-3.089Zm0,19.451c-1.763,0-3.487-.523-4.953-1.502-1.466-.98-2.609-2.372-3.284-4.001-.674-1.629-.851-3.422-.507-5.151.344-1.73,1.193-3.318,2.44-4.565s2.835-2.096,4.565-2.44c1.729-.344,3.522-.168,5.151.507s3.021,1.818,4.001,3.284c.979,1.466,1.502,3.19,1.502,4.953-.002,2.364-.942,4.63-2.614,6.301-1.671,1.671-3.937,2.612-6.301,2.614Zm4.052-6.889c0,.752-.298,1.474-.83,2.006s-1.254.831-2.006.831h-.406v.81c0,.215-.085.421-.237.573s-.358.238-.573.238-.421-.086-.573-.238-.237-.358-.237-.573v-.81h-1.621c-.215,0-.422-.086-.574-.238s-.237-.358-.237-.573.085-.421.237-.573.359-.237.574-.237h3.647c.322,0,.631-.128.859-.356s.356-.537.356-.86c0-.322-.128-.632-.356-.86-.228-.227-.537-.356-.859-.356h-2.432c-.752,0-1.474-.298-2.006-.83s-.83-1.254-.83-2.006c0-.753.298-1.474.83-2.006s1.254-.831,2.006-.831h.406v-.81c0-.215.085-.422.237-.574s.358-.237.573-.237.421.085.573.237.237.359.237.574v.81h1.621c.215,0,.422.085.574.237s.237.359.237.574c0,.214-.085.421-.237.573s-.359.237-.574.237h-3.647c-.322,0-.631.128-.859.356s-.356.537-.356.86c0,.322.128.631.356.859s.537.356.859.356h2.432c.752,0,1.474.299,2.006.831s.83,1.254.83,2.006Z" fill="#fdf9df"/><path d="M151.148,467.843v-7.5h1.29v.945c.5-.73,1.29-1.095,2.37-1.095.85,0,1.535.275,2.055.825.53.55.795,1.29.795,2.22v4.605h-1.275v-4.41c0-.65-.17-1.155-.51-1.515-.33-.36-.785-.54-1.365-.54-1.04,0-1.73.495-2.07,1.485v4.98h-1.29Z" fill="#fdf9df"/><path d="M145.381,467.993c-1.13,0-2.07-.375-2.82-1.125-.74-.76-1.11-1.685-1.11-2.775s.37-2.01,1.11-2.76c.75-.76,1.69-1.14,2.82-1.14c1.12,0,2.05.38,2.79,1.14.75.75,1.125,1.67,1.125,2.76s-.375,2.015-1.125,2.775c-.74.75-1.67,1.125-2.79,1.125Zm-1.89-1.98c.49.52,1.12.78,1.89.78s1.395-.26,1.875-.78.72-1.16.72-1.92-.24-1.4-.72-1.92-1.105-.78-1.875-.78-1.4.26-1.89.78c-.48.52-.72,1.16-.72,1.92s.24,1.4.72,1.92Z" fill="#fdf9df"/><path d="M139.62,458.38c-.17.17-.385.255-.645.255s-.48-.085-.66-.255c-.18-.18-.27-.4-.27-.66c0-.25.09-.465.27-.645s.4-.27.66-.27.475.09.645.27c.18.18.27.395.27.645c0,.26-.09.48-.27.66Zm-1.305,9.465v-7.5h1.29v7.5h-1.29Z" fill="#fdf9df"/><path d="M135.3,467.918c-.67,0-1.23-.195-1.68-.585-.44-.4-.66-.97-.66-1.71v-4.095h-1.89v-1.185h1.89v-2.13h1.29v2.13h2.325v1.185h-2.325v3.93c0,.87.4,1.305,1.2,1.305.4,0,.76-.095,1.08-.285l.39,1.095c-.44.23-.98.345-1.62.345Z" fill="#fdf9df"/><path d="M126.953,467.993c-1.13,0-2.07-.375-2.82-1.125-.74-.75-1.11-1.675-1.11-2.775s.37-2.025,1.11-2.775c.75-.75,1.69-1.125,2.82-1.125.76,0,1.44.18,2.04.54.61.36,1.085.85,1.425,1.47l-1.125.63c-.22-.44-.535-.79-.945-1.05-.4-.26-.865-.39-1.395-.39-.77,0-1.4.26-1.89.78s-.735,1.16-.735,1.92.245,1.4.735,1.92s1.12.78,1.89.78c.53,0,.995-.13,1.395-.39.41-.26.725-.61.945-1.05l1.125.63c-.34.62-.815,1.11-1.425,1.47-.6.36-1.28.54-2.04.54Z" fill="#fdf9df"/><path d="M117.444,467.993c-1.1,0-2.005-.375-2.715-1.125-.71-.76-1.065-1.685-1.065-2.775s.355-2.01,1.065-2.76c.71-.76,1.615-1.14,2.715-1.14c1.03,0,1.845.325,2.445.975v-.825h1.29v7.5h-1.29v-.825c-.6.65-1.415.975-2.445.975Zm.105-1.185c1.05,0,1.83-.415,2.34-1.245v-2.955c-.51-.82-1.29-1.23-2.34-1.23-.74,0-1.35.265-1.83.795-.48.52-.72,1.16-.72,1.92s.24,1.405.72,1.935c.48.52,1.09.78,1.83.78Z" fill="#fdf9df"/><path d="M108.083,467.995c-1.1,0-2.005-.375-2.715-1.125-.71-.76-1.065-1.685-1.065-2.775s.355-2.01,1.065-2.76c.71-.76,1.615-1.14,2.715-1.14c1.03,0,1.845.325,2.445.975v-4.275h1.29v10.95h-1.29v-.825c-.6.65-1.415.975-2.445.975Zm.105-1.185c1.05,0,1.83-.415,2.34-1.245v-2.955c-.51-.82-1.29-1.23-2.34-1.23-.74,0-1.35.265-1.83.795-.48.52-.72,1.16-.72,1.92s.24,1.405.72,1.935c.48.52,1.09.78,1.83.78Z" fill="#fdf9df"/><path d="M99.473,467.993c-1.15,0-2.085-.37-2.805-1.11s-1.08-1.67-1.08-2.79c0-1.11.365-2.035,1.095-2.775.73-.75,1.665-1.125,2.805-1.125c1.01,0,1.855.34,2.535,1.02.69.67,1.035,1.585,1.035,2.745c0,.15-.005.28-.015.39h-6.15c.02.7.27,1.285.75,1.755.49.47,1.105.705,1.845.705c1.05,0,1.83-.435,2.34-1.305l1.02.705c-.73,1.19-1.855,1.785-3.375,1.785Zm-2.49-4.695h4.755c-.1-.6-.365-1.075-.795-1.425-.42-.36-.92-.54-1.5-.54-.59,0-1.12.18-1.59.54-.46.35-.75.825-.87,1.425Z" fill="#fdf9df"/><path d="M91.0605,467.845v-7.5h1.29v1.11c.15-.32.415-.595.795-.825.39-.24.8-.36,1.23-.36.22,0,.44.025.6605.075l-.1655,1.29c-.18-.06-.395-.09-.645-.09-.4,0-.78.13-1.14.39-.35.25-.595.6-.735,1.05v4.86h-1.29Z" fill="#fdf9df"/><path d="M83.418,467.843v-10.65h1.395v10.65h-1.395Z" fill="#fdf9df"/><path d="M79.1992,467.843v-10.65h1.395v10.65h-1.395Z" fill="#fdf9df"/><path d="M76.3052,458.153c.68.64,1.02,1.45,1.02,2.43s-.34,1.79-1.02,2.43c-.67.63-1.55.945-2.64.945h-1.86v3.885h-1.395v-10.65h3.255c1.09,0,1.97.32,2.64.96Zm-.975,3.93c.41-.39.615-.89.615-1.5s-.205-1.11-.615-1.5c-.4-.39-.955-.585-1.665-.585h-1.86v4.17h1.86c.71,0,1.265-.195,1.665-.585Z" fill="#fdf9df"/><path id="eSCAF9RI518214" d="M175.441,454.924v14.588c0,.215-.085.422-.237.574s-.358.237-.573.237-.421-.085-.573-.237-.238-.359-.238-.574v-14.588c0-.215.086-.421.238-.573s.358-.238.573-.238.421.086.573.238.237.358.237.573Zm9.321,5.521l-2.026.659v-2.128c0-.215-.086-.421-.238-.573s-.358-.237-.573-.237-.421.085-.573.237-.237.358-.237.573v2.128l-2.027-.659c-.204-.067-.427-.05-.619.047s-.338.266-.405.471c-.067.204-.05.427.047.619s.266.338.471.405l2.026.658-1.25,1.722c-.066.086-.114.184-.142.289-.027.105-.033.214-.018.321.016.107.052.21.108.303s.13.173.218.237.187.109.293.134c.105.024.214.027.321.009.107-.019.209-.058.3-.117.091-.058.17-.134.231-.224l1.25-1.722l1.25,1.722c.061.09.14.166.231.224.091.059.193.098.3.117.107.018.216.015.322-.009.105-.025.205-.07.292-.134.088-.064.162-.144.218-.237s.093-.196.108-.303c.016-.107.009-.216-.018-.321-.028-.105-.076-.203-.142-.289l-1.25-1.722l2.026-.658c.196-.073.356-.218.447-.405.091-.188.106-.403.042-.602-.063-.199-.201-.365-.384-.465-.183-.099-.398-.124-.599-.07Zm10.739.521c-.067-.203-.21-.371-.4-.468-.19-.098-.41-.117-.613-.053l-2.027.659v-2.128c0-.215-.085-.421-.237-.573s-.358-.237-.573-.237-.421.085-.573.237-.238.358-.238.573v2.128l-2.026-.658c-.204-.066-.427-.049-.618.049-.192.097-.337.267-.403.471-.067.205-.05.427.048.619s.267.337.472.403l2.026.658-1.25,1.722c-.066.086-.114.184-.142.289-.027.105-.034.214-.018.321.015.107.052.21.108.303s.13.173.218.237c.087.064.187.109.292.134.106.024.215.027.322.009.107-.019.209-.058.3-.117.091-.058.17-.134.231-.224l1.25-1.722l1.25,1.722c.061.09.14.166.231.224.091.059.193.098.3.117.107.018.216.015.321-.009.106-.025.205-.07.293-.134s.162-.144.218-.237.092-.196.108-.303c.015-.107.009-.216-.018-.321-.028-.105-.076-.203-.142-.289l-1.25-1.722l2.026-.658c.204-.068.372-.213.468-.405.096-.191.113-.413.046-.617Z" fill="#fdf9df"/><path d="M162,173c0-16.569,13.431-30,30-30h177c16.569,0,30,13.431,30,30v0c0,16.569-13.431,30-30,30h-177c-16.569,0-30-13.431-30-30v0Z" fill="#38281f"/><path d="M192,144.13h177c15.944,0,28.87,12.926,28.87,28.87s-12.926,28.87-28.87,28.87h-177c-15.944,0-28.87-12.926-28.87-28.87s12.926-28.87,28.87-28.87Z" fill="none" stroke="#533a2c" stroke-width="2.25997"/><path d="M244.975,180.672v-6.6l-5.918-9.02h3.014l4.18,6.468l4.202-6.468h3.036l-5.94,9.042v6.578h-2.574Zm16.778-1.43c-1.1,1.1-2.464,1.65-4.092,1.65s-3-.55-4.114-1.65c-1.1-1.115-1.65-2.471-1.65-4.07s.55-2.948,1.65-4.048c1.114-1.115,2.486-1.672,4.114-1.672s2.992.557,4.092,1.672c1.114,1.1,1.672,2.449,1.672,4.048s-.558,2.955-1.672,4.07Zm-4.092-.594c.953,0,1.738-.33,2.354-.99.63-.675.946-1.503.946-2.486s-.316-1.804-.946-2.464c-.616-.675-1.401-1.012-2.354-1.012-.968,0-1.768.337-2.398,1.012-.616.66-.924,1.481-.924,2.464s.308,1.811.924,2.486c.63.66,1.43.99,2.398.99Zm17.767-8.976v11h-2.42v-1.144c-.704.909-1.716,1.364-3.036,1.364-1.29,0-2.324-.418-3.102-1.254-.777-.851-1.166-1.98-1.166-3.388v-6.578h2.42v6.182c0,.88.206,1.577.616,2.09.426.499,1.012.748,1.76.748.558,0,1.056-.154,1.496-.462.44-.323.778-.748,1.012-1.276v-7.282h2.42Zm3.257,11v-11h2.42v1.474c.22-.44.586-.814,1.1-1.122.513-.308,1.07-.462,1.672-.462.396,0,.77.044,1.122.132l-.352,2.354c-.22-.088-.536-.132-.946-.132-.514,0-1.02.147-1.518.44-.484.293-.844.711-1.078,1.254v7.062h-2.42Zm12.804,4.268v-15.268h2.42v1.012c.792-.821,1.863-1.232,3.212-1.232c1.599,0,2.912.557,3.938,1.672c1.042,1.115,1.562,2.464,1.562,4.048s-.52,2.933-1.562,4.048c-1.026,1.115-2.339,1.672-3.938,1.672-1.349,0-2.42-.418-3.212-1.254v5.302h-2.42Zm5.368-6.248c.954,0,1.738-.337,2.354-1.012.616-.689.924-1.525.924-2.508s-.308-1.811-.924-2.486c-.616-.689-1.4-1.034-2.354-1.034-1.261,0-2.244.506-2.948,1.518v3.982c.69,1.027,1.672,1.54,2.948,1.54Zm8.253,1.98v-11h2.42v1.474c.22-.44.587-.814,1.1-1.122.514-.308,1.071-.462,1.672-.462.396,0,.77.044,1.122.132l-.352,2.354c-.22-.088-.535-.132-.946-.132-.513,0-1.019.147-1.518.44-.484.293-.843.711-1.078,1.254v7.062h-2.42Zm16.863-1.43c-1.1,1.1-2.464,1.65-4.092,1.65s-2.999-.55-4.114-1.65c-1.1-1.115-1.65-2.471-1.65-4.07s.55-2.948,1.65-4.048c1.115-1.115,2.486-1.672,4.114-1.672s2.992.557,4.092,1.672c1.115,1.1,1.672,2.449,1.672,4.048s-.557,2.955-1.672,4.07Zm-4.092-.594c.954,0,1.738-.33,2.354-.99.631-.675.946-1.503.946-2.486s-.315-1.804-.946-2.464c-.616-.675-1.4-1.012-2.354-1.012-.968,0-1.767.337-2.398,1.012-.616.66-.924,1.481-.924,2.464s.308,1.811.924,2.486c.631.66,1.43.99,2.398.99Zm22.212,2.024v-6.138c0-.895-.183-1.591-.55-2.09-.366-.513-.916-.77-1.65-.77-.557,0-1.048.161-1.474.484-.425.308-.748.726-.968,1.254.044.235.066.469.066.704v6.556h-2.42v-6.138c0-.895-.19-1.591-.572-2.09-.366-.513-.916-.77-1.65-.77-.528,0-1.004.139-1.43.418-.425.279-.74.66-.946,1.144v7.436h-2.42v-11h2.42v1.034c.66-.836,1.636-1.254,2.926-1.254c1.35,0,2.406.543,3.168,1.628.792-1.085,2.002-1.628,3.63-1.628c1.364,0,2.42.433,3.168,1.298.748.851,1.122,1.973,1.122,3.366v6.556h-2.42Zm5.515,4.268v-15.268h2.42v1.012c.792-.821,1.863-1.232,3.212-1.232c1.599,0,2.912.557,3.938,1.672c1.042,1.115,1.562,2.464,1.562,4.048s-.52,2.933-1.562,4.048c-1.026,1.115-2.339,1.672-3.938,1.672-1.349,0-2.42-.418-3.212-1.254v5.302h-2.42Zm5.368-6.248c.954,0,1.738-.337,2.354-1.012.616-.689.924-1.525.924-2.508s-.308-1.811-.924-2.486c-.616-.689-1.4-1.034-2.354-1.034-1.261,0-2.244.506-2.948,1.518v3.982c.69,1.027,1.672,1.54,2.948,1.54Zm13.231,2.09c-1.129,0-2.053-.308-2.772-.924-.704-.631-1.056-1.54-1.056-2.728v-5.302h-2.728v-2.156h2.728v-3.19h2.42v3.19h3.366v2.156h-3.366v4.906c0,1.247.572,1.87,1.716,1.87.602,0,1.122-.132,1.562-.396l.726,2.024c-.762.367-1.628.55-2.596.55Z" fill="#fdf9df"/><path d="M221.752,165.25v13.5c0,.298-.119.585-.33.795-.211.211-.497.33-.795.33h-29.25c-.298,0-.585-.119-.796-.33-.211-.21-.329-.497-.329-.795v-13.5c0-.298.118-.585.329-.795.211-.211.498-.33.796-.33h29.25c.298,0,.584.119.795.33.211.21.33.497.33.795Z" opacity="0.2" fill="#e5b550"/><path id="eSCAF9RI518219" d="M203.75,159.623c-.298,0-.585.119-.795.33-.211.211-.33.497-.33.795v2.25h-11.25c-.597,0-1.169.237-1.591.659s-.659.994-.659,1.591v13.5c0,.597.237,1.169.659,1.591s.994.659,1.591.659h11.25v2.25c0,.298.119.585.33.796.21.211.497.329.795.329s.585-.118.795-.329c.211-.211.33-.498.33-.796v-22.5c0-.298-.119-.584-.33-.795-.21-.211-.497-.33-.795-.33Zm-12.375,19.125v-13.5h11.25v13.5h-11.25Zm31.5-13.5v13.5c0,.597-.237,1.169-.659,1.591s-.994.659-1.591.659h-12.375c-.298,0-.585-.118-.795-.329-.211-.211-.33-.498-.33-.796s.119-.584.33-.795c.21-.211.497-.33.795-.33h12.375v-13.5h-12.375c-.298,0-.585-.118-.795-.329-.211-.211-.33-.498-.33-.796s.119-.584.33-.795c.21-.211.497-.33.795-.33h12.375c.597,0,1.169.237,1.591.659s.659.994.659,1.591Zm-22.5,4.5c0,.298-.119.585-.33.796-.21.211-.497.329-.795.329h-1.125v3.375c0,.298-.119.585-.33.796-.21.211-.497.329-.795.329s-.585-.118-.795-.329c-.211-.211-.33-.498-.33-.796v-3.375h-1.125c-.298,0-.585-.118-.795-.329-.211-.211-.33-.498-.33-.796s.119-.584.33-.795c.21-.211.497-.33.795-.33h4.5c.298,0,.585.119.795.33.211.211.33.497.33.795Z" transform="translate(0 1.033579)" fill="#fdf9df"/><path id="eSCAF9RI518220" d="M225.033,384.183c0-28.647,23.224-51.871,51.871-51.871v0c28.648,0,51.871,23.224,51.871,51.871v0c0,28.648-23.223,51.871-51.871,51.871v0c-28.647,0-51.871-23.223-51.871-51.871v0Z" transform="matrix(1.386891 0 0 1.386891-107.06612-148.636945)" opacity="0" filter="url(#eSCAF9RI518220-filter)" fill="url(#eSCAF9RI518220-fill)"/><path d="M225.033,384.183c0-28.647,23.224-51.871,51.871-51.871v0c28.648,0,51.871,23.224,51.871,51.871v0c0,28.648-23.223,51.871-51.871,51.871v0c-28.647,0-51.871-23.223-51.871-51.871v0Z" transform="matrix(.993003 0 0 0.993003 1.574582 2.688128)" fill="#fff"/><path id="eSCAF9RI518222" d="M225.033,384.183c0-28.647,23.224-51.871,51.871-51.871v0c28.648,0,51.871,23.224,51.871,51.871v0c0,28.648-23.223,51.871-51.871,51.871v0c-28.647,0-51.871-23.223-51.871-51.871v0Z" opacity="0" fill="url(#eSCAF9RI518222-fill)"/><path d="M293.66,370.101c-.685-.82-1.458-1.527-2.287-2.156-.74-.55-1.524-1.032-2.375-1.425-.409-.191-.84-.348-1.293-.494-.652-.214-1.359-.36-2.088-.483h-9.193l-6.077,7.039v-.82-6.073h-12.894v37.136h12.894v-15.93-9.127h1.79h3.591h6.574.155l1.005-.022v25.068h12.894v-23.227c0-1.976-.187-3.738-.563-5.288-.376-1.538-1.083-2.93-2.133-4.198Z" fill="#451a03"/><path id="eSCAF9RI518224" d="M276.904,333.312c28.095.001,50.871,22.776,50.871,50.872c0,28.095-22.776,50.871-50.871,50.871s-50.871-22.776-50.871-50.871c0-28.096,22.776-50.872,50.871-50.872Z" fill="none" stroke="#e5b550" stroke-width="2" stroke-linecap="round" stroke-dashoffset="319.68" stroke-dasharray="319.68"/></svg>
