<svg id="eCUbQjiaHTo1" xmlns="http://www.w3.org/2000/svg" xmlns:xlink="http://www.w3.org/1999/xlink" viewBox="0 0 290 198" shape-rendering="geometricPrecision" text-rendering="geometricPrecision" project-id="b25191b44657485c82ae79749ea2a726" export-id="cc19b7d1cc364ec69b9df1fdaf7034c2" cached="true">
<style><![CDATA[
#eCUbQjiaHTo19 {animation-name: eCUbQjiaHTo19_c_o, eCUbQjiaHTo19_s_do;animation-duration: 1600ms;animation-fill-mode: forwards;animation-timing-function: linear;animation-direction: normal;animation-iteration-count: infinite;}@keyframes eCUbQjiaHTo19_c_o { 0% {opacity: 1} 30.625% {opacity: 1;animation-timing-function: cubic-bezier(0.455,0.03,0.515,0.955)} 34.375% {opacity: 0} 100% {opacity: 0}}@keyframes eCUbQjiaHTo19_s_do { 0% {stroke-dashoffset: 150.44;animation-timing-function: cubic-bezier(0.471502,0.028177,0.571441,0.819417)} 15% {stroke-dashoffset: 137} 100% {stroke-dashoffset: 137}} #eCUbQjiaHTo20 {animation-name: eCUbQjiaHTo20_c_o, eCUbQjiaHTo20_s_do;animation-duration: 1600ms;animation-fill-mode: forwards;animation-timing-function: linear;animation-direction: normal;animation-iteration-count: infinite;}@keyframes eCUbQjiaHTo20_c_o { 0% {opacity: 1} 33.75% {opacity: 1;animation-timing-function: cubic-bezier(0.455,0.03,0.515,0.955)} 37.5% {opacity: 0} 100% {opacity: 0}}@keyframes eCUbQjiaHTo20_s_do { 0% {stroke-dashoffset: 150.44} 5.625% {stroke-dashoffset: 150.44;animation-timing-function: cubic-bezier(0.471502,0.028177,0.571441,0.819417)} 18.125% {stroke-dashoffset: 119} 100% {stroke-dashoffset: 119}} #eCUbQjiaHTo21 {animation-name: eCUbQjiaHTo21_c_o, eCUbQjiaHTo21_s_do;animation-duration: 1600ms;animation-fill-mode: forwards;animation-timing-function: linear;animation-direction: normal;animation-iteration-count: infinite;}@keyframes eCUbQjiaHTo21_c_o { 0% {opacity: 1} 36.875% {opacity: 1;animation-timing-function: cubic-bezier(0.455,0.03,0.515,0.955)} 40.625% {opacity: 0} 100% {opacity: 0}}@keyframes eCUbQjiaHTo21_s_do { 0% {stroke-dashoffset: 150.44} 11.25% {stroke-dashoffset: 150.44;animation-timing-function: cubic-bezier(0.471502,0.028177,0.571441,0.819417)} 23.75% {stroke-dashoffset: 96} 100% {stroke-dashoffset: 96}} #eCUbQjiaHTo22 {animation-name: eCUbQjiaHTo22_c_o, eCUbQjiaHTo22_s_do;animation-duration: 1600ms;animation-fill-mode: forwards;animation-timing-function: linear;animation-direction: normal;animation-iteration-count: infinite;}@keyframes eCUbQjiaHTo22_c_o { 0% {opacity: 1} 40.625% {opacity: 1;animation-timing-function: cubic-bezier(0.455,0.03,0.515,0.955)} 44.375% {opacity: 0} 100% {opacity: 0}}@keyframes eCUbQjiaHTo22_s_do { 0% {stroke-dashoffset: 150.44} 16.25% {stroke-dashoffset: 150.44;animation-timing-function: cubic-bezier(0.455,0.03,0.515,0.955)} 28.75% {stroke-dashoffset: 62} 100% {stroke-dashoffset: 62}} #eCUbQjiaHTo23 {animation-name: eCUbQjiaHTo23_c_o, eCUbQjiaHTo23_s_do;animation-duration: 1600ms;animation-fill-mode: forwards;animation-timing-function: linear;animation-direction: normal;animation-iteration-count: infinite;}@keyframes eCUbQjiaHTo23_c_o { 0% {opacity: 1} 31.25% {opacity: 1} 50% {opacity: 0} 100% {opacity: 0}}@keyframes eCUbQjiaHTo23_s_do { 0% {stroke-dashoffset: 150.44} 21.25% {stroke-dashoffset: 150.44;animation-timing-function: cubic-bezier(0.455,0.03,0.515,0.955)} 33.125% {stroke-dashoffset: 0} 100% {stroke-dashoffset: 0}} #eCUbQjiaHTo24 {animation: eCUbQjiaHTo24_c_o 1600ms linear infinite normal forwards}@keyframes eCUbQjiaHTo24_c_o { 0% {opacity: 0} 30% {opacity: 0} 30.625% {opacity: 1} 44.375% {opacity: 1;animation-timing-function: cubic-bezier(0.455,0.03,0.515,0.955)} 48.125% {opacity: 0} 100% {opacity: 0}} #eCUbQjiaHTo25 {animation-name: eCUbQjiaHTo25_c_o, eCUbQjiaHTo25_s_do;animation-duration: 1600ms;animation-fill-mode: forwards;animation-timing-function: linear;animation-direction: normal;animation-iteration-count: infinite;}@keyframes eCUbQjiaHTo25_c_o { 0% {opacity: 1} 48.125% {opacity: 1;animation-timing-function: cubic-bezier(0.455,0.03,0.515,0.955)} 51.875% {opacity: 0} 100% {opacity: 0}}@keyframes eCUbQjiaHTo25_s_do { 0% {stroke-dashoffset: 150.44} 27.5% {stroke-dashoffset: 150.44;animation-timing-function: cubic-bezier(0.455,0.03,0.515,0.955)} 38.75% {stroke-dashoffset: 76} 100% {stroke-dashoffset: 76}} #eCUbQjiaHTo26 {animation-name: eCUbQjiaHTo26_c_o, eCUbQjiaHTo26_s_do;animation-duration: 1600ms;animation-fill-mode: forwards;animation-timing-function: linear;animation-direction: normal;animation-iteration-count: infinite;}@keyframes eCUbQjiaHTo26_c_o { 0% {opacity: 1} 51.875% {opacity: 1;animation-timing-function: cubic-bezier(0.455,0.03,0.515,0.955)} 55.625% {opacity: 0} 100% {opacity: 0}}@keyframes eCUbQjiaHTo26_s_do { 0% {stroke-dashoffset: 150.44} 33.125% {stroke-dashoffset: 150.44;animation-timing-function: cubic-bezier(0.455,0.03,0.515,0.955)} 43.75% {stroke-dashoffset: 109} 100% {stroke-dashoffset: 109}} #eCUbQjiaHTo27 {animation-name: eCUbQjiaHTo27_c_o, eCUbQjiaHTo27_s_do;animation-duration: 1600ms;animation-fill-mode: forwards;animation-timing-function: linear;animation-direction: normal;animation-iteration-count: infinite;}@keyframes eCUbQjiaHTo27_c_o { 0% {opacity: 1} 55.625% {opacity: 1;animation-timing-function: cubic-bezier(0.455,0.03,0.515,0.955)} 59.375% {opacity: 0} 100% {opacity: 0}}@keyframes eCUbQjiaHTo27_s_do { 0% {stroke-dashoffset: 150.44} 38.75% {stroke-dashoffset: 150.44;animation-timing-function: cubic-bezier(0.455,0.03,0.515,0.955)} 50% {stroke-dashoffset: 136} 100% {stroke-dashoffset: 136}} #eCUbQjiaHTo28 {animation-name: eCUbQjiaHTo28_c_o, eCUbQjiaHTo28_s_do;animation-duration: 1600ms;animation-fill-mode: forwards;animation-timing-function: linear;animation-direction: normal;animation-iteration-count: infinite;}@keyframes eCUbQjiaHTo28_c_o { 0% {opacity: 1} 59.375% {opacity: 1;animation-timing-function: cubic-bezier(0.455,0.03,0.515,0.955)} 63.125% {opacity: 0} 100% {opacity: 0}}@keyframes eCUbQjiaHTo28_s_do { 0% {stroke-dashoffset: 150.44} 43.125% {stroke-dashoffset: 150.44;animation-timing-function: cubic-bezier(0.455,0.03,0.515,0.955)} 54.375% {stroke-dashoffset: 149} 100% {stroke-dashoffset: 149}}
]]></style>
<path d="M5.02539,4.66406c.55207.00025,1,.44787,1,1s-.44793.99975-1,1h-.02539c-.55228,0-1-.44771-1-1s.44772-1,1-1h.02539Zm13.30861,0c.5523,0,1,.44772,1,1s-.4477,1-1,1h-.0498c-.5521-.00022-1-.44785-1-1s.4479-.99977,1-1h.0498Zm13.3096,0c.5522,0,1,.44772,1,1s-.4478,1-1,1h-.0498c-.5522-.0002-1-.44784-1-1s.4478-.9998,1-1h.0498Zm13.3095,0c.5523,0,1,.44772,1,1s-.4477,1-1,1h-.0498c-.5521-.00017-1-.44782-1-1s.4479-.99982,1-1h.0498Zm13.3096,0c.5523,0,1,.44772,1,1s-.4477,1-1,1h-.0498c-.5522-.00015-1-.44781-1-1s.4478-.99985,1-1h.0498Zm13.3096,0c.5523,0,1,.44772,1,1s-.4477,1-1,1h-.0498c-.5522-.00012-1-.44779-1-1s.4478-.99987,1-1h.0498Zm13.3095,0c.5523,0,1,.44772,1,1s-.4477,1-1,1h-.0498c-.5522-.0001-1-.44777-1-1s.4478-.9999,1-1h.0498Zm13.3096,0c.5523,0,1,.44772,1,1s-.4477,1-1,1h-.0498c-.5522-.00007-1-.44776-1-1s.4478-.99992,1-1h.0498Zm13.3096,0c.552,0,1,.44772,1,1s-.448,1-1,1h-.05c-.552-.00005-1-.44774-1-1s.448-.99995,1-1h.05Zm13.31,0c.552,0,1,.44772,1,1s-.448,1-1,1h-.05c-.553-.00002-1-.44773-1-1s.447-.99997,1-1h.05Zm13.309,0c.552,0,1,.44772,1,1s-.448,1-1,1h-.05c-.552,0-1-.44771-1-1s.448-1,1-1h.05Zm13.31,0c.552,0,1,.44772,1,1s-.448,1-1,1h-.05c-.552,0-1-.44771-1-1s.448-1,1-1h.05Zm13.309,0c.553.00002,1,.44773,1,1s-.447.99999-1,1h-.05c-.552,0-1-.44771-1-1s.448-1,1-1h.05Zm13.31,0c.552.00005,1,.44775,1,1s-.448.99995-1,1h-.05c-.552,0-1-.44771-1-1s.448-1,1-1h.05Zm13.309,0c.553.00008,1,.44776,1,1s-.447.99993-1,1h-.049c-.553,0-1-.44771-1-1s.447-1,1-1h.049Zm13.31,0c.552.0001,1,.44778,1,1s-.448.9999-1,1h-.05c-.552,0-1-.44771-1-1s.448-1,1-1h.05Zm13.31,0c.552.00013,1,.44779,1,1s-.448.99988-1,1h-.05c-.553,0-1-.44771-1-1s.447-1,1-1h.05Zm13.309,0c.552.00015,1,.44781,1,1s-.448.99985-1,1h-.05c-.552,0-1-.44771-1-1s.448-1,1-1h.05Zm13.31,0c.552.00018,1,.44782,1,1s-.448.99983-1,1h-.05c-.552,0-1-.44771-1-1s.448-1,1-1h.05Zm13.309,0c.552.0002,1,.44784,1,1s-.448.9998-1,1h-.05c-.552,0-1-.44771-1-1s.448-1,1-1h.05Zm13.31,0c.552.00023,1,.44786,1,1s-.448.99977-1,1h-.05c-.552,0-1-.44771-1-1s.448-1,1-1h.05Zm13.284,0c.552,0,1,.44772,1,1s-.448,1-1,1h-.025c-.552-.00024-1-.44787-1-1s.448-.99975,1-1h.025Z" fill="#edb034" fill-opacity="0.3"/><path d="M5.02539,17c.55207.0003,1,.4479,1,1s-.44793.9997-1,1L5,19c-.55228,0-1-.4477-1-1s.44772-1,1-1h.02539ZM18.334,17c.5523,0,1,.4477,1,1s-.4477,1-1,1h-.0498c-.5521-.0002-1-.4479-1-1s.4479-.9998,1-1h.0498Zm13.3096,0c.5522,0,1,.4477,1,1s-.4478,1-1,1h-.0498c-.5522-.0002-1-.4478-1-1s.4478-.9998,1-1h.0498Zm13.3095,0c.5523,0,1,.4477,1,1s-.4477,1-1,1h-.0498c-.5521-.0002-1-.4478-1-1s.4479-.9998,1-1h.0498Zm13.3096,0c.5523,0,1,.4477,1,1s-.4477,1-1,1h-.0498c-.5522-.0002-1-.4478-1-1s.4478-.9998,1-1h.0498Zm13.3096,0c.5523,0,1,.4477,1,1s-.4477,1-1,1h-.0498c-.5522-.0001-1-.4478-1-1s.4478-.9999,1-1h.0498Zm13.3095,0c.5523,0,1,.4477,1,1s-.4477,1-1,1h-.0498c-.5522-.0001-1-.4478-1-1s.4478-.9999,1-1h.0498Zm13.3096,0c.5523,0,1,.4477,1,1s-.4477,1-1,1h-.0498c-.5522-.0001-1-.4478-1-1s.4478-.9999,1-1h.0498Zm13.3096,0c.552,0,1,.4477,1,1s-.448,1-1,1h-.05c-.552,0-1-.4477-1-1s.448-1,1-1h.05Zm13.31,0c.552,0,1,.4477,1,1s-.448,1-1,1h-.05c-.553,0-1-.4477-1-1s.447-1,1-1h.05Zm13.309,0c.552,0,1,.4477,1,1s-.448,1-1,1h-.05c-.552,0-1-.4477-1-1s.448-1,1-1h.05Zm13.31,0c.552,0,1,.4477,1,1s-.448,1-1,1h-.05c-.552,0-1-.4477-1-1s.448-1,1-1h.05Zm13.309,0c.553,0,1,.4477,1,1s-.447,1-1,1h-.05c-.552,0-1-.4477-1-1s.448-1,1-1h.05Zm13.31,0c.552,0,1,.4477,1,1s-.448,1-1,1h-.05c-.552,0-1-.4477-1-1s.448-1,1-1h.05Zm13.309,0c.553.0001,1,.4478,1,1s-.447.9999-1,1h-.049c-.553,0-1-.4477-1-1s.447-1,1-1h.049Zm13.31,0c.552.0001,1,.4478,1,1s-.448.9999-1,1h-.05c-.552,0-1-.4477-1-1s.448-1,1-1h.05Zm13.31,0c.552.0001,1,.4478,1,1s-.448.9999-1,1h-.05c-.553,0-1-.4477-1-1s.447-1,1-1h.05Zm13.309,0c.552.0001,1,.4478,1,1s-.448.9999-1,1h-.05c-.552,0-1-.4477-1-1s.448-1,1-1h.05Zm13.31,0c.552.0002,1,.4478,1,1s-.448.9998-1,1h-.05c-.552,0-1-.4477-1-1s.448-1,1-1h.05Zm13.309,0c.552.0002,1,.4478,1,1s-.448.9998-1,1h-.05c-.552,0-1-.4477-1-1s.448-1,1-1h.05Zm13.31,0c.552.0002,1,.4479,1,1s-.448.9998-1,1h-.05c-.552,0-1-.4477-1-1s.448-1,1-1h.05ZM284.5,17c.552,0,1,.4477,1,1s-.448,1-1,1h-.025c-.552-.0002-1-.4479-1-1s.448-.9998,1-1h.025Z" fill="#edb034" fill-opacity="0.3"/><path d="M5.02539,29.3359c.55207.0003,1,.4479,1,1c0,.5522-.44793.9998-1,1h-.02539c-.55228,0-1-.4477-1-1c0-.5522.44772-1,1-1h.02539Zm13.30861,0c.5523,0,1,.4478,1,1c0,.5523-.4477,1-1,1h-.0498c-.5521-.0002-1-.4478-1-1c0-.5521.4479-.9997,1-1h.0498Zm13.3096,0c.5522,0,1,.4478,1,1c0,.5523-.4478,1-1,1h-.0498c-.5522-.0002-1-.4478-1-1c0-.5521.4478-.9998,1-1h.0498Zm13.3095,0c.5523,0,1,.4478,1,1c0,.5523-.4477,1-1,1h-.0498c-.5521-.0001-1-.4478-1-1c0-.5521.4479-.9998,1-1h.0498Zm13.3096,0c.5523,0,1,.4478,1,1c0,.5523-.4477,1-1,1h-.0498c-.5522-.0001-1-.4478-1-1s.4478-.9998,1-1h.0498Zm13.3096,0c.5523,0,1,.4478,1,1c0,.5523-.4477,1-1,1h-.0498c-.5522-.0001-1-.4478-1-1s.4478-.9998,1-1h.0498Zm13.3095,0c.5523,0,1,.4478,1,1c0,.5523-.4477,1-1,1h-.0498c-.5522-.0001-1-.4477-1-1c0-.5522.4478-.9999,1-1h.0498Zm13.3096,0c.5523,0,1,.4478,1,1c0,.5523-.4477,1-1,1h-.0498c-.5522,0-1-.4477-1-1c0-.5522.4478-.9999,1-1h.0498Zm13.3096,0c.552,0,1,.4478,1,1c0,.5523-.448,1-1,1h-.05c-.552,0-1-.4477-1-1c0-.5522.448-.9999,1-1h.05Zm13.31,0c.552,0,1,.4478,1,1c0,.5523-.448,1-1,1h-.05c-.553,0-1-.4477-1-1c0-.5522.447-.9999,1-1h.05Zm13.309,0c.552,0,1,.4478,1,1c0,.5523-.448,1-1,1h-.05c-.552,0-1-.4477-1-1c0-.5522.448-1,1-1h.05Zm13.31,0c.552,0,1,.4478,1,1c0,.5523-.448,1-1,1h-.05c-.552,0-1-.4477-1-1c0-.5522.448-1,1-1h.05Zm13.309,0c.553.0001,1,.4478,1,1c0,.5523-.447,1-1,1h-.05c-.552,0-1-.4477-1-1c0-.5522.448-1,1-1h.05Zm13.31,0c.552.0001,1,.4478,1,1c0,.5523-.448,1-1,1h-.05c-.552,0-1-.4477-1-1c0-.5522.448-1,1-1h.05Zm13.309,0c.553.0001,1,.4478,1,1c0,.5523-.447,1-1,1h-.049c-.553,0-1-.4477-1-1c0-.5522.447-1,1-1h.049Zm13.31,0c.552.0001,1,.4478,1,1c0,.5523-.448.9999-1,1h-.05c-.552,0-1-.4477-1-1c0-.5522.448-1,1-1h.05Zm13.31,0c.552.0002,1,.4478,1,1s-.448.9999-1,1h-.05c-.553,0-1-.4477-1-1c0-.5522.447-1,1-1h.05Zm13.309,0c.552.0002,1,.4478,1,1s-.448.9999-1,1h-.05c-.552,0-1-.4477-1-1c0-.5522.448-1,1-1h.05Zm13.31,0c.552.0002,1,.4479,1,1c0,.5522-.448.9999-1,1h-.05c-.552,0-1-.4477-1-1c0-.5522.448-1,1-1h.05Zm13.309,0c.552.0002,1,.4479,1,1c0,.5522-.448.9998-1,1h-.05c-.552,0-1-.4477-1-1c0-.5522.448-1,1-1h.05Zm13.31,0c.552.0003,1,.4479,1,1c0,.5522-.448.9998-1,1h-.05c-.552,0-1-.4477-1-1c0-.5522.448-1,1-1h.05Zm13.284,0c.552,0,1,.4478,1,1c0,.5523-.448,1-1,1h-.025c-.552-.0002-1-.4478-1-1c0-.5521.448-.9997,1-1h.025Z" fill="#edb034" fill-opacity="0.3"/><path d="M5.02539,41.6641c.55207.0002,1,.4478,1,1s-.44793.9997-1,1h-.02539c-.55228,0-1-.4478-1-1s.44772-1,1-1h.02539Zm13.30861,0c.5523,0,1,.4477,1,1s-.4477,1-1,1h-.0498c-.5521-.0003-1-.4479-1-1s.4479-.9998,1-1h.0498Zm13.3096,0c.5522,0,1,.4477,1,1s-.4478,1-1,1h-.0498c-.5522-.0002-1-.4479-1-1s.4478-.9998,1-1h.0498Zm13.3095,0c.5523,0,1,.4477,1,1s-.4477,1-1,1h-.0498c-.5521-.0002-1-.4479-1-1s.4479-.9999,1-1h.0498Zm13.3096,0c.5523,0,1,.4477,1,1s-.4477,1-1,1h-.0498c-.5522-.0002-1-.4478-1-1s.4478-.9999,1-1h.0498Zm13.3096,0c.5523,0,1,.4477,1,1s-.4477,1-1,1h-.0498c-.5522-.0002-1-.4478-1-1s.4478-.9999,1-1h.0498Zm13.3095,0c.5523,0,1,.4477,1,1s-.4477,1-1,1h-.0498c-.5522-.0001-1-.4478-1-1s.4478-.9999,1-1h.0498Zm13.3096,0c.5523,0,1,.4477,1,1s-.4477,1-1,1h-.0498c-.5522-.0001-1-.4478-1-1s.4478-1,1-1h.0498Zm13.3096,0c.552,0,1,.4477,1,1s-.448,1-1,1h-.05c-.552-.0001-1-.4478-1-1s.448-1,1-1h.05Zm13.31,0c.552,0,1,.4477,1,1s-.448,1-1,1h-.05c-.553-.0001-1-.4478-1-1s.447-1,1-1h.05Zm13.309,0c.552,0,1,.4477,1,1s-.448,1-1,1h-.05c-.552,0-1-.4478-1-1s.448-1,1-1h.05Zm13.31,0c.552,0,1,.4477,1,1s-.448,1-1,1h-.05c-.552,0-1-.4478-1-1s.448-1,1-1h.05Zm13.309,0c.553,0,1,.4477,1,1s-.447.9999-1,1h-.05c-.552,0-1-.4478-1-1s.448-1,1-1h.05Zm13.31,0c.552,0,1,.4477,1,1s-.448.9999-1,1h-.05c-.552,0-1-.4478-1-1s.448-1,1-1h.05Zm13.309,0c.553,0,1,.4477,1,1s-.447.9999-1,1h-.049c-.553,0-1-.4478-1-1s.447-1,1-1h.049Zm13.31,0c.552.0001,1,.4477,1,1s-.448.9999-1,1h-.05c-.552,0-1-.4478-1-1s.448-1,1-1h.05Zm13.31,0c.552.0001,1,.4478,1,1s-.448.9998-1,1h-.05c-.553,0-1-.4478-1-1s.447-1,1-1h.05Zm13.309,0c.552.0001,1,.4478,1,1s-.448.9998-1,1h-.05c-.552,0-1-.4478-1-1s.448-1,1-1h.05Zm13.31,0c.552.0001,1,.4478,1,1s-.448.9998-1,1h-.05c-.552,0-1-.4478-1-1s.448-1,1-1h.05Zm13.309,0c.552.0002,1,.4478,1,1s-.448.9998-1,1h-.05c-.552,0-1-.4478-1-1s.448-1,1-1h.05Zm13.31,0c.552.0002,1,.4478,1,1s-.448.9997-1,1h-.05c-.552,0-1-.4478-1-1s.448-1,1-1h.05Zm13.284,0c.552,0,1,.4477,1,1s-.448,1-1,1h-.025c-.552-.0003-1-.4479-1-1s.448-.9998,1-1h.025Z" fill="#edb034" fill-opacity="0.3"/><path d="M5.02539,54c.55207.0003,1,.4479,1,1s-.44793.9997-1,1L5,56c-.55228,0-1-.4477-1-1s.44772-1,1-1h.02539ZM18.334,54c.5523,0,1,.4477,1,1s-.4477,1-1,1h-.0498c-.5521-.0002-1-.4479-1-1s.4479-.9998,1-1h.0498Zm13.3096,0c.5522,0,1,.4477,1,1s-.4478,1-1,1h-.0498c-.5522-.0002-1-.4478-1-1s.4478-.9998,1-1h.0498Zm13.3095,0c.5523,0,1,.4477,1,1s-.4477,1-1,1h-.0498c-.5521-.0002-1-.4478-1-1s.4479-.9998,1-1h.0498Zm13.3096,0c.5523,0,1,.4477,1,1s-.4477,1-1,1h-.0498c-.5522-.0002-1-.4478-1-1s.4478-.9998,1-1h.0498Zm13.3096,0c.5523,0,1,.4477,1,1s-.4477,1-1,1h-.0498c-.5522-.0001-1-.4478-1-1s.4478-.9999,1-1h.0498Zm13.3095,0c.5523,0,1,.4477,1,1s-.4477,1-1,1h-.0498c-.5522-.0001-1-.4478-1-1s.4478-.9999,1-1h.0498Zm13.3096,0c.5523,0,1,.4477,1,1s-.4477,1-1,1h-.0498c-.5522-.0001-1-.4478-1-1s.4478-.9999,1-1h.0498Zm13.3096,0c.552,0,1,.4477,1,1s-.448,1-1,1h-.05c-.552,0-1-.4477-1-1s.448-1,1-1h.05Zm13.31,0c.552,0,1,.4477,1,1s-.448,1-1,1h-.05c-.553,0-1-.4477-1-1s.447-1,1-1h.05Zm13.309,0c.552,0,1,.4477,1,1s-.448,1-1,1h-.05c-.552,0-1-.4477-1-1s.448-1,1-1h.05Zm13.31,0c.552,0,1,.4477,1,1s-.448,1-1,1h-.05c-.552,0-1-.4477-1-1s.448-1,1-1h.05Zm13.309,0c.553,0,1,.4477,1,1s-.447,1-1,1h-.05c-.552,0-1-.4477-1-1s.448-1,1-1h.05Zm13.31,0c.552,0,1,.4477,1,1s-.448,1-1,1h-.05c-.552,0-1-.4477-1-1s.448-1,1-1h.05Zm13.309,0c.553.0001,1,.4478,1,1s-.447.9999-1,1h-.049c-.553,0-1-.4477-1-1s.447-1,1-1h.049Zm13.31,0c.552.0001,1,.4478,1,1s-.448.9999-1,1h-.05c-.552,0-1-.4477-1-1s.448-1,1-1h.05Zm13.31,0c.552.0001,1,.4478,1,1s-.448.9999-1,1h-.05c-.553,0-1-.4477-1-1s.447-1,1-1h.05Zm13.309,0c.552.0001,1,.4478,1,1s-.448.9999-1,1h-.05c-.552,0-1-.4477-1-1s.448-1,1-1h.05Zm13.31,0c.552.0002,1,.4478,1,1s-.448.9998-1,1h-.05c-.552,0-1-.4477-1-1s.448-1,1-1h.05Zm13.309,0c.552.0002,1,.4478,1,1s-.448.9998-1,1h-.05c-.552,0-1-.4477-1-1s.448-1,1-1h.05Zm13.31,0c.552.0002,1,.4479,1,1s-.448.9998-1,1h-.05c-.552,0-1-.4477-1-1s.448-1,1-1h.05ZM284.5,54c.552,0,1,.4477,1,1s-.448,1-1,1h-.025c-.552-.0002-1-.4479-1-1s.448-.9998,1-1h.025Z" fill="#edb034" fill-opacity="0.3"/><path d="M5.02539,66.3359c.55207.0003,1,.4479,1,1c0,.5522-.44793.9998-1,1h-.02539c-.55228,0-1-.4477-1-1c0-.5522.44772-1,1-1h.02539Zm13.30861,0c.5523,0,1,.4478,1,1c0,.5523-.4477,1-1,1h-.0498c-.5521-.0002-1-.4478-1-1c0-.5521.4479-.9997,1-1h.0498Zm13.3096,0c.5522,0,1,.4478,1,1c0,.5523-.4478,1-1,1h-.0498c-.5522-.0002-1-.4478-1-1c0-.5521.4478-.9998,1-1h.0498Zm13.3095,0c.5523,0,1,.4478,1,1c0,.5523-.4477,1-1,1h-.0498c-.5521-.0001-1-.4478-1-1c0-.5521.4479-.9998,1-1h.0498Zm13.3096,0c.5523,0,1,.4478,1,1c0,.5523-.4477,1-1,1h-.0498c-.5522-.0001-1-.4478-1-1s.4478-.9998,1-1h.0498Zm13.3096,0c.5523,0,1,.4478,1,1c0,.5523-.4477,1-1,1h-.0498c-.5522-.0001-1-.4478-1-1s.4478-.9998,1-1h.0498Zm13.3095,0c.5523,0,1,.4478,1,1c0,.5523-.4477,1-1,1h-.0498c-.5522-.0001-1-.4477-1-1c0-.5522.4478-.9999,1-1h.0498Zm13.3096,0c.5523,0,1,.4478,1,1c0,.5523-.4477,1-1,1h-.0498c-.5522,0-1-.4477-1-1c0-.5522.4478-.9999,1-1h.0498Zm13.3096,0c.552,0,1,.4478,1,1c0,.5523-.448,1-1,1h-.05c-.552,0-1-.4477-1-1c0-.5522.448-.9999,1-1h.05Zm13.31,0c.552,0,1,.4478,1,1c0,.5523-.448,1-1,1h-.05c-.553,0-1-.4477-1-1c0-.5522.447-.9999,1-1h.05Zm13.309,0c.552,0,1,.4478,1,1c0,.5523-.448,1-1,1h-.05c-.552,0-1-.4477-1-1c0-.5522.448-1,1-1h.05Zm13.31,0c.552,0,1,.4478,1,1c0,.5523-.448,1-1,1h-.05c-.552,0-1-.4477-1-1c0-.5522.448-1,1-1h.05Zm13.309,0c.553.0001,1,.4478,1,1c0,.5523-.447,1-1,1h-.05c-.552,0-1-.4477-1-1c0-.5522.448-1,1-1h.05Zm13.31,0c.552.0001,1,.4478,1,1c0,.5523-.448,1-1,1h-.05c-.552,0-1-.4477-1-1c0-.5522.448-1,1-1h.05Zm13.309,0c.553.0001,1,.4478,1,1c0,.5523-.447,1-1,1h-.049c-.553,0-1-.4477-1-1c0-.5522.447-1,1-1h.049Zm13.31,0c.552.0001,1,.4478,1,1c0,.5523-.448.9999-1,1h-.05c-.552,0-1-.4477-1-1c0-.5522.448-1,1-1h.05Zm13.31,0c.552.0002,1,.4478,1,1s-.448.9999-1,1h-.05c-.553,0-1-.4477-1-1c0-.5522.447-1,1-1h.05Zm13.309,0c.552.0002,1,.4478,1,1s-.448.9999-1,1h-.05c-.552,0-1-.4477-1-1c0-.5522.448-1,1-1h.05Zm13.31,0c.552.0002,1,.4479,1,1c0,.5522-.448.9999-1,1h-.05c-.552,0-1-.4477-1-1c0-.5522.448-1,1-1h.05Zm13.309,0c.552.0002,1,.4479,1,1c0,.5522-.448.9998-1,1h-.05c-.552,0-1-.4477-1-1c0-.5522.448-1,1-1h.05Zm13.31,0c.552.0003,1,.4479,1,1c0,.5522-.448.9998-1,1h-.05c-.552,0-1-.4477-1-1c0-.5522.448-1,1-1h.05Zm13.284,0c.552,0,1,.4478,1,1c0,.5523-.448,1-1,1h-.025c-.552-.0002-1-.4478-1-1c0-.5521.448-.9997,1-1h.025Z" fill="#edb034" fill-opacity="0.3"/><path d="M5.02539,78.6641c.55207.0002,1,.4478,1,1c0,.5521-.44793.9997-1,1h-.02539c-.55228,0-1-.4478-1-1c0-.5523.44772-1,1-1h.02539Zm13.30861,0c.5523,0,1,.4477,1,1c0,.5522-.4477,1-1,1h-.0498c-.5521-.0003-1-.4479-1-1c0-.5522.4479-.9998,1-1h.0498Zm13.3096,0c.5522,0,1,.4477,1,1c0,.5522-.4478,1-1,1h-.0498c-.5522-.0002-1-.4479-1-1c0-.5522.4478-.9998,1-1h.0498Zm13.3095,0c.5523,0,1,.4477,1,1c0,.5522-.4477,1-1,1h-.0498c-.5521-.0002-1-.4479-1-1c0-.5522.4479-.9999,1-1h.0498Zm13.3096,0c.5523,0,1,.4477,1,1c0,.5522-.4477,1-1,1h-.0498c-.5522-.0002-1-.4478-1-1s.4478-.9999,1-1h.0498Zm13.3096,0c.5523,0,1,.4477,1,1c0,.5522-.4477,1-1,1h-.0498c-.5522-.0002-1-.4478-1-1s.4478-.9999,1-1h.0498Zm13.3095,0c.5523,0,1,.4477,1,1c0,.5522-.4477,1-1,1h-.0498c-.5522-.0001-1-.4478-1-1c0-.5523.4478-.9999,1-1h.0498Zm13.3096,0c.5523,0,1,.4477,1,1c0,.5522-.4477,1-1,1h-.0498c-.5522-.0001-1-.4478-1-1c0-.5523.4478-1,1-1h.0498Zm13.3096,0c.552,0,1,.4477,1,1c0,.5522-.448,1-1,1h-.05c-.552-.0001-1-.4478-1-1c0-.5523.448-1,1-1h.05Zm13.31,0c.552,0,1,.4477,1,1c0,.5522-.448,1-1,1h-.05c-.553-.0001-1-.4478-1-1c0-.5523.447-1,1-1h.05Zm13.309,0c.552,0,1,.4477,1,1c0,.5522-.448,1-1,1h-.05c-.552,0-1-.4478-1-1c0-.5523.448-1,1-1h.05Zm13.31,0c.552,0,1,.4477,1,1c0,.5522-.448,1-1,1h-.05c-.552,0-1-.4478-1-1c0-.5523.448-1,1-1h.05Zm13.309,0c.553,0,1,.4477,1,1c0,.5522-.447.9999-1,1h-.05c-.552,0-1-.4478-1-1c0-.5523.448-1,1-1h.05Zm13.31,0c.552,0,1,.4477,1,1c0,.5522-.448.9999-1,1h-.05c-.552,0-1-.4478-1-1c0-.5523.448-1,1-1h.05Zm13.309,0c.553,0,1,.4477,1,1c0,.5522-.447.9999-1,1h-.049c-.553,0-1-.4478-1-1c0-.5523.447-1,1-1h.049Zm13.31,0c.552.0001,1,.4477,1,1c0,.5522-.448.9999-1,1h-.05c-.552,0-1-.4478-1-1c0-.5523.448-1,1-1h.05Zm13.31,0c.552.0001,1,.4478,1,1s-.448.9998-1,1h-.05c-.553,0-1-.4478-1-1c0-.5523.447-1,1-1h.05Zm13.309,0c.552.0001,1,.4478,1,1s-.448.9998-1,1h-.05c-.552,0-1-.4478-1-1c0-.5523.448-1,1-1h.05Zm13.31,0c.552.0001,1,.4478,1,1c0,.5521-.448.9998-1,1h-.05c-.552,0-1-.4478-1-1c0-.5523.448-1,1-1h.05Zm13.309,0c.552.0002,1,.4478,1,1c0,.5521-.448.9998-1,1h-.05c-.552,0-1-.4478-1-1c0-.5523.448-1,1-1h.05Zm13.31,0c.552.0002,1,.4478,1,1c0,.5521-.448.9997-1,1h-.05c-.552,0-1-.4478-1-1c0-.5523.448-1,1-1h.05Zm13.284,0c.552,0,1,.4477,1,1c0,.5522-.448,1-1,1h-.025c-.552-.0003-1-.4479-1-1c0-.5522.448-.9998,1-1h.025Z" fill="#edb034" fill-opacity="0.3"/><path d="M5.02539,91c.55207.0003,1,.4479,1,1s-.44793.9997-1,1L5,93c-.55228,0-1-.4477-1-1s.44772-1,1-1h.02539ZM18.334,91c.5523,0,1,.4477,1,1s-.4477,1-1,1h-.0498c-.5521-.0002-1-.4479-1-1s.4479-.9998,1-1h.0498Zm13.3096,0c.5522,0,1,.4477,1,1s-.4478,1-1,1h-.0498c-.5522-.0002-1-.4478-1-1s.4478-.9998,1-1h.0498Zm13.3095,0c.5523,0,1,.4477,1,1s-.4477,1-1,1h-.0498c-.5521-.0002-1-.4478-1-1s.4479-.9998,1-1h.0498Zm13.3096,0c.5523,0,1,.4477,1,1s-.4477,1-1,1h-.0498c-.5522-.0002-1-.4478-1-1s.4478-.9998,1-1h.0498Zm13.3096,0c.5523,0,1,.4477,1,1s-.4477,1-1,1h-.0498c-.5522-.0001-1-.4478-1-1s.4478-.9999,1-1h.0498Zm13.3095,0c.5523,0,1,.4477,1,1s-.4477,1-1,1h-.0498c-.5522-.0001-1-.4478-1-1s.4478-.9999,1-1h.0498Zm13.3096,0c.5523,0,1,.4477,1,1s-.4477,1-1,1h-.0498c-.5522-.0001-1-.4478-1-1s.4478-.9999,1-1h.0498Zm13.3096,0c.552,0,1,.4477,1,1s-.448,1-1,1h-.05c-.552,0-1-.4477-1-1s.448-1,1-1h.05Zm13.31,0c.552,0,1,.4477,1,1s-.448,1-1,1h-.05c-.553,0-1-.4477-1-1s.447-1,1-1h.05Zm13.309,0c.552,0,1,.4477,1,1s-.448,1-1,1h-.05c-.552,0-1-.4477-1-1s.448-1,1-1h.05Zm13.31,0c.552,0,1,.4477,1,1s-.448,1-1,1h-.05c-.552,0-1-.4477-1-1s.448-1,1-1h.05Zm13.309,0c.553,0,1,.4477,1,1s-.447,1-1,1h-.05c-.552,0-1-.4477-1-1s.448-1,1-1h.05Zm13.31,0c.552,0,1,.4477,1,1s-.448,1-1,1h-.05c-.552,0-1-.4477-1-1s.448-1,1-1h.05Zm13.309,0c.553.0001,1,.4478,1,1s-.447.9999-1,1h-.049c-.553,0-1-.4477-1-1s.447-1,1-1h.049Zm13.31,0c.552.0001,1,.4478,1,1s-.448.9999-1,1h-.05c-.552,0-1-.4477-1-1s.448-1,1-1h.05Zm13.31,0c.552.0001,1,.4478,1,1s-.448.9999-1,1h-.05c-.553,0-1-.4477-1-1s.447-1,1-1h.05Zm13.309,0c.552.0001,1,.4478,1,1s-.448.9999-1,1h-.05c-.552,0-1-.4477-1-1s.448-1,1-1h.05Zm13.31,0c.552.0002,1,.4478,1,1s-.448.9998-1,1h-.05c-.552,0-1-.4477-1-1s.448-1,1-1h.05Zm13.309,0c.552.0002,1,.4478,1,1s-.448.9998-1,1h-.05c-.552,0-1-.4477-1-1s.448-1,1-1h.05Zm13.31,0c.552.0002,1,.4479,1,1s-.448.9998-1,1h-.05c-.552,0-1-.4477-1-1s.448-1,1-1h.05ZM284.5,91c.552,0,1,.4477,1,1s-.448,1-1,1h-.025c-.552-.0002-1-.4479-1-1s.448-.9998,1-1h.025Z" fill="#edb034" fill-opacity="0.3"/><path d="M5.02539,103.336c.55207,0,1,.448,1,1s-.44793,1-1,1h-.02539c-.55228,0-1-.448-1-1s.44772-1,1-1h.02539Zm13.30861,0c.5523,0,1,.448,1,1s-.4477,1-1,1h-.0498c-.5521,0-1-.448-1-1s.4479-1,1-1h.0498Zm13.3096,0c.5522,0,1,.448,1,1s-.4478,1-1,1h-.0498c-.5522,0-1-.448-1-1s.4478-1,1-1h.0498Zm13.3095,0c.5523,0,1,.448,1,1s-.4477,1-1,1h-.0498c-.5521,0-1-.448-1-1s.4479-1,1-1h.0498Zm13.3096,0c.5523,0,1,.448,1,1s-.4477,1-1,1h-.0498c-.5522,0-1-.448-1-1s.4478-1,1-1h.0498Zm13.3096,0c.5523,0,1,.448,1,1s-.4477,1-1,1h-.0498c-.5522,0-1-.448-1-1s.4478-1,1-1h.0498Zm13.3095,0c.5523,0,1,.448,1,1s-.4477,1-1,1h-.0498c-.5522,0-1-.448-1-1s.4478-1,1-1h.0498Zm13.3096,0c.5523,0,1,.448,1,1s-.4477,1-1,1h-.0498c-.5522,0-1-.448-1-1s.4478-1,1-1h.0498Zm13.3096,0c.552,0,1,.448,1,1s-.448,1-1,1h-.05c-.552,0-1-.448-1-1s.448-1,1-1h.05Zm13.31,0c.552,0,1,.448,1,1s-.448,1-1,1h-.05c-.553,0-1-.448-1-1s.447-1,1-1h.05Zm13.309,0c.552,0,1,.448,1,1s-.448,1-1,1h-.05c-.552,0-1-.448-1-1s.448-1,1-1h.05Zm13.31,0c.552,0,1,.448,1,1s-.448,1-1,1h-.05c-.552,0-1-.448-1-1s.448-1,1-1h.05Zm13.309,0c.553,0,1,.448,1,1s-.447,1-1,1h-.05c-.552,0-1-.448-1-1s.448-1,1-1h.05Zm13.31,0c.552,0,1,.448,1,1s-.448,1-1,1h-.05c-.552,0-1-.448-1-1s.448-1,1-1h.05Zm13.309,0c.553,0,1,.448,1,1s-.447,1-1,1h-.049c-.553,0-1-.448-1-1s.447-1,1-1h.049Zm13.31,0c.552,0,1,.448,1,1s-.448,1-1,1h-.05c-.552,0-1-.448-1-1s.448-1,1-1h.05Zm13.31,0c.552,0,1,.448,1,1s-.448,1-1,1h-.05c-.553,0-1-.448-1-1s.447-1,1-1h.05Zm13.309,0c.552,0,1,.448,1,1s-.448,1-1,1h-.05c-.552,0-1-.448-1-1s.448-1,1-1h.05Zm13.31,0c.552,0,1,.448,1,1s-.448,1-1,1h-.05c-.552,0-1-.448-1-1s.448-1,1-1h.05Zm13.309,0c.552,0,1,.448,1,1s-.448,1-1,1h-.05c-.552,0-1-.448-1-1s.448-1,1-1h.05Zm13.31,0c.552,0,1,.448,1,1s-.448,1-1,1h-.05c-.552,0-1-.448-1-1s.448-1,1-1h.05Zm13.284,0c.552,0,1,.448,1,1s-.448,1-1,1h-.025c-.552,0-1-.448-1-1s.448-1,1-1h.025Z" fill="#edb034" fill-opacity="0.3"/><path d="M5.02539,115.664c.55207,0,1,.448,1,1s-.44793,1-1,1h-.02539c-.55228,0-1-.448-1-1s.44772-1,1-1h.02539Zm13.30861,0c.5523,0,1,.448,1,1s-.4477,1-1,1h-.0498c-.5521,0-1-.448-1-1s.4479-1,1-1h.0498Zm13.3096,0c.5522,0,1,.448,1,1s-.4478,1-1,1h-.0498c-.5522,0-1-.448-1-1s.4478-1,1-1h.0498Zm13.3095,0c.5523,0,1,.448,1,1s-.4477,1-1,1h-.0498c-.5521,0-1-.448-1-1s.4479-1,1-1h.0498Zm13.3096,0c.5523,0,1,.448,1,1s-.4477,1-1,1h-.0498c-.5522,0-1-.448-1-1s.4478-1,1-1h.0498Zm13.3096,0c.5523,0,1,.448,1,1s-.4477,1-1,1h-.0498c-.5522,0-1-.448-1-1s.4478-1,1-1h.0498Zm13.3095,0c.5523,0,1,.448,1,1s-.4477,1-1,1h-.0498c-.5522,0-1-.448-1-1s.4478-1,1-1h.0498Zm13.3096,0c.5523,0,1,.448,1,1s-.4477,1-1,1h-.0498c-.5522,0-1-.448-1-1s.4478-1,1-1h.0498Zm13.3096,0c.552,0,1,.448,1,1s-.448,1-1,1h-.05c-.552,0-1-.448-1-1s.448-1,1-1h.05Zm13.31,0c.552,0,1,.448,1,1s-.448,1-1,1h-.05c-.553,0-1-.448-1-1s.447-1,1-1h.05Zm13.309,0c.552,0,1,.448,1,1s-.448,1-1,1h-.05c-.552,0-1-.448-1-1s.448-1,1-1h.05Zm13.31,0c.552,0,1,.448,1,1s-.448,1-1,1h-.05c-.552,0-1-.448-1-1s.448-1,1-1h.05Zm13.309,0c.553,0,1,.448,1,1s-.447,1-1,1h-.05c-.552,0-1-.448-1-1s.448-1,1-1h.05Zm13.31,0c.552,0,1,.448,1,1s-.448,1-1,1h-.05c-.552,0-1-.448-1-1s.448-1,1-1h.05Zm13.309,0c.553,0,1,.448,1,1s-.447,1-1,1h-.049c-.553,0-1-.448-1-1s.447-1,1-1h.049Zm13.31,0c.552,0,1,.448,1,1s-.448,1-1,1h-.05c-.552,0-1-.448-1-1s.448-1,1-1h.05Zm13.31,0c.552,0,1,.448,1,1s-.448,1-1,1h-.05c-.553,0-1-.448-1-1s.447-1,1-1h.05Zm13.309,0c.552,0,1,.448,1,1s-.448,1-1,1h-.05c-.552,0-1-.448-1-1s.448-1,1-1h.05Zm13.31,0c.552,0,1,.448,1,1s-.448,1-1,1h-.05c-.552,0-1-.448-1-1s.448-1,1-1h.05Zm13.309,0c.552,0,1,.448,1,1s-.448,1-1,1h-.05c-.552,0-1-.448-1-1s.448-1,1-1h.05Zm13.31,0c.552,0,1,.448,1,1s-.448,1-1,1h-.05c-.552,0-1-.448-1-1s.448-1,1-1h.05Zm13.284,0c.552,0,1,.448,1,1s-.448,1-1,1h-.025c-.552,0-1-.448-1-1s.448-1,1-1h.025Z" fill="#edb034" fill-opacity="0.3"/><path d="M5.02539,128c.55207,0,1,.448,1,1s-.44793,1-1,1L5,130c-.55228,0-1-.448-1-1s.44772-1,1-1h.02539ZM18.334,128c.5523,0,1,.448,1,1s-.4477,1-1,1h-.0498c-.5521,0-1-.448-1-1s.4479-1,1-1h.0498Zm13.3096,0c.5522,0,1,.448,1,1s-.4478,1-1,1h-.0498c-.5522,0-1-.448-1-1s.4478-1,1-1h.0498Zm13.3095,0c.5523,0,1,.448,1,1s-.4477,1-1,1h-.0498c-.5521,0-1-.448-1-1s.4479-1,1-1h.0498Zm13.3096,0c.5523,0,1,.448,1,1s-.4477,1-1,1h-.0498c-.5522,0-1-.448-1-1s.4478-1,1-1h.0498Zm13.3096,0c.5523,0,1,.448,1,1s-.4477,1-1,1h-.0498c-.5522,0-1-.448-1-1s.4478-1,1-1h.0498Zm13.3095,0c.5523,0,1,.448,1,1s-.4477,1-1,1h-.0498c-.5522,0-1-.448-1-1s.4478-1,1-1h.0498Zm13.3096,0c.5523,0,1,.448,1,1s-.4477,1-1,1h-.0498c-.5522,0-1-.448-1-1s.4478-1,1-1h.0498Zm13.3096,0c.552,0,1,.448,1,1s-.448,1-1,1h-.05c-.552,0-1-.448-1-1s.448-1,1-1h.05Zm13.31,0c.552,0,1,.448,1,1s-.448,1-1,1h-.05c-.553,0-1-.448-1-1s.447-1,1-1h.05Zm13.309,0c.552,0,1,.448,1,1s-.448,1-1,1h-.05c-.552,0-1-.448-1-1s.448-1,1-1h.05Zm13.31,0c.552,0,1,.448,1,1s-.448,1-1,1h-.05c-.552,0-1-.448-1-1s.448-1,1-1h.05Zm13.309,0c.553,0,1,.448,1,1s-.447,1-1,1h-.05c-.552,0-1-.448-1-1s.448-1,1-1h.05Zm13.31,0c.552,0,1,.448,1,1s-.448,1-1,1h-.05c-.552,0-1-.448-1-1s.448-1,1-1h.05Zm13.309,0c.553,0,1,.448,1,1s-.447,1-1,1h-.049c-.553,0-1-.448-1-1s.447-1,1-1h.049Zm13.31,0c.552,0,1,.448,1,1s-.448,1-1,1h-.05c-.552,0-1-.448-1-1s.448-1,1-1h.05Zm13.31,0c.552,0,1,.448,1,1s-.448,1-1,1h-.05c-.553,0-1-.448-1-1s.447-1,1-1h.05Zm13.309,0c.552,0,1,.448,1,1s-.448,1-1,1h-.05c-.552,0-1-.448-1-1s.448-1,1-1h.05Zm13.31,0c.552,0,1,.448,1,1s-.448,1-1,1h-.05c-.552,0-1-.448-1-1s.448-1,1-1h.05Zm13.309,0c.552,0,1,.448,1,1s-.448,1-1,1h-.05c-.552,0-1-.448-1-1s.448-1,1-1h.05Zm13.31,0c.552,0,1,.448,1,1s-.448,1-1,1h-.05c-.552,0-1-.448-1-1s.448-1,1-1h.05Zm13.284,0c.552,0,1,.448,1,1s-.448,1-1,1h-.025c-.552,0-1-.448-1-1s.448-1,1-1h.025Z" fill="#edb034" fill-opacity="0.3"/><path d="M5.02539,142c.55207,0,1,.448,1,1s-.44793,1-1,1L5,144c-.55228,0-1-.448-1-1s.44772-1,1-1h.02539ZM18.334,142c.5523,0,1,.448,1,1s-.4477,1-1,1h-.0498c-.5521,0-1-.448-1-1s.4479-1,1-1h.0498Zm13.3096,0c.5522,0,1,.448,1,1s-.4478,1-1,1h-.0498c-.5522,0-1-.448-1-1s.4478-1,1-1h.0498Zm13.3095,0c.5523,0,1,.448,1,1s-.4477,1-1,1h-.0498c-.5521,0-1-.448-1-1s.4479-1,1-1h.0498Zm13.3096,0c.5523,0,1,.448,1,1s-.4477,1-1,1h-.0498c-.5522,0-1-.448-1-1s.4478-1,1-1h.0498Zm13.3096,0c.5523,0,1,.448,1,1s-.4477,1-1,1h-.0498c-.5522,0-1-.448-1-1s.4478-1,1-1h.0498Zm13.3095,0c.5523,0,1,.448,1,1s-.4477,1-1,1h-.0498c-.5522,0-1-.448-1-1s.4478-1,1-1h.0498Zm13.3096,0c.5523,0,1,.448,1,1s-.4477,1-1,1h-.0498c-.5522,0-1-.448-1-1s.4478-1,1-1h.0498Zm13.3096,0c.552,0,1,.448,1,1s-.448,1-1,1h-.05c-.552,0-1-.448-1-1s.448-1,1-1h.05Zm13.31,0c.552,0,1,.448,1,1s-.448,1-1,1h-.05c-.553,0-1-.448-1-1s.447-1,1-1h.05Zm13.309,0c.552,0,1,.448,1,1s-.448,1-1,1h-.05c-.552,0-1-.448-1-1s.448-1,1-1h.05Zm13.31,0c.552,0,1,.448,1,1s-.448,1-1,1h-.05c-.552,0-1-.448-1-1s.448-1,1-1h.05Zm13.309,0c.553,0,1,.448,1,1s-.447,1-1,1h-.05c-.552,0-1-.448-1-1s.448-1,1-1h.05Zm13.31,0c.552,0,1,.448,1,1s-.448,1-1,1h-.05c-.552,0-1-.448-1-1s.448-1,1-1h.05Zm13.309,0c.553,0,1,.448,1,1s-.447,1-1,1h-.049c-.553,0-1-.448-1-1s.447-1,1-1h.049Zm13.31,0c.552,0,1,.448,1,1s-.448,1-1,1h-.05c-.552,0-1-.448-1-1s.448-1,1-1h.05Zm13.31,0c.552,0,1,.448,1,1s-.448,1-1,1h-.05c-.553,0-1-.448-1-1s.447-1,1-1h.05Zm13.309,0c.552,0,1,.448,1,1s-.448,1-1,1h-.05c-.552,0-1-.448-1-1s.448-1,1-1h.05Zm13.31,0c.552,0,1,.448,1,1s-.448,1-1,1h-.05c-.552,0-1-.448-1-1s.448-1,1-1h.05Zm13.309,0c.552,0,1,.448,1,1s-.448,1-1,1h-.05c-.552,0-1-.448-1-1s.448-1,1-1h.05Zm13.31,0c.552,0,1,.448,1,1s-.448,1-1,1h-.05c-.552,0-1-.448-1-1s.448-1,1-1h.05Zm13.284,0c.552,0,1,.448,1,1s-.448,1-1,1h-.025c-.552,0-1-.448-1-1s.448-1,1-1h.025Z" fill="#edb034" fill-opacity="0.3"/><path d="M5.02539,154.336c.55207,0,1,.448,1,1s-.44793,1-1,1h-.02539c-.55228,0-1-.448-1-1s.44772-1,1-1h.02539Zm13.30861,0c.5523,0,1,.448,1,1s-.4477,1-1,1h-.0498c-.5521,0-1-.448-1-1s.4479-1,1-1h.0498Zm13.3096,0c.5522,0,1,.448,1,1s-.4478,1-1,1h-.0498c-.5522,0-1-.448-1-1s.4478-1,1-1h.0498Zm13.3095,0c.5523,0,1,.448,1,1s-.4477,1-1,1h-.0498c-.5521,0-1-.448-1-1s.4479-1,1-1h.0498Zm13.3096,0c.5523,0,1,.448,1,1s-.4477,1-1,1h-.0498c-.5522,0-1-.448-1-1s.4478-1,1-1h.0498Zm13.3096,0c.5523,0,1,.448,1,1s-.4477,1-1,1h-.0498c-.5522,0-1-.448-1-1s.4478-1,1-1h.0498Zm13.3095,0c.5523,0,1,.448,1,1s-.4477,1-1,1h-.0498c-.5522,0-1-.448-1-1s.4478-1,1-1h.0498Zm13.3096,0c.5523,0,1,.448,1,1s-.4477,1-1,1h-.0498c-.5522,0-1-.448-1-1s.4478-1,1-1h.0498Zm13.3096,0c.552,0,1,.448,1,1s-.448,1-1,1h-.05c-.552,0-1-.448-1-1s.448-1,1-1h.05Zm13.31,0c.552,0,1,.448,1,1s-.448,1-1,1h-.05c-.553,0-1-.448-1-1s.447-1,1-1h.05Zm13.309,0c.552,0,1,.448,1,1s-.448,1-1,1h-.05c-.552,0-1-.448-1-1s.448-1,1-1h.05Zm13.31,0c.552,0,1,.448,1,1s-.448,1-1,1h-.05c-.552,0-1-.448-1-1s.448-1,1-1h.05Zm13.309,0c.553,0,1,.448,1,1s-.447,1-1,1h-.05c-.552,0-1-.448-1-1s.448-1,1-1h.05Zm13.31,0c.552,0,1,.448,1,1s-.448,1-1,1h-.05c-.552,0-1-.448-1-1s.448-1,1-1h.05Zm13.309,0c.553,0,1,.448,1,1s-.447,1-1,1h-.049c-.553,0-1-.448-1-1s.447-1,1-1h.049Zm13.31,0c.552,0,1,.448,1,1s-.448,1-1,1h-.05c-.552,0-1-.448-1-1s.448-1,1-1h.05Zm13.31,0c.552,0,1,.448,1,1s-.448,1-1,1h-.05c-.553,0-1-.448-1-1s.447-1,1-1h.05Zm13.309,0c.552,0,1,.448,1,1s-.448,1-1,1h-.05c-.552,0-1-.448-1-1s.448-1,1-1h.05Zm13.31,0c.552,0,1,.448,1,1s-.448,1-1,1h-.05c-.552,0-1-.448-1-1s.448-1,1-1h.05Zm13.309,0c.552,0,1,.448,1,1s-.448,1-1,1h-.05c-.552,0-1-.448-1-1s.448-1,1-1h.05Zm13.31,0c.552,0,1,.448,1,1s-.448,1-1,1h-.05c-.552,0-1-.448-1-1s.448-1,1-1h.05Zm13.284,0c.552,0,1,.448,1,1s-.448,1-1,1h-.025c-.552,0-1-.448-1-1s.448-1,1-1h.025Z" fill="#edb034" fill-opacity="0.3"/><path d="M5.02539,166.664c.55207,0,1,.448,1,1s-.44793,1-1,1h-.02539c-.55228,0-1-.448-1-1s.44772-1,1-1h.02539Zm13.30861,0c.5523,0,1,.448,1,1s-.4477,1-1,1h-.0498c-.5521,0-1-.448-1-1s.4479-1,1-1h.0498Zm13.3096,0c.5522,0,1,.448,1,1s-.4478,1-1,1h-.0498c-.5522,0-1-.448-1-1s.4478-1,1-1h.0498Zm13.3095,0c.5523,0,1,.448,1,1s-.4477,1-1,1h-.0498c-.5521,0-1-.448-1-1s.4479-1,1-1h.0498Zm13.3096,0c.5523,0,1,.448,1,1s-.4477,1-1,1h-.0498c-.5522,0-1-.448-1-1s.4478-1,1-1h.0498Zm13.3096,0c.5523,0,1,.448,1,1s-.4477,1-1,1h-.0498c-.5522,0-1-.448-1-1s.4478-1,1-1h.0498Zm13.3095,0c.5523,0,1,.448,1,1s-.4477,1-1,1h-.0498c-.5522,0-1-.448-1-1s.4478-1,1-1h.0498Zm13.3096,0c.5523,0,1,.448,1,1s-.4477,1-1,1h-.0498c-.5522,0-1-.448-1-1s.4478-1,1-1h.0498Zm13.3096,0c.552,0,1,.448,1,1s-.448,1-1,1h-.05c-.552,0-1-.448-1-1s.448-1,1-1h.05Zm13.31,0c.552,0,1,.448,1,1s-.448,1-1,1h-.05c-.553,0-1-.448-1-1s.447-1,1-1h.05Zm13.309,0c.552,0,1,.448,1,1s-.448,1-1,1h-.05c-.552,0-1-.448-1-1s.448-1,1-1h.05Zm13.31,0c.552,0,1,.448,1,1s-.448,1-1,1h-.05c-.552,0-1-.448-1-1s.448-1,1-1h.05Zm13.309,0c.553,0,1,.448,1,1s-.447,1-1,1h-.05c-.552,0-1-.448-1-1s.448-1,1-1h.05Zm13.31,0c.552,0,1,.448,1,1s-.448,1-1,1h-.05c-.552,0-1-.448-1-1s.448-1,1-1h.05Zm13.309,0c.553,0,1,.448,1,1s-.447,1-1,1h-.049c-.553,0-1-.448-1-1s.447-1,1-1h.049Zm13.31,0c.552,0,1,.448,1,1s-.448,1-1,1h-.05c-.552,0-1-.448-1-1s.448-1,1-1h.05Zm13.31,0c.552,0,1,.448,1,1s-.448,1-1,1h-.05c-.553,0-1-.448-1-1s.447-1,1-1h.05Zm13.309,0c.552,0,1,.448,1,1s-.448,1-1,1h-.05c-.552,0-1-.448-1-1s.448-1,1-1h.05Zm13.31,0c.552,0,1,.448,1,1s-.448,1-1,1h-.05c-.552,0-1-.448-1-1s.448-1,1-1h.05Zm13.309,0c.552,0,1,.448,1,1s-.448,1-1,1h-.05c-.552,0-1-.448-1-1s.448-1,1-1h.05Zm13.31,0c.552,0,1,.448,1,1s-.448,1-1,1h-.05c-.552,0-1-.448-1-1s.448-1,1-1h.05Zm13.284,0c.552,0,1,.448,1,1s-.448,1-1,1h-.025c-.552,0-1-.448-1-1s.448-1,1-1h.025Z" fill="#edb034" fill-opacity="0.3"/><path d="M5.02539,179c.55207,0,1,.448,1,1s-.44793,1-1,1L5,181c-.55228,0-1-.448-1-1s.44772-1,1-1h.02539ZM18.334,179c.5523,0,1,.448,1,1s-.4477,1-1,1h-.0498c-.5521,0-1-.448-1-1s.4479-1,1-1h.0498Zm13.3096,0c.5522,0,1,.448,1,1s-.4478,1-1,1h-.0498c-.5522,0-1-.448-1-1s.4478-1,1-1h.0498Zm13.3095,0c.5523,0,1,.448,1,1s-.4477,1-1,1h-.0498c-.5521,0-1-.448-1-1s.4479-1,1-1h.0498Zm13.3096,0c.5523,0,1,.448,1,1s-.4477,1-1,1h-.0498c-.5522,0-1-.448-1-1s.4478-1,1-1h.0498Zm13.3096,0c.5523,0,1,.448,1,1s-.4477,1-1,1h-.0498c-.5522,0-1-.448-1-1s.4478-1,1-1h.0498Zm13.3095,0c.5523,0,1,.448,1,1s-.4477,1-1,1h-.0498c-.5522,0-1-.448-1-1s.4478-1,1-1h.0498Zm13.3096,0c.5523,0,1,.448,1,1s-.4477,1-1,1h-.0498c-.5522,0-1-.448-1-1s.4478-1,1-1h.0498Zm13.3096,0c.552,0,1,.448,1,1s-.448,1-1,1h-.05c-.552,0-1-.448-1-1s.448-1,1-1h.05Zm13.31,0c.552,0,1,.448,1,1s-.448,1-1,1h-.05c-.553,0-1-.448-1-1s.447-1,1-1h.05Zm13.309,0c.552,0,1,.448,1,1s-.448,1-1,1h-.05c-.552,0-1-.448-1-1s.448-1,1-1h.05Zm13.31,0c.552,0,1,.448,1,1s-.448,1-1,1h-.05c-.552,0-1-.448-1-1s.448-1,1-1h.05Zm13.309,0c.553,0,1,.448,1,1s-.447,1-1,1h-.05c-.552,0-1-.448-1-1s.448-1,1-1h.05Zm13.31,0c.552,0,1,.448,1,1s-.448,1-1,1h-.05c-.552,0-1-.448-1-1s.448-1,1-1h.05Zm13.309,0c.553,0,1,.448,1,1s-.447,1-1,1h-.049c-.553,0-1-.448-1-1s.447-1,1-1h.049Zm13.31,0c.552,0,1,.448,1,1s-.448,1-1,1h-.05c-.552,0-1-.448-1-1s.448-1,1-1h.05Zm13.31,0c.552,0,1,.448,1,1s-.448,1-1,1h-.05c-.553,0-1-.448-1-1s.447-1,1-1h.05Zm13.309,0c.552,0,1,.448,1,1s-.448,1-1,1h-.05c-.552,0-1-.448-1-1s.448-1,1-1h.05Zm13.31,0c.552,0,1,.448,1,1s-.448,1-1,1h-.05c-.552,0-1-.448-1-1s.448-1,1-1h.05Zm13.309,0c.552,0,1,.448,1,1s-.448,1-1,1h-.05c-.552,0-1-.448-1-1s.448-1,1-1h.05Zm13.31,0c.552,0,1,.448,1,1s-.448,1-1,1h-.05c-.552,0-1-.448-1-1s.448-1,1-1h.05Zm13.284,0c.552,0,1,.448,1,1s-.448,1-1,1h-.025c-.552,0-1-.448-1-1s.448-1,1-1h.025Z" fill="#edb034" fill-opacity="0.3"/><path d="M5.02539,191.336c.55207,0,1,.448,1,1s-.44793,1-1,1h-.02539c-.55228,0-1-.448-1-1s.44772-1,1-1h.02539Zm13.30861,0c.5523,0,1,.448,1,1s-.4477,1-1,1h-.0498c-.5521,0-1-.448-1-1s.4479-1,1-1h.0498Zm13.3096,0c.5522,0,1,.448,1,1s-.4478,1-1,1h-.0498c-.5522,0-1-.448-1-1s.4478-1,1-1h.0498Zm13.3095,0c.5523,0,1,.448,1,1s-.4477,1-1,1h-.0498c-.5521,0-1-.448-1-1s.4479-1,1-1h.0498Zm13.3096,0c.5523,0,1,.448,1,1s-.4477,1-1,1h-.0498c-.5522,0-1-.448-1-1s.4478-1,1-1h.0498Zm13.3096,0c.5523,0,1,.448,1,1s-.4477,1-1,1h-.0498c-.5522,0-1-.448-1-1s.4478-1,1-1h.0498Zm13.3095,0c.5523,0,1,.448,1,1s-.4477,1-1,1h-.0498c-.5522,0-1-.448-1-1s.4478-1,1-1h.0498Zm13.3096,0c.5523,0,1,.448,1,1s-.4477,1-1,1h-.0498c-.5522,0-1-.448-1-1s.4478-1,1-1h.0498Zm13.3096,0c.552,0,1,.448,1,1s-.448,1-1,1h-.05c-.552,0-1-.448-1-1s.448-1,1-1h.05Zm13.31,0c.552,0,1,.448,1,1s-.448,1-1,1h-.05c-.553,0-1-.448-1-1s.447-1,1-1h.05Zm13.309,0c.552,0,1,.448,1,1s-.448,1-1,1h-.05c-.552,0-1-.448-1-1s.448-1,1-1h.05Zm13.31,0c.552,0,1,.448,1,1s-.448,1-1,1h-.05c-.552,0-1-.448-1-1s.448-1,1-1h.05Zm13.309,0c.553,0,1,.448,1,1s-.447,1-1,1h-.05c-.552,0-1-.448-1-1s.448-1,1-1h.05Zm13.31,0c.552,0,1,.448,1,1s-.448,1-1,1h-.05c-.552,0-1-.448-1-1s.448-1,1-1h.05Zm13.309,0c.553,0,1,.448,1,1s-.447,1-1,1h-.049c-.553,0-1-.448-1-1s.447-1,1-1h.049Zm13.31,0c.552,0,1,.448,1,1s-.448,1-1,1h-.05c-.552,0-1-.448-1-1s.448-1,1-1h.05Zm13.31,0c.552,0,1,.448,1,1s-.448,1-1,1h-.05c-.553,0-1-.448-1-1s.447-1,1-1h.05Zm13.309,0c.552,0,1,.448,1,1s-.448,1-1,1h-.05c-.552,0-1-.448-1-1s.448-1,1-1h.05Zm13.31,0c.552,0,1,.448,1,1s-.448,1-1,1h-.05c-.552,0-1-.448-1-1s.448-1,1-1h.05Zm13.309,0c.552,0,1,.448,1,1s-.448,1-1,1h-.05c-.552,0-1-.448-1-1s.448-1,1-1h.05Zm13.31,0c.552,0,1,.448,1,1s-.448,1-1,1h-.05c-.552,0-1-.448-1-1s.448-1,1-1h.05Zm13.284,0c.552,0,1,.448,1,1s-.448,1-1,1h-.025c-.552,0-1-.448-1-1s.448-1,1-1h.025Z" fill="#edb034" fill-opacity="0.3"/><line x1="18.5" y1="42.5" x2="271.5" y2="42.5" opacity="0.5" fill="none" stroke="#edb034" stroke-linecap="round"/><line id="eCUbQjiaHTo19" x1="0" y1="74.892522" x2="0" y2="-75.54264" transform="translate(38.5 86.66403)" fill="none" stroke="#edb034" stroke-width="13" stroke-linecap="round" stroke-dashoffset="150.44" stroke-dasharray="150.44"/><line id="eCUbQjiaHTo20" x1="0" y1="74.892522" x2="0" y2="-75.54264" transform="translate(64.976816 86.66403)" fill="none" stroke="#edb034" stroke-width="13" stroke-linecap="round" stroke-dashoffset="150.44" stroke-dasharray="150.44"/><line id="eCUbQjiaHTo21" x1="0" y1="74.892522" x2="0" y2="-75.54264" transform="translate(91.667065 86.66403)" fill="none" stroke="#edb034" stroke-width="13" stroke-linecap="round" stroke-dashoffset="150.44" stroke-dasharray="150.44"/><line id="eCUbQjiaHTo22" x1="0" y1="74.892522" x2="0" y2="-75.54264" transform="translate(117.976816 86.66403)" fill="none" stroke="#edb034" stroke-width="13" stroke-linecap="round" stroke-dashoffset="150.44" stroke-dasharray="150.44"/><line id="eCUbQjiaHTo23" x1="0" y1="74.892522" x2="0" y2="-75.54264" transform="translate(144.976816 86.409503)" fill="none" stroke="#edb034" stroke-width="13" stroke-linecap="round" stroke-dashoffset="150.44" stroke-dasharray="150.44"/><line id="eCUbQjiaHTo24" x1="0" y1="74.892522" x2="0.063139" y2="-38.69114" transform="translate(144.976816 86.409503)" opacity="0" fill="none" stroke="#edb034" stroke-width="13" stroke-linecap="round" stroke-dasharray="150.44"/><line id="eCUbQjiaHTo25" x1="0" y1="74.892522" x2="0" y2="-75.54264" transform="translate(171.436982 86.409503)" fill="none" stroke="#edb034" stroke-width="13" stroke-linecap="round" stroke-dashoffset="150.44" stroke-dasharray="150.44"/><line id="eCUbQjiaHTo26" x1="0" y1="74.892522" x2="0" y2="-75.54264" transform="translate(197.976816 86.66403)" fill="none" stroke="#edb034" stroke-width="13" stroke-linecap="round" stroke-dashoffset="150.44" stroke-dasharray="150.44"/><line id="eCUbQjiaHTo27" x1="0" y1="74.892522" x2="0" y2="-75.54264" transform="translate(224.746733 86.66403)" fill="none" stroke="#edb034" stroke-width="13" stroke-linecap="round" stroke-dashoffset="150.44" stroke-dasharray="150.44"/><line id="eCUbQjiaHTo28" x1="0" y1="74.892522" x2="0" y2="-75.54264" transform="translate(251.206901 86.66403)" fill="none" stroke="#edb034" stroke-width="13" stroke-linecap="round" stroke-dashoffset="150.44" stroke-dasharray="150.44"/></svg>
