<svg id="exq8NsGkQ1Z1" xmlns="http://www.w3.org/2000/svg" xmlns:xlink="http://www.w3.org/1999/xlink" viewBox="0 0 282 176" shape-rendering="geometricPrecision" text-rendering="geometricPrecision" project-id="cf4edb21f1f8441097f7e96af7c81b13" export-id="f82f600ac06b4e9f8665e6588d613ebb" cached="false">
<style><![CDATA[
#exq8NsGkQ1Z3 {animation-name: exq8NsGkQ1Z3_c_o, exq8NsGkQ1Z3_s_do;animation-duration: 3100ms;animation-fill-mode: forwards;animation-timing-function: linear;animation-direction: normal;animation-iteration-count: infinite;}@keyframes exq8NsGkQ1Z3_c_o { 0% {opacity: 1} 67.741935% {opacity: 1} 77.419355% {opacity: 0} 100% {opacity: 0}}@keyframes exq8NsGkQ1Z3_s_do { 0% {stroke-dashoffset: 108.28} 19.354839% {stroke-dashoffset: 108.28;animation-timing-function: cubic-bezier(0.455,0.03,0.515,0.955)} 32.258065% {stroke-dashoffset: 0} 100% {stroke-dashoffset: 0}} #exq8NsGkQ1Z4 {animation-name: exq8NsGkQ1Z4_c_o, exq8NsGkQ1Z4_s_do;animation-duration: 3100ms;animation-fill-mode: forwards;animation-timing-function: linear;animation-direction: normal;animation-iteration-count: infinite;}@keyframes exq8NsGkQ1Z4_c_o { 0% {opacity: 1} 67.741935% {opacity: 1} 77.419355% {opacity: 0} 100% {opacity: 0}}@keyframes exq8NsGkQ1Z4_s_do { 0% {stroke-dashoffset: 108.28} 41.935484% {stroke-dashoffset: 108.28;animation-timing-function: cubic-bezier(0.455,0.03,0.515,0.955)} 54.83871% {stroke-dashoffset: 0} 100% {stroke-dashoffset: 0}} #exq8NsGkQ1Z5 {animation-name: exq8NsGkQ1Z5_c_o, exq8NsGkQ1Z5_s_do;animation-duration: 3100ms;animation-fill-mode: forwards;animation-timing-function: linear;animation-direction: normal;animation-iteration-count: infinite;}@keyframes exq8NsGkQ1Z5_c_o { 0% {opacity: 1} 67.741935% {opacity: 1} 77.419355% {opacity: 0} 100% {opacity: 0}}@keyframes exq8NsGkQ1Z5_s_do { 0% {stroke-dashoffset: 155.3;animation-timing-function: cubic-bezier(0.455,0.03,0.515,0.955)} 12.903226% {stroke-dashoffset: 0} 100% {stroke-dashoffset: 0}}
]]></style>
<path d="M6.02,6.41c.64,0,1.14667.16333,1.52.49.37333.32.56.76.56,1.32v3.78h-.88v-1.05h-.01c-.02667.3467-.2.6267-.52.84-.32.2067-.72.31-1.2.31-.56,0-1.00667-.1467-1.34-.44s-.5-.69-.5-1.19c0-.52667.16333-.94.49-1.24.33333-.3.78667-.45,1.36-.45h1.7v-.53c0-.33333-.10667-.59-.32-.77-.20667-.18667-.49667-.28-.87-.28-.32667,0-.59667.06667-.81.2s-.33667.31667-.37.55h-.9c.06-.46667.28-.84.66-1.12s.85667-.42,1.43-.42ZM5.7,11.39c.44,0,.8-.1033,1.08-.31.28-.2133.42-.49.42-.83v-.78h-1.68c-.3,0-.53667.08333-.71.25s-.26.3967-.26.69c0,.3067.10333.5467.31.72s.48667.26.84.26ZM20.6761,4.7h.9v7.3h-.9v-1.05h-.01c-.0467.36-.2033.6433-.47.85-.2667.2-.6067.3-1.02.3-.5533,0-.9933-.1833-1.32-.55-.32-.3667-.48-.8633-.48-1.49v-1.61c0-.63333.16-1.13333.48-1.5.3267-.36667.7667-.55,1.32-.55.4067,0,.7433.10333,1.01.31s.4267.48667.48.84h.03l-.02-1.25v-1.6Zm0,3.8c0-.41333-.1067-.73667-.32-.97s-.5067-.35-.88-.35c-.38,0-.6767.11667-.89.35-.2067.22667-.31.55-.31.97v1.5c0,.42.1033.7467.31.98.2133.2267.51.34.89.34.3733,0,.6667-.1167.88-.35s.32-.5567.32-.97v-1.5ZM33.0222,7.38c.6333.02667,1.1367.23,1.51.61.3733.37333.56.87.56,1.49v.52c0,.4133-.0933.78-.28,1.1-.18.32-.44.5667-.78.74-.3333.1733-.7167.26-1.15.26s-.8167-.0867-1.15-.26-.59-.42-.77-.74-.27-.6867-.27-1.1h.9c0,.4067.1133.7267.34.96.2333.2267.5533.34.96.34s.7233-.1167.95-.35c.2333-.24.35-.5567.35-.95v-.52c0-.41333-.1133-.73333-.34-.96s-.5467-.34-.96-.34h-.75v-.9l1.81-1.76h-2.96v-.82h3.87v.9l-1.84,1.78ZM47.6883,6.5h.87v5.7c0,.5-.1534.89-.46,1.17-.3.2867-.72.43-1.26.43h-1.74v-.82h1.75c.28,0,.4833-.0633.61-.19.1333-.1267.2-.3233.2-.59v-.7l.03-.7h-.13c-.0867.2733-.25.4833-.49.63s-.54.22-.9.22c-.5534,0-.9934-.1833-1.32-.55-.32-.3667-.48-.8667-.48-1.5v-1.16c0-.62667.16-1.12333.48-1.49.3266-.36667.7666-.55,1.32-.55.36,0,.66.07333.9.22s.4033.35667.49.63h.13v-.75Zm-.02,2c0-.41333-.1067-.73667-.32-.97-.2134-.23333-.5067-.35-.88-.35-.38,0-.6767.11667-.89.35-.2067.22667-.31.55-.31.97v1.05c0,.42.1033.7467.31.98.2133.2267.51.34.89.34.3733,0,.6666-.1167.88-.35.2133-.2333.32-.55667.32-.97v-1.05ZM60.6344,12c-.4867,0-.8767-.14-1.17-.42-.2867-.2867-.43-.6633-.43-1.13v-4.93h-1.65v-.82h2.55v5.75c0,.2267.0633.4067.19.54.1266.1267.2966.19.51.19h1.85v.82h-1.85Zm15.2461,0h-4.5v-.82h1.98v-5.73l-1.98,1.48v-1l1.65-1.23h1.23v6.48h1.62v.82Zm11.1061.1c-.46,0-.8667-.0967-1.22-.29-.3534-.2-.6267-.4767-.82-.83-.1934-.3533-.29-.7633-.29-1.23c0-.74667.2066-1.44667.62-2.1l1.83-2.95h1l-2.07,3.32.04.03c.1266-.18667.3-.33.52-.43s.4666-.15.74-.15c.5933,0,1.0666.20667,1.42.62.36.41333.54.96667.54,1.66c0,.4667-.0967.8767-.29,1.23-.1867.3533-.4567.63-.81.83-.3467.1933-.75.29-1.21.29Zm-.01-.8c.4266,0,.77-.14,1.03-.42.26-.2867.39-.6633.39-1.13s-.13-.84-.39-1.12c-.26-.28667-.6034-.43-1.03-.43-.4267,0-.77.14333-1.03.43-.26.28-.39.65333-.39,1.12s.13.8433.39,1.13c.26.28.6033.42,1.03.42ZM101.673,6.5h.87v5.7c0,.5-.154.89-.46,1.17-.3.2867-.72.43-1.26.43h-1.7403v-.82h1.7503c.28,0,.483-.0633.61-.19.133-.1267.2-.3233.2-.59v-.7l.03-.7h-.13c-.087.2733-.25.4833-.49.63s-.54.22-.9.22c-.5537,0-.9937-.1833-1.3203-.55-.32-.3667-.48-.8667-.48-1.5v-1.16c0-.62667.16-1.12333.48-1.49.3266-.36667.7666-.55,1.3203-.55.36,0,.66.07333.9.22s.403.35667.49.63h.13v-.75Zm-.02,2c0-.41333-.107-.73667-.32-.97-.214-.23333-.507-.35-.88-.35-.38,0-.677.11667-.8903.35-.2067.22667-.31.55-.31.97v1.05c0,.42.1033.7467.31.98.2133.2267.5103.34.8903.34.373,0,.666-.1167.88-.35.213-.2333.32-.55667.32-.97v-1.05Zm12.096,3.6c-.56,0-1.01-.13-1.35-.39-.334-.26-.527-.6133-.58-1.06h.9c.04.2.15.36.33.48.18.1133.413.17.7.17h.42c.346,0,.606-.0733.78-.22.18-.1467.27-.3433.27-.59c0-.4533-.31-.73-.93-.83l-.74-.12c-.547-.08667-.95-.25333-1.21-.5-.26-.25333-.39-.61-.39-1.07c0-.5.16-.88667.48-1.16s.786-.41,1.4-.41h.38c.52,0,.94.12667,1.26.38.326.24667.523.58333.59,1.01h-.9c-.04-.18-.144-.32333-.31-.43-.167-.10667-.38-.16-.64-.16h-.38c-.654,0-.98.26-.98.78c0,.22.063.38667.19.5.133.10667.346.18333.64.23l.74.12c.593.09333,1.023.26667,1.29.52.273.25333.41.62.41,1.1c0,.52-.167.9267-.5,1.22-.327.2867-.81.43-1.45.43h-.42Zm14.366-.1c-.487,0-.877-.14-1.17-.42-.287-.2867-.43-.6633-.43-1.13v-4.93h-1.65v-.82h2.55v5.75c0,.2267.063.4067.19.54.127.1267.297.19.51.19h1.85v.82h-1.85Zm13.866-3.85c.38.09333.687.31333.92.66.24.34.36.74333.36,1.21c0,.6333-.207,1.14-.62,1.52-.413.3733-.973.56-1.68.56s-1.267-.1833-1.68-.55c-.413-.3733-.62-.8733-.62-1.5c0-.48.117-.89333.35-1.24.24-.34667.55-.56667.93-.66-.34-.08667-.613-.28-.82-.58s-.31-.65667-.31-1.07c0-.37333.09-.70333.27-.99s.43-.51.75-.67c.327-.16.703-.24,1.13-.24s.8.08,1.12.24c.327.16.58.38333.76.67s.27.61667.27.99c0,.41333-.103.77-.31,1.07s-.48.49333-.82.58Zm-1.02-2.8c-.393,0-.697.10667-.91.32-.207.21333-.31.51667-.31.91c0,.40667.103.72333.31.95.213.22.517.33.91.33s.693-.11.9-.33c.213-.22667.32-.54333.32-.95c0-.39333-.107-.69667-.32-.91-.207-.21333-.507-.32-.9-.32Zm0,6c.433,0,.77-.1233,1.01-.37s.36-.5967.36-1.05c0-.44667-.12-.79333-.36-1.04s-.577-.37-1.01-.37-.77.12333-1.01.37-.36.59333-.36,1.04c0,.4533.12.8033.36,1.05s.577.37,1.01.37Zm13.516-4.94c.64,0,1.147.16333,1.52.49.373.32.56.76.56,1.32v3.78h-.88v-1.05h-.01c-.027.3467-.2.6267-.52.84-.32.2067-.72.31-1.2.31-.56,0-1.007-.1467-1.34-.44s-.5-.69-.5-1.19c0-.52667.163-.94.49-1.24.333-.3.787-.45,1.36-.45h1.7v-.53c0-.33333-.107-.59-.32-.77-.207-.18667-.497-.28-.87-.28-.327,0-.597.06667-.81.2s-.337.31667-.37.55h-.9c.06-.46667.28-.84.66-1.12s.857-.42,1.43-.42Zm-.32,4.98c.44,0,.8-.1033,1.08-.31.28-.2133.42-.49.42-.83v-.78h-1.68c-.3,0-.537.08333-.71.25s-.26.3967-.26.69c0,.3067.103.5467.31.72s.487.26.84.26Zm12.606,2.41l.81-2.14-2.02-5.16h1l1.23,3.4c.067.1933.143.46.23.8.08-.34.153-.6067.22-.8l1.15-3.4h.97l-2.63,7.3h-.96Zm15.126-7.4c.58,0,1.04.18333,1.38.55.347.36.52.85.52,1.47v.33h-.9v-.25c0-.42667-.106-.75667-.32-.99-.206-.23333-.503-.35-.89-.35-.38,0-.68.12-.9.36-.213.23333-.32.56-.32.98v3.5h-.9v-5.5h.88v.98c.18-.72.664-1.08,1.45-1.08ZM192.495,12l1.9-2.83-1.78-2.67h1.06l1.04,1.7c.08.12667.16.27667.24.45.074-.17333.15-.32333.23-.45l1.05-1.7h1.05l-1.78,2.68l1.89,2.82h-1.06l-1.13-1.8c-.073-.1267-.156-.29-.25-.49-.1.19333-.19.3567-.27.49l-1.14,1.8h-1.05Zm13.866,0v-.92l2.23-2.37c.38-.40667.657-.76667.83-1.08.174-.32.26-.62667.26-.92c0-.40667-.113-.72667-.34-.96-.22-.23333-.523-.35-.91-.35-.426,0-.763.12-1.01.36-.24.24-.36.57-.36.99h-.9c.02-.66.234-1.18333.64-1.57.414-.38667.957-.58,1.63-.58.66,0,1.184.19,1.57.57.387.37333.58.88333.58,1.53c0,.41333-.11.82333-.33,1.23s-.58.87-1.08,1.39l-1.8,1.86h3.33v.82h-4.34Zm13.497,0v-.92l2.23-2.37c.38-.40667.656-.76667.83-1.08.173-.32.26-.62667.26-.92c0-.40667-.114-.72667-.34-.96-.22-.23333-.524-.35-.91-.35-.427,0-.764.12-1.01.36-.24.24-.36.57-.36.99h-.9c.02-.66.233-1.18333.64-1.57.413-.38667.956-.58,1.63-.58.66,0,1.183.19,1.57.57.386.37333.579.88333.579,1.53c0,.41333-.109.82333-.329,1.23s-.58.87-1.08,1.39l-1.8,1.86h3.33v.82h-4.34Zm15.606-4.62c.633.02667,1.136.23,1.51.61.373.37333.56.87.56,1.49v.52c0,.4133-.094.78-.28,1.1-.18.32-.44.5667-.78.74-.334.1733-.717.26-1.15.26-.434,0-.817-.0867-1.15-.26-.334-.1733-.59-.42-.77-.74s-.27-.6867-.27-1.1h.9c0,.4067.113.7267.34.96.233.2267.553.34.96.34.406,0,.723-.1167.95-.35.233-.24.35-.5567.35-.95v-.52c0-.41333-.114-.73333-.34-.96-.227-.22667-.547-.34-.96-.34h-.75v-.9l1.81-1.76h-2.96v-.82h3.87v.9l-1.84,1.78Zm13.486-.97c.64,0,1.146.16333,1.52.49.373.32.56.76.56,1.32v3.78h-.88v-1.05h-.01c-.027.3467-.2.6267-.52.84-.32.2067-.72.31-1.2.31-.56,0-1.007-.1467-1.34-.44-.334-.2933-.5-.69-.5-1.19c0-.52667.163-.94.49-1.24.333-.3.786-.45,1.36-.45h1.7v-.53c0-.33333-.107-.59-.32-.77-.207-.18667-.497-.28-.87-.28-.327,0-.597.06667-.81.2-.214.13333-.337.31667-.37.55h-.9c.06-.46667.28-.84.66-1.12s.856-.42,1.43-.42Zm-.32,4.98c.44,0,.8-.1033,1.08-.31.28-.2133.42-.49.42-.83v-.78h-1.68c-.3,0-.537.08333-.71.25-.174.16667-.26.3967-.26.69c0,.3067.103.5467.31.72.206.1733.486.26.84.26Zm12.996.61v-4.57h-1.6v-.82h1.6v-.53c0-.42667.13-.76333.39-1.01s.613-.37,1.06-.37h1.7v.82h-1.7c-.174,0-.31.05-.41.15-.094.09333-.14.22667-.14.4v.54h2.25v.82h-2.25v4.57h-.9Zm14.946,0c-.487,0-.877-.14-1.17-.42-.287-.2867-.43-.6633-.43-1.13v-4.93h-1.65v-.82h2.55v5.75c0,.2267.063.4067.19.54.127.1267.297.19.51.19h1.85v.82h-1.85ZM6.65,28c-.48667,0-.87667-.14-1.17-.42-.28667-.2867-.43-.6633-.43-1.13v-4.93h-1.65v-.82h2.55v5.75c0,.2267.06333.4067.19.54.12667.1267.29667.19.51.19h1.85v.82h-1.85Zm12.0461,0v-4.57h-1.6v-.82h1.6v-.53c0-.4267.13-.7633.39-1.01s.6133-.37,1.06-.37h1.7v.82h-1.7c-.1733,0-.31.05-.41.15-.0933.0933-.14.2267-.14.4v.54h2.25v.82h-2.25v4.57h-.9Zm14.0761.1c-.56,0-1.01-.13-1.35-.39-.3333-.26-.5267-.6133-.58-1.06h.9c.04.2.15.36.33.48.18.1133.4133.17.7.17h.42c.3467,0,.6067-.0733.78-.22.18-.1467.27-.3433.27-.59c0-.4533-.31-.73-.93-.83l-.74-.12c-.5467-.0867-.95-.2533-1.21-.5-.26-.2533-.39-.61-.39-1.07c0-.5.16-.8867.48-1.16s.7867-.41,1.4-.41h.38c.52,0,.94.1267,1.26.38.3267.2467.5233.5833.59,1.01h-.9c-.04-.18-.1433-.3233-.31-.43s-.38-.16-.64-.16h-.38c-.6533,0-.98.26-.98.78c0,.22.0633.3867.19.5.1333.1067.3467.1833.64.23l.74.12c.5933.0933,1.0233.2667,1.29.52.2733.2533.41.62.41,1.1c0,.52-.1667.9267-.5,1.22-.3267.2867-.81.43-1.45.43h-.42Zm14.0061-5.7c.5533,0,.9933.1733,1.32.52.3266.34.49.8.49,1.38v3.7h-.9v-3.6c0-.3867-.1067-.69-.32-.91-.2067-.22-.49-.33-.85-.33-.38,0-.6767.12-.89.36-.2134.2333-.32.56-.32.98v3.5h-.9v-7.3h.9v2.85h.01c.0466-.3667.1966-.65.45-.85.2533-.2.59-.3,1.01-.3ZM57.9044,28v-.92l2.23-2.37c.38-.4067.6566-.7667.83-1.08.1733-.32.26-.6267.26-.92c0-.4067-.1134-.7267-.34-.96-.22-.2333-.5234-.35-.91-.35-.4267,0-.7634.12-1.01.36-.24.24-.36.57-.36.99h-.9c.02-.66.2333-1.1833.64-1.57.4133-.3867.9566-.58,1.63-.58.66,0,1.1833.19,1.57.57.3866.3733.58.8833.58,1.53c0,.4133-.11.8233-.33,1.23s-.58.87-1.08,1.39l-1.8,1.86h3.33v.82h-4.34Zm15.5961-5.59c.64,0,1.1466.1633,1.52.49.3733.32.56.76.56,1.32v3.78h-.88v-1.05h-.01c-.0267.3467-.2.6267-.52.84-.32.2067-.72.31-1.2.31-.56,0-1.0067-.1467-1.34-.44s-.5-.69-.5-1.19c0-.5267.1633-.94.49-1.24.3333-.3.7866-.45,1.36-.45h1.7v-.53c0-.3333-.1067-.59-.32-.77-.2067-.1867-.4967-.28-.87-.28-.3267,0-.5967.0667-.81.2s-.3367.3167-.37.55h-.9c.06-.4667.28-.84.66-1.12s.8566-.42,1.43-.42Zm-.32,4.98c.44,0,.8-.1033,1.08-.31.28-.2133.42-.49.42-.83v-.78h-1.68c-.3,0-.5367.0833-.71.25s-.26.3967-.26.69c0,.3067.1033.5467.31.72.2066.1733.4866.26.84.26ZM88.1766,22.5h.87v5.7c0,.5-.1534.89-.46,1.17-.3.2867-.72.43-1.26.43h-1.74v-.82h1.75c.28,0,.4833-.0633.61-.19.1333-.1267.2-.3233.2-.59v-.7l.03-.7h-.13c-.0867.2733-.25.4833-.49.63s-.54.22-.9.22c-.5534,0-.9934-.1833-1.32-.55-.32-.3667-.48-.8667-.48-1.5v-1.16c0-.6267.16-1.1233.48-1.49.3266-.3667.7666-.55,1.32-.55.36,0,.66.0733.9.22s.4033.3567.49.63h.13v-.75Zm-.02,2c0-.4133-.1067-.7367-.32-.97-.2134-.2333-.5067-.35-.88-.35-.38,0-.6767.1167-.89.35-.2067.2267-.31.55-.31.97v1.05c0,.42.1033.7467.31.98.2133.2267.51.34.89.34.3733,0,.6666-.1167.88-.35.2133-.2333.32-.5567.32-.97v-1.05Zm12.2164-.6c-.22,0-.4003-.07-.5403-.21s-.21-.32-.21-.54c0-.2133.07-.39.21-.53.1466-.1467.3263-.22.5403-.22h.2c.213,0,.39.0733.53.22.146.14.22.3167.22.53c0,.22-.07.4-.21.54s-.32.21-.54.21h-.2Zm-.4003,5.7h-.8l.8-3.11h1.3003L99.9727,29.6Zm13.9963-8.05c-.2,0-.36-.0533-.48-.16-.114-.1067-.17-.25-.17-.43s.06-.3267.18-.44.276-.17.47-.17h.2c.193,0,.35.0567.47.17s.18.26.18.44-.06.3233-.18.43-.277.16-.47.16h-.2Zm2.5,6.45h-4.7v-.82h1.95v-3.86h-1.7v-.82h2.6v4.68h1.85v.82Zm12.996,0h-.9v-1.6h-3.3v-1.41l2.89-4.29h.98l-2.97,4.48v.4h2.4v-1.78h.9v4.2Zm12.676-7.3h.9v7.3h-.9v-1.05h-.01c-.047.36-.203.6433-.47.85-.267.2-.607.3-1.02.3-.553,0-.993-.1833-1.32-.55-.32-.3667-.48-.8633-.48-1.49v-1.61c0-.6333.16-1.1333.48-1.5.327-.3667.767-.55,1.32-.55.407,0,.743.1033,1.01.31s.427.4867.48.84h.03l-.02-1.25v-1.6Zm0,3.8c0-.4133-.107-.7367-.32-.97s-.507-.35-.88-.35c-.38,0-.677.1167-.89.35-.207.2267-.31.55-.31.97v1.5c0,.42.103.7467.31.98.213.2267.51.34.89.34.373,0,.667-.1167.88-.35s.32-.5567.32-.97v-1.5ZM156.857,28h-4.5v-.82h1.98v-5.73l-1.98,1.48v-1l1.65-1.23h1.23v6.48h1.62v.82Zm9.016,0v-.92l2.23-2.37c.38-.4067.657-.7667.83-1.08.173-.32.26-.6267.26-.92c0-.4067-.113-.7267-.34-.96-.22-.2333-.523-.35-.91-.35-.427,0-.763.12-1.01.36-.24.24-.36.57-.36.99h-.9c.02-.66.233-1.1833.64-1.57.413-.3867.957-.58,1.63-.58.66,0,1.183.19,1.57.57.387.3733.58.8833.58,1.53c0,.4133-.11.8233-.33,1.23s-.58.87-1.08,1.39l-1.8,1.86h3.33v.82h-4.34Zm15.616.1c-.666,0-1.193-.1867-1.58-.56-.386-.3733-.58-.8867-.58-1.54v-1.5c0-.6533.194-1.1667.58-1.54.387-.3733.914-.56,1.58-.56.634,0,1.144.17,1.53.51.387.34.59.8033.61,1.39h-.9c-.02-.3467-.14-.6167-.36-.81-.213-.1933-.506-.29-.88-.29-.393,0-.703.1133-.93.34-.22.2267-.33.5433-.33.95v1.51c0,.4133.11.7333.33.96s.53.34.93.34c.374,0,.667-.0967.88-.29.22-.1933.34-.4633.36-.81h.9c-.02.5867-.223,1.05-.61,1.39-.386.34-.896.51-1.53.51Zm15.556-.1h-4.2v-.9l3.08-3.78h-3v-.82h4.01v.9l-3.14,3.78h3.25v.82Zm13.496,0h-4.2v-.9l3.08-3.78h-3v-.82h4.01v.9l-3.14,3.78h3.25v.82Zm9.627,0l-.88-5.5h.8l.55,3.9.12.9.14-.9.609-3.9h.861l.61,3.9.14.9.14-.9.57-3.9h.759l-.919,5.5h-.99l-.59-3.8-.16-1-.15,1-.62,3.8h-.99Zm16.466-5.5h.87v5.7c0,.5-.154.89-.46,1.17-.3.2867-.72.43-1.26.43h-1.74v-.82h1.75c.28,0,.483-.0633.61-.19.133-.1267.2-.3233.2-.59v-.7l.03-.7h-.13c-.087.2733-.25.4833-.49.63s-.54.22-.9.22c-.554,0-.994-.1833-1.32-.55-.32-.3667-.48-.8667-.48-1.5v-1.16c0-.6267.16-1.1233.48-1.49.326-.3667.766-.55,1.32-.55.36,0,.66.0733.9.22s.403.3567.49.63h.13v-.75Zm-.02,2c0-.4133-.107-.7367-.32-.97-.214-.2333-.507-.35-.88-.35-.38,0-.677.1167-.89.35-.207.2267-.31.55-.31.97v1.05c0,.42.103.7467.31.98.213.2267.51.34.89.34.373,0,.666-.1167.88-.35.213-.2333.32-.5567.32-.97v-1.05Zm12.606-2.1c.553,0,.993.1733,1.32.52.326.34.49.8.49,1.38v3.7h-.9v-3.6c0-.3867-.107-.69-.32-.91-.207-.22-.49-.33-.85-.33-.38,0-.677.12-.89.36-.214.2333-.32.56-.32.98v3.5h-.9v-7.3h.9v2.85h.01c.046-.3667.196-.65.45-.85.253-.2.59-.3,1.01-.3ZM261.276,28h-.9v-7.3h.9v4.07h.96l1.6-2.27h1.03l-1.85,2.62l1.88,2.88h-1.05l-1.6-2.45h-.97v2.45Zm14.666-5.59c.64,0,1.147.1633,1.52.49.373.32.56.76.56,1.32v3.78h-.88v-1.05h-.01c-.027.3467-.2.6267-.52.84-.32.2067-.72.31-1.2.31-.56,0-1.007-.1467-1.34-.44s-.5-.69-.5-1.19c0-.5267.163-.94.49-1.24.333-.3.787-.45,1.36-.45h1.7v-.53c0-.3333-.107-.59-.32-.77-.207-.1867-.497-.28-.87-.28-.327,0-.597.0667-.81.2s-.337.3167-.37.55h-.9c.06-.4667.28-.84.66-1.12s.857-.42,1.43-.42Zm-.32,4.98c.44,0,.8-.1033,1.08-.31.28-.2133.42-.49.42-.83v-.78h-1.68c-.3,0-.537.0833-.71.25s-.26.3967-.26.69c0,.3067.103.5467.31.72s.487.26.84.26ZM6.02,38.41c.64,0,1.14667.1633,1.52.49.37333.32.56.76.56,1.32v3.78h-.88v-1.05h-.01c-.02667.3467-.2.6267-.52.84-.32.2067-.72.31-1.2.31-.56,0-1.00667-.1467-1.34-.44s-.5-.69-.5-1.19c0-.5267.16333-.94.49-1.24.33333-.3.78667-.45,1.36-.45h1.7v-.53c0-.3333-.10667-.59-.32-.77-.20667-.1867-.49667-.28-.87-.28-.32667,0-.59667.0667-.81.2s-.33667.3167-.37.55h-.9c.06-.4667.28-.84.66-1.12s.85667-.42,1.43-.42ZM5.7,43.39c.44,0,.8-.1033,1.08-.31.28-.2133.42-.49.42-.83v-.78h-1.68c-.3,0-.53667.0833-.71.25s-.26.3967-.26.69c0,.3067.10333.5467.31.72s.48667.26.84.26ZM21.8961,44h-4.5v-.82h1.98v-5.73l-1.98,1.48v-1l1.65-1.23h1.23v6.48h1.62v.82Zm11.1161-5.59c.64,0,1.1467.1633,1.52.49.3733.32.56.76.56,1.32v3.78h-.88v-1.05h-.01c-.0267.3467-.2.6267-.52.84-.32.2067-.72.31-1.2.31-.56,0-1.0067-.1467-1.34-.44s-.5-.69-.5-1.19c0-.5267.1633-.94.49-1.24.3333-.3.7867-.45,1.36-.45h1.7v-.53c0-.3333-.1067-.59-.32-.77-.2067-.1867-.4967-.28-.87-.28-.3267,0-.5967.0667-.81.2s-.3367.3167-.37.55h-.9c.06-.4667.28-.84.66-1.12s.8567-.42,1.43-.42Zm-.32,4.98c.44,0,.8-.1033,1.08-.31.28-.2133.42-.49.42-.83v-.78h-1.68c-.3,0-.5367.0833-.71.25s-.26.3967-.26.69c0,.3067.1033.5467.31.72s.4867.26.84.26ZM48.4883,44h-.9v-1.6h-3.3v-1.41l2.89-4.29h.98l-2.97,4.48v.4h2.4v-1.78h.9v4.2Zm10.6961,0v-4.57h-1.6v-.82h1.6v-.53c0-.4267.13-.7633.39-1.01s.6133-.37,1.06-.37h1.7v.82h-1.7c-.1734,0-.31.05-.41.15-.0934.0933-.14.2267-.14.4v.54h2.25v.82h-2.25v4.57h-.9Zm14.2961-6.45c-.2,0-.36-.0533-.48-.16-.1134-.1067-.17-.25-.17-.43s.06-.3267.18-.44.2766-.17.47-.17h.2c.1933,0,.35.0567.47.17s.18.26.18.44-.06.3233-.18.43-.2767.16-.47.16h-.2Zm2.5,6.45h-4.7v-.82h1.95v-3.86h-1.7v-.82h2.6v4.68h1.85v.82Zm11.4361-5.6c.58,0,1.04.1833,1.38.55.3466.36.52.85.52,1.47v.33h-.9v-.25c0-.4267-.1067-.7567-.32-.99-.2067-.2333-.5034-.35-.89-.35-.38,0-.68.12-.9.36-.2134.2333-.32.56-.32.98v3.5h-.9v-5.5h.88v.98c.18-.72.6633-1.08,1.45-1.08Zm12.8364,5.7c-.5603,0-1.0103-.13-1.3503-.39-.3334-.26-.5267-.6133-.58-1.06h.9c.04.2.15.36.33.48.18.1133.4133.17.7003.17h.42c.346,0,.606-.0733.78-.22.18-.1467.27-.3433.27-.59c0-.4533-.31-.73-.93-.83l-.74-.12c-.547-.0867-.9503-.2533-1.2103-.5-.26-.2533-.39-.61-.39-1.07c0-.5.16-.8867.48-1.16s.7866-.41,1.4003-.41h.38c.52,0,.94.1267,1.26.38.326.2467.523.5833.59,1.01h-.9c-.04-.18-.144-.3233-.31-.43-.167-.1067-.38-.16-.64-.16h-.38c-.6537,0-.9803.26-.9803.78c0,.22.0633.3867.19.5.1333.1067.3466.1833.6403.23l.74.12c.593.0933,1.023.2667,1.29.52.273.2533.41.62.41,1.1c0,.52-.167.9267-.5,1.22-.327.2867-.81.43-1.45.43h-.42Zm14.316-.1c-.474,0-.844-.1267-1.11-.38-.26-.2533-.39-.61-.39-1.07v-3.23h-1.55v-.82h1.55v-1.5h.9v1.5h2.2v.82h-2.2v3.23c0,.2133.046.3733.14.48.1.1.253.15.46.15h1.5v.82h-1.5Zm13.186-5.6c.553,0,.993.1733,1.32.52.327.34.49.8.49,1.38v3.7h-.9v-3.6c0-.3867-.107-.69-.32-.91-.207-.22-.49-.33-.85-.33-.38,0-.677.12-.89.36-.213.2333-.32.56-.32.98v3.5h-.9v-5.5h.9v1.05h.01c.047-.3667.197-.65.45-.85s.59-.3,1.01-.3Zm13.226.01c.64,0,1.147.1633,1.52.49.373.32.56.76.56,1.32v3.78h-.88v-1.05h-.01c-.027.3467-.2.6267-.52.84-.32.2067-.72.31-1.2.31-.56,0-1.007-.1467-1.34-.44s-.5-.69-.5-1.19c0-.5267.163-.94.49-1.24.333-.3.787-.45,1.36-.45h1.7v-.53c0-.3333-.107-.59-.32-.77-.207-.1867-.497-.28-.87-.28-.327,0-.597.0667-.81.2s-.337.3167-.37.55h-.9c.06-.4667.28-.84.66-1.12s.857-.42,1.43-.42Zm-.32,4.98c.44,0,.8-.1033,1.08-.31.28-.2133.42-.49.42-.83v-.78h-1.68c-.3,0-.537.0833-.71.25s-.26.3967-.26.69c0,.3067.103.5467.31.72s.487.26.84.26Zm15.046-4.99c.34,0,.607.13.8.39.193.2533.29.5967.29,1.03v4.18h-.83v-4.19c0-.2267-.05-.4033-.15-.53-.093-.1267-.233-.19-.42-.19-.18,0-.323.0633-.43.19-.1.12-.15.2933-.15.52v4.2h-.72v-4.19c0-.2267-.053-.4033-.16-.53-.1-.1267-.243-.19-.43-.19-.18,0-.32.0633-.42.19-.093.12-.14.2933-.14.52v4.2h-.83v-5.5h.79v.66h.06c.04-.2333.137-.4167.29-.55.16-.14.36-.21.6-.21.227,0,.417.0667.57.2.153.1267.263.3133.33.56h.04c.047-.2333.15-.4167.31-.55.16-.14.36-.21.6-.21Zm14.366,3.07h-3.36v.53c0,.44.103.7733.31,1c.213.2267.523.34.93.34.7,0,1.1-.2467,1.2-.74h.9c-.06.46-.28.8267-.66,1.1-.38.2667-.86.4-1.44.4-.647,0-1.163-.19-1.55-.57-.38-.38-.57-.89-.57-1.53v-1.5c0-.64.19-1.15.57-1.53.387-.38.903-.57,1.55-.57s1.16.19,1.54.57c.387.38.58.89.58,1.53v.97Zm-3.36-.68h2.48v-.29c0-.44-.107-.7733-.32-1-.207-.2333-.513-.35-.92-.35s-.717.1167-.93.35c-.207.2267-.31.56-.31,1v.29Zm15.986-2.39c.34,0,.607.13.8.39.194.2533.29.5967.29,1.03v4.18h-.83v-4.19c0-.2267-.05-.4033-.15-.53-.093-.1267-.233-.19-.42-.19-.18,0-.323.0633-.43.19-.1.12-.15.2933-.15.52v4.2h-.72v-4.19c0-.2267-.053-.4033-.16-.53-.1-.1267-.243-.19-.43-.19-.18,0-.32.0633-.42.19-.093.12-.14.2933-.14.52v4.2h-.83v-5.5h.79v.66h.06c.04-.2333.137-.4167.29-.55.16-.14.36-.21.6-.21.227,0,.417.0667.57.2.154.1267.264.3133.33.56h.04c.047-.2333.15-.4167.31-.55.16-.14.36-.21.6-.21Zm12.266.01c.64,0,1.147.1633,1.52.49.374.32.56.76.56,1.32v3.78h-.88v-1.05h-.01c-.026.3467-.2.6267-.52.84-.32.2067-.72.31-1.2.31-.56,0-1.006-.1467-1.34-.44-.333-.2933-.5-.69-.5-1.19c0-.5267.164-.94.49-1.24.334-.3.787-.45,1.36-.45h1.7v-.53c0-.3333-.106-.59-.32-.77-.206-.1867-.496-.28-.87-.28-.326,0-.596.0667-.81.2-.213.1333-.336.3167-.37.55h-.9c.06-.4667.28-.84.66-1.12s.857-.42,1.43-.42Zm-.32,4.98c.44,0,.8-.1033,1.08-.31.28-.2133.42-.49.42-.83v-.78h-1.68c-.3,0-.536.0833-.71.25-.173.1667-.26.3967-.26.69c0,.3067.104.5467.31.72.207.1733.487.26.84.26Zm13.816-4.98c.64,0,1.147.1633,1.52.49.374.32.56.76.56,1.32v3.78h-.88v-1.05h-.01c-.026.3467-.2.6267-.52.84-.32.2067-.72.31-1.2.31-.56,0-1.006-.1467-1.34-.44-.333-.2933-.5-.69-.5-1.19c0-.5267.164-.94.49-1.24.334-.3.787-.45,1.36-.45h1.7v-.53c0-.3333-.106-.59-.32-.77-.206-.1867-.496-.28-.87-.28-.326,0-.596.0667-.81.2-.213.1333-.336.3167-.37.55h-.9c.06-.4667.28-.84.66-1.12s.857-.42,1.43-.42Zm-.32,4.98c.44,0,.8-.1033,1.08-.31.28-.2133.42-.49.42-.83v-.78h-1.68c-.3,0-.536.0833-.71.25-.173.1667-.26.3967-.26.69c0,.3067.104.5467.31.72.207.1733.487.26.84.26Zm13.797.71c-.654,0-1.17-.1867-1.55-.56s-.57-.8867-.57-1.54v-1.5c0-.6533.19-1.1667.57-1.54s.896-.56,1.55-.56c.653,0,1.17.1867,1.55.56s.57.8833.57,1.53v1.51c0,.6533-.19,1.1667-.57,1.54s-.897.56-1.55.56Zm0-.8c.393,0,.693-.11.9-.33.213-.2267.32-.55.32-.97v-1.5c0-.42-.107-.74-.32-.96-.207-.2267-.507-.34-.9-.34-.394,0-.697.1133-.91.34-.207.22-.31.54-.31.96v1.5c0,.42.103.7433.31.97.213.22.516.33.91.33Zm15.596.7h-4.2v-.9l3.08-3.78h-3v-.82h4.01v.9l-3.14,3.78h3.25v.82Zm11.426-4.62c.633.0267,1.136.23,1.51.61.373.3733.56.87.56,1.49v.52c0,.4133-.094.78-.28,1.1-.18.32-.44.5667-.78.74-.334.1733-.717.26-1.15.26-.434,0-.817-.0867-1.15-.26-.334-.1733-.59-.42-.77-.74s-.27-.6867-.27-1.1h.9c0,.4067.113.7267.34.96.233.2267.553.34.96.34.406,0,.723-.1167.95-.35.233-.24.35-.5567.35-.95v-.52c0-.4133-.114-.7333-.34-.96-.227-.2267-.547-.34-.96-.34h-.75v-.9l1.81-1.76h-2.96v-.82h3.87v.9l-1.84,1.78Zm13.486-.97c.64,0,1.146.1633,1.52.49.373.32.56.76.56,1.32v3.78h-.88v-1.05h-.01c-.027.3467-.2.6267-.52.84-.32.2067-.72.31-1.2.31-.56,0-1.007-.1467-1.34-.44-.334-.2933-.5-.69-.5-1.19c0-.5267.163-.94.49-1.24.333-.3.786-.45,1.36-.45h1.7v-.53c0-.3333-.107-.59-.32-.77-.207-.1867-.497-.28-.87-.28-.327,0-.597.0667-.81.2-.214.1333-.337.3167-.37.55h-.9c.06-.4667.28-.84.66-1.12s.856-.42,1.43-.42Zm-.32,4.98c.44,0,.8-.1033,1.08-.31.28-.2133.42-.49.42-.83v-.78h-1.68c-.3,0-.537.0833-.71.25-.174.1667-.26.3967-.26.69c0,.3067.103.5467.31.72.206.1733.486.26.84.26Zm14.996-4.89h.87v5.7c0,.5-.153.89-.46,1.17-.3.2867-.72.43-1.26.43h-1.74v-.82h1.75c.28,0,.483-.0633.61-.19.133-.1267.2-.3233.2-.59v-.7l.03-.7h-.13c-.087.2733-.25.4833-.49.63s-.54.22-.9.22c-.553,0-.993-.1833-1.32-.55-.32-.3667-.48-.8667-.48-1.5v-1.16c0-.6267.16-1.1233.48-1.49.327-.3667.767-.55,1.32-.55.36,0,.66.0733.9.22s.403.3567.49.63h.13v-.75Zm-.02,2c0-.4133-.107-.7367-.32-.97s-.507-.35-.88-.35c-.38,0-.677.1167-.89.35-.207.2267-.31.55-.31.97v1.05c0,.42.103.7467.31.98.213.2267.51.34.89.34.373,0,.667-.1167.88-.35s.32-.5567.32-.97v-1.05ZM5.2,60v-4.57h-1.6v-.82h1.6v-.53c0-.4267.13-.7633.39-1.01s.61333-.37,1.06-.37h1.7v.82h-1.7c-.17333,0-.31.05-.41.15-.09333.0933-.14.2267-.14.4v.54h2.25v.82h-2.25v4.57h-.9Zm14.5861-5.6c.5533,0,.9933.1733,1.32.52.3267.34.49.8.49,1.38v3.7h-.9v-3.6c0-.3867-.1067-.69-.32-.91-.2067-.22-.49-.33-.85-.33-.38,0-.6767.12-.89.36-.2133.2333-.32.56-.32.98v3.5h-.9v-7.3h.9v2.85h.01c.0467-.3667.1967-.65.45-.85s.59-.3,1.01-.3Zm13.2261.01c.64,0,1.1467.1633,1.52.49.3733.32.56.76.56,1.32v3.78h-.88v-1.05h-.01c-.0267.3467-.2.6267-.52.84-.32.2067-.72.31-1.2.31-.56,0-1.0067-.1467-1.34-.44s-.5-.69-.5-1.19c0-.5267.1633-.94.49-1.24.3333-.3.7867-.45,1.36-.45h1.7v-.53c0-.3333-.1067-.59-.32-.77-.2067-.1867-.4967-.28-.87-.28-.3267,0-.5967.0667-.81.2s-.3367.3167-.37.55h-.9c.06-.4667.28-.84.66-1.12s.8567-.42,1.43-.42Zm-.32,4.98c.44,0,.8-.1033,1.08-.31.28-.2133.42-.49.42-.83v-.78h-1.68c-.3,0-.5367.0833-.71.25s-.26.3967-.26.69c0,.3067.1033.5467.31.72s.4867.26.84.26ZM48.5883,60h-4.2v-.9l3.08-3.78h-3v-.82h4.01v.9l-3.14,3.78h3.25v.82Zm11.4361.1c-.6667,0-1.1934-.1867-1.58-.56-.3867-.3733-.58-.8867-.58-1.54v-1.5c0-.6533.1933-1.1667.58-1.54.3866-.3733.9133-.56,1.58-.56.6333,0,1.1433.17,1.53.51s.59.8033.61,1.39h-.9c-.02-.3467-.14-.6167-.36-.81-.2134-.1933-.5067-.29-.88-.29-.3934,0-.7034.1133-.93.34-.22.2267-.33.5433-.33.95v1.51c0,.4133.11.7333.33.96s.53.34.93.34c.3733,0,.6666-.0967.88-.29.22-.1933.34-.4633.36-.81h.9c-.02.5867-.2234,1.05-.61,1.39s-.8967.51-1.53.51Zm13.7761-5.7c.5533,0,.99.1833,1.31.55.3266.3667.49.8667.49,1.5v1.61c0,.6267-.1634,1.1233-.49,1.49-.32.3667-.7567.55-1.31.55-.4134,0-.7534-.1-1.02-.3-.2667-.2067-.4234-.49-.47-.85h-.01v1.05h-.9v-7.3h.9v1.6l-.02,1.25h.03c.0533-.3533.2133-.6333.48-.84s.6033-.31,1.01-.31Zm.9,2.1c0-.42-.1067-.7433-.32-.97-.2067-.2333-.5-.35-.88-.35-.3734,0-.6667.1167-.88.35-.2134.2333-.32.5567-.32.97v1.5c0,.4133.1066.7367.32.97.2133.2333.5066.35.88.35.38,0,.6733-.1133.88-.34.2133-.2333.32-.56.32-.98v-1.5Zm12.2961-2.09c.64,0,1.1466.1633,1.52.49.3733.32.56.76.56,1.32v3.78h-.88v-1.05h-.01c-.0267.3467-.2.6267-.52.84-.32.2067-.72.31-1.2.31-.56,0-1.0067-.1467-1.34-.44s-.5-.69-.5-1.19c0-.5267.1633-.94.49-1.24.3333-.3.7866-.45,1.36-.45h1.7v-.53c0-.3333-.1067-.59-.32-.77-.2067-.1867-.4967-.28-.87-.28-.3267,0-.5967.0667-.81.2s-.3367.3167-.37.55h-.9c.06-.4667.28-.84.66-1.12s.8566-.42,1.43-.42Zm-.32,4.98c.44,0,.8-.1033,1.08-.31.28-.2133.42-.49.42-.83v-.78h-1.68c-.3,0-.5367.0833-.71.25-.1734.1667-.26.3967-.26.69c0,.3067.1033.5467.31.72.2066.1733.4866.26.84.26Zm13.8164-4.98c.64,0,1.146.1633,1.52.49.373.32.56.76.56,1.32v3.78h-.88v-1.05h-.01c-.027.3467-.2.6267-.52.84-.32.2067-.72.31-1.2003.31-.56,0-1.0067-.1467-1.34-.44s-.5-.69-.5-1.19c0-.5267.1633-.94.49-1.24.3333-.3.7866-.45,1.36-.45h1.7003v-.53c0-.3333-.107-.59-.32-.77-.207-.1867-.497-.28-.87-.28-.327,0-.597.0667-.8103.2-.2134.1333-.3367.3167-.37.55h-.9c.06-.4667.28-.84.66-1.12s.8566-.42,1.4303-.42Zm-.32,4.98c.44,0,.8-.1033,1.08-.31.28-.2133.42-.49.42-.83v-.78h-1.6803c-.3,0-.5367.0833-.71.25-.1734.1667-.26.3967-.26.69c0,.3067.1033.5467.31.72.2066.1733.4866.26.8403.26Zm13.186.61l-1.79-5.5h.92l1.17,3.7c.12.38.23.75.33,1.11.1-.36.21-.73.33-1.11l1.14-3.7h.91l-1.79,5.5h-1.22Zm15.356-5.6c.34,0,.607.13.8.39.193.2533.29.5967.29,1.03v4.18h-.83v-4.19c0-.2267-.05-.4033-.15-.53-.093-.1267-.233-.19-.42-.19-.18,0-.323.0633-.43.19-.1.12-.15.2933-.15.52v4.2h-.72v-4.19c0-.2267-.053-.4033-.16-.53-.1-.1267-.243-.19-.43-.19-.18,0-.32.0633-.42.19-.093.12-.14.2933-.14.52v4.2h-.83v-5.5h.79v.66h.06c.04-.2333.137-.4167.29-.55.16-.14.36-.21.6-.21.227,0,.417.0667.57.2.153.1267.263.3133.33.56h.04c.047-.2333.15-.4167.31-.55.16-.14.36-.21.6-.21Zm14.396,4.95l-4.3-2.15v-1l4.3-2.15v.87l-3.1,1.52c-.213.1-.413.18-.6.24.2.06.4.14.6.24l3.1,1.53v.9Zm11.676-4.95c.553,0,.99.1833,1.31.55s.48.8633.48,1.49v1.61c0,.6333-.16,1.1333-.48,1.5s-.757.55-1.31.55c-.413,0-.757-.1033-1.03-.31-.267-.2067-.423-.4867-.47-.84h-.03l.02,1.25v1.6h-.9v-7.3h.9v1.05h.01c.047-.36.203-.64.47-.84.273-.2067.617-.31,1.03-.31Zm.89,2.1c0-.4267-.103-.7533-.31-.98s-.5-.34-.88-.34c-.373,0-.67.1167-.89.35-.213.2333-.32.5567-.32.97v1.5c0,.4133.107.7367.32.97.22.2333.517.35.89.35.38,0,.673-.1133.88-.34s.31-.5533.31-.98v-1.5Zm12.296-2.09c.64,0,1.147.1633,1.52.49.373.32.56.76.56,1.32v3.78h-.88v-1.05h-.01c-.027.3467-.2.6267-.52.84-.32.2067-.72.31-1.2.31-.56,0-1.007-.1467-1.34-.44s-.5-.69-.5-1.19c0-.5267.163-.94.49-1.24.333-.3.787-.45,1.36-.45h1.7v-.53c0-.3333-.107-.59-.32-.77-.207-.1867-.497-.28-.87-.28-.327,0-.597.0667-.81.2s-.337.3167-.37.55h-.9c.06-.4667.28-.84.66-1.12s.857-.42,1.43-.42Zm-.32,4.98c.44,0,.8-.1033,1.08-.31.28-.2133.42-.49.42-.83v-.78h-1.68c-.3,0-.537.0833-.71.25s-.26.3967-.26.69c0,.3067.103.5467.31.72s.487.26.84.26Zm13.576.71c-.56,0-1.01-.13-1.35-.39-.333-.26-.526-.6133-.58-1.06h.9c.04.2.15.36.33.48.18.1133.414.17.7.17h.42c.347,0,.607-.0733.78-.22.18-.1467.27-.3433.27-.59c0-.4533-.31-.73-.93-.83l-.74-.12c-.546-.0867-.95-.2533-1.21-.5-.26-.2533-.39-.61-.39-1.07c0-.5.16-.8867.48-1.16s.787-.41,1.4-.41h.38c.52,0,.94.1267,1.26.38.327.2467.524.5833.59,1.01h-.9c-.04-.18-.143-.3233-.31-.43-.166-.1067-.38-.16-.64-.16h-.38c-.653,0-.98.26-.98.78c0,.22.064.3867.19.5.134.1067.347.1833.64.23l.74.12c.594.0933,1.024.2667,1.29.52.274.2533.41.62.41,1.1c0,.52-.166.9267-.5,1.22-.326.2867-.81.43-1.45.43h-.42Zm13.496,0c-.56,0-1.01-.13-1.35-.39-.333-.26-.526-.6133-.58-1.06h.9c.04.2.15.36.33.48.18.1133.414.17.7.17h.42c.347,0,.607-.0733.78-.22.18-.1467.27-.3433.27-.59c0-.4533-.31-.73-.93-.83l-.74-.12c-.546-.0867-.95-.2533-1.21-.5-.26-.2533-.39-.61-.39-1.07c0-.5.16-.8867.48-1.16s.787-.41,1.4-.41h.38c.52,0,.94.1267,1.26.38.327.2467.524.5833.59,1.01h-.9c-.04-.18-.143-.3233-.31-.43-.166-.1067-.38-.16-.64-.16h-.38c-.653,0-.98.26-.98.78c0,.22.064.3867.19.5.134.1067.347.1833.64.23l.74.12c.594.0933,1.024.2667,1.29.52.274.2533.41.62.41,1.1c0,.52-.166.9267-.5,1.22-.326.2867-.81.43-1.45.43h-.42Zm11.946-.1l-.88-5.5h.8l.55,3.9.12.9.14-.9.61-3.9h.86l.61,3.9.14.9.14-.9.57-3.9h.76l-.92,5.5h-.99l-.59-3.8-.16-1-.15,1-.62,3.8h-.99Zm15.267.1c-.654,0-1.17-.1867-1.55-.56s-.57-.8867-.57-1.54v-1.5c0-.6533.19-1.1667.57-1.54s.896-.56,1.55-.56c.653,0,1.17.1867,1.55.56s.57.8833.57,1.53v1.51c0,.6533-.19,1.1667-.57,1.54s-.897.56-1.55.56Zm0-.8c.393,0,.693-.11.9-.33.213-.2267.32-.55.32-.97v-1.5c0-.42-.107-.74-.32-.96-.207-.2267-.507-.34-.9-.34-.394,0-.697.1133-.91.34-.207.22-.31.54-.31.96v1.5c0,.42.103.7433.31.97.213.22.516.33.91.33Zm13.936-4.9c.58,0,1.04.1833,1.38.55.346.36.52.85.52,1.47v.33h-.9v-.25c0-.4267-.107-.7567-.32-.99-.207-.2333-.504-.35-.89-.35-.38,0-.68.12-.9.36-.214.2333-.32.56-.32.98v3.5h-.9v-5.5h.88v.98c.18-.72.663-1.08,1.45-1.08Zm14.236-1.7h.9v7.3h-.9v-1.05h-.01c-.047.36-.204.6433-.47.85-.267.2-.607.3-1.02.3-.554,0-.994-.1833-1.32-.55-.32-.3667-.48-.8633-.48-1.49v-1.61c0-.6333.16-1.1333.48-1.5.326-.3667.766-.55,1.32-.55.406,0,.743.1033,1.01.31.266.2067.426.4867.48.84h.03l-.02-1.25v-1.6Zm0,3.8c0-.4133-.107-.7367-.32-.97-.214-.2333-.507-.35-.88-.35-.38,0-.677.1167-.89.35-.207.2267-.31.55-.31.97v1.5c0,.42.103.7467.31.98.213.2267.51.34.89.34.373,0,.666-.1167.88-.35.213-.2333.32-.5567.32-.97v-1.5Zm13.066-2.95c-.2,0-.36-.0533-.48-.16-.114-.1067-.17-.25-.17-.43s.06-.3267.18-.44.276-.17.47-.17h.2c.193,0,.35.0567.47.17s.18.26.18.44-.06.3233-.18.43-.277.16-.47.16h-.2Zm-2.9,8.25v-.83h1.29c.413,0,.733-.1133.96-.34.233-.22.35-.5333.35-.94v-4.37h-2.3v-.82h3.2v5.19c0,.6467-.2,1.16-.6,1.54s-.937.57-1.61.57h-1.29Zm16.826-9.1h.9v7.3h-.9v-1.05h-.01c-.047.36-.203.6433-.47.85-.267.2-.607.3-1.02.3-.553,0-.993-.1833-1.32-.55-.32-.3667-.48-.8633-.48-1.49v-1.61c0-.6333.16-1.1333.48-1.5.327-.3667.767-.55,1.32-.55.407,0,.743.1033,1.01.31s.427.4867.48.84h.03l-.02-1.25v-1.6Zm0,3.8c0-.4133-.107-.7367-.32-.97s-.507-.35-.88-.35c-.38,0-.677.1167-.89.35-.207.2267-.31.55-.31.97v1.5c0,.42.103.7467.31.98.213.2267.51.34.89.34.373,0,.667-.1167.88-.35s.32-.5567.32-.97v-1.5ZM6.02,70.41c.64,0,1.14667.1633,1.52.49.37333.32.56.76.56,1.32v3.78h-.88v-1.05h-.01c-.02667.3467-.2.6267-.52.84-.32.2067-.72.31-1.2.31-.56,0-1.00667-.1467-1.34-.44s-.5-.69-.5-1.19c0-.5267.16333-.94.49-1.24.33333-.3.78667-.45,1.36-.45h1.7v-.53c0-.3333-.10667-.59-.32-.77-.20667-.1867-.49667-.28-.87-.28-.32667,0-.59667.0667-.81.2s-.33667.3167-.37.55h-.9c.06-.4667.28-.84.66-1.12s.85667-.42,1.43-.42ZM5.7,75.39c.44,0,.8-.1033,1.08-.31.28-.2133.42-.49.42-.83v-.78h-1.68c-.3,0-.53667.0833-.71.25s-.26.3967-.26.69c0,.3067.10333.5467.31.72s.48667.26.84.26Zm13.8061.71c-.46,0-.8667-.0967-1.22-.29-.3533-.2-.6267-.4767-.82-.83s-.29-.7633-.29-1.23c0-.7467.2067-1.4467.62-2.1l1.83-2.95h1l-2.07,3.32.04.03c.1267-.1867.3-.33.52-.43s.4667-.15.74-.15c.5933,0,1.0667.2067,1.42.62.36.4133.54.9667.54,1.66c0,.4667-.0967.8767-.29,1.23-.1867.3533-.4567.63-.81.83-.3467.1933-.75.29-1.21.29Zm-.01-.8c.4267,0,.77-.14,1.03-.42.26-.2867.39-.6633.39-1.13s-.13-.84-.39-1.12c-.26-.2867-.6033-.43-1.03-.43s-.77.1433-1.03.43c-.26.28-.39.6533-.39,1.12s.13.8433.39,1.13c.26.28.6033.42,1.03.42Zm14.6961-4.8h.87v5.7c0,.5-.1533.89-.46,1.17-.3.2867-.72.43-1.26.43h-1.74v-.82h1.75c.28,0,.4833-.0633.61-.19.1333-.1267.2-.3233.2-.59v-.7l.03-.7h-.13c-.0867.2733-.25.4833-.49.63s-.54.22-.9.22c-.5533,0-.9933-.1833-1.32-.55-.32-.3667-.48-.8667-.48-1.5v-1.16c0-.6267.16-1.1233.48-1.49.3267-.3667.7667-.55,1.32-.55.36,0,.66.0733.9.22s.4033.3567.49.63h.13v-.75Zm-.02,2c0-.4133-.1067-.7367-.32-.97s-.5067-.35-.88-.35c-.38,0-.6767.1167-.89.35-.2067.2267-.31.55-.31.97v1.05c0,.42.1033.7467.31.98.2133.2267.51.34.89.34.3733,0,.6667-.1167.88-.35s.32-.5567.32-.97v-1.05Zm12.0961,3.6c-.56,0-1.01-.13-1.35-.39-.3334-.26-.5267-.6133-.58-1.06h.9c.04.2.15.36.33.48.18.1133.4133.17.7.17h.42c.3466,0,.6066-.0733.78-.22.18-.1467.27-.3433.27-.59c0-.4533-.31-.73-.93-.83l-.74-.12c-.5467-.0867-.95-.2533-1.21-.5-.26-.2533-.39-.61-.39-1.07c0-.5.16-.8867.48-1.16s.7866-.41,1.4-.41h.38c.52,0,.94.1267,1.26.38.3266.2467.5233.5833.59,1.01h-.9c-.04-.18-.1434-.3233-.31-.43s-.38-.16-.64-.16h-.38c-.6534,0-.98.26-.98.78c0,.22.0633.3867.19.5.1333.1067.3466.1833.64.23l.74.12c.5933.0933,1.0233.2667,1.29.52.2733.2533.41.62.41,1.1c0,.52-.1667.9267-.5,1.22-.3267.2867-.81.43-1.45.43h-.42ZM61.9844,76h-.9v-1.6h-3.3v-1.41l2.89-4.29h.98l-2.97,4.48v.4h2.4v-1.78h.9v4.2Zm13.8961,0h-4.5v-.82h1.98v-5.73l-1.98,1.48v-1l1.65-1.23h1.23v6.48h1.62v.82Zm10.2961,0v-4.57h-1.6v-.82h1.6v-.53c0-.4267.13-.7633.39-1.01s.6133-.37,1.06-.37h1.7v.82h-1.7c-.1734,0-.31.05-.41.15-.0934.0933-.14.2267-.14.4v.54h2.25v.82h-2.25v4.57h-.9Zm14.0764.1c-.5603,0-1.0103-.13-1.3503-.39-.3334-.26-.5267-.6133-.58-1.06h.9c.04.2.15.36.33.48.18.1133.4133.17.7003.17h.42c.346,0,.606-.0733.78-.22.18-.1467.27-.3433.27-.59c0-.4533-.31-.73-.93-.83l-.74-.12c-.547-.0867-.9503-.2533-1.2103-.5-.26-.2533-.39-.61-.39-1.07c0-.5.16-.8867.48-1.16s.7866-.41,1.4003-.41h.38c.52,0,.94.1267,1.26.38.326.2467.523.5833.59,1.01h-.9c-.04-.18-.144-.3233-.31-.43-.167-.1067-.38-.16-.64-.16h-.38c-.6537,0-.9803.26-.9803.78c0,.22.0633.3867.19.5.1333.1067.3466.1833.6403.23l.74.12c.593.0933,1.023.2667,1.29.52.273.2533.41.62.41,1.1c0,.52-.167.9267-.5,1.22-.327.2867-.81.43-1.45.43h-.42Zm14.006-5.7c.553,0,.993.1733,1.32.52.326.34.49.8.49,1.38v3.7h-.9v-3.6c0-.3867-.107-.69-.32-.91-.207-.22-.49-.33-.85-.33-.38,0-.677.12-.89.36-.214.2333-.32.56-.32.98v3.5h-.9v-7.3h.9v2.85h.01c.046-.3667.196-.65.45-.85.253-.2.59-.3,1.01-.3ZM125.385,76v-.92l2.23-2.37c.38-.4067.657-.7667.83-1.08.173-.32.26-.6267.26-.92c0-.4067-.113-.7267-.34-.96-.22-.2333-.523-.35-.91-.35-.427,0-.763.12-1.01.36-.24.24-.36.57-.36.99h-.9c.02-.66.233-1.1833.64-1.57.413-.3867.957-.58,1.63-.58.66,0,1.183.19,1.57.57.387.3733.58.8833.58,1.53c0,.4133-.11.8233-.33,1.23s-.58.87-1.08,1.39l-1.8,1.86h3.33v.82h-4.34Zm15.596-5.59c.64,0,1.147.1633,1.52.49.373.32.56.76.56,1.32v3.78h-.88v-1.05h-.01c-.027.3467-.2.6267-.52.84-.32.2067-.72.31-1.2.31-.56,0-1.007-.1467-1.34-.44s-.5-.69-.5-1.19c0-.5267.163-.94.49-1.24.333-.3.787-.45,1.36-.45h1.7v-.53c0-.3333-.107-.59-.32-.77-.207-.1867-.497-.28-.87-.28-.327,0-.597.0667-.81.2s-.337.3167-.37.55h-.9c.06-.4667.28-.84.66-1.12s.857-.42,1.43-.42Zm-.32,4.98c.44,0,.8-.1033,1.08-.31.28-.2133.42-.49.42-.83v-.78h-1.68c-.3,0-.537.0833-.71.25s-.26.3967-.26.69c0,.3067.103.5467.31.72s.487.26.84.26Zm14.996-4.89h.87v5.7c0,.5-.153.89-.46,1.17-.3.2867-.72.43-1.26.43h-1.74v-.82h1.75c.28,0,.483-.0633.61-.19.133-.1267.2-.3233.2-.59v-.7l.03-.7h-.13c-.087.2733-.25.4833-.49.63s-.54.22-.9.22c-.553,0-.993-.1833-1.32-.55-.32-.3667-.48-.8667-.48-1.5v-1.16c0-.6267.16-1.1233.48-1.49.327-.3667.767-.55,1.32-.55.36,0,.66.0733.9.22s.403.3567.49.63h.13v-.75Zm-.02,2c0-.4133-.107-.7367-.32-.97s-.507-.35-.88-.35c-.38,0-.677.1167-.89.35-.207.2267-.31.55-.31.97v1.05c0,.42.103.7467.31.98.213.2267.51.34.89.34.373,0,.667-.1167.88-.35s.32-.5567.32-.97v-1.05Zm13.066-2.95c-.2,0-.36-.0533-.48-.16-.113-.1067-.17-.25-.17-.43s.06-.3267.18-.44.277-.17.47-.17h.2c.193,0,.35.0567.47.17s.18.26.18.44-.06.3233-.18.43-.277.16-.47.16h-.2Zm-2.9,8.25v-.83h1.29c.413,0,.733-.1133.96-.34.233-.22.35-.5333.35-.94v-4.37h-2.3v-.82h3.2v5.19c0,.6467-.2,1.16-.6,1.54s-.937.57-1.61.57h-1.29Zm15.646-8.25c-.2,0-.36-.0533-.48-.16-.113-.1067-.17-.25-.17-.43s.06-.3267.18-.44.277-.17.47-.17h.2c.194,0,.35.0567.47.17s.18.26.18.44-.06.3233-.18.43-.276.16-.47.16h-.2Zm2.5,6.45h-4.7v-.82h1.95v-3.86h-1.7v-.82h2.6v4.68h1.85v.82Zm12.996,0h-.9v-1.6h-3.3v-1.41l2.89-4.29h.98l-2.97,4.48v.4h2.4v-1.78h.9v4.2Zm12.676-7.3h.9v7.3h-.9v-1.05h-.01c-.046.36-.203.6433-.47.85-.266.2-.606.3-1.02.3-.553,0-.993-.1833-1.32-.55-.32-.3667-.48-.8633-.48-1.49v-1.61c0-.6333.16-1.1333.48-1.5.327-.3667.767-.55,1.32-.55.407,0,.744.1033,1.01.31.267.2067.427.4867.48.84h.03l-.02-1.25v-1.6Zm0,3.8c0-.4133-.106-.7367-.32-.97-.213-.2333-.506-.35-.88-.35-.38,0-.676.1167-.89.35-.206.2267-.31.55-.31.97v1.5c0,.42.104.7467.31.98.214.2267.51.34.89.34.374,0,.667-.1167.88-.35.214-.2333.32-.5567.32-.97v-1.5ZM224.338,76h-4.5v-.82h1.98v-5.73l-1.98,1.48v-1l1.65-1.23h1.23v6.48h1.62v.82Zm9.016,0v-.92l2.23-2.37c.38-.4067.656-.7667.83-1.08.173-.32.26-.6267.26-.92c0-.4067-.114-.7267-.34-.96-.22-.2333-.524-.35-.91-.35-.427,0-.764.12-1.01.36-.24.24-.36.57-.36.99h-.9c.02-.66.233-1.1833.64-1.57.413-.3867.956-.58,1.63-.58.66,0,1.183.19,1.57.57.386.3733.58.8833.58,1.53c0,.4133-.11.8233-.33,1.23s-.58.87-1.08,1.39l-1.8,1.86h3.33v.82h-4.34Zm15.616.1c-.667,0-1.194-.1867-1.58-.56-.387-.3733-.58-.8867-.58-1.54v-1.5c0-.6533.193-1.1667.58-1.54.386-.3733.913-.56,1.58-.56.633,0,1.143.17,1.53.51.386.34.59.8033.61,1.39h-.9c-.02-.3467-.14-.6167-.36-.81-.214-.1933-.507-.29-.88-.29-.394,0-.704.1133-.93.34-.22.2267-.33.5433-.33.95v1.51c0,.4133.11.7333.33.96s.53.34.93.34c.373,0,.666-.0967.88-.29.22-.1933.34-.4633.36-.81h.9c-.02.5867-.224,1.05-.61,1.39-.387.34-.897.51-1.53.51Zm13.476-5.69c.64,0,1.146.1633,1.52.49.373.32.56.76.56,1.32v3.78h-.88v-1.05h-.01c-.027.3467-.2.6267-.52.84-.32.2067-.72.31-1.2.31-.56,0-1.007-.1467-1.34-.44-.334-.2933-.5-.69-.5-1.19c0-.5267.163-.94.49-1.24.333-.3.786-.45,1.36-.45h1.7v-.53c0-.3333-.107-.59-.32-.77-.207-.1867-.497-.28-.87-.28-.327,0-.597.0667-.81.2-.214.1333-.337.3167-.37.55h-.9c.06-.4667.28-.84.66-1.12s.856-.42,1.43-.42Zm-.32,4.98c.44,0,.8-.1033,1.08-.31.28-.2133.42-.49.42-.83v-.78h-1.68c-.3,0-.537.0833-.71.25-.174.1667-.26.3967-.26.69c0,.3067.103.5467.31.72.206.1733.486.26.84.26Zm14.996-4.89h.87v5.7c0,.5-.153.89-.46,1.17-.3.2867-.72.43-1.26.43h-1.74v-.82h1.75c.28,0,.483-.0633.61-.19.133-.1267.2-.3233.2-.59v-.7l.03-.7h-.13c-.087.2733-.25.4833-.49.63s-.54.22-.9.22c-.553,0-.993-.1833-1.32-.55-.32-.3667-.48-.8667-.48-1.5v-1.16c0-.6267.16-1.1233.48-1.49.327-.3667.767-.55,1.32-.55.36,0,.66.0733.9.22s.403.3567.49.63h.13v-.75Zm-.02,2c0-.4133-.107-.7367-.32-.97s-.507-.35-.88-.35c-.38,0-.677.1167-.89.35-.207.2267-.31.55-.31.97v1.05c0,.42.103.7467.31.98.213.2267.51.34.89.34.373,0,.667-.1167.88-.35s.32-.5567.32-.97v-1.05ZM6.02,86.41c.64,0,1.14667.1633,1.52.49.37333.32.56.76.56,1.32v3.78h-.88v-1.05h-.01c-.02667.3467-.2.6267-.52.84-.32.2067-.72.31-1.2.31-.56,0-1.00667-.1467-1.34-.44s-.5-.69-.5-1.19c0-.5267.16333-.94.49-1.24.33333-.3.78667-.45,1.36-.45h1.7v-.53c0-.3333-.10667-.59-.32-.77-.20667-.1867-.49667-.28-.87-.28-.32667,0-.59667.0667-.81.2s-.33667.3167-.37.55h-.9c.06-.4667.28-.84.66-1.12s.85667-.42,1.43-.42ZM5.7,91.39c.44,0,.8-.1033,1.08-.31.28-.2133.42-.49.42-.83v-.78h-1.68c-.3,0-.53667.0833-.71.25s-.26.3967-.26.69c0,.3067.10333.5467.31.72s.48667.26.84.26Zm13.8261-4.01c.6333.0267,1.1367.23,1.51.61.3733.3733.56.87.56,1.49v.52c0,.4133-.0933.78-.28,1.1-.18.32-.44.5667-.78.74-.3333.1733-.7167.26-1.15.26s-.8167-.0867-1.15-.26-.59-.42-.77-.74-.27-.6867-.27-1.1h.9c0,.4067.1133.7267.34.96.2333.2267.5533.34.96.34s.7233-.1167.95-.35c.2333-.24.35-.5567.35-.95v-.52c0-.4133-.1133-.7333-.34-.96s-.5467-.34-.96-.34h-.75v-.9l1.81-1.76h-2.96v-.82h3.87v.9l-1.84,1.78ZM30.9122,92v-.92l2.23-2.37c.38-.4067.6567-.7667.83-1.08.1733-.32.26-.6267.26-.92c0-.4067-.1133-.7267-.34-.96-.22-.2333-.5233-.35-.91-.35-.4267,0-.7633.12-1.01.36-.24.24-.36.57-.36.99h-.9c.02-.66.2333-1.1833.64-1.57.4133-.3867.9567-.58,1.63-.58.66,0,1.1833.19,1.57.57.3867.3733.58.8833.58,1.53c0,.4133-.11.8233-.33,1.23s-.58.87-1.08,1.39l-1.8,1.86h3.33v.82h-4.34Zm17.5761,0h-.9v-1.6h-3.3v-1.41l2.89-4.29h.98l-2.97,4.48v.4h2.4v-1.78h.9v4.2Zm12.6761-7.3h.9v7.3h-.9v-1.05h-.01c-.0467.36-.2034.6433-.47.85-.2667.2-.6067.3-1.02.3-.5534,0-.9934-.1833-1.32-.55-.32-.3667-.48-.8633-.48-1.49v-1.61c0-.6333.16-1.1333.48-1.5.3266-.3667.7666-.55,1.32-.55.4066,0,.7433.1033,1.01.31s.4266.4867.48.84h.03l-.02-1.25v-1.6Zm0,3.8c0-.4133-.1067-.7367-.32-.97-.2134-.2333-.5067-.35-.88-.35-.38,0-.6767.1167-.89.35-.2067.2267-.31.55-.31.97v1.5c0,.42.1033.7467.31.98.2133.2267.51.34.89.34.3733,0,.6666-.1167.88-.35.2133-.2333.32-.5567.32-.97v-1.5ZM74.1305,92c-.4867,0-.8767-.14-1.17-.42-.2867-.2867-.43-.6633-.43-1.13v-4.93h-1.65v-.82h2.55v5.75c0,.2267.0633.4067.19.54.1266.1267.2966.19.51.19h1.85v.82h-1.85Zm13.1761-5.6c.5533,0,.99.1833,1.31.55s.48.8633.48,1.49v1.61c0,.6333-.16,1.1333-.48,1.5s-.7567.55-1.31.55c-.4134,0-.7567-.1033-1.03-.31-.2667-.2067-.4234-.4867-.47-.84h-.03l.02,1.25v1.6h-.9v-7.3h.9v1.05h.01c.0466-.36.2033-.64.47-.84.2733-.2067.6166-.31,1.03-.31Zm.89,2.1c0-.4267-.1034-.7533-.31-.98-.2067-.2267-.5-.34-.88-.34-.3734,0-.67.1167-.89.35-.2134.2333-.32.5567-.32.97v1.5c0,.4133.1066.7367.32.97.22.2333.5166.35.89.35.38,0,.6733-.1133.88-.34.2066-.2267.31-.5533.31-.98v-1.5ZM102.873,92h-4.5003v-.82h1.9803v-5.73l-1.9803,1.48v-1l1.6503-1.23h1.23v6.48h1.62v.82Zm9.016,0v-.92l2.23-2.37c.38-.4067.656-.7667.83-1.08.173-.32.26-.6267.26-.92c0-.4067-.114-.7267-.34-.96-.22-.2333-.524-.35-.91-.35-.427,0-.764.12-1.01.36-.24.24-.36.57-.36.99h-.9c.02-.66.233-1.1833.64-1.57.413-.3867.956-.58,1.63-.58.66,0,1.183.19,1.57.57.386.3733.58.8833.58,1.53c0,.4133-.11.8233-.33,1.23s-.58.87-1.08,1.39l-1.8,1.86h3.33v.82h-4.34Zm15.616.1c-.667,0-1.193-.1867-1.58-.56s-.58-.8867-.58-1.54v-1.5c0-.6533.193-1.1667.58-1.54s.913-.56,1.58-.56c.633,0,1.143.17,1.53.51s.59.8033.61,1.39h-.9c-.02-.3467-.14-.6167-.36-.81-.213-.1933-.507-.29-.88-.29-.393,0-.703.1133-.93.34-.22.2267-.33.5433-.33.95v1.51c0,.4133.11.7333.33.96s.53.34.93.34c.373,0,.667-.0967.88-.29.22-.1933.34-.4633.36-.81h.9c-.02.5867-.223,1.05-.61,1.39s-.897.51-1.53.51Zm15.556-.1h-4.2v-.9l3.08-3.78h-3v-.82h4.01v.9l-3.14,3.78h3.25v.82Zm13.496,0h-4.2v-.9l3.08-3.78h-3v-.82h4.01v.9l-3.14,3.78h3.25v.82Zm9.626,0l-.88-5.5h.8l.55,3.9.12.9.14-.9.61-3.9h.86l.61,3.9.14.9.14-.9.57-3.9h.76l-.92,5.5h-.99l-.59-3.8-.16-1-.15,1-.62,3.8h-.99Zm16.466-5.5h.87v5.7c0,.5-.153.89-.46,1.17-.3.2867-.72.43-1.26.43h-1.74v-.82h1.75c.28,0,.484-.0633.61-.19.134-.1267.2-.3233.2-.59v-.7l.03-.7h-.13c-.086.2733-.25.4833-.49.63s-.54.22-.9.22c-.553,0-.993-.1833-1.32-.55-.32-.3667-.48-.8667-.48-1.5v-1.16c0-.6267.16-1.1233.48-1.49.327-.3667.767-.55,1.32-.55.36,0,.66.0733.9.22s.404.3567.49.63h.13v-.75Zm-.02,2c0-.4133-.106-.7367-.32-.97-.213-.2333-.506-.35-.88-.35-.38,0-.676.1167-.89.35-.206.2267-.31.55-.31.97v1.05c0,.42.104.7467.31.98.214.2267.51.34.89.34.374,0,.667-.1167.88-.35.214-.2333.32-.5567.32-.97v-1.05Zm12.606-2.1c.554,0,.994.1733,1.32.52.327.34.49.8.49,1.38v3.7h-.9v-3.6c0-.3867-.106-.69-.32-.91-.206-.22-.49-.33-.85-.33-.38,0-.676.12-.89.36-.213.2333-.32.56-.32.98v3.5h-.9v-7.3h.9v2.85h.01c.047-.3667.197-.65.45-.85.254-.2.59-.3,1.01-.3ZM207.291,92h-.9v-7.3h.9v4.07h.96l1.6-2.27h1.03l-1.85,2.62l1.88,2.88h-1.05l-1.6-2.45h-.97v2.45Zm14.667-5.59c.64,0,1.146.1633,1.52.49.373.32.56.76.56,1.32v3.78h-.88v-1.05h-.01c-.027.3467-.2.6267-.52.84-.32.2067-.72.31-1.2.31-.56,0-1.007-.1467-1.34-.44-.334-.2933-.5-.69-.5-1.19c0-.5267.163-.94.49-1.24.333-.3.786-.45,1.36-.45h1.7v-.53c0-.3333-.107-.59-.32-.77-.207-.1867-.497-.28-.87-.28-.327,0-.597.0667-.81.2-.214.1333-.337.3167-.37.55h-.9c.06-.4667.28-.84.66-1.12s.856-.42,1.43-.42Zm-.32,4.98c.44,0,.8-.1033,1.08-.31.28-.2133.42-.49.42-.83v-.78h-1.68c-.3,0-.537.0833-.71.25-.174.1667-.26.3967-.26.69c0,.3067.103.5467.31.72.206.1733.486.26.84.26Zm14.816-3.24c.38.0933.686.3133.92.66.24.34.36.7433.36,1.21c0,.6333-.207,1.14-.62,1.52-.414.3733-.974.56-1.68.56-.707,0-1.267-.1833-1.68-.55-.414-.3733-.62-.8733-.62-1.5c0-.48.116-.8933.35-1.24.24-.3467.55-.5667.93-.66-.34-.0867-.614-.28-.82-.58-.207-.3-.31-.6567-.31-1.07c0-.3733.09-.7033.27-.99s.43-.51.75-.67c.326-.16.703-.24,1.13-.24.426,0,.8.08,1.12.24.326.16.58.3833.76.67s.27.6167.27.99c0,.4133-.104.77-.31,1.07-.207.3-.48.4933-.82.58Zm-1.02-2.8c-.394,0-.697.1067-.91.32-.207.2133-.31.5167-.31.91c0,.4067.103.7233.31.95.213.22.516.33.91.33.393,0,.693-.11.9-.33.213-.2267.32-.5433.32-.95c0-.3933-.107-.6967-.32-.91-.207-.2133-.507-.32-.9-.32Zm0,6c.433,0,.77-.1233,1.01-.37s.36-.5967.36-1.05c0-.4467-.12-.7933-.36-1.04s-.577-.37-1.01-.37c-.434,0-.77.1233-1.01.37s-.36.5933-.36,1.04c0,.4533.12.8033.36,1.05s.576.37,1.01.37Zm13.516-4.94c.64,0,1.146.1633,1.52.49.373.32.56.76.56,1.32v3.78h-.88v-1.05h-.01c-.027.3467-.2.6267-.52.84-.32.2067-.72.31-1.2.31-.56,0-1.007-.1467-1.34-.44-.334-.2933-.5-.69-.5-1.19c0-.5267.163-.94.49-1.24.333-.3.786-.45,1.36-.45h1.7v-.53c0-.3333-.107-.59-.32-.77-.207-.1867-.497-.28-.87-.28-.327,0-.597.0667-.81.2-.214.1333-.337.3167-.37.55h-.9c.06-.4667.28-.84.66-1.12s.856-.42,1.43-.42Zm-.32,4.98c.44,0,.8-.1033,1.08-.31.28-.2133.42-.49.42-.83v-.78h-1.68c-.3,0-.537.0833-.71.25-.174.1667-.26.3967-.26.69c0,.3067.103.5467.31.72.206.1733.486.26.84.26Zm12.606,2.41l.81-2.14-2.02-5.16h1l1.23,3.4c.066.1933.143.46.23.8.08-.34.153-.6067.22-.8l1.15-3.4h.97l-2.63,7.3h-.96Zm14.706-7.39c.64,0,1.147.1633,1.52.49.373.32.56.76.56,1.32v3.78h-.88v-1.05h-.01c-.027.3467-.2.6267-.52.84-.32.2067-.72.31-1.2.31-.56,0-1.007-.1467-1.34-.44s-.5-.69-.5-1.19c0-.5267.163-.94.49-1.24.333-.3.787-.45,1.36-.45h1.7v-.53c0-.3333-.107-.59-.32-.77-.207-.1867-.497-.28-.87-.28-.327,0-.597.0667-.81.2s-.337.3167-.37.55h-.9c.06-.4667.28-.84.66-1.12s.857-.42,1.43-.42Zm-.32,4.98c.44,0,.8-.1033,1.08-.31.28-.2133.42-.49.42-.83v-.78h-1.68c-.3,0-.537.0833-.71.25s-.26.3967-.26.69c0,.3067.103.5467.31.72s.487.26.84.26ZM4.23,108l-.88-5.5h.8l.55,3.9.12.9.14-.9.61-3.9h.86l.61,3.9.14.9.14-.9.57-3.9h.76L7.73,108h-.99l-.59-3.8-.16-1-.15,1-.62,3.8h-.99Zm16.4661-5.5h.87v5.7c0,.5-.1533.89-.46,1.17-.3.287-.72.43-1.26.43h-1.74v-.82h1.75c.28,0,.4833-.063.61-.19.1333-.127.2-.323.2-.59v-.7l.03-.7h-.13c-.0867.273-.25.483-.49.63s-.54.22-.9.22c-.5533,0-.9933-.183-1.32-.55-.32-.367-.48-.867-.48-1.5v-1.16c0-.627.16-1.123.48-1.49.3267-.367.7667-.55,1.32-.55.36,0,.66.073.9.22s.4033.357.49.63h.13v-.75Zm-.02,2c0-.413-.1067-.737-.32-.97s-.5067-.35-.88-.35c-.38,0-.6767.117-.89.35-.2067.227-.31.55-.31.97v1.05c0,.42.1033.747.31.98.2133.227.51.34.89.34.3733,0,.6667-.117.88-.35s.32-.557.32-.97v-1.05Zm12.6061-2.1c.5533,0,.9933.173,1.32.52.3267.34.49.8.49,1.38v3.7h-.9v-3.6c0-.387-.1067-.69-.32-.91-.2067-.22-.49-.33-.85-.33-.38,0-.6767.12-.89.36-.2133.233-.32.56-.32.98v3.5h-.9v-7.3h.9v2.85h.01c.0467-.367.1967-.65.45-.85s.59-.3,1.01-.3ZM45.3383,108h-.9v-7.3h.9v4.07h.96l1.6-2.27h1.03l-1.85,2.62l1.88,2.88h-1.05l-1.6-2.45h-.97v2.45Zm16.7661-2.53h-3.36v.53c0,.44.1033.773.31,1c.2133.227.5233.34.93.34.7,0,1.1-.247,1.2-.74h.9c-.06.46-.28.827-.66,1.1-.38.267-.86.4-1.44.4-.6467,0-1.1634-.19-1.55-.57-.38-.38-.57-.89-.57-1.53v-1.5c0-.64.19-1.15.57-1.53.3866-.38.9033-.57,1.55-.57.6466,0,1.16.19,1.54.57.3866.38.58.89.58,1.53v.97Zm-3.36-.68h2.48v-.29c0-.44-.1067-.773-.32-1-.2067-.233-.5134-.35-.92-.35-.4067,0-.7167.117-.93.35-.2067.227-.31.56-.31,1v.29Zm15.9861-2.39c.34,0,.6066.13.8.39.1933.253.29.597.29,1.03v4.18h-.83v-4.19c0-.227-.05-.403-.15-.53-.0934-.127-.2334-.19-.42-.19-.18,0-.3234.063-.43.19-.1.12-.15.293-.15.52v4.2h-.72v-4.19c0-.227-.0534-.403-.16-.53-.1-.127-.2434-.19-.43-.19-.18,0-.32.063-.42.19-.0934.12-.14.293-.14.52v4.2h-.83v-5.5h.79v.66h.06c.04-.233.1366-.417.29-.55.16-.14.36-.21.6-.21.2266,0,.4166.067.57.2.1533.127.2633.313.33.56h.04c.0466-.233.15-.417.31-.55.16-.14.36-.21.6-.21Zm12.2661.01c.64,0,1.1466.163,1.52.49.3733.32.56.76.56,1.32v3.78h-.88v-1.05h-.01c-.0267.347-.2.627-.52.84-.32.207-.72.31-1.2.31-.56,0-1.0067-.147-1.34-.44s-.5-.69-.5-1.19c0-.527.1633-.94.49-1.24.3333-.3.7866-.45,1.36-.45h1.7v-.53c0-.333-.1067-.59-.32-.77-.2067-.187-.4967-.28-.87-.28-.3267,0-.5967.067-.81.2s-.3367.317-.37.55h-.9c.06-.467.28-.84.66-1.12s.8566-.42,1.43-.42Zm-.32,4.98c.44,0,.8-.103,1.08-.31.28-.213.42-.49.42-.83v-.78h-1.68c-.3,0-.5367.083-.71.25-.1734.167-.26.397-.26.69c0,.307.1033.547.31.72.2066.173.4866.26.84.26Zm13.7964-5.84c-.2,0-.36-.053-.4803-.16-.1134-.107-.17-.25-.17-.43s.06-.327.1803-.44c.12-.113.276-.17.47-.17h.2c.193,0,.35.057.47.17s.18.26.18.44-.06.323-.18.43-.277.16-.47.16h-.2Zm2.5,6.45h-4.7003v-.82h1.9503v-3.86h-1.7003v-.82h2.6003v4.68h1.85v.82Zm11.646,0c-.487,0-.877-.14-1.17-.42-.287-.287-.43-.663-.43-1.13v-4.93h-1.65v-.82h2.55v5.75c0,.227.063.407.19.54.126.127.296.19.51.19h1.85v.82h-1.85Zm12.866-5.59c.64,0,1.147.163,1.52.49.373.32.56.76.56,1.32v3.78h-.88v-1.05h-.01c-.027.347-.2.627-.52.84-.32.207-.72.31-1.2.31-.56,0-1.007-.147-1.34-.44s-.5-.69-.5-1.19c0-.527.163-.94.49-1.24.333-.3.787-.45,1.36-.45h1.7v-.53c0-.333-.107-.59-.32-.77-.207-.187-.497-.28-.87-.28-.327,0-.597.067-.81.2s-.337.317-.37.55h-.9c.06-.467.28-.84.66-1.12s.857-.42,1.43-.42Zm-.32,4.98c.44,0,.8-.103,1.08-.31.28-.213.42-.49.42-.83v-.78h-1.68c-.3,0-.537.083-.71.25s-.26.397-.26.69c0,.307.103.547.31.72s.487.26.84.26Zm14.976-6.69h.9v7.3h-.9v-1.05h-.01c-.047.36-.203.643-.47.85-.267.2-.607.3-1.02.3-.553,0-.993-.183-1.32-.55-.32-.367-.48-.863-.48-1.49v-1.61c0-.633.16-1.133.48-1.5.327-.367.767-.55,1.32-.55.407,0,.743.103,1.01.31s.427.487.48.84h.03l-.02-1.25v-1.6Zm0,3.8c0-.413-.107-.737-.32-.97s-.507-.35-.88-.35c-.38,0-.677.117-.89.35-.207.227-.31.55-.31.97v1.5c0,.42.103.747.31.98.213.227.51.34.89.34.373,0,.667-.117.88-.35s.32-.557.32-.97v-1.5Zm13.496-3.8h.9v7.3h-.9v-1.05h-.01c-.047.36-.203.643-.47.85-.267.2-.607.3-1.02.3-.553,0-.993-.183-1.32-.55-.32-.367-.48-.863-.48-1.49v-1.61c0-.633.16-1.133.48-1.5.327-.367.767-.55,1.32-.55.407,0,.743.103,1.01.31s.427.487.48.84h.03l-.02-1.25v-1.6Zm0,3.8c0-.413-.107-.737-.32-.97s-.507-.35-.88-.35c-.38,0-.677.117-.89.35-.207.227-.31.55-.31.97v1.5c0,.42.103.747.31.98.213.227.51.34.89.34.373,0,.667-.117.88-.35s.32-.557.32-.97v-1.5Zm12.756-2.1c.58,0,1.04.183,1.38.55.347.36.52.85.52,1.47v.33h-.9v-.25c0-.427-.107-.757-.32-.99-.207-.233-.503-.35-.89-.35-.38,0-.68.12-.9.36-.213.233-.32.56-.32.98v3.5h-.9v-5.5h.88v.98c.18-.72.663-1.08,1.45-1.08Zm15.176,3.07h-3.36v.53c0,.44.104.773.31,1c.214.227.524.34.93.34.7,0,1.1-.247,1.2-.74h.9c-.06.46-.28.827-.66,1.1-.38.267-.86.4-1.44.4-.646,0-1.163-.19-1.55-.57-.38-.38-.57-.89-.57-1.53v-1.5c0-.64.19-1.15.57-1.53.387-.38.904-.57,1.55-.57.647,0,1.16.19,1.54.57.387.38.58.89.58,1.53v.97Zm-3.36-.68h2.48v-.29c0-.44-.106-.773-.32-1-.206-.233-.513-.35-.92-.35-.406,0-.716.117-.93.35-.206.227-.31.56-.31,1v.29Zm14.516,3.31c-.56,0-1.01-.13-1.35-.39-.333-.26-.526-.613-.58-1.06h.9c.04.2.15.36.33.48.18.113.414.17.7.17h.42c.347,0,.607-.073.78-.22.18-.147.27-.343.27-.59c0-.453-.31-.73-.93-.83l-.74-.12c-.546-.087-.95-.253-1.21-.5-.26-.253-.39-.61-.39-1.07c0-.5.16-.887.48-1.16s.787-.41,1.4-.41h.38c.52,0,.94.127,1.26.38.327.247.524.583.59,1.01h-.9c-.04-.18-.143-.323-.31-.43-.166-.107-.38-.16-.64-.16h-.38c-.653,0-.98.26-.98.78c0,.22.064.387.19.5.134.107.347.183.64.23l.74.12c.594.093,1.024.267,1.29.52.274.253.41.62.41,1.1c0,.52-.166.927-.5,1.22-.326.287-.81.43-1.45.43h-.42Zm13.496,0c-.56,0-1.01-.13-1.35-.39-.333-.26-.526-.613-.58-1.06h.9c.04.2.15.36.33.48.18.113.414.17.7.17h.42c.347,0,.607-.073.78-.22.18-.147.27-.343.27-.59c0-.453-.31-.73-.93-.83l-.74-.12c-.546-.087-.95-.253-1.21-.5-.26-.253-.39-.61-.39-1.07c0-.5.16-.887.48-1.16s.787-.41,1.4-.41h.38c.52,0,.94.127,1.26.38.327.247.524.583.59,1.01h-.9c-.04-.18-.143-.323-.31-.43-.166-.107-.38-.16-.64-.16h-.38c-.653,0-.98.26-.98.78c0,.22.064.387.19.5.134.107.347.183.64.23l.74.12c.594.093,1.024.267,1.29.52.274.253.41.62.41,1.1c0,.52-.166.927-.5,1.22-.326.287-.81.43-1.45.43h-.42Zm14.737-3.95c.38.093.686.313.92.66.24.34.36.743.36,1.21c0,.633-.207,1.14-.62,1.52-.414.373-.974.56-1.68.56-.707,0-1.267-.183-1.681-.55-.413-.373-.619-.873-.619-1.5c0-.48.116-.893.35-1.24.24-.347.55-.567.93-.66-.34-.087-.614-.28-.82-.58-.207-.3-.31-.657-.31-1.07c0-.373.09-.703.27-.99s.43-.51.75-.67c.326-.16.703-.24,1.13-.24.426,0,.8.08,1.12.24.326.16.58.383.76.67s.27.617.27.99c0,.413-.104.77-.31,1.07-.207.3-.48.493-.82.58Zm-1.02-2.8c-.394,0-.697.107-.91.32-.207.213-.31.517-.31.91c0,.407.103.723.31.95.213.22.516.33.91.33.393,0,.693-.11.9-.33.213-.227.32-.543.32-.95c0-.393-.107-.697-.32-.91-.207-.213-.507-.32-.9-.32Zm0,6c.433,0,.77-.123,1.01-.37s.36-.597.36-1.05c0-.447-.12-.793-.36-1.04s-.577-.37-1.01-.37c-.434,0-.77.123-1.01.37s-.36.593-.36,1.04c0,.453.12.803.36,1.05s.576.37,1.01.37Zm13.516-4.94c.64,0,1.146.163,1.52.49.373.32.56.76.56,1.32v3.78h-.88v-1.05h-.01c-.027.347-.2.627-.52.84-.32.207-.72.31-1.2.31-.56,0-1.007-.147-1.34-.44-.334-.293-.5-.69-.5-1.19c0-.527.163-.94.49-1.24.333-.3.786-.45,1.36-.45h1.7v-.53c0-.333-.107-.59-.32-.77-.207-.187-.497-.28-.87-.28-.327,0-.597.067-.81.2-.214.133-.337.317-.37.55h-.9c.06-.467.28-.84.66-1.12s.856-.42,1.43-.42Zm-.32,4.98c.44,0,.8-.103,1.08-.31.28-.213.42-.49.42-.83v-.78h-1.68c-.3,0-.537.083-.71.25-.174.167-.26.397-.26.69c0,.307.103.547.31.72.206.173.486.26.84.26Zm12.606,2.41l.81-2.14-2.02-5.16h1l1.23,3.4c.066.193.143.46.23.8.08-.34.153-.607.22-.8l1.15-3.4h.97l-2.63,7.3h-.96Zm15.436-8.25c-.2,0-.36-.053-.48-.16-.114-.107-.17-.25-.17-.43s.06-.327.18-.44.276-.17.47-.17h.2c.193,0,.35.057.47.17s.18.26.18.44-.06.323-.18.43-.277.16-.47.16h-.2Zm-2.9,8.25v-.83h1.29c.413,0,.733-.113.96-.34.233-.22.35-.533.35-.94v-4.37h-2.3v-.82h3.2v5.19c0,.647-.2,1.16-.6,1.54s-.937.57-1.61.57h-1.29Zm15.646-1.7c-.673,0-1.21-.193-1.61-.58-.393-.393-.59-.917-.59-1.57v-3.2c0-.653.197-1.173.59-1.56.4-.393.937-.59,1.61-.59s1.207.197,1.6.59c.4.387.6.907.6,1.56v3.2c0,.653-.2,1.177-.6,1.57-.4.387-.933.58-1.6.58Zm0-.77c.4,0,.72-.127.96-.38.247-.26.37-.593.37-1v-3.2c0-.407-.123-.737-.37-.99-.24-.26-.56-.39-.96-.39s-.723.13-.97.39c-.24.253-.36.583-.36.99v3.2c0,.407.12.74.36,1c.247.253.57.38.97.38Zm0-2.38c-.147,0-.267-.05-.36-.15s-.14-.233-.14-.4v-.15c0-.167.047-.3.14-.4s.213-.15.36-.15c.153,0,.273.05.36.15.093.1.14.233.14.4v.15c0,.167-.047.3-.14.4-.087.1-.207.15-.36.15ZM4.23,124l-.88-5.5h.8l.55,3.9.12.9.14-.9.61-3.9h.86l.61,3.9.14.9.14-.9.57-3.9h.76L7.73,124h-.99l-.59-3.8-.16-1-.15,1-.62,3.8h-.99Zm15.2861-5.59c.64,0,1.1467.163,1.52.49.3733.32.56.76.56,1.32v3.78h-.88v-1.05h-.01c-.0267.347-.2.627-.52.84-.32.207-.72.31-1.2.31-.56,0-1.0067-.147-1.34-.44s-.5-.69-.5-1.19c0-.527.1633-.94.49-1.24.3333-.3.7867-.45,1.36-.45h1.7v-.53c0-.333-.1067-.59-.32-.77-.2067-.187-.4967-.28-.87-.28-.3267,0-.5967.067-.81.2s-.3367.317-.37.55h-.9c.06-.467.28-.84.66-1.12s.8567-.42,1.43-.42Zm-.32,4.98c.44,0,.8-.103,1.08-.31.28-.213.42-.49.42-.83v-.78h-1.68c-.3,0-.5367.083-.71.25s-.26.397-.26.69c0,.307.1033.547.31.72s.4867.26.84.26Zm13.8161-4.98c.64,0,1.1467.163,1.52.49.3733.32.56.76.56,1.32v3.78h-.88v-1.05h-.01c-.0267.347-.2.627-.52.84-.32.207-.72.31-1.2.31-.56,0-1.0067-.147-1.34-.44s-.5-.69-.5-1.19c0-.527.1633-.94.49-1.24.3333-.3.7867-.45,1.36-.45h1.7v-.53c0-.333-.1067-.59-.32-.77-.2067-.187-.4967-.28-.87-.28-.3267,0-.5967.067-.81.2s-.3367.317-.37.55h-.9c.06-.467.28-.84.66-1.12s.8567-.42,1.43-.42Zm-.32,4.98c.44,0,.8-.103,1.08-.31.28-.213.42-.49.42-.83v-.78h-1.68c-.3,0-.5367.083-.71.25s-.26.397-.26.69c0,.307.1033.547.31.72s.4867.26.84.26Zm13.8361.71c-.6667,0-1.1934-.187-1.58-.56-.3867-.373-.58-.887-.58-1.54v-1.5c0-.653.1933-1.167.58-1.54.3866-.373.9133-.56,1.58-.56.6333,0,1.1433.17,1.53.51.3866.34.59.803.61,1.39h-.9c-.02-.347-.14-.617-.36-.81-.2134-.193-.5067-.29-.88-.29-.3934,0-.7034.113-.93.34-.22.227-.33.543-.33.95v1.51c0,.413.11.733.33.96s.53.34.93.34c.3733,0,.6666-.097.88-.29.22-.193.34-.463.36-.81h.9c-.02.587-.2234,1.05-.61,1.39-.3867.34-.8967.51-1.53.51Zm12.8461-.1l-1.79-5.5h.92l1.17,3.7c.12.38.23.75.33,1.11.1-.36.21-.73.33-1.11l1.14-3.7h.91l-1.79,5.5h-1.22Zm15.3561-5.6c.34,0,.6066.13.8.39.1933.253.29.597.29,1.03v4.18h-.83v-4.19c0-.227-.05-.403-.15-.53-.0934-.127-.2334-.19-.42-.19-.18,0-.3234.063-.43.19-.1.12-.15.293-.15.52v4.2h-.72v-4.19c0-.227-.0534-.403-.16-.53-.1-.127-.2434-.19-.43-.19-.18,0-.32.063-.42.19-.0934.12-.14.293-.14.52v4.2h-.83v-5.5h.79v.66h.06c.04-.233.1366-.417.29-.55.16-.14.36-.21.6-.21.2266,0,.4166.067.57.2.1533.127.2633.313.33.56h.04c.0466-.233.15-.417.31-.55.16-.14.36-.21.6-.21Zm12.2761.98c.6333.027,1.1366.23,1.51.61.3733.373.56.87.56,1.49v.52c0,.413-.0934.78-.28,1.1-.18.32-.44.567-.78.74-.3334.173-.7167.26-1.15.26-.4334,0-.8167-.087-1.15-.26-.3334-.173-.59-.42-.77-.74s-.27-.687-.27-1.1h.9c0,.407.1133.727.34.96.2333.227.5533.34.96.34.4066,0,.7233-.117.95-.35.2333-.24.35-.557.35-.95v-.52c0-.413-.1134-.733-.34-.96-.2267-.227-.5467-.34-.96-.34h-.75v-.9l1.81-1.76h-2.96v-.82h3.87v.9l-1.84,1.78Zm13.4864-.97c.64,0,1.146.163,1.52.49.373.32.56.76.56,1.32v3.78h-.88v-1.05h-.01c-.027.347-.2.627-.52.84-.32.207-.72.31-1.2003.31-.56,0-1.0067-.147-1.34-.44s-.5-.69-.5-1.19c0-.527.1633-.94.49-1.24.3333-.3.7866-.45,1.36-.45h1.7003v-.53c0-.333-.107-.59-.32-.77-.207-.187-.497-.28-.87-.28-.327,0-.597.067-.8103.2-.2134.133-.3367.317-.37.55h-.9c.06-.467.28-.84.66-1.12s.8566-.42,1.4303-.42Zm-.32,4.98c.44,0,.8-.103,1.08-.31.28-.213.42-.49.42-.83v-.78h-1.6803c-.3,0-.5367.083-.71.25-.1734.167-.26.397-.26.69c0,.307.1033.547.31.72.2066.173.4866.26.8403.26Zm15.896.61h-4.2v-.9l3.08-3.78h-3v-.82h4.01v.9l-3.14,3.78h3.25v.82Zm11.416-5.59c.64,0,1.147.163,1.52.49.373.32.56.76.56,1.32v3.78h-.88v-1.05h-.01c-.027.347-.2.627-.52.84-.32.207-.72.31-1.2.31-.56,0-1.007-.147-1.34-.44s-.5-.69-.5-1.19c0-.527.163-.94.49-1.24.333-.3.787-.45,1.36-.45h1.7v-.53c0-.333-.107-.59-.32-.77-.207-.187-.497-.28-.87-.28-.327,0-.597.067-.81.2s-.337.317-.37.55h-.9c.06-.467.28-.84.66-1.12s.857-.42,1.43-.42Zm-.32,4.98c.44,0,.8-.103,1.08-.31.28-.213.42-.49.42-.83v-.78h-1.68c-.3,0-.537.083-.71.25s-.26.397-.26.69c0,.307.103.547.31.72s.487.26.84.26Zm13.836.71c-.667,0-1.193-.187-1.58-.56s-.58-.887-.58-1.54v-1.5c0-.653.193-1.167.58-1.54s.913-.56,1.58-.56c.633,0,1.143.17,1.53.51s.59.803.61,1.39h-.9c-.02-.347-.14-.617-.36-.81-.213-.193-.507-.29-.88-.29-.393,0-.703.113-.93.34-.22.227-.33.543-.33.95v1.51c0,.413.11.733.33.96s.53.34.93.34c.373,0,.667-.097.88-.29.22-.193.34-.463.36-.81h.9c-.02.587-.223,1.05-.61,1.39s-.897.51-1.53.51Zm13.356-4.2c-.22,0-.4-.07-.54-.21s-.21-.32-.21-.54c0-.213.07-.39.21-.53.147-.147.327-.22.54-.22h.2c.213,0,.39.073.53.22.147.14.22.317.22.53c0,.22-.07.4-.21.54s-.32.21-.54.21h-.2Zm-.4,5.7h-.8l.8-3.11h1.3l-1.3,3.11Zm14.016-7.19c.64,0,1.147.163,1.52.49.373.32.56.76.56,1.32v3.78h-.88v-1.05h-.01c-.027.347-.2.627-.52.84-.32.207-.72.31-1.2.31-.56,0-1.007-.147-1.34-.44s-.5-.69-.5-1.19c0-.527.163-.94.49-1.24.333-.3.787-.45,1.36-.45h1.7v-.53c0-.333-.107-.59-.32-.77-.207-.187-.497-.28-.87-.28-.327,0-.597.067-.81.2s-.337.317-.37.55h-.9c.06-.467.28-.84.66-1.12s.857-.42,1.43-.42Zm-.32,4.98c.44,0,.8-.103,1.08-.31.28-.213.42-.49.42-.83v-.78h-1.68c-.3,0-.537.083-.71.25s-.26.397-.26.69c0,.307.103.547.31.72s.487.26.84.26Zm14.976-6.69h.9v7.3h-.9v-1.05h-.01c-.046.36-.203.643-.47.85-.266.2-.606.3-1.02.3-.553,0-.993-.183-1.32-.55-.32-.367-.48-.863-.48-1.49v-1.61c0-.633.16-1.133.48-1.5.327-.367.767-.55,1.32-.55.407,0,.744.103,1.01.31.267.207.427.487.48.84h.03l-.02-1.25v-1.6Zm0,3.8c0-.413-.106-.737-.32-.97-.213-.233-.506-.35-.88-.35-.38,0-.676.117-.89.35-.206.227-.31.55-.31.97v1.5c0,.42.104.747.31.98.214.227.51.34.89.34.374,0,.667-.117.88-.35.214-.233.32-.557.32-.97v-1.5Zm14.716,3.5h-4.5v-.82h1.98v-5.73l-1.98,1.48v-1l1.65-1.23h1.23v6.48h1.62v.82Zm9.016,0v-.92l2.23-2.37c.38-.407.657-.767.83-1.08.174-.32.26-.627.26-.92c0-.407-.113-.727-.34-.96-.22-.233-.523-.35-.91-.35-.426,0-.763.12-1.01.36-.24.24-.36.57-.36.99h-.9c.02-.66.234-1.183.64-1.57.414-.387.957-.58,1.63-.58.66,0,1.184.19,1.57.57.387.373.58.883.58,1.53c0,.413-.11.823-.33,1.23s-.58.87-1.08,1.39l-1.8,1.86h3.33v.82h-4.34Zm15.597-5.59c.64,0,1.146.163,1.52.49.373.32.56.76.56,1.32v3.78h-.88v-1.05h-.01c-.027.347-.2.627-.52.84-.32.207-.72.31-1.2.31-.56,0-1.007-.147-1.34-.44-.334-.293-.5-.69-.5-1.19c0-.527.163-.94.49-1.24.333-.3.786-.45,1.36-.45h1.7v-.53c0-.333-.107-.59-.32-.77-.207-.187-.497-.28-.87-.28-.327,0-.597.067-.81.2-.214.133-.337.317-.37.55h-.9c.06-.467.28-.84.66-1.12s.856-.42,1.43-.42Zm-.32,4.98c.44,0,.8-.103,1.08-.31.28-.213.42-.49.42-.83v-.78h-1.68c-.3,0-.537.083-.71.25-.174.167-.26.397-.26.69c0,.307.103.547.31.72.206.173.486.26.84.26Zm14.996-4.89h.87v5.7c0,.5-.154.89-.46,1.17-.3.287-.72.43-1.26.43h-1.74v-.82h1.75c.28,0,.483-.063.61-.19.133-.127.2-.323.2-.59v-.7l.03-.7h-.13c-.087.273-.25.483-.49.63s-.54.22-.9.22c-.554,0-.994-.183-1.32-.55-.32-.367-.48-.867-.48-1.5v-1.16c0-.627.16-1.123.48-1.49.326-.367.766-.55,1.32-.55.36,0,.66.073.9.22s.403.357.49.63h.13v-.75Zm-.02,2c0-.413-.107-.737-.32-.97-.214-.233-.507-.35-.88-.35-.38,0-.677.117-.89.35-.207.227-.31.55-.31.97v1.05c0,.42.103.747.31.98.213.227.51.34.89.34.373,0,.666-.117.88-.35.213-.233.32-.557.32-.97v-1.05Zm12.216-.6c-.22,0-.4-.07-.54-.21s-.21-.32-.21-.54c0-.213.07-.39.21-.53.146-.147.326-.22.54-.22h.2c.213,0,.39.073.53.22.146.14.22.317.22.53c0,.22-.07.4-.21.54s-.32.21-.54.21h-.2Zm-.4,5.7h-.8l.8-3.11h1.3l-1.3,3.11Zm13.996-8.05c-.2,0-.36-.053-.48-.16-.114-.107-.17-.25-.17-.43s.06-.327.18-.44.276-.17.47-.17h.2c.193,0,.35.057.47.17s.18.26.18.44-.06.323-.18.43-.277.16-.47.16h-.2Zm2.5,6.45h-4.7v-.82h1.95v-3.86h-1.7v-.82h2.6v4.68h1.85v.82Zm12.246-5.6c.34,0,.607.13.8.39.193.253.29.597.29,1.03v4.18h-.83v-4.19c0-.227-.05-.403-.15-.53-.093-.127-.233-.19-.42-.19-.18,0-.323.063-.43.19-.1.12-.15.293-.15.52v4.2h-.72v-4.19c0-.227-.053-.403-.16-.53-.1-.127-.243-.19-.43-.19-.18,0-.32.063-.42.19-.093.12-.14.293-.14.52v4.2h-.83v-5.5h.79v.66h.06c.04-.233.137-.417.29-.55.16-.14.36-.21.6-.21.227,0,.417.067.57.2.153.127.263.313.33.56h.04c.047-.233.15-.417.31-.55.16-.14.36-.21.6-.21ZM8.4,140h-4.5v-.82h1.98v-5.73L3.9,134.93v-1l1.65-1.23h1.23v6.48h1.62v.82Zm9.0161,0v-.92l2.23-2.37c.38-.407.6567-.767.83-1.08.1733-.32.26-.627.26-.92c0-.407-.1133-.727-.34-.96-.22-.233-.5233-.35-.91-.35-.4267,0-.7633.12-1.01.36-.24.24-.36.57-.36.99h-.9c.02-.66.2333-1.183.64-1.57.4133-.387.9567-.58,1.63-.58.66,0,1.1833.19,1.57.57.3867.373.58.883.58,1.53c0,.413-.11.823-.33,1.23s-.58.87-1.08,1.39l-1.8,1.86h3.33v.82h-4.34Zm15.6161.1c-.6667,0-1.1933-.187-1.58-.56s-.58-.887-.58-1.54v-1.5c0-.653.1933-1.167.58-1.54s.9133-.56,1.58-.56c.6333,0,1.1433.17,1.53.51s.59.803.61,1.39h-.9c-.02-.347-.14-.617-.36-.81-.2133-.193-.5067-.29-.88-.29-.3933,0-.7033.113-.93.34-.22.227-.33.543-.33.95v1.51c0,.413.11.733.33.96s.53.34.93.34c.3733,0,.6667-.097.88-.29.22-.193.34-.463.36-.81h.9c-.02.587-.2233,1.05-.61,1.39s-.8967.51-1.53.51Zm15.5561-.1h-4.2v-.9l3.08-3.78h-3v-.82h4.01v.9l-3.14,3.78h3.25v.82Zm13.4961,0h-4.2v-.9l3.08-3.78h-3v-.82h4.01v.9l-3.14,3.78h3.25v.82Zm9.6261,0l-.88-5.5h.8l.55,3.9.12.9.14-.9.61-3.9h.86l.61,3.9.14.9.14-.9.57-3.9h.76l-.92,5.5h-.99l-.59-3.8-.16-1-.15,1-.62,3.8h-.99Zm16.4661-5.5h.87v5.7c0,.5-.1534.89-.46,1.17-.3.287-.72.43-1.26.43h-1.74v-.82h1.75c.28,0,.4833-.063.61-.19.1333-.127.2-.323.2-.59v-.7l.03-.7h-.13c-.0867.273-.25.483-.49.63s-.54.22-.9.22c-.5534,0-.9934-.183-1.32-.55-.32-.367-.48-.867-.48-1.5v-1.16c0-.627.16-1.123.48-1.49.3266-.367.7666-.55,1.32-.55.36,0,.66.073.9.22s.4033.357.49.63h.13v-.75Zm-.02,2c0-.413-.1067-.737-.32-.97-.2134-.233-.5067-.35-.88-.35-.38,0-.6767.117-.89.35-.2067.227-.31.55-.31.97v1.05c0,.42.1033.747.31.98.2133.227.51.34.89.34.3733,0,.6666-.117.88-.35.2133-.233.32-.557.32-.97v-1.05Zm12.6064-2.1c.553,0,.993.173,1.32.52.326.34.49.8.49,1.38v3.7h-.9v-3.6c0-.387-.107-.69-.32-.91-.207-.22-.49-.33-.85-.33-.38,0-.677.12-.8903.36-.2134.233-.32.56-.32.98v3.5h-.9v-7.3h.9v2.85h.01c.0466-.367.1966-.65.45-.85.2533-.2.5903-.3,1.0103-.3Zm13.246,5.7c-.667,0-1.194-.187-1.58-.56-.387-.373-.58-.887-.58-1.54v-1.5c0-.653.193-1.167.58-1.54.386-.373.913-.56,1.58-.56.633,0,1.143.17,1.53.51.386.34.59.803.61,1.39h-.9c-.02-.347-.14-.617-.36-.81-.214-.193-.507-.29-.88-.29-.394,0-.704.113-.93.34-.22.227-.33.543-.33.95v1.51c0,.413.11.733.33.96s.53.34.93.34c.373,0,.666-.097.88-.29.22-.193.34-.463.36-.81h.9c-.02.587-.224,1.05-.61,1.39-.387.34-.897.51-1.53.51Zm12.846-.1l-1.79-5.5h.92l1.17,3.7c.12.38.23.75.33,1.11.1-.36.21-.73.33-1.11l1.14-3.7h.91l-1.79,5.5h-1.22Zm15.356-5.6c.34,0,.607.13.8.39.193.253.29.597.29,1.03v4.18h-.83v-4.19c0-.227-.05-.403-.15-.53-.093-.127-.233-.19-.42-.19-.18,0-.323.063-.43.19-.1.12-.15.293-.15.52v4.2h-.72v-4.19c0-.227-.053-.403-.16-.53-.1-.127-.243-.19-.43-.19-.18,0-.32.063-.42.19-.093.12-.14.293-.14.52v4.2h-.83v-5.5h.79v.66h.06c.04-.233.137-.417.29-.55.16-.14.36-.21.6-.21.227,0,.417.067.57.2.153.127.263.313.33.56h.04c.047-.233.15-.417.31-.55.16-.14.36-.21.6-.21Zm12.276.98c.633.027,1.137.23,1.51.61.373.373.56.87.56,1.49v.52c0,.413-.093.78-.28,1.1-.18.32-.44.567-.78.74-.333.173-.717.26-1.15.26s-.817-.087-1.15-.26-.59-.42-.77-.74-.27-.687-.27-1.1h.9c0,.407.113.727.34.96.233.227.553.34.96.34s.723-.117.95-.35c.233-.24.35-.557.35-.95v-.52c0-.413-.113-.733-.34-.96s-.547-.34-.96-.34h-.75v-.9l1.81-1.76h-2.96v-.82h3.87v.9l-1.84,1.78Zm13.486-.97c.64,0,1.147.163,1.52.49.373.32.56.76.56,1.32v3.78h-.88v-1.05h-.01c-.027.347-.2.627-.52.84-.32.207-.72.31-1.2.31-.56,0-1.007-.147-1.34-.44s-.5-.69-.5-1.19c0-.527.163-.94.49-1.24.333-.3.787-.45,1.36-.45h1.7v-.53c0-.333-.107-.59-.32-.77-.207-.187-.497-.28-.87-.28-.327,0-.597.067-.81.2s-.337.317-.37.55h-.9c.06-.467.28-.84.66-1.12s.857-.42,1.43-.42Zm-.32,4.98c.44,0,.8-.103,1.08-.31.28-.213.42-.49.42-.83v-.78h-1.68c-.3,0-.537.083-.71.25s-.26.397-.26.69c0,.307.103.547.31.72s.487.26.84.26Zm15.896.61h-4.2v-.9l3.08-3.78h-3v-.82h4.01v.9l-3.14,3.78h3.25v.82Zm11.416-5.59c.64,0,1.147.163,1.52.49.374.32.56.76.56,1.32v3.78h-.88v-1.05h-.01c-.026.347-.2.627-.52.84-.32.207-.72.31-1.2.31-.56,0-1.006-.147-1.34-.44-.333-.293-.5-.69-.5-1.19c0-.527.164-.94.49-1.24.334-.3.787-.45,1.36-.45h1.7v-.53c0-.333-.106-.59-.32-.77-.206-.187-.496-.28-.87-.28-.326,0-.596.067-.81.2-.213.133-.336.317-.37.55h-.9c.06-.467.28-.84.66-1.12s.857-.42,1.43-.42Zm-.32,4.98c.44,0,.8-.103,1.08-.31.28-.213.42-.49.42-.83v-.78h-1.68c-.3,0-.536.083-.71.25-.173.167-.26.397-.26.69c0,.307.104.547.31.72.207.173.487.26.84.26Zm13.836.71c-.666,0-1.193-.187-1.58-.56-.386-.373-.58-.887-.58-1.54v-1.5c0-.653.194-1.167.58-1.54.387-.373.914-.56,1.58-.56.634,0,1.144.17,1.53.51.387.34.59.803.61,1.39h-.9c-.02-.347-.14-.617-.36-.81-.213-.193-.506-.29-.88-.29-.393,0-.703.113-.93.34-.22.227-.33.543-.33.95v1.51c0,.413.11.733.33.96s.53.34.93.34c.374,0,.667-.097.88-.29.22-.193.34-.463.36-.81h.9c-.02.587-.223,1.05-.61,1.39-.386.34-.896.51-1.53.51Zm14.207-6.55c-.2,0-.36-.053-.48-.16-.114-.107-.17-.25-.17-.43s.06-.327.18-.44.276-.17.47-.17h.2c.193,0,.35.057.47.17s.18.26.18.44-.06.323-.18.43-.277.16-.47.16h-.2Zm-2.9,8.25v-.83h1.29c.413,0,.733-.113.96-.34.233-.22.35-.533.35-.94v-4.37h-2.3v-.82h3.2v5.19c0,.647-.2,1.16-.6,1.54s-.937.57-1.61.57h-1.29Zm16.826-9.1h.9v7.3h-.9v-1.05h-.01c-.047.36-.204.643-.47.85-.267.2-.607.3-1.02.3-.554,0-.994-.183-1.32-.55-.32-.367-.48-.863-.48-1.49v-1.61c0-.633.16-1.133.48-1.5.326-.367.766-.55,1.32-.55.406,0,.743.103,1.01.31.266.207.426.487.48.84h.03l-.02-1.25v-1.6Zm0,3.8c0-.413-.107-.737-.32-.97-.214-.233-.507-.35-.88-.35-.38,0-.677.117-.89.35-.207.227-.31.55-.31.97v1.5c0,.42.103.747.31.98.213.227.51.34.89.34.373,0,.666-.117.88-.35.213-.233.32-.557.32-.97v-1.5Zm12.336-2.09c.64,0,1.146.163,1.52.49.373.32.56.76.56,1.32v3.78h-.88v-1.05h-.01c-.027.347-.2.627-.52.84-.32.207-.72.31-1.2.31-.56,0-1.007-.147-1.34-.44-.334-.293-.5-.69-.5-1.19c0-.527.163-.94.49-1.24.333-.3.786-.45,1.36-.45h1.7v-.53c0-.333-.107-.59-.32-.77-.207-.187-.497-.28-.87-.28-.327,0-.597.067-.81.2-.214.133-.337.317-.37.55h-.9c.06-.467.28-.84.66-1.12s.856-.42,1.43-.42Zm-.32,4.98c.44,0,.8-.103,1.08-.31.28-.213.42-.49.42-.83v-.78h-1.68c-.3,0-.537.083-.71.25-.174.167-.26.397-.26.69c0,.307.103.547.31.72.206.173.486.26.84.26Zm13.576.71c-.56,0-1.01-.13-1.35-.39-.334-.26-.527-.613-.58-1.06h.9c.04.2.15.36.33.48.18.113.413.17.7.17h.42c.346,0,.606-.073.78-.22.18-.147.27-.343.27-.59c0-.453-.31-.73-.93-.83l-.74-.12c-.547-.087-.95-.253-1.21-.5-.26-.253-.39-.61-.39-1.07c0-.5.16-.887.48-1.16s.786-.41,1.4-.41h.38c.52,0,.94.127,1.26.38.326.247.523.583.59,1.01h-.9c-.04-.18-.144-.323-.31-.43-.167-.107-.38-.16-.64-.16h-.38c-.654,0-.98.26-.98.78c0,.22.063.387.19.5.133.107.346.183.64.23l.74.12c.593.093,1.023.267,1.29.52.273.253.41.62.41,1.1c0,.52-.167.927-.5,1.22-.327.287-.81.43-1.45.43h-.42Zm14.896-7.4h.9v7.3h-.9v-1.05h-.01c-.047.36-.203.643-.47.85-.267.2-.607.3-1.02.3-.553,0-.993-.183-1.32-.55-.32-.367-.48-.863-.48-1.49v-1.61c0-.633.16-1.133.48-1.5.327-.367.767-.55,1.32-.55.407,0,.743.103,1.01.31s.427.487.48.84h.03l-.02-1.25v-1.6Zm0,3.8c0-.413-.107-.737-.32-.97s-.507-.35-.88-.35c-.38,0-.677.117-.89.35-.207.227-.31.55-.31.97v1.5c0,.42.103.747.31.98.213.227.51.34.89.34.373,0,.667-.117.88-.35s.32-.557.32-.97v-1.5ZM8.4,156h-4.5v-.82h1.98v-5.73L3.9,150.93v-1l1.65-1.23h1.23v6.48h1.62v.82Zm9.0161,0v-.92l2.23-2.37c.38-.407.6567-.767.83-1.08.1733-.32.26-.627.26-.92c0-.407-.1133-.727-.34-.96-.22-.233-.5233-.35-.91-.35-.4267,0-.7633.12-1.01.36-.24.24-.36.57-.36.99h-.9c.02-.66.2333-1.183.64-1.57.4133-.387.9567-.58,1.63-.58.66,0,1.1833.19,1.57.57.3867.373.58.883.58,1.53c0,.413-.11.823-.33,1.23s-.58.87-1.08,1.39l-1.8,1.86h3.33v.82h-4.34Zm16.3261-6.45c-.2,0-.36-.053-.48-.16-.1133-.107-.17-.25-.17-.43s.06-.327.18-.44.2767-.17.47-.17h.2c.1933,0,.35.057.47.17s.18.26.18.44-.06.323-.18.43-.2767.16-.47.16h-.2Zm-2.9,8.25v-.83h1.29c.4133,0,.7333-.113.96-.34.2333-.22.35-.533.35-.94v-4.37h-2.3v-.82h3.2v5.19c0,.647-.2,1.16-.6,1.54s-.9367.57-1.61.57h-1.29Zm15.4261-1.7c-.56,0-1.01-.13-1.35-.39-.3334-.26-.5267-.613-.58-1.06h.9c.04.2.15.36.33.48.18.113.4133.17.7.17h.42c.3466,0,.6066-.073.78-.22.18-.147.27-.343.27-.59c0-.453-.31-.73-.93-.83l-.74-.12c-.5467-.087-.95-.253-1.21-.5-.26-.253-.39-.61-.39-1.07c0-.5.16-.887.48-1.16s.7866-.41,1.4-.41h.38c.52,0,.94.127,1.26.38.3266.247.5233.583.59,1.01h-.9c-.04-.18-.1434-.323-.31-.43s-.38-.16-.64-.16h-.38c-.6534,0-.98.26-.98.78c0,.22.0633.387.19.5.1333.107.3466.183.64.23l.74.12c.5933.093,1.0233.267,1.29.52.2733.253.41.62.41,1.1c0,.52-.1667.927-.5,1.22-.3267.287-.81.43-1.45.43h-.42Zm13.7161-6.55c-.2,0-.36-.053-.48-.16-.1134-.107-.17-.25-.17-.43s.06-.327.18-.44.2766-.17.47-.17h.2c.1933,0,.35.057.47.17s.18.26.18.44-.06.323-.18.43-.2767.16-.47.16h-.2Zm2.5,6.45h-4.7v-.82h1.95v-3.86h-1.7v-.82h2.6v4.68h1.85v.82Zm11.0361.1c-.6667,0-1.1934-.187-1.58-.56-.3867-.373-.58-.887-.58-1.54v-1.5c0-.653.1933-1.167.58-1.54.3866-.373.9133-.56,1.58-.56.6333,0,1.1433.17,1.53.51.3866.34.59.803.61,1.39h-.9c-.02-.347-.14-.617-.36-.81-.2134-.193-.5067-.29-.88-.29-.3934,0-.7034.113-.93.34-.22.227-.33.543-.33.95v1.51c0,.413.11.733.33.96s.53.34.93.34c.3733,0,.6666-.097.88-.29.22-.193.34-.463.36-.81h.9c-.02.587-.2234,1.05-.61,1.39-.3867.34-.8967.51-1.53.51Zm13.7761-5.7c.5533,0,.99.183,1.31.55.3266.367.49.867.49,1.5v1.61c0,.627-.1634,1.123-.49,1.49-.32.367-.7567.55-1.31.55-.4134,0-.7534-.1-1.02-.3-.2667-.207-.4234-.49-.47-.85h-.01v1.05h-.9v-7.3h.9v1.6l-.02,1.25h.03c.0533-.353.2133-.633.48-.84.2666-.207.6033-.31,1.01-.31Zm.9,2.1c0-.42-.1067-.743-.32-.97-.2067-.233-.5-.35-.88-.35-.3734,0-.6667.117-.88.35-.2134.233-.32.557-.32.97v1.5c0,.413.1066.737.32.97.2133.233.5066.35.88.35.38,0,.6733-.113.88-.34.2133-.233.32-.56.32-.98v-1.5Zm12.0564,3.6c-.5603,0-1.0103-.13-1.3503-.39-.3334-.26-.5267-.613-.58-1.06h.9c.04.2.15.36.33.48.18.113.4133.17.7003.17h.42c.346,0,.606-.073.78-.22.18-.147.27-.343.27-.59c0-.453-.31-.73-.93-.83l-.74-.12c-.547-.087-.9503-.253-1.2103-.5-.26-.253-.39-.61-.39-1.07c0-.5.16-.887.48-1.16s.7866-.41,1.4003-.41h.38c.52,0,.94.127,1.26.38.326.247.523.583.59,1.01h-.9c-.04-.18-.144-.323-.31-.43-.167-.107-.38-.16-.64-.16h-.38c-.6537,0-.9803.26-.9803.78c0,.22.0633.387.19.5.1333.107.3466.183.6403.23l.74.12c.593.093,1.023.267,1.29.52.273.253.41.62.41,1.1c0,.52-.167.927-.5,1.22-.327.287-.81.43-1.45.43h-.42Zm14.966-5.7c.34,0,.606.13.8.39.193.253.29.597.29,1.03v4.18h-.83v-4.19c0-.227-.05-.403-.15-.53-.094-.127-.234-.19-.42-.19-.18,0-.324.063-.43.19-.1.12-.15.293-.15.52v4.2h-.72v-4.19c0-.227-.054-.403-.16-.53-.1-.127-.244-.19-.43-.19-.18,0-.32.063-.42.19-.094.12-.14.293-.14.52v4.2h-.83v-5.5h.79v.66h.06c.04-.233.136-.417.29-.55.16-.14.36-.21.6-.21.226,0,.416.067.57.2.153.127.263.313.33.56h.04c.046-.233.15-.417.31-.55.16-.14.36-.21.6-.21Zm11.096,5.6h-.9v-7.3h.9v4.07h.96l1.6-2.27h1.03l-1.85,2.62l1.88,2.88h-1.05l-1.6-2.45h-.97v2.45Zm15.296,0c-.487,0-.877-.14-1.17-.42-.287-.287-.43-.663-.43-1.13v-4.93h-1.65v-.82h2.55v5.75c0,.227.063.407.19.54.127.127.297.19.51.19h1.85v.82h-1.85Zm12.846.1c-.653,0-1.17-.187-1.55-.56s-.57-.887-.57-1.54v-1.5c0-.653.19-1.167.57-1.54s.897-.56,1.55-.56s1.17.187,1.55.56.57.883.57,1.53v1.51c0,.653-.19,1.167-.57,1.54s-.897.56-1.55.56Zm0-.8c.393,0,.693-.11.9-.33.213-.227.32-.55.32-.97v-1.5c0-.42-.107-.74-.32-.96-.207-.227-.507-.34-.9-.34s-.697.113-.91.34c-.207.22-.31.54-.31.96v1.5c0,.42.103.743.31.97.213.22.517.33.91.33Zm11.726.7l-.88-5.5h.8l.55,3.9.12.9.14-.9.61-3.9h.86l.61,3.9.14.9.14-.9.57-3.9h.76l-.92,5.5h-.99l-.59-3.8-.16-1-.15,1-.62,3.8h-.99Zm17.416-2.9h-4.3v-.8h4.3v.8Zm13.746,2.9h-4.5v-.82h1.98v-5.73l-1.98,1.48v-1l1.65-1.23h1.23v6.48h1.62v.82Zm9.796,1.1h-.95l3.55-9.4h.95l-3.55,9.4Zm12.717-1.1v-.92l2.23-2.37c.38-.407.656-.767.83-1.08.173-.32.26-.627.26-.92c0-.407-.114-.727-.34-.96-.22-.233-.524-.35-.91-.35-.427,0-.764.12-1.01.36-.24.24-.36.57-.36.99h-.9c.02-.66.233-1.183.64-1.57.413-.387.956-.58,1.63-.58.66,0,1.183.19,1.57.57.386.373.579.883.579,1.53c0,.413-.109.823-.329,1.23s-.58.87-1.08,1.39l-1.8,1.86h3.33v.82h-4.34Zm17.576,0h-.9v-1.6h-3.3v-1.41l2.89-4.29h.98l-2.97,4.48v.4h2.4v-1.78h.9v4.2Zm12.246-6.45c-.2,0-.36-.053-.48-.16-.114-.107-.17-.25-.17-.43s.06-.327.18-.44.276-.17.47-.17h.2c.193,0,.35.057.47.17s.18.26.18.44-.06.323-.18.43-.277.16-.47.16h-.2Zm-2.9,8.25v-.83h1.29c.413,0,.733-.113.96-.34.233-.22.35-.533.35-.94v-4.37h-2.3v-.82h3.2v5.19c0,.647-.2,1.16-.6,1.54s-.937.57-1.61.57h-1.29Zm16.896-7.4c.34,0,.606.13.8.39.193.253.29.597.29,1.03v4.18h-.83v-4.19c0-.227-.05-.403-.15-.53-.094-.127-.234-.19-.42-.19-.18,0-.324.063-.43.19-.1.12-.15.293-.15.52v4.2h-.72v-4.19c0-.227-.054-.403-.16-.53-.1-.127-.244-.19-.43-.19-.18,0-.32.063-.42.19-.094.12-.14.293-.14.52v4.2h-.83v-5.5h.79v.66h.06c.04-.233.136-.417.29-.55.16-.14.36-.21.6-.21.226,0,.416.067.57.2.153.127.263.313.33.56h.04c.046-.233.15-.417.31-.55.16-.14.36-.21.6-.21Zm12.026,5.7c-.56,0-1.01-.13-1.35-.39-.333-.26-.527-.613-.58-1.06h.9c.04.2.15.36.33.48.18.113.413.17.7.17h.42c.347,0,.607-.073.78-.22.18-.147.27-.343.27-.59c0-.453-.31-.73-.93-.83l-.74-.12c-.547-.087-.95-.253-1.21-.5-.26-.253-.39-.61-.39-1.07c0-.5.16-.887.48-1.16s.787-.41,1.4-.41h.38c.52,0,.94.127,1.26.38.327.247.523.583.59,1.01h-.9c-.04-.18-.143-.323-.31-.43s-.38-.16-.64-.16h-.38c-.653,0-.98.26-.98.78c0,.22.063.387.19.5.133.107.347.183.64.23l.74.12c.593.093,1.023.267,1.29.52.273.253.41.62.41,1.1c0,.52-.167.927-.5,1.22-.327.287-.81.43-1.45.43h-.42ZM7.18,164.7h.9v7.3h-.9v-1.05h-.01c-.04667.36-.20333.643-.47.85-.26667.2-.60667.3-1.02.3-.55333,0-.99333-.183-1.32-.55-.32-.367-.48-.863-.48-1.49v-1.61c0-.633.16-1.133.48-1.5.32667-.367.76667-.55,1.32-.55.40667,0,.74333.103,1.01.31s.42667.487.48.84h.03l-.02-1.25v-1.6Zm0,3.8c0-.413-.10667-.737-.32-.97s-.50667-.35-.88-.35c-.38,0-.67667.117-.89.35-.20667.227-.31.55-.31.97v1.5c0,.42.10333.747.31.98.21333.227.51.34.89.34.37333,0,.66667-.117.88-.35s.32-.557.32-.97v-1.5ZM21.8961,172h-4.5v-.82h1.98v-5.73l-1.98,1.48v-1l1.65-1.23h1.23v6.48h1.62v.82Zm9.0161,0v-.92l2.23-2.37c.38-.407.6567-.767.83-1.08.1733-.32.26-.627.26-.92c0-.407-.1133-.727-.34-.96-.22-.233-.5233-.35-.91-.35-.4267,0-.7633.12-1.01.36-.24.24-.36.57-.36.99h-.9c.02-.66.2333-1.183.64-1.57.4133-.387.9567-.58,1.63-.58.66,0,1.1833.19,1.57.57.3867.373.58.883.58,1.53c0,.413-.11.823-.33,1.23s-.58.87-1.08,1.39l-1.8,1.86h3.33v.82h-4.34Zm15.6161.1c-.6667,0-1.1934-.187-1.58-.56-.3867-.373-.58-.887-.58-1.54v-1.5c0-.653.1933-1.167.58-1.54.3866-.373.9133-.56,1.58-.56.6333,0,1.1433.17,1.53.51.3866.34.59.803.61,1.39h-.9c-.02-.347-.14-.617-.36-.81-.2134-.193-.5067-.29-.88-.29-.3934,0-.7034.113-.93.34-.22.227-.33.543-.33.95v1.51c0,.413.11.733.33.96s.53.34.93.34c.3733,0,.6666-.097.88-.29.22-.193.34-.463.36-.81h.9c-.02.587-.2234,1.05-.61,1.39-.3867.34-.8967.51-1.53.51Zm15.5561-.1h-4.2v-.9l3.08-3.78h-3v-.82h4.01v.9l-3.14,3.78h3.25v.82Zm13.4961,0h-4.2v-.9l3.08-3.78h-3v-.82h4.01v.9l-3.14,3.78h3.25v.82Zm9.6261,0l-.88-5.5h.8l.55,3.9.12.9.14-.9.61-3.9h.86l.61,3.9.14.9.14-.9.57-3.9h.76l-.92,5.5h-.99l-.59-3.8-.16-1-.15,1-.62,3.8h-.99Zm16.4664-5.5h.87v5.7c0,.5-.154.89-.46,1.17-.3.287-.72.43-1.26.43h-1.7403v-.82h1.7503c.28,0,.483-.063.61-.19.133-.127.2-.323.2-.59v-.7l.03-.7h-.13c-.087.273-.25.483-.49.63s-.54.22-.9.22c-.5537,0-.9937-.183-1.3203-.55-.32-.367-.48-.867-.48-1.5v-1.16c0-.627.16-1.123.48-1.49.3266-.367.7666-.55,1.3203-.55.36,0,.66.073.9.22s.403.357.49.63h.13v-.75Zm-.02,2c0-.413-.107-.737-.32-.97-.214-.233-.507-.35-.88-.35-.38,0-.677.117-.8903.35-.2067.227-.31.55-.31.97v1.05c0,.42.1033.747.31.98.2133.227.5103.34.8903.34.373,0,.666-.117.88-.35.213-.233.32-.557.32-.97v-1.05Zm12.606-2.1c.553,0,.993.173,1.32.52.326.34.49.8.49,1.38v3.7h-.9v-3.6c0-.387-.107-.69-.32-.91-.207-.22-.49-.33-.85-.33-.38,0-.677.12-.89.36-.214.233-.32.56-.32.98v3.5h-.9v-7.3h.9v2.85h.01c.046-.367.196-.65.45-.85.253-.2.59-.3,1.01-.3Zm12.056,5.6h-.9v-7.3h.9v4.07h.96l1.6-2.27h1.03l-1.85,2.62l1.88,2.88h-1.05l-1.6-2.45h-.97v2.45Zm14.666-5.59c.64,0,1.147.163,1.52.49.373.32.56.76.56,1.32v3.78h-.88v-1.05h-.01c-.027.347-.2.627-.52.84-.32.207-.72.31-1.2.31-.56,0-1.007-.147-1.34-.44s-.5-.69-.5-1.19c0-.527.163-.94.49-1.24.333-.3.787-.45,1.36-.45h1.7v-.53c0-.333-.107-.59-.32-.77-.207-.187-.497-.28-.87-.28-.327,0-.597.067-.81.2s-.337.317-.37.55h-.9c.06-.467.28-.84.66-1.12s.857-.42,1.43-.42Zm-.32,4.98c.44,0,.8-.103,1.08-.31.28-.213.42-.49.42-.83v-.78h-1.68c-.3,0-.537.083-.71.25s-.26.397-.26.69c0,.307.103.547.31.72s.487.26.84.26Zm13.186.61l-1.79-5.5h.92l1.17,3.7c.12.38.23.75.33,1.11.1-.36.21-.73.33-1.11l1.14-3.7h.91l-1.79,5.5h-1.22Zm15.356-5.6c.34,0,.607.13.8.39.193.253.29.597.29,1.03v4.18h-.83v-4.19c0-.227-.05-.403-.15-.53-.093-.127-.233-.19-.42-.19-.18,0-.323.063-.43.19-.1.12-.15.293-.15.52v4.2h-.72v-4.19c0-.227-.053-.403-.16-.53-.1-.127-.243-.19-.43-.19-.18,0-.32.063-.42.19-.093.12-.14.293-.14.52v4.2h-.83v-5.5h.79v.66h.06c.04-.233.137-.417.29-.55.16-.14.36-.21.6-.21.227,0,.417.067.57.2.153.127.263.313.33.56h.04c.047-.233.15-.417.31-.55.16-.14.36-.21.6-.21Zm12.276.98c.634.027,1.137.23,1.51.61.374.373.56.87.56,1.49v.52c0,.413-.093.78-.28,1.1-.18.32-.44.567-.78.74-.333.173-.716.26-1.15.26-.433,0-.816-.087-1.15-.26-.333-.173-.59-.42-.77-.74s-.27-.687-.27-1.1h.9c0,.407.114.727.34.96.234.227.554.34.96.34.407,0,.724-.117.95-.35.234-.24.35-.557.35-.95v-.52c0-.413-.113-.733-.34-.96-.226-.227-.546-.34-.96-.34h-.75v-.9l1.81-1.76h-2.96v-.82h3.87v.9l-1.84,1.78Zm13.486-.97c.64,0,1.147.163,1.52.49.374.32.56.76.56,1.32v3.78h-.88v-1.05h-.01c-.026.347-.2.627-.52.84-.32.207-.72.31-1.2.31-.56,0-1.006-.147-1.34-.44-.333-.293-.5-.69-.5-1.19c0-.527.164-.94.49-1.24.334-.3.787-.45,1.36-.45h1.7v-.53c0-.333-.106-.59-.32-.77-.206-.187-.496-.28-.87-.28-.326,0-.596.067-.81.2-.213.133-.336.317-.37.55h-.9c.06-.467.28-.84.66-1.12s.857-.42,1.43-.42Zm-.32,4.98c.44,0,.8-.103,1.08-.31.28-.213.42-.49.42-.83v-.78h-1.68c-.3,0-.536.083-.71.25-.173.167-.26.397-.26.69c0,.307.104.547.31.72.207.173.487.26.84.26Zm15.896.61h-4.2v-.9l3.08-3.78h-3v-.82h4.01v.9l-3.14,3.78h3.25v.82Zm11.417-5.59c.64,0,1.146.163,1.52.49.373.32.56.76.56,1.32v3.78h-.88v-1.05h-.01c-.027.347-.2.627-.52.84-.32.207-.72.31-1.2.31-.56,0-1.007-.147-1.34-.44-.334-.293-.5-.69-.5-1.19c0-.527.163-.94.49-1.24.333-.3.786-.45,1.36-.45h1.7v-.53c0-.333-.107-.59-.32-.77-.207-.187-.497-.28-.87-.28-.327,0-.597.067-.81.2-.214.133-.337.317-.37.55h-.9c.06-.467.28-.84.66-1.12s.856-.42,1.43-.42Zm-.32,4.98c.44,0,.8-.103,1.08-.31.28-.213.42-.49.42-.83v-.78h-1.68c-.3,0-.537.083-.71.25-.174.167-.26.397-.26.69c0,.307.103.547.31.72.206.173.486.26.84.26Zm13.836.71c-.667,0-1.194-.187-1.58-.56-.387-.373-.58-.887-.58-1.54v-1.5c0-.653.193-1.167.58-1.54.386-.373.913-.56,1.58-.56.633,0,1.143.17,1.53.51.386.34.59.803.61,1.39h-.9c-.02-.347-.14-.617-.36-.81-.214-.193-.507-.29-.88-.29-.394,0-.704.113-.93.34-.22.227-.33.543-.33.95v1.51c0,.413.11.733.33.96s.53.34.93.34c.373,0,.666-.097.88-.29.22-.193.34-.463.36-.81h.9c-.02.587-.224,1.05-.61,1.39-.387.34-.897.51-1.53.51Zm15.576-2.63h-3.36v.53c0,.44.103.773.31,1c.213.227.523.34.93.34.7,0,1.1-.247,1.2-.74h.9c-.06.46-.28.827-.66,1.1-.38.267-.86.4-1.44.4-.647,0-1.164-.19-1.55-.57-.38-.38-.57-.89-.57-1.53v-1.5c0-.64.19-1.15.57-1.53.386-.38.903-.57,1.55-.57.646,0,1.16.19,1.54.57.386.38.58.89.58,1.53v.97Zm-3.36-.68h2.48v-.29c0-.44-.107-.773-.32-1-.207-.233-.514-.35-.92-.35-.407,0-.717.117-.93.35-.207.227-.31.56-.31,1v.29Zm15.486-3.24c-.2,0-.36-.053-.48-.16-.114-.107-.17-.25-.17-.43s.06-.327.18-.44.276-.17.47-.17h.2c.193,0,.35.057.47.17s.18.26.18.44-.06.323-.18.43-.277.16-.47.16h-.2Zm-2.9,8.25v-.83h1.29c.413,0,.733-.113.96-.34.233-.22.35-.533.35-.94v-4.37h-2.3v-.82h3.2v5.19c0,.647-.2,1.16-.6,1.54s-.937.57-1.61.57h-1.29Zm16.296-1.8c-.487,0-.877-.14-1.17-.42-.287-.287-.43-.663-.43-1.13v-4.93h-1.65v-.82h2.55v5.75c0,.227.063.407.19.54.127.127.297.19.51.19h1.85v.82h-1.85Z" fill="#edb034" fill-opacity="0.3"/><line id="exq8NsGkQ1Z3" x1="-58.996373" y1="0" x2="49.282225" y2="0" transform="translate(118.730775 40.919452)" fill="none" stroke="#edb034" stroke-width="10" stroke-linecap="round" stroke-dashoffset="108.28" stroke-dasharray="108.28"/><line id="exq8NsGkQ1Z4" x1="-58.996373" y1="0" x2="36.299225" y2="0" transform="translate(212.730775 56.919452)" fill="none" stroke="#edb034" stroke-width="10" stroke-linecap="round" stroke-dashoffset="108.28" stroke-dasharray="108.28"/><line id="exq8NsGkQ1Z5" x1="-58.996373" y1="0" x2="96.299225" y2="0" transform="translate(118.730775 104.919452)" fill="none" stroke="#edb034" stroke-width="10" stroke-linecap="round" stroke-dashoffset="155.3" stroke-dasharray="155.3"/></svg>
