<svg id="eLQIvBRGz3n1" xmlns="http://www.w3.org/2000/svg" xmlns:xlink="http://www.w3.org/1999/xlink" viewBox="0 0 290 198" shape-rendering="geometricPrecision" text-rendering="geometricPrecision" project-id="4a4568650d69497e81695943988c88c7" export-id="c7632189e87f448db319a9828e057387" cached="false">
<style><![CDATA[
#eLQIvBRGz3n20 {animation-name: eLQIvBRGz3n20_c_o, eLQIvBRGz3n20_s_do;animation-duration: 2000ms;animation-fill-mode: forwards;animation-timing-function: linear;animation-direction: normal;animation-iteration-count: infinite;}@keyframes eLQIvBRGz3n20_c_o { 0% {opacity: 1} 60% {opacity: 1} 75% {opacity: 0} 100% {opacity: 0}}@keyframes eLQIvBRGz3n20_s_do { 0% {stroke-dashoffset: 339.13;animation-timing-function: cubic-bezier(0.445,0.05,0.55,0.95)} 60% {stroke-dashoffset: 0} 100% {stroke-dashoffset: 0}}
]]></style>
<g transform="translate(.25-.000028)"><path d="M5.02539,4.66406c.55207.00025,1,.44787,1,1s-.44793.99975-1,1h-.02539c-.55228,0-1-.44771-1-1s.44772-1,1-1h.02539Zm13.30861,0c.5523,0,1,.44772,1,1s-.4477,1-1,1h-.0498c-.5521-.00022-1-.44785-1-1s.4479-.99977,1-1h.0498Zm13.3096,0c.5522,0,1,.44772,1,1s-.4478,1-1,1h-.0498c-.5522-.0002-1-.44784-1-1s.4478-.9998,1-1h.0498Zm13.3095,0c.5523,0,1,.44772,1,1s-.4477,1-1,1h-.0498c-.5521-.00017-1-.44782-1-1s.4479-.99982,1-1h.0498Zm13.3096,0c.5523,0,1,.44772,1,1s-.4477,1-1,1h-.0498c-.5522-.00015-1-.44781-1-1s.4478-.99985,1-1h.0498Zm13.3096,0c.5523,0,1,.44772,1,1s-.4477,1-1,1h-.0498c-.5522-.00012-1-.44779-1-1s.4478-.99987,1-1h.0498Zm13.3095,0c.5523,0,1,.44772,1,1s-.4477,1-1,1h-.0498c-.5522-.0001-1-.44777-1-1s.4478-.9999,1-1h.0498Zm13.3096,0c.5523,0,1,.44772,1,1s-.4477,1-1,1h-.0498c-.5522-.00007-1-.44776-1-1s.4478-.99992,1-1h.0498Zm13.3096,0c.552,0,1,.44772,1,1s-.448,1-1,1h-.05c-.552-.00005-1-.44774-1-1s.448-.99995,1-1h.05Zm13.31,0c.552,0,1,.44772,1,1s-.448,1-1,1h-.05c-.553-.00002-1-.44773-1-1s.447-.99997,1-1h.05Zm13.309,0c.552,0,1,.44772,1,1s-.448,1-1,1h-.05c-.552,0-1-.44771-1-1s.448-1,1-1h.05Zm13.31,0c.552,0,1,.44772,1,1s-.448,1-1,1h-.05c-.552,0-1-.44771-1-1s.448-1,1-1h.05Zm13.309,0c.553.00002,1,.44773,1,1s-.447.99999-1,1h-.05c-.552,0-1-.44771-1-1s.448-1,1-1h.05Zm13.31,0c.552.00005,1,.44775,1,1s-.448.99995-1,1h-.05c-.552,0-1-.44771-1-1s.448-1,1-1h.05Zm13.309,0c.553.00008,1,.44776,1,1s-.447.99993-1,1h-.049c-.553,0-1-.44771-1-1s.447-1,1-1h.049Zm13.31,0c.552.0001,1,.44778,1,1s-.448.9999-1,1h-.05c-.552,0-1-.44771-1-1s.448-1,1-1h.05Zm13.31,0c.552.00013,1,.44779,1,1s-.448.99988-1,1h-.05c-.553,0-1-.44771-1-1s.447-1,1-1h.05Zm13.309,0c.552.00015,1,.44781,1,1s-.448.99985-1,1h-.05c-.552,0-1-.44771-1-1s.448-1,1-1h.05Zm13.31,0c.552.00018,1,.44782,1,1s-.448.99983-1,1h-.05c-.552,0-1-.44771-1-1s.448-1,1-1h.05Zm13.309,0c.552.0002,1,.44784,1,1s-.448.9998-1,1h-.05c-.552,0-1-.44771-1-1s.448-1,1-1h.05Zm13.31,0c.552.00023,1,.44786,1,1s-.448.99977-1,1h-.05c-.552,0-1-.44771-1-1s.448-1,1-1h.05Zm13.284,0c.552,0,1,.44772,1,1s-.448,1-1,1h-.025c-.552-.00024-1-.44787-1-1s.448-.99975,1-1h.025Z" fill="#edb034" fill-opacity="0.3"/><path d="M5.02539,17c.55207.0003,1,.4479,1,1s-.44793.9997-1,1L5,19c-.55228,0-1-.4477-1-1s.44772-1,1-1h.02539ZM18.334,17c.5523,0,1,.4477,1,1s-.4477,1-1,1h-.0498c-.5521-.0002-1-.4479-1-1s.4479-.9998,1-1h.0498Zm13.3096,0c.5522,0,1,.4477,1,1s-.4478,1-1,1h-.0498c-.5522-.0002-1-.4478-1-1s.4478-.9998,1-1h.0498Zm13.3095,0c.5523,0,1,.4477,1,1s-.4477,1-1,1h-.0498c-.5521-.0002-1-.4478-1-1s.4479-.9998,1-1h.0498Zm13.3096,0c.5523,0,1,.4477,1,1s-.4477,1-1,1h-.0498c-.5522-.0002-1-.4478-1-1s.4478-.9998,1-1h.0498Zm13.3096,0c.5523,0,1,.4477,1,1s-.4477,1-1,1h-.0498c-.5522-.0001-1-.4478-1-1s.4478-.9999,1-1h.0498Zm13.3095,0c.5523,0,1,.4477,1,1s-.4477,1-1,1h-.0498c-.5522-.0001-1-.4478-1-1s.4478-.9999,1-1h.0498Zm13.3096,0c.5523,0,1,.4477,1,1s-.4477,1-1,1h-.0498c-.5522-.0001-1-.4478-1-1s.4478-.9999,1-1h.0498Zm13.3096,0c.552,0,1,.4477,1,1s-.448,1-1,1h-.05c-.552,0-1-.4477-1-1s.448-1,1-1h.05Zm13.31,0c.552,0,1,.4477,1,1s-.448,1-1,1h-.05c-.553,0-1-.4477-1-1s.447-1,1-1h.05Zm13.309,0c.552,0,1,.4477,1,1s-.448,1-1,1h-.05c-.552,0-1-.4477-1-1s.448-1,1-1h.05Zm13.31,0c.552,0,1,.4477,1,1s-.448,1-1,1h-.05c-.552,0-1-.4477-1-1s.448-1,1-1h.05Zm13.309,0c.553,0,1,.4477,1,1s-.447,1-1,1h-.05c-.552,0-1-.4477-1-1s.448-1,1-1h.05Zm13.31,0c.552,0,1,.4477,1,1s-.448,1-1,1h-.05c-.552,0-1-.4477-1-1s.448-1,1-1h.05Zm13.309,0c.553.0001,1,.4478,1,1s-.447.9999-1,1h-.049c-.553,0-1-.4477-1-1s.447-1,1-1h.049Zm13.31,0c.552.0001,1,.4478,1,1s-.448.9999-1,1h-.05c-.552,0-1-.4477-1-1s.448-1,1-1h.05Zm13.31,0c.552.0001,1,.4478,1,1s-.448.9999-1,1h-.05c-.553,0-1-.4477-1-1s.447-1,1-1h.05Zm13.309,0c.552.0001,1,.4478,1,1s-.448.9999-1,1h-.05c-.552,0-1-.4477-1-1s.448-1,1-1h.05Zm13.31,0c.552.0002,1,.4478,1,1s-.448.9998-1,1h-.05c-.552,0-1-.4477-1-1s.448-1,1-1h.05Zm13.309,0c.552.0002,1,.4478,1,1s-.448.9998-1,1h-.05c-.552,0-1-.4477-1-1s.448-1,1-1h.05Zm13.31,0c.552.0002,1,.4479,1,1s-.448.9998-1,1h-.05c-.552,0-1-.4477-1-1s.448-1,1-1h.05ZM284.5,17c.552,0,1,.4477,1,1s-.448,1-1,1h-.025c-.552-.0002-1-.4479-1-1s.448-.9998,1-1h.025Z" fill="#edb034" fill-opacity="0.3"/><path d="M5.02539,29.3359c.55207.0003,1,.4479,1,1c0,.5522-.44793.9998-1,1h-.02539c-.55228,0-1-.4477-1-1c0-.5522.44772-1,1-1h.02539Zm13.30861,0c.5523,0,1,.4478,1,1c0,.5523-.4477,1-1,1h-.0498c-.5521-.0002-1-.4478-1-1c0-.5521.4479-.9997,1-1h.0498Zm13.3096,0c.5522,0,1,.4478,1,1c0,.5523-.4478,1-1,1h-.0498c-.5522-.0002-1-.4478-1-1c0-.5521.4478-.9998,1-1h.0498Zm13.3095,0c.5523,0,1,.4478,1,1c0,.5523-.4477,1-1,1h-.0498c-.5521-.0001-1-.4478-1-1c0-.5521.4479-.9998,1-1h.0498Zm13.3096,0c.5523,0,1,.4478,1,1c0,.5523-.4477,1-1,1h-.0498c-.5522-.0001-1-.4478-1-1s.4478-.9998,1-1h.0498Zm13.3096,0c.5523,0,1,.4478,1,1c0,.5523-.4477,1-1,1h-.0498c-.5522-.0001-1-.4478-1-1s.4478-.9998,1-1h.0498Zm13.3095,0c.5523,0,1,.4478,1,1c0,.5523-.4477,1-1,1h-.0498c-.5522-.0001-1-.4477-1-1c0-.5522.4478-.9999,1-1h.0498Zm13.3096,0c.5523,0,1,.4478,1,1c0,.5523-.4477,1-1,1h-.0498c-.5522,0-1-.4477-1-1c0-.5522.4478-.9999,1-1h.0498Zm13.3096,0c.552,0,1,.4478,1,1c0,.5523-.448,1-1,1h-.05c-.552,0-1-.4477-1-1c0-.5522.448-.9999,1-1h.05Zm13.31,0c.552,0,1,.4478,1,1c0,.5523-.448,1-1,1h-.05c-.553,0-1-.4477-1-1c0-.5522.447-.9999,1-1h.05Zm13.309,0c.552,0,1,.4478,1,1c0,.5523-.448,1-1,1h-.05c-.552,0-1-.4477-1-1c0-.5522.448-1,1-1h.05Zm13.31,0c.552,0,1,.4478,1,1c0,.5523-.448,1-1,1h-.05c-.552,0-1-.4477-1-1c0-.5522.448-1,1-1h.05Zm13.309,0c.553.0001,1,.4478,1,1c0,.5523-.447,1-1,1h-.05c-.552,0-1-.4477-1-1c0-.5522.448-1,1-1h.05Zm13.31,0c.552.0001,1,.4478,1,1c0,.5523-.448,1-1,1h-.05c-.552,0-1-.4477-1-1c0-.5522.448-1,1-1h.05Zm13.309,0c.553.0001,1,.4478,1,1c0,.5523-.447,1-1,1h-.049c-.553,0-1-.4477-1-1c0-.5522.447-1,1-1h.049Zm13.31,0c.552.0001,1,.4478,1,1c0,.5523-.448.9999-1,1h-.05c-.552,0-1-.4477-1-1c0-.5522.448-1,1-1h.05Zm13.31,0c.552.0002,1,.4478,1,1s-.448.9999-1,1h-.05c-.553,0-1-.4477-1-1c0-.5522.447-1,1-1h.05Zm13.309,0c.552.0002,1,.4478,1,1s-.448.9999-1,1h-.05c-.552,0-1-.4477-1-1c0-.5522.448-1,1-1h.05Zm13.31,0c.552.0002,1,.4479,1,1c0,.5522-.448.9999-1,1h-.05c-.552,0-1-.4477-1-1c0-.5522.448-1,1-1h.05Zm13.309,0c.552.0002,1,.4479,1,1c0,.5522-.448.9998-1,1h-.05c-.552,0-1-.4477-1-1c0-.5522.448-1,1-1h.05Zm13.31,0c.552.0003,1,.4479,1,1c0,.5522-.448.9998-1,1h-.05c-.552,0-1-.4477-1-1c0-.5522.448-1,1-1h.05Zm13.284,0c.552,0,1,.4478,1,1c0,.5523-.448,1-1,1h-.025c-.552-.0002-1-.4478-1-1c0-.5521.448-.9997,1-1h.025Z" fill="#edb034" fill-opacity="0.3"/><path d="M5.02539,41.6641c.55207.0002,1,.4478,1,1s-.44793.9997-1,1h-.02539c-.55228,0-1-.4478-1-1s.44772-1,1-1h.02539Zm13.30861,0c.5523,0,1,.4477,1,1s-.4477,1-1,1h-.0498c-.5521-.0003-1-.4479-1-1s.4479-.9998,1-1h.0498Zm13.3096,0c.5522,0,1,.4477,1,1s-.4478,1-1,1h-.0498c-.5522-.0002-1-.4479-1-1s.4478-.9998,1-1h.0498Zm13.3095,0c.5523,0,1,.4477,1,1s-.4477,1-1,1h-.0498c-.5521-.0002-1-.4479-1-1s.4479-.9999,1-1h.0498Zm13.3096,0c.5523,0,1,.4477,1,1s-.4477,1-1,1h-.0498c-.5522-.0002-1-.4478-1-1s.4478-.9999,1-1h.0498Zm13.3096,0c.5523,0,1,.4477,1,1s-.4477,1-1,1h-.0498c-.5522-.0002-1-.4478-1-1s.4478-.9999,1-1h.0498Zm13.3095,0c.5523,0,1,.4477,1,1s-.4477,1-1,1h-.0498c-.5522-.0001-1-.4478-1-1s.4478-.9999,1-1h.0498Zm13.3096,0c.5523,0,1,.4477,1,1s-.4477,1-1,1h-.0498c-.5522-.0001-1-.4478-1-1s.4478-1,1-1h.0498Zm13.3096,0c.552,0,1,.4477,1,1s-.448,1-1,1h-.05c-.552-.0001-1-.4478-1-1s.448-1,1-1h.05Zm13.31,0c.552,0,1,.4477,1,1s-.448,1-1,1h-.05c-.553-.0001-1-.4478-1-1s.447-1,1-1h.05Zm13.309,0c.552,0,1,.4477,1,1s-.448,1-1,1h-.05c-.552,0-1-.4478-1-1s.448-1,1-1h.05Zm13.31,0c.552,0,1,.4477,1,1s-.448,1-1,1h-.05c-.552,0-1-.4478-1-1s.448-1,1-1h.05Zm13.309,0c.553,0,1,.4477,1,1s-.447.9999-1,1h-.05c-.552,0-1-.4478-1-1s.448-1,1-1h.05Zm13.31,0c.552,0,1,.4477,1,1s-.448.9999-1,1h-.05c-.552,0-1-.4478-1-1s.448-1,1-1h.05Zm13.309,0c.553,0,1,.4477,1,1s-.447.9999-1,1h-.049c-.553,0-1-.4478-1-1s.447-1,1-1h.049Zm13.31,0c.552.0001,1,.4477,1,1s-.448.9999-1,1h-.05c-.552,0-1-.4478-1-1s.448-1,1-1h.05Zm13.31,0c.552.0001,1,.4478,1,1s-.448.9998-1,1h-.05c-.553,0-1-.4478-1-1s.447-1,1-1h.05Zm13.309,0c.552.0001,1,.4478,1,1s-.448.9998-1,1h-.05c-.552,0-1-.4478-1-1s.448-1,1-1h.05Zm13.31,0c.552.0001,1,.4478,1,1s-.448.9998-1,1h-.05c-.552,0-1-.4478-1-1s.448-1,1-1h.05Zm13.309,0c.552.0002,1,.4478,1,1s-.448.9998-1,1h-.05c-.552,0-1-.4478-1-1s.448-1,1-1h.05Zm13.31,0c.552.0002,1,.4478,1,1s-.448.9997-1,1h-.05c-.552,0-1-.4478-1-1s.448-1,1-1h.05Zm13.284,0c.552,0,1,.4477,1,1s-.448,1-1,1h-.025c-.552-.0003-1-.4479-1-1s.448-.9998,1-1h.025Z" fill="#edb034" fill-opacity="0.3"/><path d="M5.02539,54c.55207.0003,1,.4479,1,1s-.44793.9997-1,1L5,56c-.55228,0-1-.4477-1-1s.44772-1,1-1h.02539ZM18.334,54c.5523,0,1,.4477,1,1s-.4477,1-1,1h-.0498c-.5521-.0002-1-.4479-1-1s.4479-.9998,1-1h.0498Zm13.3096,0c.5522,0,1,.4477,1,1s-.4478,1-1,1h-.0498c-.5522-.0002-1-.4478-1-1s.4478-.9998,1-1h.0498Zm13.3095,0c.5523,0,1,.4477,1,1s-.4477,1-1,1h-.0498c-.5521-.0002-1-.4478-1-1s.4479-.9998,1-1h.0498Zm13.3096,0c.5523,0,1,.4477,1,1s-.4477,1-1,1h-.0498c-.5522-.0002-1-.4478-1-1s.4478-.9998,1-1h.0498Zm13.3096,0c.5523,0,1,.4477,1,1s-.4477,1-1,1h-.0498c-.5522-.0001-1-.4478-1-1s.4478-.9999,1-1h.0498Zm13.3095,0c.5523,0,1,.4477,1,1s-.4477,1-1,1h-.0498c-.5522-.0001-1-.4478-1-1s.4478-.9999,1-1h.0498Zm13.3096,0c.5523,0,1,.4477,1,1s-.4477,1-1,1h-.0498c-.5522-.0001-1-.4478-1-1s.4478-.9999,1-1h.0498Zm13.3096,0c.552,0,1,.4477,1,1s-.448,1-1,1h-.05c-.552,0-1-.4477-1-1s.448-1,1-1h.05Zm13.31,0c.552,0,1,.4477,1,1s-.448,1-1,1h-.05c-.553,0-1-.4477-1-1s.447-1,1-1h.05Zm13.309,0c.552,0,1,.4477,1,1s-.448,1-1,1h-.05c-.552,0-1-.4477-1-1s.448-1,1-1h.05Zm13.31,0c.552,0,1,.4477,1,1s-.448,1-1,1h-.05c-.552,0-1-.4477-1-1s.448-1,1-1h.05Zm13.309,0c.553,0,1,.4477,1,1s-.447,1-1,1h-.05c-.552,0-1-.4477-1-1s.448-1,1-1h.05Zm13.31,0c.552,0,1,.4477,1,1s-.448,1-1,1h-.05c-.552,0-1-.4477-1-1s.448-1,1-1h.05Zm13.309,0c.553.0001,1,.4478,1,1s-.447.9999-1,1h-.049c-.553,0-1-.4477-1-1s.447-1,1-1h.049Zm13.31,0c.552.0001,1,.4478,1,1s-.448.9999-1,1h-.05c-.552,0-1-.4477-1-1s.448-1,1-1h.05Zm13.31,0c.552.0001,1,.4478,1,1s-.448.9999-1,1h-.05c-.553,0-1-.4477-1-1s.447-1,1-1h.05Zm13.309,0c.552.0001,1,.4478,1,1s-.448.9999-1,1h-.05c-.552,0-1-.4477-1-1s.448-1,1-1h.05Zm13.31,0c.552.0002,1,.4478,1,1s-.448.9998-1,1h-.05c-.552,0-1-.4477-1-1s.448-1,1-1h.05Zm13.309,0c.552.0002,1,.4478,1,1s-.448.9998-1,1h-.05c-.552,0-1-.4477-1-1s.448-1,1-1h.05Zm13.31,0c.552.0002,1,.4479,1,1s-.448.9998-1,1h-.05c-.552,0-1-.4477-1-1s.448-1,1-1h.05ZM284.5,54c.552,0,1,.4477,1,1s-.448,1-1,1h-.025c-.552-.0002-1-.4479-1-1s.448-.9998,1-1h.025Z" fill="#edb034" fill-opacity="0.3"/><path d="M5.02539,66.3359c.55207.0003,1,.4479,1,1c0,.5522-.44793.9998-1,1h-.02539c-.55228,0-1-.4477-1-1c0-.5522.44772-1,1-1h.02539Zm13.30861,0c.5523,0,1,.4478,1,1c0,.5523-.4477,1-1,1h-.0498c-.5521-.0002-1-.4478-1-1c0-.5521.4479-.9997,1-1h.0498Zm13.3096,0c.5522,0,1,.4478,1,1c0,.5523-.4478,1-1,1h-.0498c-.5522-.0002-1-.4478-1-1c0-.5521.4478-.9998,1-1h.0498Zm13.3095,0c.5523,0,1,.4478,1,1c0,.5523-.4477,1-1,1h-.0498c-.5521-.0001-1-.4478-1-1c0-.5521.4479-.9998,1-1h.0498Zm13.3096,0c.5523,0,1,.4478,1,1c0,.5523-.4477,1-1,1h-.0498c-.5522-.0001-1-.4478-1-1s.4478-.9998,1-1h.0498Zm13.3096,0c.5523,0,1,.4478,1,1c0,.5523-.4477,1-1,1h-.0498c-.5522-.0001-1-.4478-1-1s.4478-.9998,1-1h.0498Zm13.3095,0c.5523,0,1,.4478,1,1c0,.5523-.4477,1-1,1h-.0498c-.5522-.0001-1-.4477-1-1c0-.5522.4478-.9999,1-1h.0498Zm13.3096,0c.5523,0,1,.4478,1,1c0,.5523-.4477,1-1,1h-.0498c-.5522,0-1-.4477-1-1c0-.5522.4478-.9999,1-1h.0498Zm13.3096,0c.552,0,1,.4478,1,1c0,.5523-.448,1-1,1h-.05c-.552,0-1-.4477-1-1c0-.5522.448-.9999,1-1h.05Zm13.31,0c.552,0,1,.4478,1,1c0,.5523-.448,1-1,1h-.05c-.553,0-1-.4477-1-1c0-.5522.447-.9999,1-1h.05Zm13.309,0c.552,0,1,.4478,1,1c0,.5523-.448,1-1,1h-.05c-.552,0-1-.4477-1-1c0-.5522.448-1,1-1h.05Zm13.31,0c.552,0,1,.4478,1,1c0,.5523-.448,1-1,1h-.05c-.552,0-1-.4477-1-1c0-.5522.448-1,1-1h.05Zm13.309,0c.553.0001,1,.4478,1,1c0,.5523-.447,1-1,1h-.05c-.552,0-1-.4477-1-1c0-.5522.448-1,1-1h.05Zm13.31,0c.552.0001,1,.4478,1,1c0,.5523-.448,1-1,1h-.05c-.552,0-1-.4477-1-1c0-.5522.448-1,1-1h.05Zm13.309,0c.553.0001,1,.4478,1,1c0,.5523-.447,1-1,1h-.049c-.553,0-1-.4477-1-1c0-.5522.447-1,1-1h.049Zm13.31,0c.552.0001,1,.4478,1,1c0,.5523-.448.9999-1,1h-.05c-.552,0-1-.4477-1-1c0-.5522.448-1,1-1h.05Zm13.31,0c.552.0002,1,.4478,1,1s-.448.9999-1,1h-.05c-.553,0-1-.4477-1-1c0-.5522.447-1,1-1h.05Zm13.309,0c.552.0002,1,.4478,1,1s-.448.9999-1,1h-.05c-.552,0-1-.4477-1-1c0-.5522.448-1,1-1h.05Zm13.31,0c.552.0002,1,.4479,1,1c0,.5522-.448.9999-1,1h-.05c-.552,0-1-.4477-1-1c0-.5522.448-1,1-1h.05Zm13.309,0c.552.0002,1,.4479,1,1c0,.5522-.448.9998-1,1h-.05c-.552,0-1-.4477-1-1c0-.5522.448-1,1-1h.05Zm13.31,0c.552.0003,1,.4479,1,1c0,.5522-.448.9998-1,1h-.05c-.552,0-1-.4477-1-1c0-.5522.448-1,1-1h.05Zm13.284,0c.552,0,1,.4478,1,1c0,.5523-.448,1-1,1h-.025c-.552-.0002-1-.4478-1-1c0-.5521.448-.9997,1-1h.025Z" fill="#edb034" fill-opacity="0.3"/><path d="M5.02539,78.6641c.55207.0002,1,.4478,1,1c0,.5521-.44793.9997-1,1h-.02539c-.55228,0-1-.4478-1-1c0-.5523.44772-1,1-1h.02539Zm13.30861,0c.5523,0,1,.4477,1,1c0,.5522-.4477,1-1,1h-.0498c-.5521-.0003-1-.4479-1-1c0-.5522.4479-.9998,1-1h.0498Zm13.3096,0c.5522,0,1,.4477,1,1c0,.5522-.4478,1-1,1h-.0498c-.5522-.0002-1-.4479-1-1c0-.5522.4478-.9998,1-1h.0498Zm13.3095,0c.5523,0,1,.4477,1,1c0,.5522-.4477,1-1,1h-.0498c-.5521-.0002-1-.4479-1-1c0-.5522.4479-.9999,1-1h.0498Zm13.3096,0c.5523,0,1,.4477,1,1c0,.5522-.4477,1-1,1h-.0498c-.5522-.0002-1-.4478-1-1s.4478-.9999,1-1h.0498Zm13.3096,0c.5523,0,1,.4477,1,1c0,.5522-.4477,1-1,1h-.0498c-.5522-.0002-1-.4478-1-1s.4478-.9999,1-1h.0498Zm13.3095,0c.5523,0,1,.4477,1,1c0,.5522-.4477,1-1,1h-.0498c-.5522-.0001-1-.4478-1-1c0-.5523.4478-.9999,1-1h.0498Zm13.3096,0c.5523,0,1,.4477,1,1c0,.5522-.4477,1-1,1h-.0498c-.5522-.0001-1-.4478-1-1c0-.5523.4478-1,1-1h.0498Zm13.3096,0c.552,0,1,.4477,1,1c0,.5522-.448,1-1,1h-.05c-.552-.0001-1-.4478-1-1c0-.5523.448-1,1-1h.05Zm13.31,0c.552,0,1,.4477,1,1c0,.5522-.448,1-1,1h-.05c-.553-.0001-1-.4478-1-1c0-.5523.447-1,1-1h.05Zm13.309,0c.552,0,1,.4477,1,1c0,.5522-.448,1-1,1h-.05c-.552,0-1-.4478-1-1c0-.5523.448-1,1-1h.05Zm13.31,0c.552,0,1,.4477,1,1c0,.5522-.448,1-1,1h-.05c-.552,0-1-.4478-1-1c0-.5523.448-1,1-1h.05Zm13.309,0c.553,0,1,.4477,1,1c0,.5522-.447.9999-1,1h-.05c-.552,0-1-.4478-1-1c0-.5523.448-1,1-1h.05Zm13.31,0c.552,0,1,.4477,1,1c0,.5522-.448.9999-1,1h-.05c-.552,0-1-.4478-1-1c0-.5523.448-1,1-1h.05Zm13.309,0c.553,0,1,.4477,1,1c0,.5522-.447.9999-1,1h-.049c-.553,0-1-.4478-1-1c0-.5523.447-1,1-1h.049Zm13.31,0c.552.0001,1,.4477,1,1c0,.5522-.448.9999-1,1h-.05c-.552,0-1-.4478-1-1c0-.5523.448-1,1-1h.05Zm13.31,0c.552.0001,1,.4478,1,1s-.448.9998-1,1h-.05c-.553,0-1-.4478-1-1c0-.5523.447-1,1-1h.05Zm13.309,0c.552.0001,1,.4478,1,1s-.448.9998-1,1h-.05c-.552,0-1-.4478-1-1c0-.5523.448-1,1-1h.05Zm13.31,0c.552.0001,1,.4478,1,1c0,.5521-.448.9998-1,1h-.05c-.552,0-1-.4478-1-1c0-.5523.448-1,1-1h.05Zm13.309,0c.552.0002,1,.4478,1,1c0,.5521-.448.9998-1,1h-.05c-.552,0-1-.4478-1-1c0-.5523.448-1,1-1h.05Zm13.31,0c.552.0002,1,.4478,1,1c0,.5521-.448.9997-1,1h-.05c-.552,0-1-.4478-1-1c0-.5523.448-1,1-1h.05Zm13.284,0c.552,0,1,.4477,1,1c0,.5522-.448,1-1,1h-.025c-.552-.0003-1-.4479-1-1c0-.5522.448-.9998,1-1h.025Z" fill="#edb034" fill-opacity="0.3"/><path d="M5.02539,91c.55207.0003,1,.4479,1,1s-.44793.9997-1,1L5,93c-.55228,0-1-.4477-1-1s.44772-1,1-1h.02539ZM18.334,91c.5523,0,1,.4477,1,1s-.4477,1-1,1h-.0498c-.5521-.0002-1-.4479-1-1s.4479-.9998,1-1h.0498Zm13.3096,0c.5522,0,1,.4477,1,1s-.4478,1-1,1h-.0498c-.5522-.0002-1-.4478-1-1s.4478-.9998,1-1h.0498Zm13.3095,0c.5523,0,1,.4477,1,1s-.4477,1-1,1h-.0498c-.5521-.0002-1-.4478-1-1s.4479-.9998,1-1h.0498Zm13.3096,0c.5523,0,1,.4477,1,1s-.4477,1-1,1h-.0498c-.5522-.0002-1-.4478-1-1s.4478-.9998,1-1h.0498Zm13.3096,0c.5523,0,1,.4477,1,1s-.4477,1-1,1h-.0498c-.5522-.0001-1-.4478-1-1s.4478-.9999,1-1h.0498Zm13.3095,0c.5523,0,1,.4477,1,1s-.4477,1-1,1h-.0498c-.5522-.0001-1-.4478-1-1s.4478-.9999,1-1h.0498Zm13.3096,0c.5523,0,1,.4477,1,1s-.4477,1-1,1h-.0498c-.5522-.0001-1-.4478-1-1s.4478-.9999,1-1h.0498Zm13.3096,0c.552,0,1,.4477,1,1s-.448,1-1,1h-.05c-.552,0-1-.4477-1-1s.448-1,1-1h.05Zm13.31,0c.552,0,1,.4477,1,1s-.448,1-1,1h-.05c-.553,0-1-.4477-1-1s.447-1,1-1h.05Zm13.309,0c.552,0,1,.4477,1,1s-.448,1-1,1h-.05c-.552,0-1-.4477-1-1s.448-1,1-1h.05Zm13.31,0c.552,0,1,.4477,1,1s-.448,1-1,1h-.05c-.552,0-1-.4477-1-1s.448-1,1-1h.05Zm13.309,0c.553,0,1,.4477,1,1s-.447,1-1,1h-.05c-.552,0-1-.4477-1-1s.448-1,1-1h.05Zm13.31,0c.552,0,1,.4477,1,1s-.448,1-1,1h-.05c-.552,0-1-.4477-1-1s.448-1,1-1h.05Zm13.309,0c.553.0001,1,.4478,1,1s-.447.9999-1,1h-.049c-.553,0-1-.4477-1-1s.447-1,1-1h.049Zm13.31,0c.552.0001,1,.4478,1,1s-.448.9999-1,1h-.05c-.552,0-1-.4477-1-1s.448-1,1-1h.05Zm13.31,0c.552.0001,1,.4478,1,1s-.448.9999-1,1h-.05c-.553,0-1-.4477-1-1s.447-1,1-1h.05Zm13.309,0c.552.0001,1,.4478,1,1s-.448.9999-1,1h-.05c-.552,0-1-.4477-1-1s.448-1,1-1h.05Zm13.31,0c.552.0002,1,.4478,1,1s-.448.9998-1,1h-.05c-.552,0-1-.4477-1-1s.448-1,1-1h.05Zm13.309,0c.552.0002,1,.4478,1,1s-.448.9998-1,1h-.05c-.552,0-1-.4477-1-1s.448-1,1-1h.05Zm13.31,0c.552.0002,1,.4479,1,1s-.448.9998-1,1h-.05c-.552,0-1-.4477-1-1s.448-1,1-1h.05ZM284.5,91c.552,0,1,.4477,1,1s-.448,1-1,1h-.025c-.552-.0002-1-.4479-1-1s.448-.9998,1-1h.025Z" fill="#edb034" fill-opacity="0.3"/><path d="M5.02539,103.336c.55207,0,1,.448,1,1s-.44793,1-1,1h-.02539c-.55228,0-1-.448-1-1s.44772-1,1-1h.02539Zm13.30861,0c.5523,0,1,.448,1,1s-.4477,1-1,1h-.0498c-.5521,0-1-.448-1-1s.4479-1,1-1h.0498Zm13.3096,0c.5522,0,1,.448,1,1s-.4478,1-1,1h-.0498c-.5522,0-1-.448-1-1s.4478-1,1-1h.0498Zm13.3095,0c.5523,0,1,.448,1,1s-.4477,1-1,1h-.0498c-.5521,0-1-.448-1-1s.4479-1,1-1h.0498Zm13.3096,0c.5523,0,1,.448,1,1s-.4477,1-1,1h-.0498c-.5522,0-1-.448-1-1s.4478-1,1-1h.0498Zm13.3096,0c.5523,0,1,.448,1,1s-.4477,1-1,1h-.0498c-.5522,0-1-.448-1-1s.4478-1,1-1h.0498Zm13.3095,0c.5523,0,1,.448,1,1s-.4477,1-1,1h-.0498c-.5522,0-1-.448-1-1s.4478-1,1-1h.0498Zm13.3096,0c.5523,0,1,.448,1,1s-.4477,1-1,1h-.0498c-.5522,0-1-.448-1-1s.4478-1,1-1h.0498Zm13.3096,0c.552,0,1,.448,1,1s-.448,1-1,1h-.05c-.552,0-1-.448-1-1s.448-1,1-1h.05Zm13.31,0c.552,0,1,.448,1,1s-.448,1-1,1h-.05c-.553,0-1-.448-1-1s.447-1,1-1h.05Zm13.309,0c.552,0,1,.448,1,1s-.448,1-1,1h-.05c-.552,0-1-.448-1-1s.448-1,1-1h.05Zm13.31,0c.552,0,1,.448,1,1s-.448,1-1,1h-.05c-.552,0-1-.448-1-1s.448-1,1-1h.05Zm13.309,0c.553,0,1,.448,1,1s-.447,1-1,1h-.05c-.552,0-1-.448-1-1s.448-1,1-1h.05Zm13.31,0c.552,0,1,.448,1,1s-.448,1-1,1h-.05c-.552,0-1-.448-1-1s.448-1,1-1h.05Zm13.309,0c.553,0,1,.448,1,1s-.447,1-1,1h-.049c-.553,0-1-.448-1-1s.447-1,1-1h.049Zm13.31,0c.552,0,1,.448,1,1s-.448,1-1,1h-.05c-.552,0-1-.448-1-1s.448-1,1-1h.05Zm13.31,0c.552,0,1,.448,1,1s-.448,1-1,1h-.05c-.553,0-1-.448-1-1s.447-1,1-1h.05Zm13.309,0c.552,0,1,.448,1,1s-.448,1-1,1h-.05c-.552,0-1-.448-1-1s.448-1,1-1h.05Zm13.31,0c.552,0,1,.448,1,1s-.448,1-1,1h-.05c-.552,0-1-.448-1-1s.448-1,1-1h.05Zm13.309,0c.552,0,1,.448,1,1s-.448,1-1,1h-.05c-.552,0-1-.448-1-1s.448-1,1-1h.05Zm13.31,0c.552,0,1,.448,1,1s-.448,1-1,1h-.05c-.552,0-1-.448-1-1s.448-1,1-1h.05Zm13.284,0c.552,0,1,.448,1,1s-.448,1-1,1h-.025c-.552,0-1-.448-1-1s.448-1,1-1h.025Z" fill="#edb034" fill-opacity="0.3"/><path d="M5.02539,115.664c.55207,0,1,.448,1,1s-.44793,1-1,1h-.02539c-.55228,0-1-.448-1-1s.44772-1,1-1h.02539Zm13.30861,0c.5523,0,1,.448,1,1s-.4477,1-1,1h-.0498c-.5521,0-1-.448-1-1s.4479-1,1-1h.0498Zm13.3096,0c.5522,0,1,.448,1,1s-.4478,1-1,1h-.0498c-.5522,0-1-.448-1-1s.4478-1,1-1h.0498Zm13.3095,0c.5523,0,1,.448,1,1s-.4477,1-1,1h-.0498c-.5521,0-1-.448-1-1s.4479-1,1-1h.0498Zm13.3096,0c.5523,0,1,.448,1,1s-.4477,1-1,1h-.0498c-.5522,0-1-.448-1-1s.4478-1,1-1h.0498Zm13.3096,0c.5523,0,1,.448,1,1s-.4477,1-1,1h-.0498c-.5522,0-1-.448-1-1s.4478-1,1-1h.0498Zm13.3095,0c.5523,0,1,.448,1,1s-.4477,1-1,1h-.0498c-.5522,0-1-.448-1-1s.4478-1,1-1h.0498Zm13.3096,0c.5523,0,1,.448,1,1s-.4477,1-1,1h-.0498c-.5522,0-1-.448-1-1s.4478-1,1-1h.0498Zm13.3096,0c.552,0,1,.448,1,1s-.448,1-1,1h-.05c-.552,0-1-.448-1-1s.448-1,1-1h.05Zm13.31,0c.552,0,1,.448,1,1s-.448,1-1,1h-.05c-.553,0-1-.448-1-1s.447-1,1-1h.05Zm13.309,0c.552,0,1,.448,1,1s-.448,1-1,1h-.05c-.552,0-1-.448-1-1s.448-1,1-1h.05Zm13.31,0c.552,0,1,.448,1,1s-.448,1-1,1h-.05c-.552,0-1-.448-1-1s.448-1,1-1h.05Zm13.309,0c.553,0,1,.448,1,1s-.447,1-1,1h-.05c-.552,0-1-.448-1-1s.448-1,1-1h.05Zm13.31,0c.552,0,1,.448,1,1s-.448,1-1,1h-.05c-.552,0-1-.448-1-1s.448-1,1-1h.05Zm13.309,0c.553,0,1,.448,1,1s-.447,1-1,1h-.049c-.553,0-1-.448-1-1s.447-1,1-1h.049Zm13.31,0c.552,0,1,.448,1,1s-.448,1-1,1h-.05c-.552,0-1-.448-1-1s.448-1,1-1h.05Zm13.31,0c.552,0,1,.448,1,1s-.448,1-1,1h-.05c-.553,0-1-.448-1-1s.447-1,1-1h.05Zm13.309,0c.552,0,1,.448,1,1s-.448,1-1,1h-.05c-.552,0-1-.448-1-1s.448-1,1-1h.05Zm13.31,0c.552,0,1,.448,1,1s-.448,1-1,1h-.05c-.552,0-1-.448-1-1s.448-1,1-1h.05Zm13.309,0c.552,0,1,.448,1,1s-.448,1-1,1h-.05c-.552,0-1-.448-1-1s.448-1,1-1h.05Zm13.31,0c.552,0,1,.448,1,1s-.448,1-1,1h-.05c-.552,0-1-.448-1-1s.448-1,1-1h.05Zm13.284,0c.552,0,1,.448,1,1s-.448,1-1,1h-.025c-.552,0-1-.448-1-1s.448-1,1-1h.025Z" fill="#edb034" fill-opacity="0.3"/><path d="M5.02539,128c.55207,0,1,.448,1,1s-.44793,1-1,1L5,130c-.55228,0-1-.448-1-1s.44772-1,1-1h.02539ZM18.334,128c.5523,0,1,.448,1,1s-.4477,1-1,1h-.0498c-.5521,0-1-.448-1-1s.4479-1,1-1h.0498Zm13.3096,0c.5522,0,1,.448,1,1s-.4478,1-1,1h-.0498c-.5522,0-1-.448-1-1s.4478-1,1-1h.0498Zm13.3095,0c.5523,0,1,.448,1,1s-.4477,1-1,1h-.0498c-.5521,0-1-.448-1-1s.4479-1,1-1h.0498Zm13.3096,0c.5523,0,1,.448,1,1s-.4477,1-1,1h-.0498c-.5522,0-1-.448-1-1s.4478-1,1-1h.0498Zm13.3096,0c.5523,0,1,.448,1,1s-.4477,1-1,1h-.0498c-.5522,0-1-.448-1-1s.4478-1,1-1h.0498Zm13.3095,0c.5523,0,1,.448,1,1s-.4477,1-1,1h-.0498c-.5522,0-1-.448-1-1s.4478-1,1-1h.0498Zm13.3096,0c.5523,0,1,.448,1,1s-.4477,1-1,1h-.0498c-.5522,0-1-.448-1-1s.4478-1,1-1h.0498Zm13.3096,0c.552,0,1,.448,1,1s-.448,1-1,1h-.05c-.552,0-1-.448-1-1s.448-1,1-1h.05Zm13.31,0c.552,0,1,.448,1,1s-.448,1-1,1h-.05c-.553,0-1-.448-1-1s.447-1,1-1h.05Zm13.309,0c.552,0,1,.448,1,1s-.448,1-1,1h-.05c-.552,0-1-.448-1-1s.448-1,1-1h.05Zm13.31,0c.552,0,1,.448,1,1s-.448,1-1,1h-.05c-.552,0-1-.448-1-1s.448-1,1-1h.05Zm13.309,0c.553,0,1,.448,1,1s-.447,1-1,1h-.05c-.552,0-1-.448-1-1s.448-1,1-1h.05Zm13.31,0c.552,0,1,.448,1,1s-.448,1-1,1h-.05c-.552,0-1-.448-1-1s.448-1,1-1h.05Zm13.309,0c.553,0,1,.448,1,1s-.447,1-1,1h-.049c-.553,0-1-.448-1-1s.447-1,1-1h.049Zm13.31,0c.552,0,1,.448,1,1s-.448,1-1,1h-.05c-.552,0-1-.448-1-1s.448-1,1-1h.05Zm13.31,0c.552,0,1,.448,1,1s-.448,1-1,1h-.05c-.553,0-1-.448-1-1s.447-1,1-1h.05Zm13.309,0c.552,0,1,.448,1,1s-.448,1-1,1h-.05c-.552,0-1-.448-1-1s.448-1,1-1h.05Zm13.31,0c.552,0,1,.448,1,1s-.448,1-1,1h-.05c-.552,0-1-.448-1-1s.448-1,1-1h.05Zm13.309,0c.552,0,1,.448,1,1s-.448,1-1,1h-.05c-.552,0-1-.448-1-1s.448-1,1-1h.05Zm13.31,0c.552,0,1,.448,1,1s-.448,1-1,1h-.05c-.552,0-1-.448-1-1s.448-1,1-1h.05Zm13.284,0c.552,0,1,.448,1,1s-.448,1-1,1h-.025c-.552,0-1-.448-1-1s.448-1,1-1h.025Z" fill="#edb034" fill-opacity="0.3"/><path d="M5.02539,142c.55207,0,1,.448,1,1s-.44793,1-1,1L5,144c-.55228,0-1-.448-1-1s.44772-1,1-1h.02539ZM18.334,142c.5523,0,1,.448,1,1s-.4477,1-1,1h-.0498c-.5521,0-1-.448-1-1s.4479-1,1-1h.0498Zm13.3096,0c.5522,0,1,.448,1,1s-.4478,1-1,1h-.0498c-.5522,0-1-.448-1-1s.4478-1,1-1h.0498Zm13.3095,0c.5523,0,1,.448,1,1s-.4477,1-1,1h-.0498c-.5521,0-1-.448-1-1s.4479-1,1-1h.0498Zm13.3096,0c.5523,0,1,.448,1,1s-.4477,1-1,1h-.0498c-.5522,0-1-.448-1-1s.4478-1,1-1h.0498Zm13.3096,0c.5523,0,1,.448,1,1s-.4477,1-1,1h-.0498c-.5522,0-1-.448-1-1s.4478-1,1-1h.0498Zm13.3095,0c.5523,0,1,.448,1,1s-.4477,1-1,1h-.0498c-.5522,0-1-.448-1-1s.4478-1,1-1h.0498Zm13.3096,0c.5523,0,1,.448,1,1s-.4477,1-1,1h-.0498c-.5522,0-1-.448-1-1s.4478-1,1-1h.0498Zm13.3096,0c.552,0,1,.448,1,1s-.448,1-1,1h-.05c-.552,0-1-.448-1-1s.448-1,1-1h.05Zm13.31,0c.552,0,1,.448,1,1s-.448,1-1,1h-.05c-.553,0-1-.448-1-1s.447-1,1-1h.05Zm13.309,0c.552,0,1,.448,1,1s-.448,1-1,1h-.05c-.552,0-1-.448-1-1s.448-1,1-1h.05Zm13.31,0c.552,0,1,.448,1,1s-.448,1-1,1h-.05c-.552,0-1-.448-1-1s.448-1,1-1h.05Zm13.309,0c.553,0,1,.448,1,1s-.447,1-1,1h-.05c-.552,0-1-.448-1-1s.448-1,1-1h.05Zm13.31,0c.552,0,1,.448,1,1s-.448,1-1,1h-.05c-.552,0-1-.448-1-1s.448-1,1-1h.05Zm13.309,0c.553,0,1,.448,1,1s-.447,1-1,1h-.049c-.553,0-1-.448-1-1s.447-1,1-1h.049Zm13.31,0c.552,0,1,.448,1,1s-.448,1-1,1h-.05c-.552,0-1-.448-1-1s.448-1,1-1h.05Zm13.31,0c.552,0,1,.448,1,1s-.448,1-1,1h-.05c-.553,0-1-.448-1-1s.447-1,1-1h.05Zm13.309,0c.552,0,1,.448,1,1s-.448,1-1,1h-.05c-.552,0-1-.448-1-1s.448-1,1-1h.05Zm13.31,0c.552,0,1,.448,1,1s-.448,1-1,1h-.05c-.552,0-1-.448-1-1s.448-1,1-1h.05Zm13.309,0c.552,0,1,.448,1,1s-.448,1-1,1h-.05c-.552,0-1-.448-1-1s.448-1,1-1h.05Zm13.31,0c.552,0,1,.448,1,1s-.448,1-1,1h-.05c-.552,0-1-.448-1-1s.448-1,1-1h.05Zm13.284,0c.552,0,1,.448,1,1s-.448,1-1,1h-.025c-.552,0-1-.448-1-1s.448-1,1-1h.025Z" fill="#edb034" fill-opacity="0.3"/><path d="M5.02539,154.336c.55207,0,1,.448,1,1s-.44793,1-1,1h-.02539c-.55228,0-1-.448-1-1s.44772-1,1-1h.02539Zm13.30861,0c.5523,0,1,.448,1,1s-.4477,1-1,1h-.0498c-.5521,0-1-.448-1-1s.4479-1,1-1h.0498Zm13.3096,0c.5522,0,1,.448,1,1s-.4478,1-1,1h-.0498c-.5522,0-1-.448-1-1s.4478-1,1-1h.0498Zm13.3095,0c.5523,0,1,.448,1,1s-.4477,1-1,1h-.0498c-.5521,0-1-.448-1-1s.4479-1,1-1h.0498Zm13.3096,0c.5523,0,1,.448,1,1s-.4477,1-1,1h-.0498c-.5522,0-1-.448-1-1s.4478-1,1-1h.0498Zm13.3096,0c.5523,0,1,.448,1,1s-.4477,1-1,1h-.0498c-.5522,0-1-.448-1-1s.4478-1,1-1h.0498Zm13.3095,0c.5523,0,1,.448,1,1s-.4477,1-1,1h-.0498c-.5522,0-1-.448-1-1s.4478-1,1-1h.0498Zm13.3096,0c.5523,0,1,.448,1,1s-.4477,1-1,1h-.0498c-.5522,0-1-.448-1-1s.4478-1,1-1h.0498Zm13.3096,0c.552,0,1,.448,1,1s-.448,1-1,1h-.05c-.552,0-1-.448-1-1s.448-1,1-1h.05Zm13.31,0c.552,0,1,.448,1,1s-.448,1-1,1h-.05c-.553,0-1-.448-1-1s.447-1,1-1h.05Zm13.309,0c.552,0,1,.448,1,1s-.448,1-1,1h-.05c-.552,0-1-.448-1-1s.448-1,1-1h.05Zm13.31,0c.552,0,1,.448,1,1s-.448,1-1,1h-.05c-.552,0-1-.448-1-1s.448-1,1-1h.05Zm13.309,0c.553,0,1,.448,1,1s-.447,1-1,1h-.05c-.552,0-1-.448-1-1s.448-1,1-1h.05Zm13.31,0c.552,0,1,.448,1,1s-.448,1-1,1h-.05c-.552,0-1-.448-1-1s.448-1,1-1h.05Zm13.309,0c.553,0,1,.448,1,1s-.447,1-1,1h-.049c-.553,0-1-.448-1-1s.447-1,1-1h.049Zm13.31,0c.552,0,1,.448,1,1s-.448,1-1,1h-.05c-.552,0-1-.448-1-1s.448-1,1-1h.05Zm13.31,0c.552,0,1,.448,1,1s-.448,1-1,1h-.05c-.553,0-1-.448-1-1s.447-1,1-1h.05Zm13.309,0c.552,0,1,.448,1,1s-.448,1-1,1h-.05c-.552,0-1-.448-1-1s.448-1,1-1h.05Zm13.31,0c.552,0,1,.448,1,1s-.448,1-1,1h-.05c-.552,0-1-.448-1-1s.448-1,1-1h.05Zm13.309,0c.552,0,1,.448,1,1s-.448,1-1,1h-.05c-.552,0-1-.448-1-1s.448-1,1-1h.05Zm13.31,0c.552,0,1,.448,1,1s-.448,1-1,1h-.05c-.552,0-1-.448-1-1s.448-1,1-1h.05Zm13.284,0c.552,0,1,.448,1,1s-.448,1-1,1h-.025c-.552,0-1-.448-1-1s.448-1,1-1h.025Z" fill="#edb034" fill-opacity="0.3"/><path d="M5.02539,166.664c.55207,0,1,.448,1,1s-.44793,1-1,1h-.02539c-.55228,0-1-.448-1-1s.44772-1,1-1h.02539Zm13.30861,0c.5523,0,1,.448,1,1s-.4477,1-1,1h-.0498c-.5521,0-1-.448-1-1s.4479-1,1-1h.0498Zm13.3096,0c.5522,0,1,.448,1,1s-.4478,1-1,1h-.0498c-.5522,0-1-.448-1-1s.4478-1,1-1h.0498Zm13.3095,0c.5523,0,1,.448,1,1s-.4477,1-1,1h-.0498c-.5521,0-1-.448-1-1s.4479-1,1-1h.0498Zm13.3096,0c.5523,0,1,.448,1,1s-.4477,1-1,1h-.0498c-.5522,0-1-.448-1-1s.4478-1,1-1h.0498Zm13.3096,0c.5523,0,1,.448,1,1s-.4477,1-1,1h-.0498c-.5522,0-1-.448-1-1s.4478-1,1-1h.0498Zm13.3095,0c.5523,0,1,.448,1,1s-.4477,1-1,1h-.0498c-.5522,0-1-.448-1-1s.4478-1,1-1h.0498Zm13.3096,0c.5523,0,1,.448,1,1s-.4477,1-1,1h-.0498c-.5522,0-1-.448-1-1s.4478-1,1-1h.0498Zm13.3096,0c.552,0,1,.448,1,1s-.448,1-1,1h-.05c-.552,0-1-.448-1-1s.448-1,1-1h.05Zm13.31,0c.552,0,1,.448,1,1s-.448,1-1,1h-.05c-.553,0-1-.448-1-1s.447-1,1-1h.05Zm13.309,0c.552,0,1,.448,1,1s-.448,1-1,1h-.05c-.552,0-1-.448-1-1s.448-1,1-1h.05Zm13.31,0c.552,0,1,.448,1,1s-.448,1-1,1h-.05c-.552,0-1-.448-1-1s.448-1,1-1h.05Zm13.309,0c.553,0,1,.448,1,1s-.447,1-1,1h-.05c-.552,0-1-.448-1-1s.448-1,1-1h.05Zm13.31,0c.552,0,1,.448,1,1s-.448,1-1,1h-.05c-.552,0-1-.448-1-1s.448-1,1-1h.05Zm13.309,0c.553,0,1,.448,1,1s-.447,1-1,1h-.049c-.553,0-1-.448-1-1s.447-1,1-1h.049Zm13.31,0c.552,0,1,.448,1,1s-.448,1-1,1h-.05c-.552,0-1-.448-1-1s.448-1,1-1h.05Zm13.31,0c.552,0,1,.448,1,1s-.448,1-1,1h-.05c-.553,0-1-.448-1-1s.447-1,1-1h.05Zm13.309,0c.552,0,1,.448,1,1s-.448,1-1,1h-.05c-.552,0-1-.448-1-1s.448-1,1-1h.05Zm13.31,0c.552,0,1,.448,1,1s-.448,1-1,1h-.05c-.552,0-1-.448-1-1s.448-1,1-1h.05Zm13.309,0c.552,0,1,.448,1,1s-.448,1-1,1h-.05c-.552,0-1-.448-1-1s.448-1,1-1h.05Zm13.31,0c.552,0,1,.448,1,1s-.448,1-1,1h-.05c-.552,0-1-.448-1-1s.448-1,1-1h.05Zm13.284,0c.552,0,1,.448,1,1s-.448,1-1,1h-.025c-.552,0-1-.448-1-1s.448-1,1-1h.025Z" fill="#edb034" fill-opacity="0.3"/><path d="M5.02539,179c.55207,0,1,.448,1,1s-.44793,1-1,1L5,181c-.55228,0-1-.448-1-1s.44772-1,1-1h.02539ZM18.334,179c.5523,0,1,.448,1,1s-.4477,1-1,1h-.0498c-.5521,0-1-.448-1-1s.4479-1,1-1h.0498Zm13.3096,0c.5522,0,1,.448,1,1s-.4478,1-1,1h-.0498c-.5522,0-1-.448-1-1s.4478-1,1-1h.0498Zm13.3095,0c.5523,0,1,.448,1,1s-.4477,1-1,1h-.0498c-.5521,0-1-.448-1-1s.4479-1,1-1h.0498Zm13.3096,0c.5523,0,1,.448,1,1s-.4477,1-1,1h-.0498c-.5522,0-1-.448-1-1s.4478-1,1-1h.0498Zm13.3096,0c.5523,0,1,.448,1,1s-.4477,1-1,1h-.0498c-.5522,0-1-.448-1-1s.4478-1,1-1h.0498Zm13.3095,0c.5523,0,1,.448,1,1s-.4477,1-1,1h-.0498c-.5522,0-1-.448-1-1s.4478-1,1-1h.0498Zm13.3096,0c.5523,0,1,.448,1,1s-.4477,1-1,1h-.0498c-.5522,0-1-.448-1-1s.4478-1,1-1h.0498Zm13.3096,0c.552,0,1,.448,1,1s-.448,1-1,1h-.05c-.552,0-1-.448-1-1s.448-1,1-1h.05Zm13.31,0c.552,0,1,.448,1,1s-.448,1-1,1h-.05c-.553,0-1-.448-1-1s.447-1,1-1h.05Zm13.309,0c.552,0,1,.448,1,1s-.448,1-1,1h-.05c-.552,0-1-.448-1-1s.448-1,1-1h.05Zm13.31,0c.552,0,1,.448,1,1s-.448,1-1,1h-.05c-.552,0-1-.448-1-1s.448-1,1-1h.05Zm13.309,0c.553,0,1,.448,1,1s-.447,1-1,1h-.05c-.552,0-1-.448-1-1s.448-1,1-1h.05Zm13.31,0c.552,0,1,.448,1,1s-.448,1-1,1h-.05c-.552,0-1-.448-1-1s.448-1,1-1h.05Zm13.309,0c.553,0,1,.448,1,1s-.447,1-1,1h-.049c-.553,0-1-.448-1-1s.447-1,1-1h.049Zm13.31,0c.552,0,1,.448,1,1s-.448,1-1,1h-.05c-.552,0-1-.448-1-1s.448-1,1-1h.05Zm13.31,0c.552,0,1,.448,1,1s-.448,1-1,1h-.05c-.553,0-1-.448-1-1s.447-1,1-1h.05Zm13.309,0c.552,0,1,.448,1,1s-.448,1-1,1h-.05c-.552,0-1-.448-1-1s.448-1,1-1h.05Zm13.31,0c.552,0,1,.448,1,1s-.448,1-1,1h-.05c-.552,0-1-.448-1-1s.448-1,1-1h.05Zm13.309,0c.552,0,1,.448,1,1s-.448,1-1,1h-.05c-.552,0-1-.448-1-1s.448-1,1-1h.05Zm13.31,0c.552,0,1,.448,1,1s-.448,1-1,1h-.05c-.552,0-1-.448-1-1s.448-1,1-1h.05Zm13.284,0c.552,0,1,.448,1,1s-.448,1-1,1h-.025c-.552,0-1-.448-1-1s.448-1,1-1h.025Z" fill="#edb034" fill-opacity="0.3"/><path d="M5.02539,191.336c.55207,0,1,.448,1,1s-.44793,1-1,1h-.02539c-.55228,0-1-.448-1-1s.44772-1,1-1h.02539Zm13.30861,0c.5523,0,1,.448,1,1s-.4477,1-1,1h-.0498c-.5521,0-1-.448-1-1s.4479-1,1-1h.0498Zm13.3096,0c.5522,0,1,.448,1,1s-.4478,1-1,1h-.0498c-.5522,0-1-.448-1-1s.4478-1,1-1h.0498Zm13.3095,0c.5523,0,1,.448,1,1s-.4477,1-1,1h-.0498c-.5521,0-1-.448-1-1s.4479-1,1-1h.0498Zm13.3096,0c.5523,0,1,.448,1,1s-.4477,1-1,1h-.0498c-.5522,0-1-.448-1-1s.4478-1,1-1h.0498Zm13.3096,0c.5523,0,1,.448,1,1s-.4477,1-1,1h-.0498c-.5522,0-1-.448-1-1s.4478-1,1-1h.0498Zm13.3095,0c.5523,0,1,.448,1,1s-.4477,1-1,1h-.0498c-.5522,0-1-.448-1-1s.4478-1,1-1h.0498Zm13.3096,0c.5523,0,1,.448,1,1s-.4477,1-1,1h-.0498c-.5522,0-1-.448-1-1s.4478-1,1-1h.0498Zm13.3096,0c.552,0,1,.448,1,1s-.448,1-1,1h-.05c-.552,0-1-.448-1-1s.448-1,1-1h.05Zm13.31,0c.552,0,1,.448,1,1s-.448,1-1,1h-.05c-.553,0-1-.448-1-1s.447-1,1-1h.05Zm13.309,0c.552,0,1,.448,1,1s-.448,1-1,1h-.05c-.552,0-1-.448-1-1s.448-1,1-1h.05Zm13.31,0c.552,0,1,.448,1,1s-.448,1-1,1h-.05c-.552,0-1-.448-1-1s.448-1,1-1h.05Zm13.309,0c.553,0,1,.448,1,1s-.447,1-1,1h-.05c-.552,0-1-.448-1-1s.448-1,1-1h.05Zm13.31,0c.552,0,1,.448,1,1s-.448,1-1,1h-.05c-.552,0-1-.448-1-1s.448-1,1-1h.05Zm13.309,0c.553,0,1,.448,1,1s-.447,1-1,1h-.049c-.553,0-1-.448-1-1s.447-1,1-1h.049Zm13.31,0c.552,0,1,.448,1,1s-.448,1-1,1h-.05c-.552,0-1-.448-1-1s.448-1,1-1h.05Zm13.31,0c.552,0,1,.448,1,1s-.448,1-1,1h-.05c-.553,0-1-.448-1-1s.447-1,1-1h.05Zm13.309,0c.552,0,1,.448,1,1s-.448,1-1,1h-.05c-.552,0-1-.448-1-1s.448-1,1-1h.05Zm13.31,0c.552,0,1,.448,1,1s-.448,1-1,1h-.05c-.552,0-1-.448-1-1s.448-1,1-1h.05Zm13.309,0c.552,0,1,.448,1,1s-.448,1-1,1h-.05c-.552,0-1-.448-1-1s.448-1,1-1h.05Zm13.31,0c.552,0,1,.448,1,1s-.448,1-1,1h-.05c-.552,0-1-.448-1-1s.448-1,1-1h.05Zm13.284,0c.552,0,1,.448,1,1s-.448,1-1,1h-.025c-.552,0-1-.448-1-1s.448-1,1-1h.025Z" fill="#edb034" fill-opacity="0.3"/><path d="M271.5,80h-27v-12.5h-26.5v12.25h-53.5v-12.5625h-26.5L138,92h-12.812v-12L98.5,80v12h-80h52.75M258,42.5h-26.5v12.5h-53.562v-24.5h-13.25v12h-39.688v24.75h-53.75v24.75m0,0L85,92v12.5h26.5v38.5h13.25v-26.25h26.75v-12.375h39.75v-12.375h13.438v12.5h53.312m-26.5,63v-24.5h-27v-26.5h-40v26.5h-27v25.5h-39.5L97.75,143h-26v-38.5h-13.5v-12.25" fill="none" stroke="#edb034" stroke-opacity="0.5" stroke-linecap="round" stroke-linejoin="round"/><path id="eLQIvBRGz3n20" d="M18.5,92h80v-12h26.688v12L138,92v-24.8125h26.5v12.5625h53.5v-12.25h26.5v12.5h27" fill="none" stroke="#edb034" stroke-linecap="round" stroke-linejoin="round" stroke-dashoffset="339.13" stroke-dasharray="339.13"/></g></svg>
